<?xml version="1.0" encoding="UTF-8" standalone="no"?>
<!-- Created with Inkscape (http://www.inkscape.org/) -->

<svg
   width="146.95078mm"
   height="42.177414mm"
   viewBox="0 0 146.95078 42.177414"
   version="1.1"
   id="svg8"
   xmlns="http://www.w3.org/2000/svg"
   xmlns:svg="http://www.w3.org/2000/svg"
   xmlns:rdf="http://www.w3.org/1999/02/22-rdf-syntax-ns#"
   xmlns:cc="http://creativecommons.org/ns#"
   xmlns:dc="http://purl.org/dc/elements/1.1/">
  <defs
     id="defs2" />
  <metadata
     id="metadata5">
    <rdf:RDF>
      <cc:Work
         rdf:about="">
        <dc:format>image/svg+xml</dc:format>
        <dc:type
           rdf:resource="http://purl.org/dc/dcmitype/StillImage" />
      </cc:Work>
    </rdf:RDF>
  </metadata>
  <g
     id="layer1"
     transform="translate(-25.582031,-19.09881)">
    <path
       id="path968"
       style="fill:#0065ac;fill-opacity:1;fill-rule:evenodd;stroke:none;stroke-width:0.0700042px;stroke-linecap:butt;stroke-linejoin:miter;stroke-opacity:1"
       d="m 43.508533,19.221628 -6.011207,3.470806 a 0.91643846,0.91643846 0.0011682 0 1 -0.916517,-1.8e-5 l -1.68115,-0.97077 a 0.9162711,0.9162711 179.99664 0 0 -0.916475,5.4e-5 l -2.745665,1.585897 a 0.91674198,0.91674198 119.99463 0 0 -0.458222,0.793836 v 1.939712 a 0.9167438,0.9167438 119.99458 0 1 -0.458222,0.793837 l -4.280822,2.472614 a 0.9167438,0.9167438 119.99458 0 0 -0.458222,0.793837 v 18.0569 2.115234 a 0.91692071,0.91692071 60.010206 0 0 0.458177,0.793914 l 0.915677,0.5291 a 2286.8691,2286.8691 30.007154 0 0 0.916477,0.529282 l 1.979885,1.142805 a 0.3055521,0.3055521 149.99695 0 0 0.4583,-0.264632 l 0,-1.402603 a 0.91721489,0.91721489 60.018162 0 0 -0.458104,-0.794041 l -1.681448,-0.972206 a 0.91721489,0.91721489 60.018162 0 1 -0.458104,-0.794041 v -17.70729 a 0.91688301,0.91688301 119.99081 0 1 0.458187,-0.793897 l 3.214485,-1.857259 a 0.91613021,0.91613021 179.99282 0 1 0.91644,-1.15e-4 l 1.68115,0.97077 a 0.91651552,0.91651552 0.00325425 0 0 0.916536,5.2e-5 l 2.747497,-1.586109 a 0.91649747,0.91649747 120.00125 0 0 0.458283,-0.79373 v -1.939712 a 0.91690648,0.91690648 119.99018 0 1 0.458181,-0.793907 l 4.944966,-2.857239 a 0.916451,0.916451 179.98286 0 1 0.91652,-2.74e-4 l 1.682931,0.971068 a 0.91673323,0.91673323 179.9905 0 0 0.916591,-1.52e-4 l 1.214356,-0.701233 a 0.30550399,0.30550399 89.994781 0 0 -4.8e-5,-0.529153 l -3.813869,-2.201399 a 0.91662478,0.91662478 179.99612 0 0 -0.916564,6.2e-5 z m -8.609052,4.961266 0.617053,0.356869 a 0.91733263,0.91733263 60.021345 0 1 0.458075,0.794092 v 0.70729 a 0.91733263,0.91733263 119.97865 0 1 -0.458075,0.794092 l -0.617053,0.356869 a 0.91496847,0.91496847 0 0 1 -0.91615,0 l -0.617053,-0.356869 a 0.91733263,0.91733263 60.021345 0 1 -0.458075,-0.794092 v -0.70729 a 0.91733263,0.91733263 119.97865 0 1 0.458075,-0.794092 l 0.617053,-0.356869 a 0.91496847,0.91496847 0 0 1 0.91615,0 z m 17.27115,0.03871 -17.470168,10.086081 a 0.91652881,0.91652881 120.0004 0 0 -0.458275,0.793744 v 5.939712 a 0.91721471,0.91721471 119.98184 0 1 -0.458104,0.794041 l -1.681449,0.972206 a 0.91721471,0.91721471 119.98184 0 0 -0.458104,0.794041 l 0,3.172134 a 0.91721471,0.91721471 60.018157 0 0 0.458104,0.794041 l 1.681449,0.972206 a 0.91721471,0.91721471 60.018157 0 1 0.458104,0.794041 v 5.939712 a 0.91692071,0.91692071 60.010206 0 0 0.458177,0.793914 l 0.915677,0.5291 a 2863.0058,2863.0058 30.009822 0 0 0.916452,0.529324 l 6.976028,4.027487 a 0.91689642,0.91689642 0.00878088 0 0 0.916631,1.4e-4 l 0.149694,-0.08636 a 0.91620508,0.91620508 120.00916 0 0 0.458356,-0.793604 l 0,-18.939712 A 0.91676162,0.91676162 119.9941 0 1 45.49142,40.54001 l 5.612863,-3.242129 A 0.30544185,0.30544185 29.994098 0 1 51.5625,37.56237 v 18.941666 a 0.30548758,0.30548758 29.997812 0 0 0.458252,0.264549 l 1.214355,-0.701233 a 0.91662439,0.91662439 119.99781 0 0 0.458252,-0.793785 V 35.103386 a 0.91765905,0.91765905 60.030168 0 0 -0.457993,-0.794233 l -0.15042,-0.08706 a 0.91537068,0.91537068 0.02855605 0 0 -0.91625,-4.57e-4 l -8.808095,5.086017 a 0.91660309,0.91660309 119.99839 0 0 -0.458257,0.793776 V 57.81263 a 0.30544185,0.30544185 150.0059 0 1 -0.458217,0.264489 L 36.831264,54.83499 a 0.91676162,0.91676162 60.005902 0 1 -0.458217,-0.793845 v -4.70729 a 0.91721489,0.91721489 119.98184 0 1 0.458104,-0.794041 l 1.681448,-0.972206 a 0.91721489,0.91721489 119.98184 0 0 0.458104,-0.794041 v -3.172134 a 0.91721489,0.91721489 60.018162 0 0 -0.458104,-0.794041 l -1.681448,-0.972206 a 0.91721489,0.91721489 60.018162 0 1 -0.458104,-0.794041 v -4.70729 a 0.9166131,0.9166131 119.99812 0 1 0.458254,-0.79378 L 54.301512,25.452113 a 0.30556457,0.30556457 90.0003 0 0 2e-6,-0.529231 l -1.214356,-0.701233 a 0.9164777,0.9164777 0.00258113 0 0 -0.916527,-4.1e-5 z m 6.062419,3.49986 -1.2161,0.701595 a 0.30552722,0.30552722 90.019381 0 0 -1.79e-4,0.529184 l 2.747708,1.587694 a 0.91692071,0.91692071 60.010206 0 1 0.458177,0.793914 v 5.70729 a 0.91721489,0.91721489 119.98184 0 1 -0.458104,0.794041 l -1.681448,0.972206 A 0.91721489,0.91721489 119.98184 0 0 57.625,39.601433 v 3.172134 a 0.91721489,0.91721489 60.018162 0 0 0.458104,0.794041 l 1.681448,0.972206 a 0.91721489,0.91721489 60.018162 0 1 0.458104,0.794041 l 0,3.70729 a 0.91721489,0.91721489 119.98184 0 1 -0.458104,0.794041 l -1.681448,0.972206 A 0.91721489,0.91721489 119.98184 0 0 57.625,51.601433 v 1.402603 a 0.30548884,0.30548884 29.997914 0 0 0.458253,0.26455 l 3.81201,-2.201235 a 0.91662061,0.91662061 119.99791 0 0 0.458253,-0.793784 v -4.939712 a 0.91721489,0.91721489 119.98184 0 1 0.458104,-0.794041 l 1.681448,-0.972206 a 0.91721489,0.91721489 119.98184 0 0 0.458104,-0.794041 V 39.601433 A 0.91721489,0.91721489 60.018162 0 0 64.493068,38.807392 L 62.81162,37.835186 a 0.91721489,0.91721489 60.018162 0 1 -0.458104,-0.794041 l 0,-6.939712 A 0.91674185,0.91674185 60.005367 0 0 61.895294,29.307597 L 59.149628,27.7217 a 0.91668426,0.91668426 0.01454155 0 0 -0.916578,-2.32e-4 z m 3.512134,11.961426 0.617053,0.356869 a 0.91733263,0.91733263 60.021345 0 1 0.458075,0.794092 l 0,0.70729 a 0.91733263,0.91733263 119.97865 0 1 -0.458075,0.794092 l -0.617053,0.356869 a 0.91438545,0.91438545 0.0158301 0 1 -0.916003,-2.53e-4 L 60.213787,42.33549 a 0.91791847,0.91791847 60.037176 0 1 -0.457928,-0.794345 v -0.70729 a 0.91791847,0.91791847 119.96282 0 1 0.457928,-0.794345 l 0.615394,-0.356363 a 0.91438545,0.91438545 179.98417 0 1 0.916003,-2.53e-4 z m -25.980468,4 0.617053,0.356869 a 0.91733263,0.91733263 60.021345 0 1 0.458075,0.794092 v 0.70729 a 0.91733263,0.91733263 119.97865 0 1 -0.458075,0.794092 l -0.617053,0.356869 a 0.91496847,0.91496847 180 0 1 -0.91615,0 l -0.617053,-0.356869 a 0.91733263,0.91733263 60.021345 0 1 -0.458075,-0.794092 v -0.70729 a 0.91733263,0.91733263 119.97865 0 1 0.458075,-0.794092 l 0.617053,-0.356869 a 0.91496847,0.91496847 0 0 1 0.91615,0 z" />
    <text
       id="text897"
       y="50.697128"
       x="81.267693"
       style="font-style:normal;font-variant:normal;font-weight:normal;font-stretch:normal;font-size:41.0089px;line-height:19.2229px;font-family:Lato;-inkscape-font-specification:Lato;letter-spacing:0px;word-spacing:0px;fill:#0065ac;fill-opacity:1;stroke:none;stroke-width:0.264583px;stroke-linecap:butt;stroke-linejoin:miter;stroke-opacity:1"
       xml:space="preserve"><tspan
         style="fill:#0065ac;fill-opacity:1;stroke-width:0.264583px"
         y="50.697128"
         x="81.267693"
         id="tspan895"><tspan
           style="font-style:normal;font-variant:normal;font-weight:bold;font-stretch:normal;font-family:Lato;-inkscape-font-specification:'Lato Bold';fill:#0065ac;fill-opacity:1;stroke-width:0.264583px"
           id="tspan891">sci</tspan><tspan
           id="tspan893"
           style="font-style:normal;font-variant:normal;font-weight:300;font-stretch:normal;font-family:Lato;-inkscape-font-specification:'Lato Light';fill:#0065ac;fill-opacity:1;stroke-width:0.264583px">|ine</tspan></tspan></text>
  </g>
</svg>
