<?xml version="1.0" encoding="UTF-8" standalone="no"?>
<!DOCTYPE svg PUBLIC "-//W3C//DTD SVG 1.1//EN"
 "http://www.w3.org/Graphics/SVG/1.1/DTD/svg11.dtd">
<!-- Generated by graphviz version 2.43.0 (0)
 -->
<!-- Title: %3 Pages: 1 -->
<svg width="974pt" height="46pt"
 viewBox="0.00 0.00 974.00 46.00" xmlns="http://www.w3.org/2000/svg" xmlns:xlink="http://www.w3.org/1999/xlink">
<g id="graph0" class="graph" transform="scale(1 1) rotate(0) translate(4 42)">
<title>%3</title>
<polygon fill="white" stroke="transparent" points="-4,4 -4,-42 970,-42 970,4 -4,4"/>
<!-- class &#39;str&#39; -->
<g id="node1" class="node">
<title>class &#39;str&#39;</title>
<polygon fill="none" stroke="black" points="393,-38 210,-38 210,0 393,0 393,-38"/>
<text text-anchor="middle" x="301.5" y="-22.8" font-family="Times,serif" font-size="14.00">&lt;class &#39;str&#39;&gt;</text>
<text text-anchor="middle" x="301.5" y="-7.8" font-family="Times,serif" font-size="14.00">provider=Provider(&#39;f1&#39;)</text>
</g>
<!-- class &#39;int&#39; -->
<g id="node3" class="node">
<title>class &#39;int&#39;</title>
<polygon fill="none" stroke="black" points="680,-38 497,-38 497,0 680,0 680,-38"/>
<text text-anchor="middle" x="588.5" y="-22.8" font-family="Times,serif" font-size="14.00">&lt;class &#39;int&#39;&gt;</text>
<text text-anchor="middle" x="588.5" y="-7.8" font-family="Times,serif" font-size="14.00">provider=Provider(&#39;f2&#39;)</text>
</g>
<!-- class &#39;str&#39;&#45;&gt;class &#39;int&#39; -->
<g id="edge1" class="edge">
<title>class &#39;str&#39;&#45;&gt;class &#39;int&#39;</title>
<path fill="none" stroke="black" d="M393.07,-19C422.79,-19 456.01,-19 486.47,-19"/>
<polygon fill="black" stroke="black" points="486.68,-22.5 496.68,-19 486.68,-15.5 486.68,-22.5"/>
<text text-anchor="start" x="411" y="-22.8" font-family="Times,serif" font-size="14.00">class &#39;str&#39;</text>
</g>
<!-- class &#39;float&#39; -->
<g id="node2" class="node">
<title>class &#39;float&#39;</title>
<polygon fill="none" stroke="black" points="95,-37 0,-37 0,-1 95,-1 95,-37"/>
<text text-anchor="start" x="8" y="-15.3" font-family="Times,serif" font-size="14.00">class &#39;float&#39;</text>
</g>
<!-- class &#39;float&#39;&#45;&gt;class &#39;str&#39; -->
<g id="edge2" class="edge">
<title>class &#39;float&#39;&#45;&gt;class &#39;str&#39;</title>
<path fill="none" stroke="black" d="M95.01,-19C124.39,-19 163.52,-19 199.74,-19"/>
<polygon fill="black" stroke="black" points="199.87,-22.5 209.87,-19 199.87,-15.5 199.87,-22.5"/>
<text text-anchor="start" x="113" y="-22.8" font-family="Times,serif" font-size="14.00">class &#39;float&#39;</text>
</g>
<!-- list[int] -->
<g id="node4" class="node">
<title>list[int]</title>
<polygon fill="none" stroke="black" points="966,-38 783,-38 783,0 966,0 966,-38"/>
<text text-anchor="middle" x="874.5" y="-22.8" font-family="Times,serif" font-size="14.00">list[int]</text>
<text text-anchor="middle" x="874.5" y="-7.8" font-family="Times,serif" font-size="14.00">provider=Provider(&#39;f3&#39;)</text>
</g>
<!-- class &#39;int&#39;&#45;&gt;list[int] -->
<g id="edge3" class="edge">
<title>class &#39;int&#39;&#45;&gt;list[int]</title>
<path fill="none" stroke="black" d="M680.14,-19C709.6,-19 742.47,-19 772.63,-19"/>
<polygon fill="black" stroke="black" points="772.75,-22.5 782.75,-19 772.75,-15.5 772.75,-22.5"/>
<text text-anchor="start" x="698" y="-22.8" font-family="Times,serif" font-size="14.00">class &#39;int&#39;</text>
</g>
</g>
</svg>
