<?xml version="1.0" encoding="UTF-8" standalone="no"?>
<!DOCTYPE svg PUBLIC "-//W3C//DTD SVG 1.1//EN"
 "http://www.w3.org/Graphics/SVG/1.1/DTD/svg11.dtd">
<!-- Generated by graphviz version 2.43.0 (0)
 -->
<!-- Title: %3 Pages: 1 -->
<svg width="1631pt" height="46pt"
 viewBox="0.00 0.00 1631.00 46.00" xmlns="http://www.w3.org/2000/svg" xmlns:xlink="http://www.w3.org/1999/xlink">
<g id="graph0" class="graph" transform="scale(1 1) rotate(0) translate(4 42)">
<title>%3</title>
<polygon fill="white" stroke="transparent" points="-4,4 -4,-42 1627,-42 1627,4 -4,4"/>
<!-- class &#39;str&#39; -->
<g id="node1" class="node">
<title>class &#39;str&#39;</title>
<polygon fill="none" stroke="black" points="1050,-37 966,-37 966,-1 1050,-1 1050,-37"/>
<text text-anchor="start" x="974" y="-15.3" font-family="Times,serif" font-size="14.00">class &#39;str&#39;</text>
</g>
<!-- class &#39;int&#39; -->
<g id="node2" class="node">
<title>class &#39;int&#39;</title>
<polygon fill="none" stroke="black" points="1337,-38 1154,-38 1154,0 1337,0 1337,-38"/>
<text text-anchor="middle" x="1245.5" y="-22.8" font-family="Times,serif" font-size="14.00">&lt;class &#39;int&#39;&gt;</text>
<text text-anchor="middle" x="1245.5" y="-7.8" font-family="Times,serif" font-size="14.00">provider=Provider(&#39;f2&#39;)</text>
</g>
<!-- class &#39;str&#39;&#45;&gt;class &#39;int&#39; -->
<g id="edge1" class="edge">
<title>class &#39;str&#39;&#45;&gt;class &#39;int&#39;</title>
<path fill="none" stroke="black" d="M1050.02,-19C1075.94,-19 1110.64,-19 1143.55,-19"/>
<polygon fill="black" stroke="black" points="1143.69,-22.5 1153.69,-19 1143.69,-15.5 1143.69,-22.5"/>
<text text-anchor="start" x="1068" y="-22.8" font-family="Times,serif" font-size="14.00">class &#39;str&#39;</text>
</g>
<!-- list[int] -->
<g id="node3" class="node">
<title>list[int]</title>
<polygon fill="none" stroke="black" points="1623,-38 1440,-38 1440,0 1623,0 1623,-38"/>
<text text-anchor="middle" x="1531.5" y="-22.8" font-family="Times,serif" font-size="14.00">list[int]</text>
<text text-anchor="middle" x="1531.5" y="-7.8" font-family="Times,serif" font-size="14.00">provider=Provider(&#39;f3&#39;)</text>
</g>
<!-- class &#39;int&#39;&#45;&gt;list[int] -->
<g id="edge2" class="edge">
<title>class &#39;int&#39;&#45;&gt;list[int]</title>
<path fill="none" stroke="black" d="M1337.14,-19C1366.6,-19 1399.47,-19 1429.63,-19"/>
<polygon fill="black" stroke="black" points="1429.75,-22.5 1439.75,-19 1429.75,-15.5 1429.75,-22.5"/>
<text text-anchor="start" x="1355" y="-22.8" font-family="Times,serif" font-size="14.00">class &#39;int&#39;</text>
</g>
<!-- MappedNode(name=&lt;class &#39;str&#39;&gt;, indices=(&#39;dim_0&#39;,)) -->
<g id="node4" class="node">
<title>MappedNode(name=&lt;class &#39;str&#39;&gt;, indices=(&#39;dim_0&#39;,))</title>
<polygon fill="none" stroke="black" points="929,-38 528,-38 528,0 929,0 929,-38"/>
<text text-anchor="middle" x="728.5" y="-22.8" font-family="Times,serif" font-size="14.00">MappedNode(name=&lt;class &#39;str&#39;&gt;, indices=(&#39;dim_0&#39;,))</text>
<text text-anchor="middle" x="728.5" y="-7.8" font-family="Times,serif" font-size="14.00">provider=Provider(&#39;f1&#39;)</text>
</g>
<!-- MappedNode(name=&lt;class &#39;str&#39;&gt;, indices=(&#39;dim_0&#39;,))&#45;&gt;class &#39;str&#39; -->
<g id="edge3" class="edge">
<title>MappedNode(name=&lt;class &#39;str&#39;&gt;, indices=(&#39;dim_0&#39;,))&#45;&gt;class &#39;str&#39;</title>
<path fill="none" stroke="black" d="M929.33,-19C938.75,-19 947.69,-19 955.93,-19"/>
<polygon fill="black" stroke="black" points="955.99,-22.5 965.99,-19 955.99,-15.5 955.99,-22.5"/>
</g>
<!-- MappedNode(name=&lt;class &#39;float&#39;&gt;, indices=(&#39;dim_0&#39;,)) -->
<g id="node5" class="node">
<title>MappedNode(name=&lt;class &#39;float&#39;&gt;, indices=(&#39;dim_0&#39;,))</title>
<polygon fill="none" stroke="black" points="413,-37 0,-37 0,-1 413,-1 413,-37"/>
<text text-anchor="middle" x="206.5" y="-15.3" font-family="Times,serif" font-size="14.00">MappedNode(name=&lt;class &#39;float&#39;&gt;, indices=(&#39;dim_0&#39;,))</text>
</g>
<!-- MappedNode(name=&lt;class &#39;float&#39;&gt;, indices=(&#39;dim_0&#39;,))&#45;&gt;MappedNode(name=&lt;class &#39;str&#39;&gt;, indices=(&#39;dim_0&#39;,)) -->
<g id="edge4" class="edge">
<title>MappedNode(name=&lt;class &#39;float&#39;&gt;, indices=(&#39;dim_0&#39;,))&#45;&gt;MappedNode(name=&lt;class &#39;str&#39;&gt;, indices=(&#39;dim_0&#39;,))</title>
<path fill="none" stroke="black" d="M413.02,-19C447.38,-19 483.08,-19 517.55,-19"/>
<polygon fill="black" stroke="black" points="517.72,-22.5 527.72,-19 517.72,-15.5 517.72,-22.5"/>
<text text-anchor="start" x="431" y="-22.8" font-family="Times,serif" font-size="14.00">class &#39;float&#39;</text>
</g>
</g>
</svg>
