<?xml version="1.0" encoding="UTF-8" standalone="no"?>
<!DOCTYPE svg PUBLIC "-//W3C//DTD SVG 1.1//EN"
 "http://www.w3.org/Graphics/SVG/1.1/DTD/svg11.dtd">
<!-- Generated by graphviz version 2.43.0 (0)
 -->
<!-- Title: %3 Pages: 1 -->
<svg width="775pt" height="100pt"
 viewBox="0.00 0.00 775.00 100.00" xmlns="http://www.w3.org/2000/svg" xmlns:xlink="http://www.w3.org/1999/xlink">
<g id="graph0" class="graph" transform="scale(1 1) rotate(0) translate(4 96)">
<title>%3</title>
<polygon fill="white" stroke="transparent" points="-4,4 -4,-96 771,-96 771,4 -4,4"/>
<!-- class &#39;float&#39; -->
<g id="node1" class="node">
<title>class &#39;float&#39;</title>
<polygon fill="none" stroke="black" points="183,-92 0,-92 0,-54 183,-54 183,-92"/>
<text text-anchor="middle" x="91.5" y="-76.8" font-family="Times,serif" font-size="14.00">&lt;class &#39;float&#39;&gt;</text>
<text text-anchor="middle" x="91.5" y="-61.8" font-family="Times,serif" font-size="14.00">provider=Provider(&#39;f1&#39;)</text>
</g>
<!-- class &#39;int&#39; -->
<g id="node3" class="node">
<title>class &#39;int&#39;</title>
<polygon fill="none" stroke="black" points="481,-64 298,-64 298,-26 481,-26 481,-64"/>
<text text-anchor="middle" x="389.5" y="-48.8" font-family="Times,serif" font-size="14.00">&lt;class &#39;int&#39;&gt;</text>
<text text-anchor="middle" x="389.5" y="-33.8" font-family="Times,serif" font-size="14.00">provider=Provider(&#39;f2&#39;)</text>
</g>
<!-- class &#39;float&#39;&#45;&gt;class &#39;int&#39; -->
<g id="edge1" class="edge">
<title>class &#39;float&#39;&#45;&gt;class &#39;int&#39;</title>
<path fill="none" stroke="black" d="M183.32,-64.41C216.28,-61.29 253.71,-57.75 287.49,-54.55"/>
<polygon fill="black" stroke="black" points="288.22,-58 297.85,-53.57 287.57,-51.03 288.22,-58"/>
<text text-anchor="start" x="201" y="-65.8" font-family="Times,serif" font-size="14.00">class &#39;float&#39;</text>
</g>
<!-- list[int] -->
<g id="node2" class="node">
<title>list[int]</title>
<polygon fill="none" stroke="black" points="767,-64 584,-64 584,-26 767,-26 767,-64"/>
<text text-anchor="middle" x="675.5" y="-48.8" font-family="Times,serif" font-size="14.00">list[int]</text>
<text text-anchor="middle" x="675.5" y="-33.8" font-family="Times,serif" font-size="14.00">provider=Provider(&#39;f3&#39;)</text>
</g>
<!-- class &#39;int&#39;&#45;&gt;list[int] -->
<g id="edge2" class="edge">
<title>class &#39;int&#39;&#45;&gt;list[int]</title>
<path fill="none" stroke="black" d="M481.14,-45C510.6,-45 543.47,-45 573.63,-45"/>
<polygon fill="black" stroke="black" points="573.75,-48.5 583.75,-45 573.75,-41.5 573.75,-48.5"/>
<text text-anchor="start" x="499" y="-48.8" font-family="Times,serif" font-size="14.00">class &#39;int&#39;</text>
</g>
<!-- class &#39;str&#39; -->
<g id="node4" class="node">
<title>class &#39;str&#39;</title>
<polygon fill="none" stroke="black" points="133.5,-36 49.5,-36 49.5,0 133.5,0 133.5,-36"/>
<text text-anchor="start" x="57.5" y="-14.3" font-family="Times,serif" font-size="14.00">class &#39;str&#39;</text>
</g>
<!-- class &#39;str&#39;&#45;&gt;class &#39;int&#39; -->
<g id="edge3" class="edge">
<title>class &#39;str&#39;&#45;&gt;class &#39;int&#39;</title>
<path fill="none" stroke="black" d="M133.66,-21.75C173.35,-25.38 235.01,-31 287.73,-35.81"/>
<polygon fill="black" stroke="black" points="287.53,-39.3 297.8,-36.73 288.16,-32.33 287.53,-39.3"/>
<text text-anchor="start" x="206.5" y="-37.8" font-family="Times,serif" font-size="14.00">class &#39;str&#39;</text>
</g>
</g>
</svg>
