<?xml version="1.0" encoding="UTF-8" standalone="no"?>
<!DOCTYPE svg PUBLIC "-//W3C//DTD SVG 1.1//EN"
 "http://www.w3.org/Graphics/SVG/1.1/DTD/svg11.dtd">
<!-- Generated by graphviz version 2.43.0 (0)
 -->
<!-- Title: %3 Pages: 1 -->
<svg width="527pt" height="98pt"
 viewBox="0.00 0.00 527.00 98.00" xmlns="http://www.w3.org/2000/svg" xmlns:xlink="http://www.w3.org/1999/xlink">
<g id="graph0" class="graph" transform="scale(1 1) rotate(0) translate(4 94)">
<title>%3</title>
<polygon fill="white" stroke="transparent" points="-4,4 -4,-94 523,-94 523,4 -4,4"/>
<!-- __main__.f1_float -->
<g id="node1" class="node">
<title>__main__.f1_float</title>
<ellipse fill="none" stroke="black" cx="27" cy="-72" rx="27" ry="18"/>
<text text-anchor="middle" x="27" y="-68.3" font-family="Times,serif" font-size="14.00">f1</text>
</g>
<!-- float -->
<g id="node2" class="node">
<title>float</title>
<polygon fill="none" stroke="black" points="144,-90 90,-90 90,-54 144,-54 144,-90"/>
<text text-anchor="middle" x="117" y="-68.3" font-family="Times,serif" font-size="14.00">float</text>
</g>
<!-- __main__.f1_float&#45;&gt;float -->
<g id="edge1" class="edge">
<title>__main__.f1_float&#45;&gt;float</title>
<path fill="none" stroke="black" d="M54.4,-72C62.39,-72 71.31,-72 79.82,-72"/>
<polygon fill="black" stroke="black" points="79.92,-75.5 89.92,-72 79.92,-68.5 79.92,-75.5"/>
</g>
<!-- __main__.f2_int -->
<g id="node3" class="node">
<title>__main__.f2_int</title>
<ellipse fill="none" stroke="black" cx="207" cy="-45" rx="27" ry="18"/>
<text text-anchor="middle" x="207" y="-41.3" font-family="Times,serif" font-size="14.00">f2</text>
</g>
<!-- float&#45;&gt;__main__.f2_int -->
<g id="edge2" class="edge">
<title>float&#45;&gt;__main__.f2_int</title>
<path fill="none" stroke="black" d="M144.4,-63.9C153.18,-61.21 163.07,-58.17 172.32,-55.33"/>
<polygon fill="black" stroke="black" points="173.48,-58.64 182.02,-52.36 171.43,-51.95 173.48,-58.64"/>
</g>
<!-- int -->
<g id="node5" class="node">
<title>int</title>
<polygon fill="none" stroke="black" points="324,-63 270,-63 270,-27 324,-27 324,-63"/>
<text text-anchor="middle" x="297" y="-41.3" font-family="Times,serif" font-size="14.00">int</text>
</g>
<!-- __main__.f2_int&#45;&gt;int -->
<g id="edge4" class="edge">
<title>__main__.f2_int&#45;&gt;int</title>
<path fill="none" stroke="black" d="M234.4,-45C242.39,-45 251.31,-45 259.82,-45"/>
<polygon fill="black" stroke="black" points="259.92,-48.5 269.92,-45 259.92,-41.5 259.92,-48.5"/>
</g>
<!-- str -->
<g id="node4" class="node">
<title>str</title>
<polygon fill="none" stroke="black" points="144,-36 90,-36 90,0 144,0 144,-36"/>
<text text-anchor="middle" x="117" y="-14.3" font-family="Times,serif" font-size="14.00">str</text>
</g>
<!-- str&#45;&gt;__main__.f2_int -->
<g id="edge3" class="edge">
<title>str&#45;&gt;__main__.f2_int</title>
<path fill="none" stroke="black" d="M144.4,-26.1C153.18,-28.79 163.07,-31.83 172.32,-34.67"/>
<polygon fill="black" stroke="black" points="171.43,-38.05 182.02,-37.64 173.48,-31.36 171.43,-38.05"/>
</g>
<!-- __main__.f3_list[int] -->
<g id="node6" class="node">
<title>__main__.f3_list[int]</title>
<ellipse fill="none" stroke="black" cx="387" cy="-45" rx="27" ry="18"/>
<text text-anchor="middle" x="387" y="-41.3" font-family="Times,serif" font-size="14.00">f3</text>
</g>
<!-- int&#45;&gt;__main__.f3_list[int] -->
<g id="edge5" class="edge">
<title>int&#45;&gt;__main__.f3_list[int]</title>
<path fill="none" stroke="black" d="M324.4,-45C332.39,-45 341.31,-45 349.82,-45"/>
<polygon fill="black" stroke="black" points="349.92,-48.5 359.92,-45 349.92,-41.5 349.92,-48.5"/>
</g>
<!-- list[int] -->
<g id="node7" class="node">
<title>list[int]</title>
<polygon fill="none" stroke="black" points="519,-63 450,-63 450,-27 519,-27 519,-63"/>
<text text-anchor="middle" x="484.5" y="-41.3" font-family="Times,serif" font-size="14.00">list[int]</text>
</g>
<!-- __main__.f3_list[int]&#45;&gt;list[int] -->
<g id="edge6" class="edge">
<title>__main__.f3_list[int]&#45;&gt;list[int]</title>
<path fill="none" stroke="black" d="M414.1,-45C422.03,-45 430.99,-45 439.76,-45"/>
<polygon fill="black" stroke="black" points="439.9,-48.5 449.9,-45 439.9,-41.5 439.9,-48.5"/>
</g>
</g>
</svg>
