<?xml version="1.0" encoding="UTF-8" standalone="no"?>
<!DOCTYPE svg PUBLIC "-//W3C//DTD SVG 1.1//EN"
 "http://www.w3.org/Graphics/SVG/1.1/DTD/svg11.dtd">
<!-- Generated by graphviz version 2.43.0 (0)
 -->
<!-- Title: %3 Pages: 1 -->
<svg width="796pt" height="102pt"
 viewBox="0.00 0.00 796.00 102.00" xmlns="http://www.w3.org/2000/svg" xmlns:xlink="http://www.w3.org/1999/xlink">
<g id="graph0" class="graph" transform="scale(1 1) rotate(0) translate(4 98)">
<title>%3</title>
<polygon fill="white" stroke="transparent" points="-4,4 -4,-98 792,-98 792,4 -4,4"/>
<!-- list[float] -->
<g id="node1" class="node">
<title>list[float]</title>
<polygon fill="none" stroke="black" points="446,-38 210,-38 210,0 446,0 446,-38"/>
<text text-anchor="middle" x="328" y="-22.8" font-family="Times,serif" font-size="14.00">list[float]</text>
<text text-anchor="middle" x="328" y="-7.8" font-family="Times,serif" font-size="14.00">provider=Provider(&#39;make_list&#39;)</text>
</g>
<!-- dict[int, float] -->
<g id="node5" class="node">
<title>dict[int, float]</title>
<polygon fill="none" stroke="black" points="788,-66 547,-66 547,-28 788,-28 788,-66"/>
<text text-anchor="middle" x="667.5" y="-50.8" font-family="Times,serif" font-size="14.00">dict[int, float]</text>
<text text-anchor="middle" x="667.5" y="-35.8" font-family="Times,serif" font-size="14.00">provider=Provider(&#39;make_dict&#39;)</text>
</g>
<!-- list[float]&#45;&gt;dict[int, float] -->
<g id="edge1" class="edge">
<title>list[float]&#45;&gt;dict[int, float]</title>
<path fill="none" stroke="black" d="M446.17,-26.58C473.38,-28.51 502.21,-30.7 529,-33 531.56,-33.22 534.15,-33.45 536.76,-33.68"/>
<polygon fill="black" stroke="black" points="536.63,-37.18 546.91,-34.59 537.26,-30.21 536.63,-37.18"/>
<text text-anchor="middle" x="496.5" y="-36.8" font-family="Times,serif" font-size="14.00">list[float]</text>
</g>
<!-- class &#39;float&#39; -->
<g id="node2" class="node">
<title>class &#39;float&#39;</title>
<polygon fill="none" stroke="black" points="95,-37 0,-37 0,-1 95,-1 95,-37"/>
<text text-anchor="start" x="8" y="-15.3" font-family="Times,serif" font-size="14.00">class &#39;float&#39;</text>
</g>
<!-- class &#39;float&#39;&#45;&gt;list[float] -->
<g id="edge2" class="edge">
<title>class &#39;float&#39;&#45;&gt;list[float]</title>
<path fill="none" stroke="black" d="M95.11,-19C123.85,-19 162.21,-19 199.45,-19"/>
<polygon fill="black" stroke="black" points="199.91,-22.5 209.91,-19 199.91,-15.5 199.91,-22.5"/>
<text text-anchor="start" x="113" y="-22.8" font-family="Times,serif" font-size="14.00">class &#39;float&#39;</text>
</g>
<!-- list[int] -->
<g id="node3" class="node">
<title>list[int]</title>
<polygon fill="none" stroke="black" points="446,-94 210,-94 210,-56 446,-56 446,-94"/>
<text text-anchor="middle" x="328" y="-78.8" font-family="Times,serif" font-size="14.00">list[int]</text>
<text text-anchor="middle" x="328" y="-63.8" font-family="Times,serif" font-size="14.00">provider=Provider(&#39;make_list&#39;)</text>
</g>
<!-- list[int]&#45;&gt;dict[int, float] -->
<g id="edge3" class="edge">
<title>list[int]&#45;&gt;dict[int, float]</title>
<path fill="none" stroke="black" d="M446.09,-65.29C475.34,-62.86 506.88,-60.24 536.71,-57.77"/>
<polygon fill="black" stroke="black" points="537.07,-61.25 546.75,-56.93 536.5,-54.27 537.07,-61.25"/>
<text text-anchor="middle" x="496.5" y="-66.8" font-family="Times,serif" font-size="14.00">list[int]</text>
</g>
<!-- class &#39;int&#39; -->
<g id="node4" class="node">
<title>class &#39;int&#39;</title>
<polygon fill="none" stroke="black" points="89,-93 6,-93 6,-57 89,-57 89,-93"/>
<text text-anchor="start" x="14" y="-71.3" font-family="Times,serif" font-size="14.00">class &#39;int&#39;</text>
</g>
<!-- class &#39;int&#39;&#45;&gt;list[int] -->
<g id="edge4" class="edge">
<title>class &#39;int&#39;&#45;&gt;list[int]</title>
<path fill="none" stroke="black" d="M89.29,-75C118.61,-75 159.85,-75 199.77,-75"/>
<polygon fill="black" stroke="black" points="199.88,-78.5 209.88,-75 199.88,-71.5 199.88,-78.5"/>
<text text-anchor="start" x="119" y="-78.8" font-family="Times,serif" font-size="14.00">class &#39;int&#39;</text>
</g>
</g>
</svg>
