<?xml version="1.0" encoding="UTF-8" standalone="no"?>
<!DOCTYPE svg PUBLIC "-//W3C//DTD SVG 1.1//EN"
 "http://www.w3.org/Graphics/SVG/1.1/DTD/svg11.dtd">
<!-- Generated by graphviz version 2.43.0 (0)
 -->
<!-- Title: %3 Pages: 1 -->
<svg width="1024pt" height="152pt"
 viewBox="0.00 0.00 1023.99 152.00" xmlns="http://www.w3.org/2000/svg" xmlns:xlink="http://www.w3.org/1999/xlink">
<g id="graph0" class="graph" transform="scale(1 1) rotate(0) translate(4 148)">
<title>%3</title>
<polygon fill="white" stroke="transparent" points="-4,4 -4,-148 1019.99,-148 1019.99,4 -4,4"/>
<!-- float(dim_0=0) -->
<g id="node1" class="node">
<title>float(dim_0=0)</title>
<polygon fill="none" stroke="black" points="122,-144 0,-144 0,-108 122,-108 122,-144"/>
<text text-anchor="middle" x="61" y="-122.3" font-family="Times,serif" font-size="14.00">float(dim_0=0)</text>
</g>
<!-- __main__.f1_str(dim_0=0) -->
<g id="node13" class="node">
<title>__main__.f1_str(dim_0=0)</title>
<ellipse fill="none" stroke="black" cx="185" cy="-126" rx="27" ry="18"/>
<text text-anchor="middle" x="185" y="-122.3" font-family="Times,serif" font-size="14.00">f1</text>
</g>
<!-- float(dim_0=0)&#45;&gt;__main__.f1_str(dim_0=0) -->
<g id="edge9" class="edge">
<title>float(dim_0=0)&#45;&gt;__main__.f1_str(dim_0=0)</title>
<path fill="none" stroke="black" d="M122.29,-126C130.97,-126 139.67,-126 147.69,-126"/>
<polygon fill="black" stroke="black" points="147.77,-129.5 157.77,-126 147.77,-122.5 147.77,-129.5"/>
</g>
<!-- float(dim_0=1) -->
<g id="node2" class="node">
<title>float(dim_0=1)</title>
<polygon fill="none" stroke="black" points="122,-90 0,-90 0,-54 122,-54 122,-90"/>
<text text-anchor="middle" x="61" y="-68.3" font-family="Times,serif" font-size="14.00">float(dim_0=1)</text>
</g>
<!-- __main__.f1_str(dim_0=1) -->
<g id="node14" class="node">
<title>__main__.f1_str(dim_0=1)</title>
<ellipse fill="none" stroke="black" cx="185" cy="-72" rx="27" ry="18"/>
<text text-anchor="middle" x="185" y="-68.3" font-family="Times,serif" font-size="14.00">f1</text>
</g>
<!-- float(dim_0=1)&#45;&gt;__main__.f1_str(dim_0=1) -->
<g id="edge11" class="edge">
<title>float(dim_0=1)&#45;&gt;__main__.f1_str(dim_0=1)</title>
<path fill="none" stroke="black" d="M122.29,-72C130.97,-72 139.67,-72 147.69,-72"/>
<polygon fill="black" stroke="black" points="147.77,-75.5 157.77,-72 147.77,-68.5 147.77,-75.5"/>
</g>
<!-- float(dim_0=2) -->
<g id="node3" class="node">
<title>float(dim_0=2)</title>
<polygon fill="none" stroke="black" points="122,-36 0,-36 0,0 122,0 122,-36"/>
<text text-anchor="middle" x="61" y="-14.3" font-family="Times,serif" font-size="14.00">float(dim_0=2)</text>
</g>
<!-- __main__.f1_str(dim_0=2) -->
<g id="node15" class="node">
<title>__main__.f1_str(dim_0=2)</title>
<ellipse fill="none" stroke="black" cx="185" cy="-18" rx="27" ry="18"/>
<text text-anchor="middle" x="185" y="-14.3" font-family="Times,serif" font-size="14.00">f1</text>
</g>
<!-- float(dim_0=2)&#45;&gt;__main__.f1_str(dim_0=2) -->
<g id="edge13" class="edge">
<title>float(dim_0=2)&#45;&gt;__main__.f1_str(dim_0=2)</title>
<path fill="none" stroke="black" d="M122.29,-18C130.97,-18 139.67,-18 147.69,-18"/>
<polygon fill="black" stroke="black" points="147.77,-21.5 157.77,-18 147.77,-14.5 147.77,-21.5"/>
</g>
<!-- __main__.f2_int -->
<g id="node4" class="node">
<title>__main__.f2_int</title>
<ellipse fill="none" stroke="black" cx="703.99" cy="-72" rx="27" ry="18"/>
<text text-anchor="middle" x="703.99" y="-68.3" font-family="Times,serif" font-size="14.00">f2</text>
</g>
<!-- int -->
<g id="node6" class="node">
<title>int</title>
<polygon fill="none" stroke="black" points="820.99,-90 766.99,-90 766.99,-54 820.99,-54 820.99,-90"/>
<text text-anchor="middle" x="793.99" y="-68.3" font-family="Times,serif" font-size="14.00">int</text>
</g>
<!-- __main__.f2_int&#45;&gt;int -->
<g id="edge2" class="edge">
<title>__main__.f2_int&#45;&gt;int</title>
<path fill="none" stroke="black" d="M731.39,-72C739.38,-72 748.3,-72 756.81,-72"/>
<polygon fill="black" stroke="black" points="756.91,-75.5 766.91,-72 756.91,-68.5 756.91,-75.5"/>
</g>
<!-- str -->
<g id="node5" class="node">
<title>str</title>
<polygon fill="none" stroke="black" points="640.99,-90 586.99,-90 586.99,-54 640.99,-54 640.99,-90"/>
<text text-anchor="middle" x="613.99" y="-68.3" font-family="Times,serif" font-size="14.00">str</text>
</g>
<!-- str&#45;&gt;__main__.f2_int -->
<g id="edge1" class="edge">
<title>str&#45;&gt;__main__.f2_int</title>
<path fill="none" stroke="black" d="M641.39,-72C649.38,-72 658.3,-72 666.81,-72"/>
<polygon fill="black" stroke="black" points="666.91,-75.5 676.91,-72 666.91,-68.5 666.91,-75.5"/>
</g>
<!-- __main__.f3_list[int] -->
<g id="node7" class="node">
<title>__main__.f3_list[int]</title>
<ellipse fill="none" stroke="black" cx="883.99" cy="-72" rx="27" ry="18"/>
<text text-anchor="middle" x="883.99" y="-68.3" font-family="Times,serif" font-size="14.00">f3</text>
</g>
<!-- int&#45;&gt;__main__.f3_list[int] -->
<g id="edge3" class="edge">
<title>int&#45;&gt;__main__.f3_list[int]</title>
<path fill="none" stroke="black" d="M821.39,-72C829.38,-72 838.3,-72 846.81,-72"/>
<polygon fill="black" stroke="black" points="846.91,-75.5 856.91,-72 846.91,-68.5 846.91,-75.5"/>
</g>
<!-- list[int] -->
<g id="node8" class="node">
<title>list[int]</title>
<polygon fill="none" stroke="black" points="1015.99,-90 946.99,-90 946.99,-54 1015.99,-54 1015.99,-90"/>
<text text-anchor="middle" x="981.49" y="-68.3" font-family="Times,serif" font-size="14.00">list[int]</text>
</g>
<!-- __main__.f3_list[int]&#45;&gt;list[int] -->
<g id="edge4" class="edge">
<title>__main__.f3_list[int]&#45;&gt;list[int]</title>
<path fill="none" stroke="black" d="M911.08,-72C919.02,-72 927.97,-72 936.74,-72"/>
<polygon fill="black" stroke="black" points="936.88,-75.5 946.88,-72 936.88,-68.5 936.88,-75.5"/>
</g>
<!-- __main__.concat_strings_str -->
<g id="node9" class="node">
<title>__main__.concat_strings_str</title>
<ellipse fill="none" stroke="black" cx="472.99" cy="-72" rx="77.99" ry="18"/>
<text text-anchor="middle" x="472.99" y="-68.3" font-family="Times,serif" font-size="14.00">concat_strings</text>
</g>
<!-- __main__.concat_strings_str&#45;&gt;str -->
<g id="edge8" class="edge">
<title>__main__.concat_strings_str&#45;&gt;str</title>
<path fill="none" stroke="black" d="M551.21,-72C560.16,-72 568.94,-72 576.94,-72"/>
<polygon fill="black" stroke="black" points="576.96,-75.5 586.96,-72 576.96,-68.5 576.96,-75.5"/>
</g>
<!-- str(dim_0=0) -->
<g id="node10" class="node">
<title>str(dim_0=0)</title>
<polygon fill="none" stroke="black" points="359,-144 248,-144 248,-108 359,-108 359,-144"/>
<text text-anchor="middle" x="303.5" y="-122.3" font-family="Times,serif" font-size="14.00">str(dim_0=0)</text>
</g>
<!-- str(dim_0=0)&#45;&gt;__main__.concat_strings_str -->
<g id="edge5" class="edge">
<title>str(dim_0=0)&#45;&gt;__main__.concat_strings_str</title>
<path fill="none" stroke="black" d="M359.34,-108.32C377.86,-102.35 398.53,-95.68 417.06,-89.71"/>
<polygon fill="black" stroke="black" points="418.37,-92.97 426.82,-86.57 416.22,-86.3 418.37,-92.97"/>
</g>
<!-- str(dim_0=1) -->
<g id="node11" class="node">
<title>str(dim_0=1)</title>
<polygon fill="none" stroke="black" points="359,-90 248,-90 248,-54 359,-54 359,-90"/>
<text text-anchor="middle" x="303.5" y="-68.3" font-family="Times,serif" font-size="14.00">str(dim_0=1)</text>
</g>
<!-- str(dim_0=1)&#45;&gt;__main__.concat_strings_str -->
<g id="edge6" class="edge">
<title>str(dim_0=1)&#45;&gt;__main__.concat_strings_str</title>
<path fill="none" stroke="black" d="M359.34,-72C367.5,-72 376.08,-72 384.71,-72"/>
<polygon fill="black" stroke="black" points="384.84,-75.5 394.84,-72 384.84,-68.5 384.84,-75.5"/>
</g>
<!-- str(dim_0=2) -->
<g id="node12" class="node">
<title>str(dim_0=2)</title>
<polygon fill="none" stroke="black" points="359,-36 248,-36 248,0 359,0 359,-36"/>
<text text-anchor="middle" x="303.5" y="-14.3" font-family="Times,serif" font-size="14.00">str(dim_0=2)</text>
</g>
<!-- str(dim_0=2)&#45;&gt;__main__.concat_strings_str -->
<g id="edge7" class="edge">
<title>str(dim_0=2)&#45;&gt;__main__.concat_strings_str</title>
<path fill="none" stroke="black" d="M359.34,-35.68C377.86,-41.65 398.53,-48.32 417.06,-54.29"/>
<polygon fill="black" stroke="black" points="416.22,-57.7 426.82,-57.43 418.37,-51.03 416.22,-57.7"/>
</g>
<!-- __main__.f1_str(dim_0=0)&#45;&gt;str(dim_0=0) -->
<g id="edge10" class="edge">
<title>__main__.f1_str(dim_0=0)&#45;&gt;str(dim_0=0)</title>
<path fill="none" stroke="black" d="M212.14,-126C219.85,-126 228.64,-126 237.64,-126"/>
<polygon fill="black" stroke="black" points="237.85,-129.5 247.85,-126 237.85,-122.5 237.85,-129.5"/>
</g>
<!-- __main__.f1_str(dim_0=1)&#45;&gt;str(dim_0=1) -->
<g id="edge12" class="edge">
<title>__main__.f1_str(dim_0=1)&#45;&gt;str(dim_0=1)</title>
<path fill="none" stroke="black" d="M212.14,-72C219.85,-72 228.64,-72 237.64,-72"/>
<polygon fill="black" stroke="black" points="237.85,-75.5 247.85,-72 237.85,-68.5 237.85,-75.5"/>
</g>
<!-- __main__.f1_str(dim_0=2)&#45;&gt;str(dim_0=2) -->
<g id="edge14" class="edge">
<title>__main__.f1_str(dim_0=2)&#45;&gt;str(dim_0=2)</title>
<path fill="none" stroke="black" d="M212.14,-18C219.85,-18 228.64,-18 237.64,-18"/>
<polygon fill="black" stroke="black" points="237.85,-21.5 247.85,-18 237.85,-14.5 237.85,-21.5"/>
</g>
</g>
</svg>
