<?xml version="1.0" encoding="UTF-8" standalone="no"?>
<!DOCTYPE svg PUBLIC "-//W3C//DTD SVG 1.1//EN"
 "http://www.w3.org/Graphics/SVG/1.1/DTD/svg11.dtd">
<!-- Generated by graphviz version 2.43.0 (0)
 -->
<!-- Title: %3 Pages: 1 -->
<svg width="765pt" height="115pt"
 viewBox="0.00 0.00 765.00 115.00" xmlns="http://www.w3.org/2000/svg" xmlns:xlink="http://www.w3.org/1999/xlink">
<g id="graph0" class="graph" transform="scale(1 1) rotate(0) translate(4 111)">
<title>%3</title>
<polygon fill="white" stroke="transparent" points="-4,4 -4,-111 761,-111 761,4 -4,4"/>
<!-- float(dim_0=0) -->
<g id="node1" class="node">
<title>float(dim_0=0)</title>
<polygon fill="none" stroke="black" points="122,-102 0,-102 0,-79 122,-79 122,-102"/>
<text text-anchor="middle" x="61" y="-86.8" font-family="Times,serif" font-size="14.00">float(dim_0=0)</text>
</g>
<!-- str(dim_0=0) -->
<g id="node7" class="node">
<title>str(dim_0=0)</title>
<polygon fill="none" stroke="black" points="305,-107 194,-107 194,-74 305,-74 305,-107"/>
<text text-anchor="start" x="202" y="-92.8" font-family="Times,serif" font-size="14.00">str(dim_0=0)</text>
<text text-anchor="start" x="233.5" y="-81.2" font-family="Times,serif" font-size="11.00">via:</text>
<text text-anchor="start" x="254.5" y="-81.2" font-family="Times,serif" font-style="italic" font-size="11.00">f1</text>
</g>
<!-- float(dim_0=0)&#45;&gt;str(dim_0=0) -->
<g id="edge6" class="edge">
<title>float(dim_0=0):e&#45;&gt;str(dim_0=0):w</title>
<path fill="none" stroke="black" d="M122,-90.5C150.38,-90.5 159.88,-90.5 183.98,-90.5"/>
<polygon fill="black" stroke="black" points="184,-94 194,-90.5 184,-87 184,-94"/>
</g>
<!-- float(dim_0=1) -->
<g id="node2" class="node">
<title>float(dim_0=1)</title>
<polygon fill="none" stroke="black" points="122,-65 0,-65 0,-42 122,-42 122,-65"/>
<text text-anchor="middle" x="61" y="-49.8" font-family="Times,serif" font-size="14.00">float(dim_0=1)</text>
</g>
<!-- str(dim_0=1) -->
<g id="node8" class="node">
<title>str(dim_0=1)</title>
<polygon fill="none" stroke="black" points="305,-70 194,-70 194,-37 305,-37 305,-70"/>
<text text-anchor="start" x="202" y="-55.8" font-family="Times,serif" font-size="14.00">str(dim_0=1)</text>
<text text-anchor="start" x="233.5" y="-44.2" font-family="Times,serif" font-size="11.00">via:</text>
<text text-anchor="start" x="254.5" y="-44.2" font-family="Times,serif" font-style="italic" font-size="11.00">f1</text>
</g>
<!-- float(dim_0=1)&#45;&gt;str(dim_0=1) -->
<g id="edge7" class="edge">
<title>float(dim_0=1):e&#45;&gt;str(dim_0=1):w</title>
<path fill="none" stroke="black" d="M122,-53.5C150.38,-53.5 159.88,-53.5 183.98,-53.5"/>
<polygon fill="black" stroke="black" points="184,-57 194,-53.5 184,-50 184,-57"/>
</g>
<!-- float(dim_0=2) -->
<g id="node3" class="node">
<title>float(dim_0=2)</title>
<polygon fill="none" stroke="black" points="122,-28 0,-28 0,-5 122,-5 122,-28"/>
<text text-anchor="middle" x="61" y="-12.8" font-family="Times,serif" font-size="14.00">float(dim_0=2)</text>
</g>
<!-- str(dim_0=2) -->
<g id="node9" class="node">
<title>str(dim_0=2)</title>
<polygon fill="none" stroke="black" points="305,-33 194,-33 194,0 305,0 305,-33"/>
<text text-anchor="start" x="202" y="-18.8" font-family="Times,serif" font-size="14.00">str(dim_0=2)</text>
<text text-anchor="start" x="233.5" y="-7.2" font-family="Times,serif" font-size="11.00">via:</text>
<text text-anchor="start" x="254.5" y="-7.2" font-family="Times,serif" font-style="italic" font-size="11.00">f1</text>
</g>
<!-- float(dim_0=2)&#45;&gt;str(dim_0=2) -->
<g id="edge8" class="edge">
<title>float(dim_0=2):e&#45;&gt;str(dim_0=2):w</title>
<path fill="none" stroke="black" d="M122,-16.5C150.38,-16.5 159.88,-16.5 183.98,-16.5"/>
<polygon fill="black" stroke="black" points="184,-20 194,-16.5 184,-13 184,-20"/>
</g>
<!-- str -->
<g id="node4" class="node">
<title>str</title>
<polygon fill="none" stroke="black" points="496,-70 377,-70 377,-37 496,-37 496,-70"/>
<text text-anchor="start" x="426" y="-55.8" font-family="Times,serif" font-size="14.00">str</text>
<text text-anchor="start" x="385" y="-44.2" font-family="Times,serif" font-size="11.00">via:</text>
<text text-anchor="start" x="406" y="-44.2" font-family="Times,serif" font-style="italic" font-size="11.00">concat_strings</text>
</g>
<!-- int -->
<g id="node5" class="node">
<title>int</title>
<polygon fill="none" stroke="black" points="616,-70 568,-70 568,-37 616,-37 616,-70"/>
<text text-anchor="start" x="582" y="-55.8" font-family="Times,serif" font-size="14.00">int</text>
<text text-anchor="start" x="576" y="-44.2" font-family="Times,serif" font-size="11.00">via:</text>
<text text-anchor="start" x="597" y="-44.2" font-family="Times,serif" font-style="italic" font-size="11.00">f2</text>
</g>
<!-- str&#45;&gt;int -->
<g id="edge1" class="edge">
<title>str:e&#45;&gt;int:w</title>
<path fill="none" stroke="black" d="M496,-53.5C524.38,-53.5 533.88,-53.5 557.98,-53.5"/>
<polygon fill="black" stroke="black" points="558,-57 568,-53.5 558,-50 558,-57"/>
</g>
<!-- list[int] -->
<g id="node6" class="node">
<title>list[int]</title>
<polygon fill="none" stroke="black" points="757,-70 688,-70 688,-37 757,-37 757,-70"/>
<text text-anchor="start" x="696" y="-55.8" font-family="Times,serif" font-size="14.00">list[int]</text>
<text text-anchor="start" x="706.5" y="-44.2" font-family="Times,serif" font-size="11.00">via:</text>
<text text-anchor="start" x="727.5" y="-44.2" font-family="Times,serif" font-style="italic" font-size="11.00">f3</text>
</g>
<!-- int&#45;&gt;list[int] -->
<g id="edge2" class="edge">
<title>int:e&#45;&gt;list[int]:w</title>
<path fill="none" stroke="black" d="M616,-53.5C644.38,-53.5 653.88,-53.5 677.98,-53.5"/>
<polygon fill="black" stroke="black" points="678,-57 688,-53.5 678,-50 678,-57"/>
</g>
<!-- str(dim_0=0)&#45;&gt;str -->
<g id="edge3" class="edge">
<title>str(dim_0=0):e&#45;&gt;str:w</title>
<path fill="none" stroke="black" d="M305,-90.5C337.18,-90.5 340.61,-60.89 366.73,-54.65"/>
<polygon fill="black" stroke="black" points="367.45,-58.09 377,-53.5 366.67,-51.13 367.45,-58.09"/>
</g>
<!-- str(dim_0=1)&#45;&gt;str -->
<g id="edge4" class="edge">
<title>str(dim_0=1):e&#45;&gt;str:w</title>
<path fill="none" stroke="black" d="M305,-53.5C333.38,-53.5 342.88,-53.5 366.98,-53.5"/>
<polygon fill="black" stroke="black" points="367,-57 377,-53.5 367,-50 367,-57"/>
</g>
<!-- str(dim_0=2)&#45;&gt;str -->
<g id="edge5" class="edge">
<title>str(dim_0=2):e&#45;&gt;str:w</title>
<path fill="none" stroke="black" d="M305,-16.5C337.18,-16.5 340.61,-46.11 366.73,-52.35"/>
<polygon fill="black" stroke="black" points="366.67,-55.87 377,-53.5 367.45,-48.91 366.67,-55.87"/>
</g>
</g>
</svg>
