<?xml version="1.0" encoding="UTF-8" standalone="no"?>
<!DOCTYPE svg PUBLIC "-//W3C//DTD SVG 1.1//EN"
 "http://www.w3.org/Graphics/SVG/1.1/DTD/svg11.dtd">
<!-- Generated by graphviz version 2.43.0 (0)
 -->
<!-- Title: %3 Pages: 1 -->
<svg width="317pt" height="68pt"
 viewBox="0.00 0.00 317.00 68.00" xmlns="http://www.w3.org/2000/svg" xmlns:xlink="http://www.w3.org/1999/xlink">
<g id="graph0" class="graph" transform="scale(1 1) rotate(0) translate(4 64)">
<title>%3</title>
<polygon fill="white" stroke="transparent" points="-4,4 -4,-64 313,-64 313,4 -4,4"/>
<!-- float -->
<g id="node1" class="node">
<title>float</title>
<polygon fill="none" stroke="black" points="48,-60 0,-60 0,-27 48,-27 48,-60"/>
<text text-anchor="start" x="8" y="-45.8" font-family="Times,serif" font-size="14.00">float</text>
<text text-anchor="start" x="8" y="-34.2" font-family="Times,serif" font-size="11.00">via:</text>
<text text-anchor="start" x="29" y="-34.2" font-family="Times,serif" font-style="italic" font-size="11.00">f1</text>
</g>
<!-- int -->
<g id="node2" class="node">
<title>int</title>
<polygon fill="none" stroke="black" points="168,-44 120,-44 120,-11 168,-11 168,-44"/>
<text text-anchor="start" x="134" y="-29.8" font-family="Times,serif" font-size="14.00">int</text>
<text text-anchor="start" x="128" y="-18.2" font-family="Times,serif" font-size="11.00">via:</text>
<text text-anchor="start" x="149" y="-18.2" font-family="Times,serif" font-style="italic" font-size="11.00">f2</text>
</g>
<!-- float&#45;&gt;int -->
<g id="edge1" class="edge">
<title>float:e&#45;&gt;int:w</title>
<path fill="none" stroke="black" d="M48,-43.5C77.07,-43.5 85.42,-30.92 109.8,-28.07"/>
<polygon fill="black" stroke="black" points="110.21,-31.55 120,-27.5 109.82,-24.56 110.21,-31.55"/>
</g>
<!-- list[int] -->
<g id="node4" class="node">
<title>list[int]</title>
<polygon fill="none" stroke="black" points="309,-44 240,-44 240,-11 309,-11 309,-44"/>
<text text-anchor="start" x="248" y="-29.8" font-family="Times,serif" font-size="14.00">list[int]</text>
<text text-anchor="start" x="258.5" y="-18.2" font-family="Times,serif" font-size="11.00">via:</text>
<text text-anchor="start" x="279.5" y="-18.2" font-family="Times,serif" font-style="italic" font-size="11.00">f3</text>
</g>
<!-- int&#45;&gt;list[int] -->
<g id="edge3" class="edge">
<title>int:e&#45;&gt;list[int]:w</title>
<path fill="none" stroke="black" d="M168,-27.5C196.38,-27.5 205.88,-27.5 229.98,-27.5"/>
<polygon fill="black" stroke="black" points="230,-31 240,-27.5 230,-24 230,-31"/>
</g>
<!-- str -->
<g id="node3" class="node">
<title>str</title>
<polygon fill="none" stroke="black" points="42.5,-23 5.5,-23 5.5,0 42.5,0 42.5,-23"/>
<text text-anchor="middle" x="24" y="-7.8" font-family="Times,serif" font-size="14.00">str</text>
</g>
<!-- str&#45;&gt;int -->
<g id="edge2" class="edge">
<title>str:e&#45;&gt;int:w</title>
<path fill="none" stroke="black" d="M44,-11.5C74.88,-11.5 83.71,-24.3 109.93,-27"/>
<polygon fill="black" stroke="black" points="109.84,-30.5 120,-27.5 110.18,-23.51 109.84,-30.5"/>
</g>
</g>
</svg>
