<?xml version="1.0" encoding="UTF-8" standalone="no"?>
<!DOCTYPE svg PUBLIC "-//W3C//DTD SVG 1.1//EN"
 "http://www.w3.org/Graphics/SVG/1.1/DTD/svg11.dtd">
<!-- Generated by graphviz version 2.43.0 (0)
 -->
<!-- Title: %3 Pages: 1 -->
<svg width="184pt" height="238pt"
 viewBox="0.00 0.00 184.00 238.00" xmlns="http://www.w3.org/2000/svg" xmlns:xlink="http://www.w3.org/1999/xlink">
<g id="graph0" class="graph" transform="scale(1 1) rotate(0) translate(4 234)">
<title>%3</title>
<polygon fill="white" stroke="transparent" points="-4,4 -4,-234 180,-234 180,4 -4,4"/>
<!-- RawData -->
<g id="node1" class="node">
<title>RawData</title>
<polygon fill="none" stroke="black" points="168.5,-171 87.5,-171 87.5,-138 168.5,-138 168.5,-171"/>
<text text-anchor="start" x="95.5" y="-156.8" font-family="Times,serif" font-size="14.00">RawData</text>
<text text-anchor="start" x="105" y="-145.2" font-family="Times,serif" font-size="11.00">via:</text>
<text text-anchor="start" x="126" y="-145.2" font-family="Times,serif" font-style="italic" font-size="11.00">load</text>
</g>
<!-- CleanData -->
<g id="node2" class="node">
<title>CleanData</title>
<polygon fill="none" stroke="black" points="176,-102 0,-102 0,-69 176,-69 176,-102"/>
<text text-anchor="start" x="50.5" y="-87.8" font-family="Times,serif" font-size="14.00">CleanData</text>
<text text-anchor="start" x="8" y="-76.2" font-family="Times,serif" font-size="11.00">via:</text>
<text text-anchor="start" x="29" y="-76.2" font-family="Times,serif" font-style="italic" font-size="11.00">clean_and_remove_some</text>
</g>
<!-- RawData&#45;&gt;CleanData -->
<g id="edge1" class="edge">
<title>RawData&#45;&gt;CleanData</title>
<path fill="none" stroke="black" d="M118.72,-137.96C113.95,-129.96 108.01,-120.02 102.63,-111.01"/>
<polygon fill="black" stroke="black" points="105.64,-109.21 97.5,-102.42 99.63,-112.8 105.64,-109.21"/>
</g>
<!-- Result -->
<g id="node5" class="node">
<title>Result</title>
<polygon fill="none" stroke="black" points="128.5,-33 47.5,-33 47.5,0 128.5,0 128.5,-33"/>
<text text-anchor="start" x="65" y="-18.8" font-family="Times,serif" font-size="14.00">Result</text>
<text text-anchor="start" x="55.5" y="-7.2" font-family="Times,serif" font-size="11.00">via:</text>
<text text-anchor="start" x="76.5" y="-7.2" font-family="Times,serif" font-style="italic" font-size="11.00">process</text>
</g>
<!-- CleanData&#45;&gt;Result -->
<g id="edge4" class="edge">
<title>CleanData&#45;&gt;Result</title>
<path fill="none" stroke="black" d="M88,-68.96C88,-61.38 88,-52.05 88,-43.42"/>
<polygon fill="black" stroke="black" points="91.5,-43.42 88,-33.42 84.5,-43.42 91.5,-43.42"/>
</g>
<!-- Target -->
<g id="node3" class="node">
<title>Target</title>
<polygon fill="none" stroke="black" points="80.5,-166 17.5,-166 17.5,-143 80.5,-143 80.5,-166"/>
<text text-anchor="middle" x="49" y="-150.8" font-family="Times,serif" font-size="14.00">Target</text>
</g>
<!-- Target&#45;&gt;CleanData -->
<g id="edge2" class="edge">
<title>Target&#45;&gt;CleanData</title>
<path fill="none" stroke="black" d="M55.27,-142.74C60.25,-134.18 67.4,-121.88 73.76,-110.97"/>
<polygon fill="black" stroke="black" points="76.83,-112.64 78.84,-102.23 70.79,-109.12 76.83,-112.64"/>
</g>
<!-- Filename -->
<g id="node4" class="node">
<title>Filename</title>
<polygon fill="none" stroke="black" points="169.5,-230 86.5,-230 86.5,-207 169.5,-207 169.5,-230"/>
<text text-anchor="middle" x="128" y="-214.8" font-family="Times,serif" font-size="14.00">Filename</text>
</g>
<!-- Filename&#45;&gt;RawData -->
<g id="edge3" class="edge">
<title>Filename&#45;&gt;RawData</title>
<path fill="none" stroke="black" d="M128,-206.98C128,-199.93 128,-190.32 128,-181.31"/>
<polygon fill="black" stroke="black" points="131.5,-181.2 128,-171.2 124.5,-181.2 131.5,-181.2"/>
</g>
</g>
</svg>
