<?xml version="1.0" encoding="UTF-8" standalone="no"?>
<!DOCTYPE svg PUBLIC "-//W3C//DTD SVG 1.1//EN"
 "http://www.w3.org/Graphics/SVG/1.1/DTD/svg11.dtd">
<!-- Generated by graphviz version 2.43.0 (0)
 -->
<!-- Title: %3 Pages: 1 -->
<svg width="418pt" height="120pt"
 viewBox="0.00 0.00 418.00 120.00" xmlns="http://www.w3.org/2000/svg" xmlns:xlink="http://www.w3.org/1999/xlink">
<g id="graph0" class="graph" transform="scale(1 1) rotate(0) translate(4 116)">
<title>%3</title>
<polygon fill="white" stroke="transparent" points="-4,4 -4,-116 414,-116 414,4 -4,4"/>
<g id="clust1" class="cluster">
<title>cluster_A</title>
<polygon fill="#f0f0ff" stroke="#f0f0ff" points="8,-8 8,-94 65,-94 65,-8 8,-8"/>
<text text-anchor="middle" x="36.5" y="-78.8" font-family="Times,serif" font-size="14.00">A</text>
</g>
<g id="clust2" class="cluster">
<title>cluster_B</title>
<polygon fill="#f0f0ff" stroke="#f0f0ff" points="121,-8 121,-104 178,-104 178,-8 121,-8"/>
<text text-anchor="start" x="144" y="-89.8" font-family="Times,serif" font-size="14.00">B</text>
<text text-anchor="start" x="133.5" y="-78.2" font-family="Times,serif" font-size="11.00">via:</text>
<text text-anchor="start" x="154.5" y="-78.2" font-family="Times,serif" font-style="italic" font-size="11.00">f1</text>
</g>
<!-- A[T1] -->
<g id="node1" class="node">
<title>A[T1]</title>
<polygon fill="none" stroke="black" points="57,-62.5 16,-62.5 16,-41.5 57,-41.5 57,-62.5"/>
<text text-anchor="start" x="24" y="-48.9" font-family="Times,serif" font-size="12.00">[T1]</text>
</g>
<!-- B[T1] -->
<g id="node3" class="node">
<title>B[T1]</title>
<polygon fill="none" stroke="black" points="170,-62.5 129,-62.5 129,-41.5 170,-41.5 170,-62.5"/>
<text text-anchor="start" x="137" y="-48.9" font-family="Times,serif" font-size="12.00">[T1]</text>
</g>
<!-- A[T1]&#45;&gt;B[T1] -->
<g id="edge1" class="edge">
<title>A[T1]:e&#45;&gt;B[T1]:w</title>
<path fill="none" stroke="black" d="M58.5,-52C85.45,-52 94.64,-52 117.29,-52"/>
<polygon fill="black" stroke="black" points="117.5,-55.5 127.5,-52 117.5,-48.5 117.5,-55.5"/>
</g>
<!-- A[T2] -->
<g id="node2" class="node">
<title>A[T2]</title>
<polygon fill="none" stroke="black" points="57,-37.5 16,-37.5 16,-16.5 57,-16.5 57,-37.5"/>
<text text-anchor="start" x="24" y="-23.9" font-family="Times,serif" font-size="12.00">[T2]</text>
</g>
<!-- B[T2] -->
<g id="node4" class="node">
<title>B[T2]</title>
<polygon fill="none" stroke="black" points="170,-37.5 129,-37.5 129,-16.5 170,-16.5 170,-37.5"/>
<text text-anchor="start" x="137" y="-23.9" font-family="Times,serif" font-size="12.00">[T2]</text>
</g>
<!-- A[T2]&#45;&gt;B[T2] -->
<g id="edge2" class="edge">
<title>A[T2]:e&#45;&gt;B[T2]:w</title>
<path fill="none" stroke="black" d="M58.5,-27C85.45,-27 94.64,-27 117.29,-27"/>
<polygon fill="black" stroke="black" points="117.5,-30.5 127.5,-27 117.5,-23.5 117.5,-30.5"/>
</g>
<!-- C -->
<g id="node5" class="node">
<title>C</title>
<polygon fill="none" stroke="black" points="290,-67.5 242,-67.5 242,-34.5 290,-34.5 290,-67.5"/>
<text text-anchor="start" x="260.5" y="-53.3" font-family="Times,serif" font-size="14.00">C</text>
<text text-anchor="start" x="250" y="-41.7" font-family="Times,serif" font-size="11.00">via:</text>
<text text-anchor="start" x="271" y="-41.7" font-family="Times,serif" font-style="italic" font-size="11.00">f2</text>
</g>
<!-- B[T1]&#45;&gt;C -->
<g id="edge3" class="edge">
<title>B[T1]:e&#45;&gt;C:w</title>
<path fill="none" stroke="black" d="M171.5,-52C199.16,-52 208.51,-51.22 231.88,-51.04"/>
<polygon fill="black" stroke="black" points="232.01,-54.54 242,-51 231.99,-47.54 232.01,-54.54"/>
</g>
<!-- D -->
<g id="node6" class="node">
<title>D</title>
<polygon fill="none" stroke="black" points="410,-55.5 362,-55.5 362,-22.5 410,-22.5 410,-55.5"/>
<text text-anchor="start" x="380" y="-41.3" font-family="Times,serif" font-size="14.00">D</text>
<text text-anchor="start" x="370" y="-29.7" font-family="Times,serif" font-size="11.00">via:</text>
<text text-anchor="start" x="391" y="-29.7" font-family="Times,serif" font-style="italic" font-size="11.00">f3</text>
</g>
<!-- B[T2]&#45;&gt;D -->
<g id="edge4" class="edge">
<title>B[T2]:e&#45;&gt;D:w</title>
<path fill="none" stroke="black" d="M171.5,-27C224.26,-27 237.35,-30.62 290,-34 318.38,-35.82 327.82,-38.34 351.96,-38.89"/>
<polygon fill="black" stroke="black" points="351.96,-42.39 362,-39 352.04,-35.39 351.96,-42.39"/>
</g>
<!-- C&#45;&gt;D -->
<g id="edge5" class="edge">
<title>C:e&#45;&gt;D:w</title>
<path fill="none" stroke="black" d="M290,-51C318.77,-51 327.62,-41.56 351.88,-39.43"/>
<polygon fill="black" stroke="black" points="352.16,-42.92 362,-39 351.86,-35.92 352.16,-42.92"/>
</g>
</g>
</svg>
