<?xml version="1.0" encoding="UTF-8" standalone="no"?>
<!DOCTYPE svg PUBLIC "-//W3C//DTD SVG 1.1//EN"
 "http://www.w3.org/Graphics/SVG/1.1/DTD/svg11.dtd">
<!-- Generated by graphviz version 2.43.0 (0)
 -->
<!-- Title: %3 Pages: 1 -->
<svg width="336pt" height="362pt"
 viewBox="0.00 0.00 335.50 362.00" xmlns="http://www.w3.org/2000/svg" xmlns:xlink="http://www.w3.org/1999/xlink">
<g id="graph0" class="graph" transform="scale(1 1) rotate(0) translate(4 358)">
<title>%3</title>
<polygon fill="white" stroke="transparent" points="-4,4 -4,-358 331.5,-358 331.5,4 -4,4"/>
<g id="clust2" class="cluster">
<title>cluster_CleanedData</title>
<polygon fill="#f0f0ff" stroke="#f0f0ff" points="124.5,-130 124.5,-200 319.5,-200 319.5,-130 124.5,-130"/>
<text text-anchor="start" x="176" y="-185.8" font-family="Times,serif" font-size="14.00">CleanedData</text>
<text text-anchor="start" x="196" y="-174.2" font-family="Times,serif" font-size="11.00">via:</text>
<text text-anchor="start" x="217" y="-174.2" font-family="Times,serif" font-style="italic" font-size="11.00">clean</text>
</g>
<g id="clust3" class="cluster">
<title>cluster_Filename</title>
<polygon fill="#f0f0ff" stroke="#f0f0ff" points="124.5,-286 124.5,-346 319.5,-346 319.5,-286 124.5,-286"/>
<text text-anchor="middle" x="222" y="-330.8" font-family="Times,serif" font-size="14.00">Filename</text>
</g>
<g id="clust4" class="cluster">
<title>cluster_RawData</title>
<polygon fill="#f0f0ff" stroke="#f0f0ff" points="124.5,-208 124.5,-278 319.5,-278 319.5,-208 124.5,-208"/>
<text text-anchor="start" x="189.5" y="-263.8" font-family="Times,serif" font-size="14.00">RawData</text>
<text text-anchor="start" x="199" y="-252.2" font-family="Times,serif" font-size="11.00">via:</text>
<text text-anchor="start" x="220" y="-252.2" font-family="Times,serif" font-style="italic" font-size="11.00">load</text>
</g>
<!-- CleanedData[Sample] -->
<g id="node1" class="node">
<title>CleanedData[Sample]</title>
<polygon fill="none" stroke="black" points="204,-159 133,-159 133,-138 204,-138 204,-159"/>
<text text-anchor="start" x="141" y="-145.4" font-family="Times,serif" font-size="12.00">[Sample]</text>
</g>
<!-- BackgroundSubtractedData -->
<g id="node2" class="node">
<title>BackgroundSubtractedData</title>
<polygon fill="none" stroke="black" points="323,-102 108,-102 108,-69 323,-69 323,-102"/>
<text text-anchor="start" x="116" y="-87.8" font-family="Times,serif" font-size="14.00">BackgroundSubtractedData</text>
<text text-anchor="start" x="146" y="-76.2" font-family="Times,serif" font-size="11.00">via:</text>
<text text-anchor="start" x="167" y="-76.2" font-family="Times,serif" font-style="italic" font-size="11.00">subtract_background</text>
</g>
<!-- CleanedData[Sample]&#45;&gt;BackgroundSubtractedData -->
<g id="edge1" class="edge">
<title>CleanedData[Sample]&#45;&gt;BackgroundSubtractedData</title>
<path fill="none" stroke="black" d="M175.84,-137.97C181.51,-130.61 189.62,-120.09 197.02,-110.48"/>
<polygon fill="black" stroke="black" points="199.94,-112.43 203.27,-102.37 194.4,-108.15 199.94,-112.43"/>
</g>
<!-- Result -->
<g id="node8" class="node">
<title>Result</title>
<polygon fill="none" stroke="black" points="173,-33 92,-33 92,0 173,0 173,-33"/>
<text text-anchor="start" x="109.5" y="-18.8" font-family="Times,serif" font-size="14.00">Result</text>
<text text-anchor="start" x="100" y="-7.2" font-family="Times,serif" font-size="11.00">via:</text>
<text text-anchor="start" x="121" y="-7.2" font-family="Times,serif" font-style="italic" font-size="11.00">process</text>
</g>
<!-- BackgroundSubtractedData&#45;&gt;Result -->
<g id="edge7" class="edge">
<title>BackgroundSubtractedData&#45;&gt;Result</title>
<path fill="none" stroke="black" d="M196.25,-68.96C185.43,-60.23 171.75,-49.19 159.84,-39.57"/>
<polygon fill="black" stroke="black" points="161.91,-36.75 151.93,-33.19 157.52,-42.19 161.91,-36.75"/>
</g>
<!-- CleanedData[Background] -->
<g id="node3" class="node">
<title>CleanedData[Background]</title>
<polygon fill="none" stroke="black" points="311.5,-159 211.5,-159 211.5,-138 311.5,-138 311.5,-159"/>
<text text-anchor="start" x="219.5" y="-145.4" font-family="Times,serif" font-size="12.00">[Background]</text>
</g>
<!-- CleanedData[Background]&#45;&gt;BackgroundSubtractedData -->
<g id="edge2" class="edge">
<title>CleanedData[Background]&#45;&gt;BackgroundSubtractedData</title>
<path fill="none" stroke="black" d="M254.31,-137.97C248.76,-130.61 240.83,-120.09 233.58,-110.48"/>
<polygon fill="black" stroke="black" points="236.28,-108.24 227.47,-102.37 230.69,-112.46 236.28,-108.24"/>
</g>
<!-- RawData[Background] -->
<g id="node4" class="node">
<title>RawData[Background]</title>
<polygon fill="none" stroke="black" points="311.5,-237 211.5,-237 211.5,-216 311.5,-216 311.5,-237"/>
<text text-anchor="start" x="219.5" y="-223.4" font-family="Times,serif" font-size="12.00">[Background]</text>
</g>
<!-- RawData[Background]&#45;&gt;CleanedData[Background] -->
<g id="edge3" class="edge">
<title>RawData[Background]&#45;&gt;CleanedData[Background]</title>
<path fill="none" stroke="black" d="M261.5,-215.87C261.5,-204.29 261.5,-184.53 261.5,-169.57"/>
<polygon fill="black" stroke="black" points="265,-169.29 261.5,-159.29 258,-169.29 265,-169.29"/>
</g>
<!-- RawData[Sample] -->
<g id="node5" class="node">
<title>RawData[Sample]</title>
<polygon fill="none" stroke="black" points="204,-237 133,-237 133,-216 204,-216 204,-237"/>
<text text-anchor="start" x="141" y="-223.4" font-family="Times,serif" font-size="12.00">[Sample]</text>
</g>
<!-- RawData[Sample]&#45;&gt;CleanedData[Sample] -->
<g id="edge4" class="edge">
<title>RawData[Sample]&#45;&gt;CleanedData[Sample]</title>
<path fill="none" stroke="black" d="M168.5,-215.87C168.5,-204.29 168.5,-184.53 168.5,-169.57"/>
<polygon fill="black" stroke="black" points="172,-169.29 168.5,-159.29 165,-169.29 172,-169.29"/>
</g>
<!-- Filename[Background] -->
<g id="node6" class="node">
<title>Filename[Background]</title>
<polygon fill="none" stroke="black" points="311.5,-315 211.5,-315 211.5,-294 311.5,-294 311.5,-315"/>
<text text-anchor="start" x="219.5" y="-301.4" font-family="Times,serif" font-size="12.00">[Background]</text>
</g>
<!-- Filename[Background]&#45;&gt;RawData[Background] -->
<g id="edge5" class="edge">
<title>Filename[Background]&#45;&gt;RawData[Background]</title>
<path fill="none" stroke="black" d="M261.5,-293.87C261.5,-282.29 261.5,-262.53 261.5,-247.57"/>
<polygon fill="black" stroke="black" points="265,-247.29 261.5,-237.29 258,-247.29 265,-247.29"/>
</g>
<!-- Filename[Sample] -->
<g id="node7" class="node">
<title>Filename[Sample]</title>
<polygon fill="none" stroke="black" points="204,-315 133,-315 133,-294 204,-294 204,-315"/>
<text text-anchor="start" x="141" y="-301.4" font-family="Times,serif" font-size="12.00">[Sample]</text>
</g>
<!-- Filename[Sample]&#45;&gt;RawData[Sample] -->
<g id="edge6" class="edge">
<title>Filename[Sample]&#45;&gt;RawData[Sample]</title>
<path fill="none" stroke="black" d="M168.5,-293.87C168.5,-282.29 168.5,-262.53 168.5,-247.57"/>
<polygon fill="black" stroke="black" points="172,-247.29 168.5,-237.29 165,-247.29 172,-247.29"/>
</g>
<!-- ScaleFactor -->
<g id="node9" class="node">
<title>ScaleFactor</title>
<polygon fill="none" stroke="black" points="101,-97 0,-97 0,-74 101,-74 101,-97"/>
<text text-anchor="middle" x="50.5" y="-81.8" font-family="Times,serif" font-size="14.00">ScaleFactor</text>
</g>
<!-- ScaleFactor&#45;&gt;Result -->
<g id="edge8" class="edge">
<title>ScaleFactor&#45;&gt;Result</title>
<path fill="none" stroke="black" d="M63.67,-73.74C74.88,-64.58 91.33,-51.14 105.33,-39.7"/>
<polygon fill="black" stroke="black" points="107.71,-42.27 113.24,-33.23 103.28,-36.85 107.71,-42.27"/>
</g>
</g>
</svg>
