<?xml version="1.0" encoding="UTF-8" standalone="no"?>
<!DOCTYPE svg PUBLIC "-//W3C//DTD SVG 1.1//EN"
 "http://www.w3.org/Graphics/SVG/1.1/DTD/svg11.dtd">
<!-- Generated by graphviz version 2.43.0 (0)
 -->
<!-- Title: %3 Pages: 1 -->
<svg width="949pt" height="238pt"
 viewBox="0.00 0.00 949.00 238.00" xmlns="http://www.w3.org/2000/svg" xmlns:xlink="http://www.w3.org/1999/xlink">
<g id="graph0" class="graph" transform="scale(1 1) rotate(0) translate(4 234)">
<title>%3</title>
<polygon fill="white" stroke="transparent" points="-4,4 -4,-234 945,-234 945,4 -4,4"/>
<!-- RawData(run_id=102) -->
<g id="node1" class="node">
<title>RawData(run_id=102)</title>
<polygon fill="none" stroke="black" points="189.5,-171 13.5,-171 13.5,-138 189.5,-138 189.5,-171"/>
<text text-anchor="start" x="21.5" y="-156.8" font-family="Times,serif" font-size="14.00">RawData(run_id=102)</text>
<text text-anchor="start" x="78.5" y="-145.2" font-family="Times,serif" font-size="11.00">via:</text>
<text text-anchor="start" x="99.5" y="-145.2" font-family="Times,serif" font-style="italic" font-size="11.00">load</text>
</g>
<!-- CleanedData(run_id=102) -->
<g id="node2" class="node">
<title>CleanedData(run_id=102)</title>
<polygon fill="none" stroke="black" points="203,-102 0,-102 0,-69 203,-69 203,-102"/>
<text text-anchor="start" x="8" y="-87.8" font-family="Times,serif" font-size="14.00">CleanedData(run_id=102)</text>
<text text-anchor="start" x="75.5" y="-76.2" font-family="Times,serif" font-size="11.00">via:</text>
<text text-anchor="start" x="96.5" y="-76.2" font-family="Times,serif" font-style="italic" font-size="11.00">clean</text>
</g>
<!-- RawData(run_id=102)&#45;&gt;CleanedData(run_id=102) -->
<g id="edge1" class="edge">
<title>RawData(run_id=102)&#45;&gt;CleanedData(run_id=102)</title>
<path fill="none" stroke="black" d="M101.5,-137.96C101.5,-130.38 101.5,-121.05 101.5,-112.42"/>
<polygon fill="black" stroke="black" points="105,-112.42 101.5,-102.42 98,-112.42 105,-112.42"/>
</g>
<!-- Result(run_id=102) -->
<g id="node13" class="node">
<title>Result(run_id=102)</title>
<polygon fill="none" stroke="black" points="234,-33 77,-33 77,0 234,0 234,-33"/>
<text text-anchor="start" x="85" y="-18.8" font-family="Times,serif" font-size="14.00">Result(run_id=102)</text>
<text text-anchor="start" x="123" y="-7.2" font-family="Times,serif" font-size="11.00">via:</text>
<text text-anchor="start" x="144" y="-7.2" font-family="Times,serif" font-style="italic" font-size="11.00">process</text>
</g>
<!-- CleanedData(run_id=102)&#45;&gt;Result(run_id=102) -->
<g id="edge9" class="edge">
<title>CleanedData(run_id=102)&#45;&gt;Result(run_id=102)</title>
<path fill="none" stroke="black" d="M114.02,-68.96C120.61,-60.79 128.82,-50.6 136.2,-41.45"/>
<polygon fill="black" stroke="black" points="139.12,-43.4 142.67,-33.42 133.67,-39.01 139.12,-43.4"/>
</g>
<!-- RawData(run_id=103) -->
<g id="node3" class="node">
<title>RawData(run_id=103)</title>
<polygon fill="none" stroke="black" points="399.5,-171 223.5,-171 223.5,-138 399.5,-138 399.5,-171"/>
<text text-anchor="start" x="231.5" y="-156.8" font-family="Times,serif" font-size="14.00">RawData(run_id=103)</text>
<text text-anchor="start" x="288.5" y="-145.2" font-family="Times,serif" font-size="11.00">via:</text>
<text text-anchor="start" x="309.5" y="-145.2" font-family="Times,serif" font-style="italic" font-size="11.00">load</text>
</g>
<!-- CleanedData(run_id=103) -->
<g id="node4" class="node">
<title>CleanedData(run_id=103)</title>
<polygon fill="none" stroke="black" points="413,-102 210,-102 210,-69 413,-69 413,-102"/>
<text text-anchor="start" x="218" y="-87.8" font-family="Times,serif" font-size="14.00">CleanedData(run_id=103)</text>
<text text-anchor="start" x="285.5" y="-76.2" font-family="Times,serif" font-size="11.00">via:</text>
<text text-anchor="start" x="306.5" y="-76.2" font-family="Times,serif" font-style="italic" font-size="11.00">clean</text>
</g>
<!-- RawData(run_id=103)&#45;&gt;CleanedData(run_id=103) -->
<g id="edge2" class="edge">
<title>RawData(run_id=103)&#45;&gt;CleanedData(run_id=103)</title>
<path fill="none" stroke="black" d="M311.5,-137.96C311.5,-130.38 311.5,-121.05 311.5,-112.42"/>
<polygon fill="black" stroke="black" points="315,-112.42 311.5,-102.42 308,-112.42 315,-112.42"/>
</g>
<!-- Result(run_id=103) -->
<g id="node15" class="node">
<title>Result(run_id=103)</title>
<polygon fill="none" stroke="black" points="421,-33 264,-33 264,0 421,0 421,-33"/>
<text text-anchor="start" x="272" y="-18.8" font-family="Times,serif" font-size="14.00">Result(run_id=103)</text>
<text text-anchor="start" x="310" y="-7.2" font-family="Times,serif" font-size="11.00">via:</text>
<text text-anchor="start" x="331" y="-7.2" font-family="Times,serif" font-style="italic" font-size="11.00">process</text>
</g>
<!-- CleanedData(run_id=103)&#45;&gt;Result(run_id=103) -->
<g id="edge11" class="edge">
<title>CleanedData(run_id=103)&#45;&gt;Result(run_id=103)</title>
<path fill="none" stroke="black" d="M318.69,-68.96C322.32,-61.13 326.8,-51.43 330.9,-42.57"/>
<polygon fill="black" stroke="black" points="334.11,-43.97 335.13,-33.42 327.76,-41.03 334.11,-43.97"/>
</g>
<!-- RawData(run_id=104) -->
<g id="node5" class="node">
<title>RawData(run_id=104)</title>
<polygon fill="none" stroke="black" points="717.5,-171 541.5,-171 541.5,-138 717.5,-138 717.5,-171"/>
<text text-anchor="start" x="549.5" y="-156.8" font-family="Times,serif" font-size="14.00">RawData(run_id=104)</text>
<text text-anchor="start" x="606.5" y="-145.2" font-family="Times,serif" font-size="11.00">via:</text>
<text text-anchor="start" x="627.5" y="-145.2" font-family="Times,serif" font-style="italic" font-size="11.00">load</text>
</g>
<!-- CleanedData(run_id=104) -->
<g id="node6" class="node">
<title>CleanedData(run_id=104)</title>
<polygon fill="none" stroke="black" points="731,-102 528,-102 528,-69 731,-69 731,-102"/>
<text text-anchor="start" x="536" y="-87.8" font-family="Times,serif" font-size="14.00">CleanedData(run_id=104)</text>
<text text-anchor="start" x="603.5" y="-76.2" font-family="Times,serif" font-size="11.00">via:</text>
<text text-anchor="start" x="624.5" y="-76.2" font-family="Times,serif" font-style="italic" font-size="11.00">clean</text>
</g>
<!-- RawData(run_id=104)&#45;&gt;CleanedData(run_id=104) -->
<g id="edge3" class="edge">
<title>RawData(run_id=104)&#45;&gt;CleanedData(run_id=104)</title>
<path fill="none" stroke="black" d="M629.5,-137.96C629.5,-130.38 629.5,-121.05 629.5,-112.42"/>
<polygon fill="black" stroke="black" points="633,-112.42 629.5,-102.42 626,-112.42 633,-112.42"/>
</g>
<!-- Result(run_id=104) -->
<g id="node16" class="node">
<title>Result(run_id=104)</title>
<polygon fill="none" stroke="black" points="662,-33 505,-33 505,0 662,0 662,-33"/>
<text text-anchor="start" x="513" y="-18.8" font-family="Times,serif" font-size="14.00">Result(run_id=104)</text>
<text text-anchor="start" x="551" y="-7.2" font-family="Times,serif" font-size="11.00">via:</text>
<text text-anchor="start" x="572" y="-7.2" font-family="Times,serif" font-style="italic" font-size="11.00">process</text>
</g>
<!-- CleanedData(run_id=104)&#45;&gt;Result(run_id=104) -->
<g id="edge13" class="edge">
<title>CleanedData(run_id=104)&#45;&gt;Result(run_id=104)</title>
<path fill="none" stroke="black" d="M618.83,-68.96C613.28,-60.88 606.37,-50.81 600.13,-41.73"/>
<polygon fill="black" stroke="black" points="602.98,-39.68 594.43,-33.42 597.21,-43.65 602.98,-39.68"/>
</g>
<!-- RawData(run_id=105) -->
<g id="node7" class="node">
<title>RawData(run_id=105)</title>
<polygon fill="none" stroke="black" points="927.5,-171 751.5,-171 751.5,-138 927.5,-138 927.5,-171"/>
<text text-anchor="start" x="759.5" y="-156.8" font-family="Times,serif" font-size="14.00">RawData(run_id=105)</text>
<text text-anchor="start" x="816.5" y="-145.2" font-family="Times,serif" font-size="11.00">via:</text>
<text text-anchor="start" x="837.5" y="-145.2" font-family="Times,serif" font-style="italic" font-size="11.00">load</text>
</g>
<!-- CleanedData(run_id=105) -->
<g id="node8" class="node">
<title>CleanedData(run_id=105)</title>
<polygon fill="none" stroke="black" points="941,-102 738,-102 738,-69 941,-69 941,-102"/>
<text text-anchor="start" x="746" y="-87.8" font-family="Times,serif" font-size="14.00">CleanedData(run_id=105)</text>
<text text-anchor="start" x="813.5" y="-76.2" font-family="Times,serif" font-size="11.00">via:</text>
<text text-anchor="start" x="834.5" y="-76.2" font-family="Times,serif" font-style="italic" font-size="11.00">clean</text>
</g>
<!-- RawData(run_id=105)&#45;&gt;CleanedData(run_id=105) -->
<g id="edge4" class="edge">
<title>RawData(run_id=105)&#45;&gt;CleanedData(run_id=105)</title>
<path fill="none" stroke="black" d="M839.5,-137.96C839.5,-130.38 839.5,-121.05 839.5,-112.42"/>
<polygon fill="black" stroke="black" points="843,-112.42 839.5,-102.42 836,-112.42 843,-112.42"/>
</g>
<!-- Result(run_id=105) -->
<g id="node17" class="node">
<title>Result(run_id=105)</title>
<polygon fill="none" stroke="black" points="887,-33 730,-33 730,0 887,0 887,-33"/>
<text text-anchor="start" x="738" y="-18.8" font-family="Times,serif" font-size="14.00">Result(run_id=105)</text>
<text text-anchor="start" x="776" y="-7.2" font-family="Times,serif" font-size="11.00">via:</text>
<text text-anchor="start" x="797" y="-7.2" font-family="Times,serif" font-style="italic" font-size="11.00">process</text>
</g>
<!-- CleanedData(run_id=105)&#45;&gt;Result(run_id=105) -->
<g id="edge15" class="edge">
<title>CleanedData(run_id=105)&#45;&gt;Result(run_id=105)</title>
<path fill="none" stroke="black" d="M832.31,-68.96C828.68,-61.13 824.2,-51.43 820.1,-42.57"/>
<polygon fill="black" stroke="black" points="823.24,-41.03 815.87,-33.42 816.89,-43.97 823.24,-41.03"/>
</g>
<!-- Filename(run_id=102) -->
<g id="node9" class="node">
<title>Filename(run_id=102)</title>
<polygon fill="none" stroke="black" points="190,-230 13,-230 13,-207 190,-207 190,-230"/>
<text text-anchor="middle" x="101.5" y="-214.8" font-family="Times,serif" font-size="14.00">Filename(run_id=102)</text>
</g>
<!-- Filename(run_id=102)&#45;&gt;RawData(run_id=102) -->
<g id="edge5" class="edge">
<title>Filename(run_id=102)&#45;&gt;RawData(run_id=102)</title>
<path fill="none" stroke="black" d="M101.5,-206.98C101.5,-199.93 101.5,-190.32 101.5,-181.31"/>
<polygon fill="black" stroke="black" points="105,-181.2 101.5,-171.2 98,-181.2 105,-181.2"/>
</g>
<!-- Filename(run_id=103) -->
<g id="node10" class="node">
<title>Filename(run_id=103)</title>
<polygon fill="none" stroke="black" points="400,-230 223,-230 223,-207 400,-207 400,-230"/>
<text text-anchor="middle" x="311.5" y="-214.8" font-family="Times,serif" font-size="14.00">Filename(run_id=103)</text>
</g>
<!-- Filename(run_id=103)&#45;&gt;RawData(run_id=103) -->
<g id="edge6" class="edge">
<title>Filename(run_id=103)&#45;&gt;RawData(run_id=103)</title>
<path fill="none" stroke="black" d="M311.5,-206.98C311.5,-199.93 311.5,-190.32 311.5,-181.31"/>
<polygon fill="black" stroke="black" points="315,-181.2 311.5,-171.2 308,-181.2 315,-181.2"/>
</g>
<!-- Filename(run_id=104) -->
<g id="node11" class="node">
<title>Filename(run_id=104)</title>
<polygon fill="none" stroke="black" points="718,-230 541,-230 541,-207 718,-207 718,-230"/>
<text text-anchor="middle" x="629.5" y="-214.8" font-family="Times,serif" font-size="14.00">Filename(run_id=104)</text>
</g>
<!-- Filename(run_id=104)&#45;&gt;RawData(run_id=104) -->
<g id="edge7" class="edge">
<title>Filename(run_id=104)&#45;&gt;RawData(run_id=104)</title>
<path fill="none" stroke="black" d="M629.5,-206.98C629.5,-199.93 629.5,-190.32 629.5,-181.31"/>
<polygon fill="black" stroke="black" points="633,-181.2 629.5,-171.2 626,-181.2 633,-181.2"/>
</g>
<!-- Filename(run_id=105) -->
<g id="node12" class="node">
<title>Filename(run_id=105)</title>
<polygon fill="none" stroke="black" points="928,-230 751,-230 751,-207 928,-207 928,-230"/>
<text text-anchor="middle" x="839.5" y="-214.8" font-family="Times,serif" font-size="14.00">Filename(run_id=105)</text>
</g>
<!-- Filename(run_id=105)&#45;&gt;RawData(run_id=105) -->
<g id="edge8" class="edge">
<title>Filename(run_id=105)&#45;&gt;RawData(run_id=105)</title>
<path fill="none" stroke="black" d="M839.5,-206.98C839.5,-199.93 839.5,-190.32 839.5,-181.31"/>
<polygon fill="black" stroke="black" points="843,-181.2 839.5,-171.2 836,-181.2 843,-181.2"/>
</g>
<!-- ScaleFactor -->
<g id="node14" class="node">
<title>ScaleFactor</title>
<polygon fill="none" stroke="black" points="521,-97 420,-97 420,-74 521,-74 521,-97"/>
<text text-anchor="middle" x="470.5" y="-81.8" font-family="Times,serif" font-size="14.00">ScaleFactor</text>
</g>
<!-- ScaleFactor&#45;&gt;Result(run_id=102) -->
<g id="edge10" class="edge">
<title>ScaleFactor&#45;&gt;Result(run_id=102)</title>
<path fill="none" stroke="black" d="M434.81,-74C428.4,-72.24 421.77,-70.5 415.5,-69 358.76,-55.41 294.44,-42.65 243.97,-33.23"/>
<polygon fill="black" stroke="black" points="244.54,-29.77 234.07,-31.39 243.26,-36.65 244.54,-29.77"/>
</g>
<!-- ScaleFactor&#45;&gt;Result(run_id=103) -->
<g id="edge12" class="edge">
<title>ScaleFactor&#45;&gt;Result(run_id=103)</title>
<path fill="none" stroke="black" d="M450.22,-73.88C431.75,-64.22 403.99,-49.69 381.28,-37.8"/>
<polygon fill="black" stroke="black" points="382.7,-34.59 372.21,-33.05 379.45,-40.79 382.7,-34.59"/>
</g>
<!-- ScaleFactor&#45;&gt;Result(run_id=104) -->
<g id="edge14" class="edge">
<title>ScaleFactor&#45;&gt;Result(run_id=104)</title>
<path fill="none" stroke="black" d="M488.41,-73.88C504.49,-64.35 528.56,-50.07 548.46,-38.27"/>
<polygon fill="black" stroke="black" points="550.45,-41.16 557.27,-33.05 546.88,-35.14 550.45,-41.16"/>
</g>
<!-- ScaleFactor&#45;&gt;Result(run_id=105) -->
<g id="edge16" class="edge">
<title>ScaleFactor&#45;&gt;Result(run_id=105)</title>
<path fill="none" stroke="black" d="M505.22,-73.98C511.61,-72.2 518.23,-70.46 524.5,-69 589.41,-53.84 663.53,-40.53 719.78,-31.24"/>
<polygon fill="black" stroke="black" points="720.41,-34.68 729.71,-29.61 719.28,-27.78 720.41,-34.68"/>
</g>
</g>
</svg>
