<?xml version="1.0" encoding="UTF-8" standalone="no"?>
<!DOCTYPE svg PUBLIC "-//W3C//DTD SVG 1.1//EN"
 "http://www.w3.org/Graphics/SVG/1.1/DTD/svg11.dtd">
<!-- Generated by graphviz version 2.43.0 (0)
 -->
<!-- Title: %3 Pages: 1 -->
<svg width="464pt" height="404pt"
 viewBox="0.00 0.00 464.00 404.00" xmlns="http://www.w3.org/2000/svg" xmlns:xlink="http://www.w3.org/1999/xlink">
<g id="graph0" class="graph" transform="scale(1 1) rotate(0) translate(4 400)">
<title>%3</title>
<polygon fill="white" stroke="transparent" points="-4,4 -4,-400 460,-400 460,4 -4,4"/>
<!-- Param(Param=1) -->
<g id="node1" class="node">
<title>Param(Param=1)</title>
<polygon fill="none" stroke="black" points="140,-396 0,-396 0,-360 140,-360 140,-396"/>
<text text-anchor="middle" x="70" y="-374.3" font-family="Times,serif" font-size="14.00">Param(Param=1)</text>
</g>
<!-- __main__.compute_float(Param=1) -->
<g id="node10" class="node">
<title>__main__.compute_float(Param=1)</title>
<ellipse fill="none" stroke="black" cx="74" cy="-306" rx="50.89" ry="18"/>
<text text-anchor="middle" x="74" y="-302.3" font-family="Times,serif" font-size="14.00">compute</text>
</g>
<!-- Param(Param=1)&#45;&gt;__main__.compute_float(Param=1) -->
<g id="edge6" class="edge">
<title>Param(Param=1)&#45;&gt;__main__.compute_float(Param=1)</title>
<path fill="none" stroke="black" d="M70.99,-359.7C71.43,-351.98 71.96,-342.71 72.45,-334.11"/>
<polygon fill="black" stroke="black" points="75.95,-334.29 73.02,-324.1 68.96,-333.89 75.95,-334.29"/>
</g>
<!-- Param(Param=4) -->
<g id="node2" class="node">
<title>Param(Param=4)</title>
<polygon fill="none" stroke="black" points="298,-396 158,-396 158,-360 298,-360 298,-396"/>
<text text-anchor="middle" x="228" y="-374.3" font-family="Times,serif" font-size="14.00">Param(Param=4)</text>
</g>
<!-- __main__.compute_float(Param=4) -->
<g id="node11" class="node">
<title>__main__.compute_float(Param=4)</title>
<ellipse fill="none" stroke="black" cx="228" cy="-306" rx="50.89" ry="18"/>
<text text-anchor="middle" x="228" y="-302.3" font-family="Times,serif" font-size="14.00">compute</text>
</g>
<!-- Param(Param=4)&#45;&gt;__main__.compute_float(Param=4) -->
<g id="edge8" class="edge">
<title>Param(Param=4)&#45;&gt;__main__.compute_float(Param=4)</title>
<path fill="none" stroke="black" d="M228,-359.7C228,-351.98 228,-342.71 228,-334.11"/>
<polygon fill="black" stroke="black" points="231.5,-334.1 228,-324.1 224.5,-334.1 231.5,-334.1"/>
</g>
<!-- Param(Param=9) -->
<g id="node3" class="node">
<title>Param(Param=9)</title>
<polygon fill="none" stroke="black" points="456,-396 316,-396 316,-360 456,-360 456,-396"/>
<text text-anchor="middle" x="386" y="-374.3" font-family="Times,serif" font-size="14.00">Param(Param=9)</text>
</g>
<!-- __main__.compute_float(Param=9) -->
<g id="node12" class="node">
<title>__main__.compute_float(Param=9)</title>
<ellipse fill="none" stroke="black" cx="382" cy="-306" rx="50.89" ry="18"/>
<text text-anchor="middle" x="382" y="-302.3" font-family="Times,serif" font-size="14.00">compute</text>
</g>
<!-- Param(Param=9)&#45;&gt;__main__.compute_float(Param=9) -->
<g id="edge10" class="edge">
<title>Param(Param=9)&#45;&gt;__main__.compute_float(Param=9)</title>
<path fill="none" stroke="black" d="M385.01,-359.7C384.57,-351.98 384.04,-342.71 383.55,-334.11"/>
<polygon fill="black" stroke="black" points="387.04,-333.89 382.98,-324.1 380.05,-334.29 387.04,-333.89"/>
</g>
<!-- float(Param=1) -->
<g id="node4" class="node">
<title>float(Param=1)</title>
<polygon fill="none" stroke="black" points="143.5,-252 18.5,-252 18.5,-216 143.5,-216 143.5,-252"/>
<text text-anchor="middle" x="81" y="-230.3" font-family="Times,serif" font-size="14.00">float(Param=1)</text>
</g>
<!-- Series[Param, float] -->
<g id="node5" class="node">
<title>Series[Param, float]</title>
<polygon fill="none" stroke="black" points="307,-180 149,-180 149,-144 307,-144 307,-180"/>
<text text-anchor="middle" x="228" y="-158.3" font-family="Times,serif" font-size="14.00">Series[Param, float]</text>
</g>
<!-- float(Param=1)&#45;&gt;Series[Param, float] -->
<g id="edge1" class="edge">
<title>float(Param=1)&#45;&gt;Series[Param, float]</title>
<path fill="none" stroke="black" stroke-dasharray="5,2" d="M116.96,-215.88C136.88,-206.39 161.82,-194.51 183.02,-184.42"/>
<polygon fill="black" stroke="black" points="184.63,-187.53 192.16,-180.07 181.62,-181.21 184.63,-187.53"/>
</g>
<!-- __main__.gather_Sum -->
<g id="node8" class="node">
<title>__main__.gather_Sum</title>
<ellipse fill="none" stroke="black" cx="228" cy="-90" rx="41.69" ry="18"/>
<text text-anchor="middle" x="228" y="-86.3" font-family="Times,serif" font-size="14.00">gather</text>
</g>
<!-- Series[Param, float]&#45;&gt;__main__.gather_Sum -->
<g id="edge4" class="edge">
<title>Series[Param, float]&#45;&gt;__main__.gather_Sum</title>
<path fill="none" stroke="black" d="M228,-143.7C228,-135.98 228,-126.71 228,-118.11"/>
<polygon fill="black" stroke="black" points="231.5,-118.1 228,-108.1 224.5,-118.1 231.5,-118.1"/>
</g>
<!-- float(Param=4) -->
<g id="node6" class="node">
<title>float(Param=4)</title>
<polygon fill="none" stroke="black" points="290.5,-252 165.5,-252 165.5,-216 290.5,-216 290.5,-252"/>
<text text-anchor="middle" x="228" y="-230.3" font-family="Times,serif" font-size="14.00">float(Param=4)</text>
</g>
<!-- float(Param=4)&#45;&gt;Series[Param, float] -->
<g id="edge2" class="edge">
<title>float(Param=4)&#45;&gt;Series[Param, float]</title>
<path fill="none" stroke="black" stroke-dasharray="5,2" d="M228,-215.7C228,-207.98 228,-198.71 228,-190.11"/>
<polygon fill="black" stroke="black" points="231.5,-190.1 228,-180.1 224.5,-190.1 231.5,-190.1"/>
</g>
<!-- float(Param=9) -->
<g id="node7" class="node">
<title>float(Param=9)</title>
<polygon fill="none" stroke="black" points="440.5,-252 315.5,-252 315.5,-216 440.5,-216 440.5,-252"/>
<text text-anchor="middle" x="378" y="-230.3" font-family="Times,serif" font-size="14.00">float(Param=9)</text>
</g>
<!-- float(Param=9)&#45;&gt;Series[Param, float] -->
<g id="edge3" class="edge">
<title>float(Param=9)&#45;&gt;Series[Param, float]</title>
<path fill="none" stroke="black" stroke-dasharray="5,2" d="M341.31,-215.88C320.98,-206.39 295.53,-194.51 273.9,-184.42"/>
<polygon fill="black" stroke="black" points="275.12,-181.13 264.57,-180.07 272.16,-187.47 275.12,-181.13"/>
</g>
<!-- Sum -->
<g id="node9" class="node">
<title>Sum</title>
<polygon fill="none" stroke="black" points="255,-36 201,-36 201,0 255,0 255,-36"/>
<text text-anchor="middle" x="228" y="-14.3" font-family="Times,serif" font-size="14.00">Sum</text>
</g>
<!-- __main__.gather_Sum&#45;&gt;Sum -->
<g id="edge5" class="edge">
<title>__main__.gather_Sum&#45;&gt;Sum</title>
<path fill="none" stroke="black" d="M228,-71.7C228,-63.98 228,-54.71 228,-46.11"/>
<polygon fill="black" stroke="black" points="231.5,-46.1 228,-36.1 224.5,-46.1 231.5,-46.1"/>
</g>
<!-- __main__.compute_float(Param=1)&#45;&gt;float(Param=1) -->
<g id="edge7" class="edge">
<title>__main__.compute_float(Param=1)&#45;&gt;float(Param=1)</title>
<path fill="none" stroke="black" d="M75.73,-287.7C76.5,-279.98 77.43,-270.71 78.29,-262.11"/>
<polygon fill="black" stroke="black" points="81.78,-262.4 79.29,-252.1 74.81,-261.71 81.78,-262.4"/>
</g>
<!-- __main__.compute_float(Param=4)&#45;&gt;float(Param=4) -->
<g id="edge9" class="edge">
<title>__main__.compute_float(Param=4)&#45;&gt;float(Param=4)</title>
<path fill="none" stroke="black" d="M228,-287.7C228,-279.98 228,-270.71 228,-262.11"/>
<polygon fill="black" stroke="black" points="231.5,-262.1 228,-252.1 224.5,-262.1 231.5,-262.1"/>
</g>
<!-- __main__.compute_float(Param=9)&#45;&gt;float(Param=9) -->
<g id="edge11" class="edge">
<title>__main__.compute_float(Param=9)&#45;&gt;float(Param=9)</title>
<path fill="none" stroke="black" d="M381.01,-287.7C380.57,-279.98 380.04,-270.71 379.55,-262.11"/>
<polygon fill="black" stroke="black" points="383.04,-261.89 378.98,-252.1 376.05,-262.29 383.04,-261.89"/>
</g>
</g>
</svg>
