<?xml version="1.0" encoding="UTF-8" standalone="no"?>
<!DOCTYPE svg PUBLIC "-//W3C//DTD SVG 1.1//EN"
 "http://www.w3.org/Graphics/SVG/1.1/DTD/svg11.dtd">
<!-- Generated by graphviz version 2.43.0 (0)
 -->
<!-- Title: %3 Pages: 1 -->
<svg width="884pt" height="404pt"
 viewBox="0.00 0.00 884.00 404.00" xmlns="http://www.w3.org/2000/svg" xmlns:xlink="http://www.w3.org/1999/xlink">
<g id="graph0" class="graph" transform="scale(1 1) rotate(0) translate(4 400)">
<title>%3</title>
<polygon fill="white" stroke="transparent" points="-4,4 -4,-400 880,-400 880,4 -4,4"/>
<!-- Param1(Run=0) -->
<g id="node1" class="node">
<title>Param1(Run=0)</title>
<polygon fill="none" stroke="black" points="131,-396 0,-396 0,-360 131,-360 131,-396"/>
<text text-anchor="middle" x="65.5" y="-374.3" font-family="Times,serif" font-size="14.00">Param1(Run=0)</text>
</g>
<!-- __main__.product_float(Run=0) -->
<g id="node13" class="node">
<title>__main__.product_float(Run=0)</title>
<ellipse fill="none" stroke="black" cx="214.5" cy="-306" rx="46.59" ry="18"/>
<text text-anchor="middle" x="214.5" y="-302.3" font-family="Times,serif" font-size="14.00">product</text>
</g>
<!-- Param1(Run=0)&#45;&gt;__main__.product_float(Run=0) -->
<g id="edge6" class="edge">
<title>Param1(Run=0)&#45;&gt;__main__.product_float(Run=0)</title>
<path fill="none" stroke="black" d="M101.95,-359.88C124.67,-349.2 153.83,-335.5 176.79,-324.72"/>
<polygon fill="black" stroke="black" points="178.32,-327.86 185.88,-320.44 175.35,-321.53 178.32,-327.86"/>
</g>
<!-- Param1(Run=1) -->
<g id="node2" class="node">
<title>Param1(Run=1)</title>
<polygon fill="none" stroke="black" points="429,-396 298,-396 298,-360 429,-360 429,-396"/>
<text text-anchor="middle" x="363.5" y="-374.3" font-family="Times,serif" font-size="14.00">Param1(Run=1)</text>
</g>
<!-- __main__.product_float(Run=1) -->
<g id="node14" class="node">
<title>__main__.product_float(Run=1)</title>
<ellipse fill="none" stroke="black" cx="437.5" cy="-306" rx="46.59" ry="18"/>
<text text-anchor="middle" x="437.5" y="-302.3" font-family="Times,serif" font-size="14.00">product</text>
</g>
<!-- Param1(Run=1)&#45;&gt;__main__.product_float(Run=1) -->
<g id="edge9" class="edge">
<title>Param1(Run=1)&#45;&gt;__main__.product_float(Run=1)</title>
<path fill="none" stroke="black" d="M381.79,-359.7C391.27,-350.73 402.98,-339.65 413.21,-329.98"/>
<polygon fill="black" stroke="black" points="415.82,-332.32 420.68,-322.91 411.01,-327.24 415.82,-332.32"/>
</g>
<!-- Param1(Run=2) -->
<g id="node3" class="node">
<title>Param1(Run=2)</title>
<polygon fill="none" stroke="black" points="727,-396 596,-396 596,-360 727,-360 727,-396"/>
<text text-anchor="middle" x="661.5" y="-374.3" font-family="Times,serif" font-size="14.00">Param1(Run=2)</text>
</g>
<!-- __main__.product_float(Run=2) -->
<g id="node15" class="node">
<title>__main__.product_float(Run=2)</title>
<ellipse fill="none" stroke="black" cx="661.5" cy="-306" rx="46.59" ry="18"/>
<text text-anchor="middle" x="661.5" y="-302.3" font-family="Times,serif" font-size="14.00">product</text>
</g>
<!-- Param1(Run=2)&#45;&gt;__main__.product_float(Run=2) -->
<g id="edge12" class="edge">
<title>Param1(Run=2)&#45;&gt;__main__.product_float(Run=2)</title>
<path fill="none" stroke="black" d="M661.5,-359.7C661.5,-351.98 661.5,-342.71 661.5,-334.11"/>
<polygon fill="black" stroke="black" points="665,-334.1 661.5,-324.1 658,-334.1 665,-334.1"/>
</g>
<!-- Param2(Run=0) -->
<g id="node4" class="node">
<title>Param2(Run=0)</title>
<polygon fill="none" stroke="black" points="280,-396 149,-396 149,-360 280,-360 280,-396"/>
<text text-anchor="middle" x="214.5" y="-374.3" font-family="Times,serif" font-size="14.00">Param2(Run=0)</text>
</g>
<!-- Param2(Run=0)&#45;&gt;__main__.product_float(Run=0) -->
<g id="edge7" class="edge">
<title>Param2(Run=0)&#45;&gt;__main__.product_float(Run=0)</title>
<path fill="none" stroke="black" d="M214.5,-359.7C214.5,-351.98 214.5,-342.71 214.5,-334.11"/>
<polygon fill="black" stroke="black" points="218,-334.1 214.5,-324.1 211,-334.1 218,-334.1"/>
</g>
<!-- Param2(Run=1) -->
<g id="node5" class="node">
<title>Param2(Run=1)</title>
<polygon fill="none" stroke="black" points="578,-396 447,-396 447,-360 578,-360 578,-396"/>
<text text-anchor="middle" x="512.5" y="-374.3" font-family="Times,serif" font-size="14.00">Param2(Run=1)</text>
</g>
<!-- Param2(Run=1)&#45;&gt;__main__.product_float(Run=1) -->
<g id="edge10" class="edge">
<title>Param2(Run=1)&#45;&gt;__main__.product_float(Run=1)</title>
<path fill="none" stroke="black" d="M493.96,-359.7C484.35,-350.73 472.49,-339.65 462.12,-329.98"/>
<polygon fill="black" stroke="black" points="464.24,-327.17 454.54,-322.91 459.47,-332.29 464.24,-327.17"/>
</g>
<!-- Param2(Run=2) -->
<g id="node6" class="node">
<title>Param2(Run=2)</title>
<polygon fill="none" stroke="black" points="876,-396 745,-396 745,-360 876,-360 876,-396"/>
<text text-anchor="middle" x="810.5" y="-374.3" font-family="Times,serif" font-size="14.00">Param2(Run=2)</text>
</g>
<!-- Param2(Run=2)&#45;&gt;__main__.product_float(Run=2) -->
<g id="edge13" class="edge">
<title>Param2(Run=2)&#45;&gt;__main__.product_float(Run=2)</title>
<path fill="none" stroke="black" d="M774.05,-359.88C751.33,-349.2 722.17,-335.5 699.21,-324.72"/>
<polygon fill="black" stroke="black" points="700.65,-321.53 690.12,-320.44 697.68,-327.86 700.65,-321.53"/>
</g>
<!-- float(Run=0) -->
<g id="node7" class="node">
<title>float(Run=0)</title>
<polygon fill="none" stroke="black" points="354.5,-252 246.5,-252 246.5,-216 354.5,-216 354.5,-252"/>
<text text-anchor="middle" x="300.5" y="-230.3" font-family="Times,serif" font-size="14.00">float(Run=0)</text>
</g>
<!-- Series[Run, float] -->
<g id="node8" class="node">
<title>Series[Run, float]</title>
<polygon fill="none" stroke="black" points="508,-180 367,-180 367,-144 508,-144 508,-180"/>
<text text-anchor="middle" x="437.5" y="-158.3" font-family="Times,serif" font-size="14.00">Series[Run, float]</text>
</g>
<!-- float(Run=0)&#45;&gt;Series[Run, float] -->
<g id="edge1" class="edge">
<title>float(Run=0)&#45;&gt;Series[Run, float]</title>
<path fill="none" stroke="black" stroke-dasharray="5,2" d="M334.01,-215.88C352.34,-206.51 375.24,-194.81 394.83,-184.8"/>
<polygon fill="black" stroke="black" points="396.54,-187.86 403.86,-180.19 393.36,-181.62 396.54,-187.86"/>
</g>
<!-- __main__.gather_Sum -->
<g id="node11" class="node">
<title>__main__.gather_Sum</title>
<ellipse fill="none" stroke="black" cx="437.5" cy="-90" rx="41.69" ry="18"/>
<text text-anchor="middle" x="437.5" y="-86.3" font-family="Times,serif" font-size="14.00">gather</text>
</g>
<!-- Series[Run, float]&#45;&gt;__main__.gather_Sum -->
<g id="edge4" class="edge">
<title>Series[Run, float]&#45;&gt;__main__.gather_Sum</title>
<path fill="none" stroke="black" d="M437.5,-143.7C437.5,-135.98 437.5,-126.71 437.5,-118.11"/>
<polygon fill="black" stroke="black" points="441,-118.1 437.5,-108.1 434,-118.1 441,-118.1"/>
</g>
<!-- float(Run=1) -->
<g id="node9" class="node">
<title>float(Run=1)</title>
<polygon fill="none" stroke="black" points="491.5,-252 383.5,-252 383.5,-216 491.5,-216 491.5,-252"/>
<text text-anchor="middle" x="437.5" y="-230.3" font-family="Times,serif" font-size="14.00">float(Run=1)</text>
</g>
<!-- float(Run=1)&#45;&gt;Series[Run, float] -->
<g id="edge2" class="edge">
<title>float(Run=1)&#45;&gt;Series[Run, float]</title>
<path fill="none" stroke="black" stroke-dasharray="5,2" d="M437.5,-215.7C437.5,-207.98 437.5,-198.71 437.5,-190.11"/>
<polygon fill="black" stroke="black" points="441,-190.1 437.5,-180.1 434,-190.1 441,-190.1"/>
</g>
<!-- float(Run=2) -->
<g id="node10" class="node">
<title>float(Run=2)</title>
<polygon fill="none" stroke="black" points="666.5,-252 558.5,-252 558.5,-216 666.5,-216 666.5,-252"/>
<text text-anchor="middle" x="612.5" y="-230.3" font-family="Times,serif" font-size="14.00">float(Run=2)</text>
</g>
<!-- float(Run=2)&#45;&gt;Series[Run, float] -->
<g id="edge3" class="edge">
<title>float(Run=2)&#45;&gt;Series[Run, float]</title>
<path fill="none" stroke="black" stroke-dasharray="5,2" d="M569.69,-215.88C545.55,-206.22 515.22,-194.09 489.69,-183.88"/>
<polygon fill="black" stroke="black" points="490.76,-180.53 480.17,-180.07 488.16,-187.03 490.76,-180.53"/>
</g>
<!-- Sum -->
<g id="node12" class="node">
<title>Sum</title>
<polygon fill="none" stroke="black" points="464.5,-36 410.5,-36 410.5,0 464.5,0 464.5,-36"/>
<text text-anchor="middle" x="437.5" y="-14.3" font-family="Times,serif" font-size="14.00">Sum</text>
</g>
<!-- __main__.gather_Sum&#45;&gt;Sum -->
<g id="edge5" class="edge">
<title>__main__.gather_Sum&#45;&gt;Sum</title>
<path fill="none" stroke="black" d="M437.5,-71.7C437.5,-63.98 437.5,-54.71 437.5,-46.11"/>
<polygon fill="black" stroke="black" points="441,-46.1 437.5,-36.1 434,-46.1 441,-46.1"/>
</g>
<!-- __main__.product_float(Run=0)&#45;&gt;float(Run=0) -->
<g id="edge8" class="edge">
<title>__main__.product_float(Run=0)&#45;&gt;float(Run=0)</title>
<path fill="none" stroke="black" d="M233.59,-289.46C244.71,-280.41 258.96,-268.81 271.45,-258.64"/>
<polygon fill="black" stroke="black" points="273.81,-261.24 279.36,-252.21 269.39,-255.81 273.81,-261.24"/>
</g>
<!-- __main__.product_float(Run=1)&#45;&gt;float(Run=1) -->
<g id="edge11" class="edge">
<title>__main__.product_float(Run=1)&#45;&gt;float(Run=1)</title>
<path fill="none" stroke="black" d="M437.5,-287.7C437.5,-279.98 437.5,-270.71 437.5,-262.11"/>
<polygon fill="black" stroke="black" points="441,-262.1 437.5,-252.1 434,-262.1 441,-262.1"/>
</g>
<!-- __main__.product_float(Run=2)&#45;&gt;float(Run=2) -->
<g id="edge14" class="edge">
<title>__main__.product_float(Run=2)&#45;&gt;float(Run=2)</title>
<path fill="none" stroke="black" d="M649.89,-288.41C644.14,-280.2 637.07,-270.1 630.63,-260.9"/>
<polygon fill="black" stroke="black" points="633.31,-258.63 624.71,-252.45 627.58,-262.65 633.31,-258.63"/>
</g>
</g>
</svg>
