<?xml version="1.0" encoding="UTF-8" standalone="no"?>
<!DOCTYPE svg PUBLIC "-//W3C//DTD SVG 1.1//EN"
 "http://www.w3.org/Graphics/SVG/1.1/DTD/svg11.dtd">
<!-- Generated by graphviz version 2.43.0 (0)
 -->
<!-- Title: %3 Pages: 1 -->
<svg width="993pt" height="764pt"
 viewBox="0.00 0.00 993.00 764.00" xmlns="http://www.w3.org/2000/svg" xmlns:xlink="http://www.w3.org/1999/xlink">
<g id="graph0" class="graph" transform="scale(1 1) rotate(0) translate(4 760)">
<title>%3</title>
<polygon fill="white" stroke="transparent" points="-4,4 -4,-760 989,-760 989,4 -4,4"/>
<g id="clust21" class="cluster">
<title>cluster_RunID, Result</title>
<polygon fill="#f0f0ff" stroke="#f0f0ff" points="71.5,-208 71.5,-260 737.5,-260 737.5,-208 71.5,-208"/>
</g>
<!-- __main__.clean_CleanedData(RunID=102) -->
<g id="node1" class="node">
<title>__main__.clean_CleanedData(RunID=102)</title>
<ellipse fill="none" stroke="black" cx="101.5" cy="-522" rx="35.19" ry="18"/>
<text text-anchor="middle" x="101.5" y="-518.3" font-family="Times,serif" font-size="14.00">clean</text>
</g>
<!-- CleanedData(RunID=102) -->
<g id="node3" class="node">
<title>CleanedData(RunID=102)</title>
<polygon fill="none" stroke="black" points="203,-468 0,-468 0,-432 203,-432 203,-468"/>
<text text-anchor="middle" x="101.5" y="-446.3" font-family="Times,serif" font-size="14.00">CleanedData(RunID=102)</text>
</g>
<!-- __main__.clean_CleanedData(RunID=102)&#45;&gt;CleanedData(RunID=102) -->
<g id="edge2" class="edge">
<title>__main__.clean_CleanedData(RunID=102)&#45;&gt;CleanedData(RunID=102)</title>
<path fill="none" stroke="black" d="M101.5,-503.7C101.5,-495.98 101.5,-486.71 101.5,-478.11"/>
<polygon fill="black" stroke="black" points="105,-478.1 101.5,-468.1 98,-478.1 105,-478.1"/>
</g>
<!-- RawData(RunID=102) -->
<g id="node2" class="node">
<title>RawData(RunID=102)</title>
<polygon fill="none" stroke="black" points="189.5,-612 13.5,-612 13.5,-576 189.5,-576 189.5,-612"/>
<text text-anchor="middle" x="101.5" y="-590.3" font-family="Times,serif" font-size="14.00">RawData(RunID=102)</text>
</g>
<!-- RawData(RunID=102)&#45;&gt;__main__.clean_CleanedData(RunID=102) -->
<g id="edge1" class="edge">
<title>RawData(RunID=102)&#45;&gt;__main__.clean_CleanedData(RunID=102)</title>
<path fill="none" stroke="black" d="M101.5,-575.7C101.5,-567.98 101.5,-558.71 101.5,-550.11"/>
<polygon fill="black" stroke="black" points="105,-550.1 101.5,-540.1 98,-550.1 105,-550.1"/>
</g>
<!-- __main__.process_Result(RunID=102) -->
<g id="node27" class="node">
<title>__main__.process_Result(RunID=102)</title>
<ellipse fill="none" stroke="black" cx="229.5" cy="-378" rx="46.29" ry="18"/>
<text text-anchor="middle" x="229.5" y="-374.3" font-family="Times,serif" font-size="14.00">process</text>
</g>
<!-- CleanedData(RunID=102)&#45;&gt;__main__.process_Result(RunID=102) -->
<g id="edge21" class="edge">
<title>CleanedData(RunID=102)&#45;&gt;__main__.process_Result(RunID=102)</title>
<path fill="none" stroke="black" d="M132.81,-431.88C151.6,-421.6 175.52,-408.52 194.87,-397.94"/>
<polygon fill="black" stroke="black" points="196.58,-400.99 203.68,-393.12 193.22,-394.85 196.58,-400.99"/>
</g>
<!-- __main__.clean_CleanedData(RunID=103) -->
<g id="node4" class="node">
<title>__main__.clean_CleanedData(RunID=103)</title>
<ellipse fill="none" stroke="black" cx="662.5" cy="-522" rx="35.19" ry="18"/>
<text text-anchor="middle" x="662.5" y="-518.3" font-family="Times,serif" font-size="14.00">clean</text>
</g>
<!-- CleanedData(RunID=103) -->
<g id="node6" class="node">
<title>CleanedData(RunID=103)</title>
<polygon fill="none" stroke="black" points="764,-468 561,-468 561,-432 764,-432 764,-468"/>
<text text-anchor="middle" x="662.5" y="-446.3" font-family="Times,serif" font-size="14.00">CleanedData(RunID=103)</text>
</g>
<!-- __main__.clean_CleanedData(RunID=103)&#45;&gt;CleanedData(RunID=103) -->
<g id="edge4" class="edge">
<title>__main__.clean_CleanedData(RunID=103)&#45;&gt;CleanedData(RunID=103)</title>
<path fill="none" stroke="black" d="M662.5,-503.7C662.5,-495.98 662.5,-486.71 662.5,-478.11"/>
<polygon fill="black" stroke="black" points="666,-478.1 662.5,-468.1 659,-478.1 666,-478.1"/>
</g>
<!-- RawData(RunID=103) -->
<g id="node5" class="node">
<title>RawData(RunID=103)</title>
<polygon fill="none" stroke="black" points="750.5,-612 574.5,-612 574.5,-576 750.5,-576 750.5,-612"/>
<text text-anchor="middle" x="662.5" y="-590.3" font-family="Times,serif" font-size="14.00">RawData(RunID=103)</text>
</g>
<!-- RawData(RunID=103)&#45;&gt;__main__.clean_CleanedData(RunID=103) -->
<g id="edge3" class="edge">
<title>RawData(RunID=103)&#45;&gt;__main__.clean_CleanedData(RunID=103)</title>
<path fill="none" stroke="black" d="M662.5,-575.7C662.5,-567.98 662.5,-558.71 662.5,-550.11"/>
<polygon fill="black" stroke="black" points="666,-550.1 662.5,-540.1 659,-550.1 666,-550.1"/>
</g>
<!-- __main__.process_Result(RunID=103) -->
<g id="node30" class="node">
<title>__main__.process_Result(RunID=103)</title>
<ellipse fill="none" stroke="black" cx="579.5" cy="-378" rx="46.29" ry="18"/>
<text text-anchor="middle" x="579.5" y="-374.3" font-family="Times,serif" font-size="14.00">process</text>
</g>
<!-- CleanedData(RunID=103)&#45;&gt;__main__.process_Result(RunID=103) -->
<g id="edge24" class="edge">
<title>CleanedData(RunID=103)&#45;&gt;__main__.process_Result(RunID=103)</title>
<path fill="none" stroke="black" d="M641.98,-431.7C631.06,-422.49 617.51,-411.06 605.82,-401.2"/>
<polygon fill="black" stroke="black" points="607.98,-398.44 598.08,-394.67 603.47,-403.79 607.98,-398.44"/>
</g>
<!-- __main__.clean_CleanedData(RunID=104) -->
<g id="node7" class="node">
<title>__main__.clean_CleanedData(RunID=104)</title>
<ellipse fill="none" stroke="black" cx="883.5" cy="-522" rx="35.19" ry="18"/>
<text text-anchor="middle" x="883.5" y="-518.3" font-family="Times,serif" font-size="14.00">clean</text>
</g>
<!-- CleanedData(RunID=104) -->
<g id="node9" class="node">
<title>CleanedData(RunID=104)</title>
<polygon fill="none" stroke="black" points="985,-468 782,-468 782,-432 985,-432 985,-468"/>
<text text-anchor="middle" x="883.5" y="-446.3" font-family="Times,serif" font-size="14.00">CleanedData(RunID=104)</text>
</g>
<!-- __main__.clean_CleanedData(RunID=104)&#45;&gt;CleanedData(RunID=104) -->
<g id="edge6" class="edge">
<title>__main__.clean_CleanedData(RunID=104)&#45;&gt;CleanedData(RunID=104)</title>
<path fill="none" stroke="black" d="M883.5,-503.7C883.5,-495.98 883.5,-486.71 883.5,-478.11"/>
<polygon fill="black" stroke="black" points="887,-478.1 883.5,-468.1 880,-478.1 887,-478.1"/>
</g>
<!-- RawData(RunID=104) -->
<g id="node8" class="node">
<title>RawData(RunID=104)</title>
<polygon fill="none" stroke="black" points="971.5,-612 795.5,-612 795.5,-576 971.5,-576 971.5,-612"/>
<text text-anchor="middle" x="883.5" y="-590.3" font-family="Times,serif" font-size="14.00">RawData(RunID=104)</text>
</g>
<!-- RawData(RunID=104)&#45;&gt;__main__.clean_CleanedData(RunID=104) -->
<g id="edge5" class="edge">
<title>RawData(RunID=104)&#45;&gt;__main__.clean_CleanedData(RunID=104)</title>
<path fill="none" stroke="black" d="M883.5,-575.7C883.5,-567.98 883.5,-558.71 883.5,-550.11"/>
<polygon fill="black" stroke="black" points="887,-550.1 883.5,-540.1 880,-550.1 887,-550.1"/>
</g>
<!-- __main__.process_Result(RunID=104) -->
<g id="node32" class="node">
<title>__main__.process_Result(RunID=104)</title>
<ellipse fill="none" stroke="black" cx="754.5" cy="-378" rx="46.29" ry="18"/>
<text text-anchor="middle" x="754.5" y="-374.3" font-family="Times,serif" font-size="14.00">process</text>
</g>
<!-- CleanedData(RunID=104)&#45;&gt;__main__.process_Result(RunID=104) -->
<g id="edge27" class="edge">
<title>CleanedData(RunID=104)&#45;&gt;__main__.process_Result(RunID=104)</title>
<path fill="none" stroke="black" d="M851.94,-431.88C833.01,-421.6 808.9,-408.52 789.41,-397.94"/>
<polygon fill="black" stroke="black" points="790.98,-394.82 780.53,-393.12 787.65,-400.97 790.98,-394.82"/>
</g>
<!-- __main__.clean_CleanedData(RunID=105) -->
<g id="node10" class="node">
<title>__main__.clean_CleanedData(RunID=105)</title>
<ellipse fill="none" stroke="black" cx="322.5" cy="-522" rx="35.19" ry="18"/>
<text text-anchor="middle" x="322.5" y="-518.3" font-family="Times,serif" font-size="14.00">clean</text>
</g>
<!-- CleanedData(RunID=105) -->
<g id="node12" class="node">
<title>CleanedData(RunID=105)</title>
<polygon fill="none" stroke="black" points="424,-468 221,-468 221,-432 424,-432 424,-468"/>
<text text-anchor="middle" x="322.5" y="-446.3" font-family="Times,serif" font-size="14.00">CleanedData(RunID=105)</text>
</g>
<!-- __main__.clean_CleanedData(RunID=105)&#45;&gt;CleanedData(RunID=105) -->
<g id="edge8" class="edge">
<title>__main__.clean_CleanedData(RunID=105)&#45;&gt;CleanedData(RunID=105)</title>
<path fill="none" stroke="black" d="M322.5,-503.7C322.5,-495.98 322.5,-486.71 322.5,-478.11"/>
<polygon fill="black" stroke="black" points="326,-478.1 322.5,-468.1 319,-478.1 326,-478.1"/>
</g>
<!-- RawData(RunID=105) -->
<g id="node11" class="node">
<title>RawData(RunID=105)</title>
<polygon fill="none" stroke="black" points="410.5,-612 234.5,-612 234.5,-576 410.5,-576 410.5,-612"/>
<text text-anchor="middle" x="322.5" y="-590.3" font-family="Times,serif" font-size="14.00">RawData(RunID=105)</text>
</g>
<!-- RawData(RunID=105)&#45;&gt;__main__.clean_CleanedData(RunID=105) -->
<g id="edge7" class="edge">
<title>RawData(RunID=105)&#45;&gt;__main__.clean_CleanedData(RunID=105)</title>
<path fill="none" stroke="black" d="M322.5,-575.7C322.5,-567.98 322.5,-558.71 322.5,-550.11"/>
<polygon fill="black" stroke="black" points="326,-550.1 322.5,-540.1 319,-550.1 326,-550.1"/>
</g>
<!-- __main__.process_Result(RunID=105) -->
<g id="node34" class="node">
<title>__main__.process_Result(RunID=105)</title>
<ellipse fill="none" stroke="black" cx="404.5" cy="-378" rx="46.29" ry="18"/>
<text text-anchor="middle" x="404.5" y="-374.3" font-family="Times,serif" font-size="14.00">process</text>
</g>
<!-- CleanedData(RunID=105)&#45;&gt;__main__.process_Result(RunID=105) -->
<g id="edge30" class="edge">
<title>CleanedData(RunID=105)&#45;&gt;__main__.process_Result(RunID=105)</title>
<path fill="none" stroke="black" d="M342.77,-431.7C353.56,-422.49 366.95,-411.06 378.5,-401.2"/>
<polygon fill="black" stroke="black" points="380.81,-403.83 386.14,-394.67 376.26,-398.5 380.81,-403.83"/>
</g>
<!-- Filename(RunID=102) -->
<g id="node13" class="node">
<title>Filename(RunID=102)</title>
<polygon fill="none" stroke="black" points="190,-756 13,-756 13,-720 190,-720 190,-756"/>
<text text-anchor="middle" x="101.5" y="-734.3" font-family="Times,serif" font-size="14.00">Filename(RunID=102)</text>
</g>
<!-- __main__.load_RawData(RunID=102) -->
<g id="node23" class="node">
<title>__main__.load_RawData(RunID=102)</title>
<ellipse fill="none" stroke="black" cx="101.5" cy="-666" rx="30.59" ry="18"/>
<text text-anchor="middle" x="101.5" y="-662.3" font-family="Times,serif" font-size="14.00">load</text>
</g>
<!-- Filename(RunID=102)&#45;&gt;__main__.load_RawData(RunID=102) -->
<g id="edge13" class="edge">
<title>Filename(RunID=102)&#45;&gt;__main__.load_RawData(RunID=102)</title>
<path fill="none" stroke="black" d="M101.5,-719.7C101.5,-711.98 101.5,-702.71 101.5,-694.11"/>
<polygon fill="black" stroke="black" points="105,-694.1 101.5,-684.1 98,-694.1 105,-694.1"/>
</g>
<!-- Filename(RunID=103) -->
<g id="node14" class="node">
<title>Filename(RunID=103)</title>
<polygon fill="none" stroke="black" points="751,-756 574,-756 574,-720 751,-720 751,-756"/>
<text text-anchor="middle" x="662.5" y="-734.3" font-family="Times,serif" font-size="14.00">Filename(RunID=103)</text>
</g>
<!-- __main__.load_RawData(RunID=103) -->
<g id="node24" class="node">
<title>__main__.load_RawData(RunID=103)</title>
<ellipse fill="none" stroke="black" cx="662.5" cy="-666" rx="30.59" ry="18"/>
<text text-anchor="middle" x="662.5" y="-662.3" font-family="Times,serif" font-size="14.00">load</text>
</g>
<!-- Filename(RunID=103)&#45;&gt;__main__.load_RawData(RunID=103) -->
<g id="edge15" class="edge">
<title>Filename(RunID=103)&#45;&gt;__main__.load_RawData(RunID=103)</title>
<path fill="none" stroke="black" d="M662.5,-719.7C662.5,-711.98 662.5,-702.71 662.5,-694.11"/>
<polygon fill="black" stroke="black" points="666,-694.1 662.5,-684.1 659,-694.1 666,-694.1"/>
</g>
<!-- Filename(RunID=104) -->
<g id="node15" class="node">
<title>Filename(RunID=104)</title>
<polygon fill="none" stroke="black" points="972,-756 795,-756 795,-720 972,-720 972,-756"/>
<text text-anchor="middle" x="883.5" y="-734.3" font-family="Times,serif" font-size="14.00">Filename(RunID=104)</text>
</g>
<!-- __main__.load_RawData(RunID=104) -->
<g id="node25" class="node">
<title>__main__.load_RawData(RunID=104)</title>
<ellipse fill="none" stroke="black" cx="883.5" cy="-666" rx="30.59" ry="18"/>
<text text-anchor="middle" x="883.5" y="-662.3" font-family="Times,serif" font-size="14.00">load</text>
</g>
<!-- Filename(RunID=104)&#45;&gt;__main__.load_RawData(RunID=104) -->
<g id="edge17" class="edge">
<title>Filename(RunID=104)&#45;&gt;__main__.load_RawData(RunID=104)</title>
<path fill="none" stroke="black" d="M883.5,-719.7C883.5,-711.98 883.5,-702.71 883.5,-694.11"/>
<polygon fill="black" stroke="black" points="887,-694.1 883.5,-684.1 880,-694.1 887,-694.1"/>
</g>
<!-- Filename(RunID=105) -->
<g id="node16" class="node">
<title>Filename(RunID=105)</title>
<polygon fill="none" stroke="black" points="411,-756 234,-756 234,-720 411,-720 411,-756"/>
<text text-anchor="middle" x="322.5" y="-734.3" font-family="Times,serif" font-size="14.00">Filename(RunID=105)</text>
</g>
<!-- __main__.load_RawData(RunID=105) -->
<g id="node26" class="node">
<title>__main__.load_RawData(RunID=105)</title>
<ellipse fill="none" stroke="black" cx="322.5" cy="-666" rx="30.59" ry="18"/>
<text text-anchor="middle" x="322.5" y="-662.3" font-family="Times,serif" font-size="14.00">load</text>
</g>
<!-- Filename(RunID=105)&#45;&gt;__main__.load_RawData(RunID=105) -->
<g id="edge19" class="edge">
<title>Filename(RunID=105)&#45;&gt;__main__.load_RawData(RunID=105)</title>
<path fill="none" stroke="black" d="M322.5,-719.7C322.5,-711.98 322.5,-702.71 322.5,-694.11"/>
<polygon fill="black" stroke="black" points="326,-694.1 322.5,-684.1 319,-694.1 326,-694.1"/>
</g>
<!-- __main__.merge_runs_MergedResult(Material=diamond) -->
<g id="node17" class="node">
<title>__main__.merge_runs_MergedResult(Material=diamond)</title>
<ellipse fill="none" stroke="black" cx="250.5" cy="-162" rx="65.79" ry="18"/>
<text text-anchor="middle" x="250.5" y="-158.3" font-family="Times,serif" font-size="14.00">merge_runs</text>
</g>
<!-- MergedResult(Material=diamond) -->
<g id="node19" class="node">
<title>MergedResult(Material=diamond)</title>
<polygon fill="none" stroke="black" points="408,-108 145,-108 145,-72 408,-72 408,-108"/>
<text text-anchor="middle" x="276.5" y="-86.3" font-family="Times,serif" font-size="14.00">MergedResult(Material=diamond)</text>
</g>
<!-- __main__.merge_runs_MergedResult(Material=diamond)&#45;&gt;MergedResult(Material=diamond) -->
<g id="edge10" class="edge">
<title>__main__.merge_runs_MergedResult(Material=diamond)&#45;&gt;MergedResult(Material=diamond)</title>
<path fill="none" stroke="black" d="M256.79,-144.05C259.72,-136.18 263.27,-126.62 266.55,-117.79"/>
<polygon fill="black" stroke="black" points="269.88,-118.87 270.08,-108.28 263.32,-116.43 269.88,-118.87"/>
</g>
<!-- Series[RunID, Result](Material=diamond) -->
<g id="node18" class="node">
<title>Series[RunID, Result](Material=diamond)</title>
<polygon fill="none" stroke="black" points="395.5,-252 79.5,-252 79.5,-216 395.5,-216 395.5,-252"/>
<text text-anchor="middle" x="237.5" y="-230.3" font-family="Times,serif" font-size="14.00">Series[RunID, Result](Material=diamond)</text>
</g>
<!-- Series[RunID, Result](Material=diamond)&#45;&gt;__main__.merge_runs_MergedResult(Material=diamond) -->
<g id="edge9" class="edge">
<title>Series[RunID, Result](Material=diamond)&#45;&gt;__main__.merge_runs_MergedResult(Material=diamond)</title>
<path fill="none" stroke="black" d="M240.71,-215.7C242.15,-207.98 243.87,-198.71 245.46,-190.11"/>
<polygon fill="black" stroke="black" points="248.94,-190.58 247.32,-180.1 242.06,-189.3 248.94,-190.58"/>
</g>
<!-- Series[Material, MergedResult] -->
<g id="node36" class="node">
<title>Series[Material, MergedResult]</title>
<polygon fill="none" stroke="black" points="538,-36 295,-36 295,0 538,0 538,-36"/>
<text text-anchor="middle" x="416.5" y="-14.3" font-family="Times,serif" font-size="14.00">Series[Material, MergedResult]</text>
</g>
<!-- MergedResult(Material=diamond)&#45;&gt;Series[Material, MergedResult] -->
<g id="edge33" class="edge">
<title>MergedResult(Material=diamond)&#45;&gt;Series[Material, MergedResult]</title>
<path fill="none" stroke="black" stroke-dasharray="5,2" d="M310.75,-71.88C329.56,-62.47 353.08,-50.71 373.17,-40.67"/>
<polygon fill="black" stroke="black" points="374.74,-43.79 382.12,-36.19 371.61,-37.53 374.74,-43.79"/>
</g>
<!-- __main__.merge_runs_MergedResult(Material=graphite) -->
<g id="node20" class="node">
<title>__main__.merge_runs_MergedResult(Material=graphite)</title>
<ellipse fill="none" stroke="black" cx="567.5" cy="-162" rx="65.79" ry="18"/>
<text text-anchor="middle" x="567.5" y="-158.3" font-family="Times,serif" font-size="14.00">merge_runs</text>
</g>
<!-- MergedResult(Material=graphite) -->
<g id="node22" class="node">
<title>MergedResult(Material=graphite)</title>
<polygon fill="none" stroke="black" points="695.5,-108 433.5,-108 433.5,-72 695.5,-72 695.5,-108"/>
<text text-anchor="middle" x="564.5" y="-86.3" font-family="Times,serif" font-size="14.00">MergedResult(Material=graphite)</text>
</g>
<!-- __main__.merge_runs_MergedResult(Material=graphite)&#45;&gt;MergedResult(Material=graphite) -->
<g id="edge12" class="edge">
<title>__main__.merge_runs_MergedResult(Material=graphite)&#45;&gt;MergedResult(Material=graphite)</title>
<path fill="none" stroke="black" d="M566.76,-143.7C566.43,-135.98 566.03,-126.71 565.66,-118.11"/>
<polygon fill="black" stroke="black" points="569.16,-117.95 565.23,-108.1 562.16,-118.25 569.16,-117.95"/>
</g>
<!-- Series[RunID, Result](Material=graphite) -->
<g id="node21" class="node">
<title>Series[RunID, Result](Material=graphite)</title>
<polygon fill="none" stroke="black" points="729,-252 414,-252 414,-216 729,-216 729,-252"/>
<text text-anchor="middle" x="571.5" y="-230.3" font-family="Times,serif" font-size="14.00">Series[RunID, Result](Material=graphite)</text>
</g>
<!-- Series[RunID, Result](Material=graphite)&#45;&gt;__main__.merge_runs_MergedResult(Material=graphite) -->
<g id="edge11" class="edge">
<title>Series[RunID, Result](Material=graphite)&#45;&gt;__main__.merge_runs_MergedResult(Material=graphite)</title>
<path fill="none" stroke="black" d="M570.51,-215.7C570.07,-207.98 569.54,-198.71 569.05,-190.11"/>
<polygon fill="black" stroke="black" points="572.54,-189.89 568.48,-180.1 565.55,-190.29 572.54,-189.89"/>
</g>
<!-- MergedResult(Material=graphite)&#45;&gt;Series[Material, MergedResult] -->
<g id="edge34" class="edge">
<title>MergedResult(Material=graphite)&#45;&gt;Series[Material, MergedResult]</title>
<path fill="none" stroke="black" stroke-dasharray="5,2" d="M528.3,-71.88C508.24,-62.39 483.13,-50.51 461.79,-40.42"/>
<polygon fill="black" stroke="black" points="463.12,-37.18 452.59,-36.07 460.13,-43.51 463.12,-37.18"/>
</g>
<!-- __main__.load_RawData(RunID=102)&#45;&gt;RawData(RunID=102) -->
<g id="edge14" class="edge">
<title>__main__.load_RawData(RunID=102)&#45;&gt;RawData(RunID=102)</title>
<path fill="none" stroke="black" d="M101.5,-647.7C101.5,-639.98 101.5,-630.71 101.5,-622.11"/>
<polygon fill="black" stroke="black" points="105,-622.1 101.5,-612.1 98,-622.1 105,-622.1"/>
</g>
<!-- __main__.load_RawData(RunID=103)&#45;&gt;RawData(RunID=103) -->
<g id="edge16" class="edge">
<title>__main__.load_RawData(RunID=103)&#45;&gt;RawData(RunID=103)</title>
<path fill="none" stroke="black" d="M662.5,-647.7C662.5,-639.98 662.5,-630.71 662.5,-622.11"/>
<polygon fill="black" stroke="black" points="666,-622.1 662.5,-612.1 659,-622.1 666,-622.1"/>
</g>
<!-- __main__.load_RawData(RunID=104)&#45;&gt;RawData(RunID=104) -->
<g id="edge18" class="edge">
<title>__main__.load_RawData(RunID=104)&#45;&gt;RawData(RunID=104)</title>
<path fill="none" stroke="black" d="M883.5,-647.7C883.5,-639.98 883.5,-630.71 883.5,-622.11"/>
<polygon fill="black" stroke="black" points="887,-622.1 883.5,-612.1 880,-622.1 887,-622.1"/>
</g>
<!-- __main__.load_RawData(RunID=105)&#45;&gt;RawData(RunID=105) -->
<g id="edge20" class="edge">
<title>__main__.load_RawData(RunID=105)&#45;&gt;RawData(RunID=105)</title>
<path fill="none" stroke="black" d="M322.5,-647.7C322.5,-639.98 322.5,-630.71 322.5,-622.11"/>
<polygon fill="black" stroke="black" points="326,-622.1 322.5,-612.1 319,-622.1 326,-622.1"/>
</g>
<!-- Result(RunID=102) -->
<g id="node29" class="node">
<title>Result(RunID=102)</title>
<polygon fill="none" stroke="black" points="308,-324 151,-324 151,-288 308,-288 308,-324"/>
<text text-anchor="middle" x="229.5" y="-302.3" font-family="Times,serif" font-size="14.00">Result(RunID=102)</text>
</g>
<!-- __main__.process_Result(RunID=102)&#45;&gt;Result(RunID=102) -->
<g id="edge23" class="edge">
<title>__main__.process_Result(RunID=102)&#45;&gt;Result(RunID=102)</title>
<path fill="none" stroke="black" d="M229.5,-359.7C229.5,-351.98 229.5,-342.71 229.5,-334.11"/>
<polygon fill="black" stroke="black" points="233,-334.1 229.5,-324.1 226,-334.1 233,-334.1"/>
</g>
<!-- ScaleFactor -->
<g id="node28" class="node">
<title>ScaleFactor</title>
<polygon fill="none" stroke="black" points="543,-468 442,-468 442,-432 543,-432 543,-468"/>
<text text-anchor="middle" x="492.5" y="-446.3" font-family="Times,serif" font-size="14.00">ScaleFactor</text>
</g>
<!-- ScaleFactor&#45;&gt;__main__.process_Result(RunID=102) -->
<g id="edge22" class="edge">
<title>ScaleFactor&#45;&gt;__main__.process_Result(RunID=102)</title>
<path fill="none" stroke="black" d="M441.99,-434.35C439.12,-433.55 436.28,-432.76 433.5,-432 380.03,-417.35 318.4,-401.48 276.99,-390.96"/>
<polygon fill="black" stroke="black" points="277.73,-387.54 267.18,-388.47 276.01,-394.32 277.73,-387.54"/>
</g>
<!-- ScaleFactor&#45;&gt;__main__.process_Result(RunID=103) -->
<g id="edge25" class="edge">
<title>ScaleFactor&#45;&gt;__main__.process_Result(RunID=103)</title>
<path fill="none" stroke="black" d="M514.01,-431.7C525.53,-422.42 539.86,-410.89 552.17,-400.99"/>
<polygon fill="black" stroke="black" points="554.72,-403.43 560.31,-394.44 550.33,-397.98 554.72,-403.43"/>
</g>
<!-- ScaleFactor&#45;&gt;__main__.process_Result(RunID=104) -->
<g id="edge28" class="edge">
<title>ScaleFactor&#45;&gt;__main__.process_Result(RunID=104)</title>
<path fill="none" stroke="black" d="M543.22,-434.55C546.36,-433.68 549.47,-432.83 552.5,-432 605.33,-417.59 666.14,-401.73 707.12,-391.15"/>
<polygon fill="black" stroke="black" points="708.03,-394.53 716.84,-388.65 706.28,-387.75 708.03,-394.53"/>
</g>
<!-- ScaleFactor&#45;&gt;__main__.process_Result(RunID=105) -->
<g id="edge31" class="edge">
<title>ScaleFactor&#45;&gt;__main__.process_Result(RunID=105)</title>
<path fill="none" stroke="black" d="M470.75,-431.7C458.97,-422.33 444.32,-410.67 431.78,-400.7"/>
<polygon fill="black" stroke="black" points="433.91,-397.92 423.91,-394.44 429.55,-403.4 433.91,-397.92"/>
</g>
<!-- Result(RunID=102)&#45;&gt;Series[RunID, Result](Material=diamond) -->
<g id="edge35" class="edge">
<title>Result(RunID=102)&#45;&gt;Series[RunID, Result](Material=diamond)</title>
<path fill="none" stroke="black" stroke-dasharray="5,2" d="M231.48,-287.7C232.36,-279.98 233.42,-270.71 234.4,-262.11"/>
<polygon fill="black" stroke="black" points="237.89,-262.44 235.55,-252.1 230.93,-261.64 237.89,-262.44"/>
</g>
<!-- Result(RunID=103) -->
<g id="node31" class="node">
<title>Result(RunID=103)</title>
<polygon fill="none" stroke="black" points="658,-324 501,-324 501,-288 658,-288 658,-324"/>
<text text-anchor="middle" x="579.5" y="-302.3" font-family="Times,serif" font-size="14.00">Result(RunID=103)</text>
</g>
<!-- __main__.process_Result(RunID=103)&#45;&gt;Result(RunID=103) -->
<g id="edge26" class="edge">
<title>__main__.process_Result(RunID=103)&#45;&gt;Result(RunID=103)</title>
<path fill="none" stroke="black" d="M579.5,-359.7C579.5,-351.98 579.5,-342.71 579.5,-334.11"/>
<polygon fill="black" stroke="black" points="583,-334.1 579.5,-324.1 576,-334.1 583,-334.1"/>
</g>
<!-- Result(RunID=103)&#45;&gt;Series[RunID, Result](Material=graphite) -->
<g id="edge36" class="edge">
<title>Result(RunID=103)&#45;&gt;Series[RunID, Result](Material=graphite)</title>
<path fill="none" stroke="black" stroke-dasharray="5,2" d="M577.52,-287.7C576.64,-279.98 575.58,-270.71 574.6,-262.11"/>
<polygon fill="black" stroke="black" points="578.07,-261.64 573.45,-252.1 571.11,-262.44 578.07,-261.64"/>
</g>
<!-- Result(RunID=104) -->
<g id="node33" class="node">
<title>Result(RunID=104)</title>
<polygon fill="none" stroke="black" points="833,-324 676,-324 676,-288 833,-288 833,-324"/>
<text text-anchor="middle" x="754.5" y="-302.3" font-family="Times,serif" font-size="14.00">Result(RunID=104)</text>
</g>
<!-- __main__.process_Result(RunID=104)&#45;&gt;Result(RunID=104) -->
<g id="edge29" class="edge">
<title>__main__.process_Result(RunID=104)&#45;&gt;Result(RunID=104)</title>
<path fill="none" stroke="black" d="M754.5,-359.7C754.5,-351.98 754.5,-342.71 754.5,-334.11"/>
<polygon fill="black" stroke="black" points="758,-334.1 754.5,-324.1 751,-334.1 758,-334.1"/>
</g>
<!-- Result(RunID=104)&#45;&gt;Series[RunID, Result](Material=graphite) -->
<g id="edge37" class="edge">
<title>Result(RunID=104)&#45;&gt;Series[RunID, Result](Material=graphite)</title>
<path fill="none" stroke="black" stroke-dasharray="5,2" d="M709.73,-287.88C684.38,-278.18 652.49,-265.98 625.73,-255.74"/>
<polygon fill="black" stroke="black" points="626.71,-252.37 616.12,-252.07 624.21,-258.91 626.71,-252.37"/>
</g>
<!-- Result(RunID=105) -->
<g id="node35" class="node">
<title>Result(RunID=105)</title>
<polygon fill="none" stroke="black" points="483,-324 326,-324 326,-288 483,-288 483,-324"/>
<text text-anchor="middle" x="404.5" y="-302.3" font-family="Times,serif" font-size="14.00">Result(RunID=105)</text>
</g>
<!-- __main__.process_Result(RunID=105)&#45;&gt;Result(RunID=105) -->
<g id="edge32" class="edge">
<title>__main__.process_Result(RunID=105)&#45;&gt;Result(RunID=105)</title>
<path fill="none" stroke="black" d="M404.5,-359.7C404.5,-351.98 404.5,-342.71 404.5,-334.11"/>
<polygon fill="black" stroke="black" points="408,-334.1 404.5,-324.1 401,-334.1 408,-334.1"/>
</g>
<!-- Result(RunID=105)&#45;&gt;Series[RunID, Result](Material=graphite) -->
<g id="edge38" class="edge">
<title>Result(RunID=105)&#45;&gt;Series[RunID, Result](Material=graphite)</title>
<path fill="none" stroke="black" stroke-dasharray="5,2" d="M445.35,-287.88C468.28,-278.26 497.08,-266.19 521.37,-256.01"/>
<polygon fill="black" stroke="black" points="522.91,-259.16 530.78,-252.07 520.2,-252.71 522.91,-259.16"/>
</g>
</g>
</svg>
