<?xml version="1.0" encoding="UTF-8" standalone="no"?>
<!DOCTYPE svg PUBLIC "-//W3C//DTD SVG 1.1//EN"
 "http://www.w3.org/Graphics/SVG/1.1/DTD/svg11.dtd">
<!-- Generated by graphviz version 2.43.0 (0)
 -->
<!-- Title: %3 Pages: 1 -->
<svg width="919pt" height="238pt"
 viewBox="0.00 0.00 919.00 238.00" xmlns="http://www.w3.org/2000/svg" xmlns:xlink="http://www.w3.org/1999/xlink">
<g id="graph0" class="graph" transform="scale(1 1) rotate(0) translate(4 234)">
<title>%3</title>
<polygon fill="white" stroke="transparent" points="-4,4 -4,-234 915,-234 915,4 -4,4"/>
<!-- Param(dim_0=0) -->
<g id="node1" class="node">
<title>Param(dim_0=0)</title>
<polygon fill="none" stroke="black" points="218.5,-230 81.5,-230 81.5,-207 218.5,-207 218.5,-230"/>
<text text-anchor="middle" x="150" y="-214.8" font-family="Times,serif" font-size="14.00">Param(dim_0=0)</text>
</g>
<!-- Param1(dim_0=0) -->
<g id="node4" class="node">
<title>Param1(dim_0=0)</title>
<polygon fill="none" stroke="black" points="146,-171 0,-171 0,-138 146,-138 146,-171"/>
<text text-anchor="start" x="8" y="-156.8" font-family="Times,serif" font-size="14.00">Param1(dim_0=0)</text>
<text text-anchor="start" x="32.5" y="-145.2" font-family="Times,serif" font-size="11.00">via:</text>
<text text-anchor="start" x="53.5" y="-145.2" font-family="Times,serif" font-style="italic" font-size="11.00">to_param1</text>
</g>
<!-- Param(dim_0=0)&#45;&gt;Param1(dim_0=0) -->
<g id="edge1" class="edge">
<title>Param(dim_0=0)&#45;&gt;Param1(dim_0=0)</title>
<path fill="none" stroke="black" d="M136.94,-206.98C126.94,-198.93 112.8,-187.55 100.36,-177.53"/>
<polygon fill="black" stroke="black" points="102.48,-174.74 92.5,-171.2 98.09,-180.2 102.48,-174.74"/>
</g>
<!-- Param2(dim_0=0) -->
<g id="node7" class="node">
<title>Param2(dim_0=0)</title>
<polygon fill="none" stroke="black" points="299,-171 153,-171 153,-138 299,-138 299,-171"/>
<text text-anchor="start" x="161" y="-156.8" font-family="Times,serif" font-size="14.00">Param2(dim_0=0)</text>
<text text-anchor="start" x="185.5" y="-145.2" font-family="Times,serif" font-size="11.00">via:</text>
<text text-anchor="start" x="206.5" y="-145.2" font-family="Times,serif" font-style="italic" font-size="11.00">to_param2</text>
</g>
<!-- Param(dim_0=0)&#45;&gt;Param2(dim_0=0) -->
<g id="edge4" class="edge">
<title>Param(dim_0=0)&#45;&gt;Param2(dim_0=0)</title>
<path fill="none" stroke="black" d="M162.89,-206.98C172.76,-198.93 186.71,-187.55 198.99,-177.53"/>
<polygon fill="black" stroke="black" points="201.22,-180.23 206.76,-171.2 196.8,-174.81 201.22,-180.23"/>
</g>
<!-- Param(dim_0=1) -->
<g id="node2" class="node">
<title>Param(dim_0=1)</title>
<polygon fill="none" stroke="black" points="524.5,-230 387.5,-230 387.5,-207 524.5,-207 524.5,-230"/>
<text text-anchor="middle" x="456" y="-214.8" font-family="Times,serif" font-size="14.00">Param(dim_0=1)</text>
</g>
<!-- Param1(dim_0=1) -->
<g id="node5" class="node">
<title>Param1(dim_0=1)</title>
<polygon fill="none" stroke="black" points="452,-171 306,-171 306,-138 452,-138 452,-171"/>
<text text-anchor="start" x="314" y="-156.8" font-family="Times,serif" font-size="14.00">Param1(dim_0=1)</text>
<text text-anchor="start" x="338.5" y="-145.2" font-family="Times,serif" font-size="11.00">via:</text>
<text text-anchor="start" x="359.5" y="-145.2" font-family="Times,serif" font-style="italic" font-size="11.00">to_param1</text>
</g>
<!-- Param(dim_0=1)&#45;&gt;Param1(dim_0=1) -->
<g id="edge2" class="edge">
<title>Param(dim_0=1)&#45;&gt;Param1(dim_0=1)</title>
<path fill="none" stroke="black" d="M442.94,-206.98C432.94,-198.93 418.8,-187.55 406.36,-177.53"/>
<polygon fill="black" stroke="black" points="408.48,-174.74 398.5,-171.2 404.09,-180.2 408.48,-174.74"/>
</g>
<!-- Param2(dim_0=1) -->
<g id="node8" class="node">
<title>Param2(dim_0=1)</title>
<polygon fill="none" stroke="black" points="605,-171 459,-171 459,-138 605,-138 605,-171"/>
<text text-anchor="start" x="467" y="-156.8" font-family="Times,serif" font-size="14.00">Param2(dim_0=1)</text>
<text text-anchor="start" x="491.5" y="-145.2" font-family="Times,serif" font-size="11.00">via:</text>
<text text-anchor="start" x="512.5" y="-145.2" font-family="Times,serif" font-style="italic" font-size="11.00">to_param2</text>
</g>
<!-- Param(dim_0=1)&#45;&gt;Param2(dim_0=1) -->
<g id="edge5" class="edge">
<title>Param(dim_0=1)&#45;&gt;Param2(dim_0=1)</title>
<path fill="none" stroke="black" d="M468.89,-206.98C478.76,-198.93 492.71,-187.55 504.99,-177.53"/>
<polygon fill="black" stroke="black" points="507.22,-180.23 512.76,-171.2 502.8,-174.81 507.22,-180.23"/>
</g>
<!-- Param(dim_0=2) -->
<g id="node3" class="node">
<title>Param(dim_0=2)</title>
<polygon fill="none" stroke="black" points="829.5,-230 692.5,-230 692.5,-207 829.5,-207 829.5,-230"/>
<text text-anchor="middle" x="761" y="-214.8" font-family="Times,serif" font-size="14.00">Param(dim_0=2)</text>
</g>
<!-- Param1(dim_0=2) -->
<g id="node6" class="node">
<title>Param1(dim_0=2)</title>
<polygon fill="none" stroke="black" points="758,-171 612,-171 612,-138 758,-138 758,-171"/>
<text text-anchor="start" x="620" y="-156.8" font-family="Times,serif" font-size="14.00">Param1(dim_0=2)</text>
<text text-anchor="start" x="644.5" y="-145.2" font-family="Times,serif" font-size="11.00">via:</text>
<text text-anchor="start" x="665.5" y="-145.2" font-family="Times,serif" font-style="italic" font-size="11.00">to_param1</text>
</g>
<!-- Param(dim_0=2)&#45;&gt;Param1(dim_0=2) -->
<g id="edge3" class="edge">
<title>Param(dim_0=2)&#45;&gt;Param1(dim_0=2)</title>
<path fill="none" stroke="black" d="M748.11,-206.98C738.24,-198.93 724.29,-187.55 712.01,-177.53"/>
<polygon fill="black" stroke="black" points="714.2,-174.81 704.24,-171.2 709.78,-180.23 714.2,-174.81"/>
</g>
<!-- Param2(dim_0=2) -->
<g id="node9" class="node">
<title>Param2(dim_0=2)</title>
<polygon fill="none" stroke="black" points="911,-171 765,-171 765,-138 911,-138 911,-171"/>
<text text-anchor="start" x="773" y="-156.8" font-family="Times,serif" font-size="14.00">Param2(dim_0=2)</text>
<text text-anchor="start" x="797.5" y="-145.2" font-family="Times,serif" font-size="11.00">via:</text>
<text text-anchor="start" x="818.5" y="-145.2" font-family="Times,serif" font-style="italic" font-size="11.00">to_param2</text>
</g>
<!-- Param(dim_0=2)&#45;&gt;Param2(dim_0=2) -->
<g id="edge6" class="edge">
<title>Param(dim_0=2)&#45;&gt;Param2(dim_0=2)</title>
<path fill="none" stroke="black" d="M774.06,-206.98C784.06,-198.93 798.2,-187.55 810.64,-177.53"/>
<polygon fill="black" stroke="black" points="812.91,-180.2 818.5,-171.2 808.52,-174.74 812.91,-180.2"/>
</g>
<!-- float(dim_0=0) -->
<g id="node10" class="node">
<title>float(dim_0=0)</title>
<polygon fill="none" stroke="black" points="287,-102 165,-102 165,-69 287,-69 287,-102"/>
<text text-anchor="start" x="173" y="-87.8" font-family="Times,serif" font-size="14.00">float(dim_0=0)</text>
<text text-anchor="start" x="194" y="-76.2" font-family="Times,serif" font-size="11.00">via:</text>
<text text-anchor="start" x="215" y="-76.2" font-family="Times,serif" font-style="italic" font-size="11.00">product</text>
</g>
<!-- Param1(dim_0=0)&#45;&gt;float(dim_0=0) -->
<g id="edge10" class="edge">
<title>Param1(dim_0=0)&#45;&gt;float(dim_0=0)</title>
<path fill="none" stroke="black" d="M108.49,-137.96C130.13,-128.48 158,-116.28 181.16,-106.13"/>
<polygon fill="black" stroke="black" points="182.69,-109.29 190.44,-102.07 179.88,-102.88 182.69,-109.29"/>
</g>
<!-- float(dim_0=1) -->
<g id="node12" class="node">
<title>float(dim_0=1)</title>
<polygon fill="none" stroke="black" points="517,-102 395,-102 395,-69 517,-69 517,-102"/>
<text text-anchor="start" x="403" y="-87.8" font-family="Times,serif" font-size="14.00">float(dim_0=1)</text>
<text text-anchor="start" x="424" y="-76.2" font-family="Times,serif" font-size="11.00">via:</text>
<text text-anchor="start" x="445" y="-76.2" font-family="Times,serif" font-style="italic" font-size="11.00">product</text>
</g>
<!-- Param1(dim_0=1)&#45;&gt;float(dim_0=1) -->
<g id="edge12" class="edge">
<title>Param1(dim_0=1)&#45;&gt;float(dim_0=1)</title>
<path fill="none" stroke="black" d="M396.86,-137.96C406.8,-129.31 419.34,-118.4 430.32,-108.85"/>
<polygon fill="black" stroke="black" points="432.72,-111.39 437.97,-102.19 428.13,-106.11 432.72,-111.39"/>
</g>
<!-- float(dim_0=2) -->
<g id="node13" class="node">
<title>float(dim_0=2)</title>
<polygon fill="none" stroke="black" points="746,-102 624,-102 624,-69 746,-69 746,-102"/>
<text text-anchor="start" x="632" y="-87.8" font-family="Times,serif" font-size="14.00">float(dim_0=2)</text>
<text text-anchor="start" x="653" y="-76.2" font-family="Times,serif" font-size="11.00">via:</text>
<text text-anchor="start" x="674" y="-76.2" font-family="Times,serif" font-style="italic" font-size="11.00">product</text>
</g>
<!-- Param1(dim_0=2)&#45;&gt;float(dim_0=2) -->
<g id="edge14" class="edge">
<title>Param1(dim_0=2)&#45;&gt;float(dim_0=2)</title>
<path fill="none" stroke="black" d="M685,-137.96C685,-130.38 685,-121.05 685,-112.42"/>
<polygon fill="black" stroke="black" points="688.5,-112.42 685,-102.42 681.5,-112.42 688.5,-112.42"/>
</g>
<!-- Param2(dim_0=0)&#45;&gt;float(dim_0=0) -->
<g id="edge11" class="edge">
<title>Param2(dim_0=0)&#45;&gt;float(dim_0=0)</title>
<path fill="none" stroke="black" d="M226,-137.96C226,-130.38 226,-121.05 226,-112.42"/>
<polygon fill="black" stroke="black" points="229.5,-112.42 226,-102.42 222.5,-112.42 229.5,-112.42"/>
</g>
<!-- Param2(dim_0=1)&#45;&gt;float(dim_0=1) -->
<g id="edge13" class="edge">
<title>Param2(dim_0=1)&#45;&gt;float(dim_0=1)</title>
<path fill="none" stroke="black" d="M514.37,-137.96C504.56,-129.31 492.18,-118.4 481.35,-108.85"/>
<polygon fill="black" stroke="black" points="483.61,-106.17 473.79,-102.19 478.98,-111.43 483.61,-106.17"/>
</g>
<!-- Param2(dim_0=2)&#45;&gt;float(dim_0=2) -->
<g id="edge15" class="edge">
<title>Param2(dim_0=2)&#45;&gt;float(dim_0=2)</title>
<path fill="none" stroke="black" d="M802.51,-137.96C780.87,-128.48 753,-116.28 729.84,-106.13"/>
<polygon fill="black" stroke="black" points="731.12,-102.88 720.56,-102.07 728.31,-109.29 731.12,-102.88"/>
</g>
<!-- Sum -->
<g id="node11" class="node">
<title>Sum</title>
<polygon fill="none" stroke="black" points="493,-33 419,-33 419,0 493,0 493,-33"/>
<text text-anchor="start" x="439.5" y="-18.8" font-family="Times,serif" font-size="14.00">Sum</text>
<text text-anchor="start" x="427" y="-7.2" font-family="Times,serif" font-size="11.00">via:</text>
<text text-anchor="start" x="448" y="-7.2" font-family="Times,serif" font-style="italic" font-size="11.00">gather</text>
</g>
<!-- float(dim_0=0)&#45;&gt;Sum -->
<g id="edge7" class="edge">
<title>float(dim_0=0)&#45;&gt;Sum</title>
<path fill="none" stroke="black" d="M279.34,-68.96C318.57,-57.53 371.38,-42.15 409.02,-31.19"/>
<polygon fill="black" stroke="black" points="410.1,-34.52 418.73,-28.36 408.15,-27.79 410.1,-34.52"/>
</g>
<!-- float(dim_0=1)&#45;&gt;Sum -->
<g id="edge8" class="edge">
<title>float(dim_0=1)&#45;&gt;Sum</title>
<path fill="none" stroke="black" d="M456,-68.96C456,-61.38 456,-52.05 456,-43.42"/>
<polygon fill="black" stroke="black" points="459.5,-43.42 456,-33.42 452.5,-43.42 459.5,-43.42"/>
</g>
<!-- float(dim_0=2)&#45;&gt;Sum -->
<g id="edge9" class="edge">
<title>float(dim_0=2)&#45;&gt;Sum</title>
<path fill="none" stroke="black" d="M631.89,-68.96C592.83,-57.53 540.25,-42.15 502.77,-31.19"/>
<polygon fill="black" stroke="black" points="503.69,-27.81 493.11,-28.36 501.73,-34.53 503.69,-27.81"/>
</g>
</g>
</svg>
