<?xml version="1.0" encoding="UTF-8" standalone="no"?>
<!DOCTYPE svg PUBLIC "-//W3C//DTD SVG 1.1//EN"
 "http://www.w3.org/Graphics/SVG/1.1/DTD/svg11.dtd">
<!-- Generated by graphviz version 2.43.0 (0)
 -->
<!-- Title: %3 Pages: 1 -->
<svg width="577pt" height="68pt"
 viewBox="0.00 0.00 577.00 68.00" xmlns="http://www.w3.org/2000/svg" xmlns:xlink="http://www.w3.org/1999/xlink">
<g id="graph0" class="graph" transform="scale(1 1) rotate(0) translate(4 64)">
<title>%3</title>
<polygon fill="white" stroke="transparent" points="-4,4 -4,-64 573,-64 573,4 -4,4"/>
<!-- RawData -->
<g id="node1" class="node">
<title>RawData</title>
<polygon fill="none" stroke="black" points="236,-33 155,-33 155,0 236,0 236,-33"/>
<text text-anchor="start" x="163" y="-18.8" font-family="Times,serif" font-size="14.00">RawData</text>
<text text-anchor="start" x="172.5" y="-7.2" font-family="Times,serif" font-size="11.00">via:</text>
<text text-anchor="start" x="193.5" y="-7.2" font-family="Times,serif" font-style="italic" font-size="11.00">load</text>
</g>
<!-- CleanedData -->
<g id="node2" class="node">
<title>CleanedData</title>
<polygon fill="none" stroke="black" points="416,-33 308,-33 308,0 416,0 416,-33"/>
<text text-anchor="start" x="316" y="-18.8" font-family="Times,serif" font-size="14.00">CleanedData</text>
<text text-anchor="start" x="336" y="-7.2" font-family="Times,serif" font-size="11.00">via:</text>
<text text-anchor="start" x="357" y="-7.2" font-family="Times,serif" font-style="italic" font-size="11.00">clean</text>
</g>
<!-- RawData&#45;&gt;CleanedData -->
<g id="edge1" class="edge">
<title>RawData:e&#45;&gt;CleanedData:w</title>
<path fill="none" stroke="black" d="M236,-16.5C264.38,-16.5 273.88,-16.5 297.98,-16.5"/>
<polygon fill="black" stroke="black" points="298,-20 308,-16.5 298,-13 298,-20"/>
</g>
<!-- Result -->
<g id="node4" class="node">
<title>Result</title>
<polygon fill="none" stroke="black" points="569,-49 488,-49 488,-16 569,-16 569,-49"/>
<text text-anchor="start" x="505.5" y="-34.8" font-family="Times,serif" font-size="14.00">Result</text>
<text text-anchor="start" x="496" y="-23.2" font-family="Times,serif" font-size="11.00">via:</text>
<text text-anchor="start" x="517" y="-23.2" font-family="Times,serif" font-style="italic" font-size="11.00">process</text>
</g>
<!-- CleanedData&#45;&gt;Result -->
<g id="edge3" class="edge">
<title>CleanedData:e&#45;&gt;Result:w</title>
<path fill="none" stroke="black" d="M416,-16.5C445.07,-16.5 453.42,-29.08 477.8,-31.93"/>
<polygon fill="black" stroke="black" points="477.82,-35.44 488,-32.5 478.21,-28.45 477.82,-35.44"/>
</g>
<!-- Filename -->
<g id="node3" class="node">
<title>Filename</title>
<polygon fill="none" stroke="black" points="83,-28 0,-28 0,-5 83,-5 83,-28"/>
<text text-anchor="middle" x="41.5" y="-12.8" font-family="Times,serif" font-size="14.00">Filename</text>
</g>
<!-- Filename&#45;&gt;RawData -->
<g id="edge2" class="edge">
<title>Filename:e&#45;&gt;RawData:w</title>
<path fill="none" stroke="black" d="M83,-16.5C111.38,-16.5 120.88,-16.5 144.98,-16.5"/>
<polygon fill="black" stroke="black" points="145,-20 155,-16.5 145,-13 145,-20"/>
</g>
<!-- ScaleFactor -->
<g id="node5" class="node">
<title>ScaleFactor</title>
<polygon fill="none" stroke="black" points="412.5,-60 311.5,-60 311.5,-37 412.5,-37 412.5,-60"/>
<text text-anchor="middle" x="362" y="-44.8" font-family="Times,serif" font-size="14.00">ScaleFactor</text>
</g>
<!-- ScaleFactor&#45;&gt;Result -->
<g id="edge4" class="edge">
<title>ScaleFactor:e&#45;&gt;Result:w</title>
<path fill="none" stroke="black" d="M414,-48.5C443.97,-48.5 452.56,-35.81 477.86,-33.03"/>
<polygon fill="black" stroke="black" points="478.2,-36.52 488,-32.5 477.83,-29.53 478.2,-36.52"/>
</g>
</g>
</svg>
