<?xml version="1.0" encoding="UTF-8" standalone="no"?>
<!DOCTYPE svg PUBLIC "-//W3C//DTD SVG 1.1//EN"
 "http://www.w3.org/Graphics/SVG/1.1/DTD/svg11.dtd">
<!-- Generated by graphviz version 2.43.0 (0)
 -->
<!-- Title: %3 Pages: 1 -->
<svg width="993pt" height="692pt"
 viewBox="0.00 0.00 993.00 692.00" xmlns="http://www.w3.org/2000/svg" xmlns:xlink="http://www.w3.org/1999/xlink">
<g id="graph0" class="graph" transform="scale(1 1) rotate(0) translate(4 688)">
<title>%3</title>
<polygon fill="white" stroke="transparent" points="-4,4 -4,-688 989,-688 989,4 -4,4"/>
<!-- __main__.clean_CleanedData(RunID=102) -->
<g id="node1" class="node">
<title>__main__.clean_CleanedData(RunID=102)</title>
<ellipse fill="none" stroke="black" cx="101.5" cy="-450" rx="35.19" ry="18"/>
<text text-anchor="middle" x="101.5" y="-446.3" font-family="Times,serif" font-size="14.00">clean</text>
</g>
<!-- CleanedData(RunID=102) -->
<g id="node3" class="node">
<title>CleanedData(RunID=102)</title>
<polygon fill="none" stroke="black" points="203,-396 0,-396 0,-360 203,-360 203,-396"/>
<text text-anchor="middle" x="101.5" y="-374.3" font-family="Times,serif" font-size="14.00">CleanedData(RunID=102)</text>
</g>
<!-- __main__.clean_CleanedData(RunID=102)&#45;&gt;CleanedData(RunID=102) -->
<g id="edge2" class="edge">
<title>__main__.clean_CleanedData(RunID=102)&#45;&gt;CleanedData(RunID=102)</title>
<path fill="none" stroke="black" d="M101.5,-431.7C101.5,-423.98 101.5,-414.71 101.5,-406.11"/>
<polygon fill="black" stroke="black" points="105,-406.1 101.5,-396.1 98,-406.1 105,-406.1"/>
</g>
<!-- RawData(RunID=102) -->
<g id="node2" class="node">
<title>RawData(RunID=102)</title>
<polygon fill="none" stroke="black" points="189.5,-540 13.5,-540 13.5,-504 189.5,-504 189.5,-540"/>
<text text-anchor="middle" x="101.5" y="-518.3" font-family="Times,serif" font-size="14.00">RawData(RunID=102)</text>
</g>
<!-- RawData(RunID=102)&#45;&gt;__main__.clean_CleanedData(RunID=102) -->
<g id="edge1" class="edge">
<title>RawData(RunID=102)&#45;&gt;__main__.clean_CleanedData(RunID=102)</title>
<path fill="none" stroke="black" d="M101.5,-503.7C101.5,-495.98 101.5,-486.71 101.5,-478.11"/>
<polygon fill="black" stroke="black" points="105,-478.1 101.5,-468.1 98,-478.1 105,-478.1"/>
</g>
<!-- __main__.process_Result(RunID=102) -->
<g id="node24" class="node">
<title>__main__.process_Result(RunID=102)</title>
<ellipse fill="none" stroke="black" cx="229.5" cy="-306" rx="46.29" ry="18"/>
<text text-anchor="middle" x="229.5" y="-302.3" font-family="Times,serif" font-size="14.00">process</text>
</g>
<!-- CleanedData(RunID=102)&#45;&gt;__main__.process_Result(RunID=102) -->
<g id="edge19" class="edge">
<title>CleanedData(RunID=102)&#45;&gt;__main__.process_Result(RunID=102)</title>
<path fill="none" stroke="black" d="M132.81,-359.88C151.6,-349.6 175.52,-336.52 194.87,-325.94"/>
<polygon fill="black" stroke="black" points="196.58,-328.99 203.68,-321.12 193.22,-322.85 196.58,-328.99"/>
</g>
<!-- __main__.clean_CleanedData(RunID=103) -->
<g id="node4" class="node">
<title>__main__.clean_CleanedData(RunID=103)</title>
<ellipse fill="none" stroke="black" cx="322.5" cy="-450" rx="35.19" ry="18"/>
<text text-anchor="middle" x="322.5" y="-446.3" font-family="Times,serif" font-size="14.00">clean</text>
</g>
<!-- CleanedData(RunID=103) -->
<g id="node6" class="node">
<title>CleanedData(RunID=103)</title>
<polygon fill="none" stroke="black" points="424,-396 221,-396 221,-360 424,-360 424,-396"/>
<text text-anchor="middle" x="322.5" y="-374.3" font-family="Times,serif" font-size="14.00">CleanedData(RunID=103)</text>
</g>
<!-- __main__.clean_CleanedData(RunID=103)&#45;&gt;CleanedData(RunID=103) -->
<g id="edge4" class="edge">
<title>__main__.clean_CleanedData(RunID=103)&#45;&gt;CleanedData(RunID=103)</title>
<path fill="none" stroke="black" d="M322.5,-431.7C322.5,-423.98 322.5,-414.71 322.5,-406.11"/>
<polygon fill="black" stroke="black" points="326,-406.1 322.5,-396.1 319,-406.1 326,-406.1"/>
</g>
<!-- RawData(RunID=103) -->
<g id="node5" class="node">
<title>RawData(RunID=103)</title>
<polygon fill="none" stroke="black" points="410.5,-540 234.5,-540 234.5,-504 410.5,-504 410.5,-540"/>
<text text-anchor="middle" x="322.5" y="-518.3" font-family="Times,serif" font-size="14.00">RawData(RunID=103)</text>
</g>
<!-- RawData(RunID=103)&#45;&gt;__main__.clean_CleanedData(RunID=103) -->
<g id="edge3" class="edge">
<title>RawData(RunID=103)&#45;&gt;__main__.clean_CleanedData(RunID=103)</title>
<path fill="none" stroke="black" d="M322.5,-503.7C322.5,-495.98 322.5,-486.71 322.5,-478.11"/>
<polygon fill="black" stroke="black" points="326,-478.1 322.5,-468.1 319,-478.1 326,-478.1"/>
</g>
<!-- __main__.process_Result(RunID=103) -->
<g id="node27" class="node">
<title>__main__.process_Result(RunID=103)</title>
<ellipse fill="none" stroke="black" cx="404.5" cy="-306" rx="46.29" ry="18"/>
<text text-anchor="middle" x="404.5" y="-302.3" font-family="Times,serif" font-size="14.00">process</text>
</g>
<!-- CleanedData(RunID=103)&#45;&gt;__main__.process_Result(RunID=103) -->
<g id="edge22" class="edge">
<title>CleanedData(RunID=103)&#45;&gt;__main__.process_Result(RunID=103)</title>
<path fill="none" stroke="black" d="M342.77,-359.7C353.56,-350.49 366.95,-339.06 378.5,-329.2"/>
<polygon fill="black" stroke="black" points="380.81,-331.83 386.14,-322.67 376.26,-326.5 380.81,-331.83"/>
</g>
<!-- __main__.clean_CleanedData(RunID=104) -->
<g id="node7" class="node">
<title>__main__.clean_CleanedData(RunID=104)</title>
<ellipse fill="none" stroke="black" cx="662.5" cy="-450" rx="35.19" ry="18"/>
<text text-anchor="middle" x="662.5" y="-446.3" font-family="Times,serif" font-size="14.00">clean</text>
</g>
<!-- CleanedData(RunID=104) -->
<g id="node9" class="node">
<title>CleanedData(RunID=104)</title>
<polygon fill="none" stroke="black" points="764,-396 561,-396 561,-360 764,-360 764,-396"/>
<text text-anchor="middle" x="662.5" y="-374.3" font-family="Times,serif" font-size="14.00">CleanedData(RunID=104)</text>
</g>
<!-- __main__.clean_CleanedData(RunID=104)&#45;&gt;CleanedData(RunID=104) -->
<g id="edge6" class="edge">
<title>__main__.clean_CleanedData(RunID=104)&#45;&gt;CleanedData(RunID=104)</title>
<path fill="none" stroke="black" d="M662.5,-431.7C662.5,-423.98 662.5,-414.71 662.5,-406.11"/>
<polygon fill="black" stroke="black" points="666,-406.1 662.5,-396.1 659,-406.1 666,-406.1"/>
</g>
<!-- RawData(RunID=104) -->
<g id="node8" class="node">
<title>RawData(RunID=104)</title>
<polygon fill="none" stroke="black" points="750.5,-540 574.5,-540 574.5,-504 750.5,-504 750.5,-540"/>
<text text-anchor="middle" x="662.5" y="-518.3" font-family="Times,serif" font-size="14.00">RawData(RunID=104)</text>
</g>
<!-- RawData(RunID=104)&#45;&gt;__main__.clean_CleanedData(RunID=104) -->
<g id="edge5" class="edge">
<title>RawData(RunID=104)&#45;&gt;__main__.clean_CleanedData(RunID=104)</title>
<path fill="none" stroke="black" d="M662.5,-503.7C662.5,-495.98 662.5,-486.71 662.5,-478.11"/>
<polygon fill="black" stroke="black" points="666,-478.1 662.5,-468.1 659,-478.1 666,-478.1"/>
</g>
<!-- __main__.process_Result(RunID=104) -->
<g id="node29" class="node">
<title>__main__.process_Result(RunID=104)</title>
<ellipse fill="none" stroke="black" cx="579.5" cy="-306" rx="46.29" ry="18"/>
<text text-anchor="middle" x="579.5" y="-302.3" font-family="Times,serif" font-size="14.00">process</text>
</g>
<!-- CleanedData(RunID=104)&#45;&gt;__main__.process_Result(RunID=104) -->
<g id="edge25" class="edge">
<title>CleanedData(RunID=104)&#45;&gt;__main__.process_Result(RunID=104)</title>
<path fill="none" stroke="black" d="M641.98,-359.7C631.06,-350.49 617.51,-339.06 605.82,-329.2"/>
<polygon fill="black" stroke="black" points="607.98,-326.44 598.08,-322.67 603.47,-331.79 607.98,-326.44"/>
</g>
<!-- __main__.clean_CleanedData(RunID=105) -->
<g id="node10" class="node">
<title>__main__.clean_CleanedData(RunID=105)</title>
<ellipse fill="none" stroke="black" cx="883.5" cy="-450" rx="35.19" ry="18"/>
<text text-anchor="middle" x="883.5" y="-446.3" font-family="Times,serif" font-size="14.00">clean</text>
</g>
<!-- CleanedData(RunID=105) -->
<g id="node12" class="node">
<title>CleanedData(RunID=105)</title>
<polygon fill="none" stroke="black" points="985,-396 782,-396 782,-360 985,-360 985,-396"/>
<text text-anchor="middle" x="883.5" y="-374.3" font-family="Times,serif" font-size="14.00">CleanedData(RunID=105)</text>
</g>
<!-- __main__.clean_CleanedData(RunID=105)&#45;&gt;CleanedData(RunID=105) -->
<g id="edge8" class="edge">
<title>__main__.clean_CleanedData(RunID=105)&#45;&gt;CleanedData(RunID=105)</title>
<path fill="none" stroke="black" d="M883.5,-431.7C883.5,-423.98 883.5,-414.71 883.5,-406.11"/>
<polygon fill="black" stroke="black" points="887,-406.1 883.5,-396.1 880,-406.1 887,-406.1"/>
</g>
<!-- RawData(RunID=105) -->
<g id="node11" class="node">
<title>RawData(RunID=105)</title>
<polygon fill="none" stroke="black" points="971.5,-540 795.5,-540 795.5,-504 971.5,-504 971.5,-540"/>
<text text-anchor="middle" x="883.5" y="-518.3" font-family="Times,serif" font-size="14.00">RawData(RunID=105)</text>
</g>
<!-- RawData(RunID=105)&#45;&gt;__main__.clean_CleanedData(RunID=105) -->
<g id="edge7" class="edge">
<title>RawData(RunID=105)&#45;&gt;__main__.clean_CleanedData(RunID=105)</title>
<path fill="none" stroke="black" d="M883.5,-503.7C883.5,-495.98 883.5,-486.71 883.5,-478.11"/>
<polygon fill="black" stroke="black" points="887,-478.1 883.5,-468.1 880,-478.1 887,-478.1"/>
</g>
<!-- __main__.process_Result(RunID=105) -->
<g id="node31" class="node">
<title>__main__.process_Result(RunID=105)</title>
<ellipse fill="none" stroke="black" cx="754.5" cy="-306" rx="46.29" ry="18"/>
<text text-anchor="middle" x="754.5" y="-302.3" font-family="Times,serif" font-size="14.00">process</text>
</g>
<!-- CleanedData(RunID=105)&#45;&gt;__main__.process_Result(RunID=105) -->
<g id="edge28" class="edge">
<title>CleanedData(RunID=105)&#45;&gt;__main__.process_Result(RunID=105)</title>
<path fill="none" stroke="black" d="M851.94,-359.88C833.01,-349.6 808.9,-336.52 789.41,-325.94"/>
<polygon fill="black" stroke="black" points="790.98,-322.82 780.53,-321.12 787.65,-328.97 790.98,-322.82"/>
</g>
<!-- Filename(RunID=102) -->
<g id="node13" class="node">
<title>Filename(RunID=102)</title>
<polygon fill="none" stroke="black" points="190,-684 13,-684 13,-648 190,-648 190,-684"/>
<text text-anchor="middle" x="101.5" y="-662.3" font-family="Times,serif" font-size="14.00">Filename(RunID=102)</text>
</g>
<!-- __main__.load_RawData(RunID=102) -->
<g id="node20" class="node">
<title>__main__.load_RawData(RunID=102)</title>
<ellipse fill="none" stroke="black" cx="101.5" cy="-594" rx="30.59" ry="18"/>
<text text-anchor="middle" x="101.5" y="-590.3" font-family="Times,serif" font-size="14.00">load</text>
</g>
<!-- Filename(RunID=102)&#45;&gt;__main__.load_RawData(RunID=102) -->
<g id="edge11" class="edge">
<title>Filename(RunID=102)&#45;&gt;__main__.load_RawData(RunID=102)</title>
<path fill="none" stroke="black" d="M101.5,-647.7C101.5,-639.98 101.5,-630.71 101.5,-622.11"/>
<polygon fill="black" stroke="black" points="105,-622.1 101.5,-612.1 98,-622.1 105,-622.1"/>
</g>
<!-- Filename(RunID=103) -->
<g id="node14" class="node">
<title>Filename(RunID=103)</title>
<polygon fill="none" stroke="black" points="411,-684 234,-684 234,-648 411,-648 411,-684"/>
<text text-anchor="middle" x="322.5" y="-662.3" font-family="Times,serif" font-size="14.00">Filename(RunID=103)</text>
</g>
<!-- __main__.load_RawData(RunID=103) -->
<g id="node21" class="node">
<title>__main__.load_RawData(RunID=103)</title>
<ellipse fill="none" stroke="black" cx="322.5" cy="-594" rx="30.59" ry="18"/>
<text text-anchor="middle" x="322.5" y="-590.3" font-family="Times,serif" font-size="14.00">load</text>
</g>
<!-- Filename(RunID=103)&#45;&gt;__main__.load_RawData(RunID=103) -->
<g id="edge13" class="edge">
<title>Filename(RunID=103)&#45;&gt;__main__.load_RawData(RunID=103)</title>
<path fill="none" stroke="black" d="M322.5,-647.7C322.5,-639.98 322.5,-630.71 322.5,-622.11"/>
<polygon fill="black" stroke="black" points="326,-622.1 322.5,-612.1 319,-622.1 326,-622.1"/>
</g>
<!-- Filename(RunID=104) -->
<g id="node15" class="node">
<title>Filename(RunID=104)</title>
<polygon fill="none" stroke="black" points="751,-684 574,-684 574,-648 751,-648 751,-684"/>
<text text-anchor="middle" x="662.5" y="-662.3" font-family="Times,serif" font-size="14.00">Filename(RunID=104)</text>
</g>
<!-- __main__.load_RawData(RunID=104) -->
<g id="node22" class="node">
<title>__main__.load_RawData(RunID=104)</title>
<ellipse fill="none" stroke="black" cx="662.5" cy="-594" rx="30.59" ry="18"/>
<text text-anchor="middle" x="662.5" y="-590.3" font-family="Times,serif" font-size="14.00">load</text>
</g>
<!-- Filename(RunID=104)&#45;&gt;__main__.load_RawData(RunID=104) -->
<g id="edge15" class="edge">
<title>Filename(RunID=104)&#45;&gt;__main__.load_RawData(RunID=104)</title>
<path fill="none" stroke="black" d="M662.5,-647.7C662.5,-639.98 662.5,-630.71 662.5,-622.11"/>
<polygon fill="black" stroke="black" points="666,-622.1 662.5,-612.1 659,-622.1 666,-622.1"/>
</g>
<!-- Filename(RunID=105) -->
<g id="node16" class="node">
<title>Filename(RunID=105)</title>
<polygon fill="none" stroke="black" points="972,-684 795,-684 795,-648 972,-648 972,-684"/>
<text text-anchor="middle" x="883.5" y="-662.3" font-family="Times,serif" font-size="14.00">Filename(RunID=105)</text>
</g>
<!-- __main__.load_RawData(RunID=105) -->
<g id="node23" class="node">
<title>__main__.load_RawData(RunID=105)</title>
<ellipse fill="none" stroke="black" cx="883.5" cy="-594" rx="30.59" ry="18"/>
<text text-anchor="middle" x="883.5" y="-590.3" font-family="Times,serif" font-size="14.00">load</text>
</g>
<!-- Filename(RunID=105)&#45;&gt;__main__.load_RawData(RunID=105) -->
<g id="edge17" class="edge">
<title>Filename(RunID=105)&#45;&gt;__main__.load_RawData(RunID=105)</title>
<path fill="none" stroke="black" d="M883.5,-647.7C883.5,-639.98 883.5,-630.71 883.5,-622.11"/>
<polygon fill="black" stroke="black" points="887,-622.1 883.5,-612.1 880,-622.1 887,-622.1"/>
</g>
<!-- __main__.merge_runs_MergedResult -->
<g id="node17" class="node">
<title>__main__.merge_runs_MergedResult</title>
<ellipse fill="none" stroke="black" cx="491.5" cy="-90" rx="65.79" ry="18"/>
<text text-anchor="middle" x="491.5" y="-86.3" font-family="Times,serif" font-size="14.00">merge_runs</text>
</g>
<!-- MergedResult -->
<g id="node19" class="node">
<title>MergedResult</title>
<polygon fill="none" stroke="black" points="550.5,-36 432.5,-36 432.5,0 550.5,0 550.5,-36"/>
<text text-anchor="middle" x="491.5" y="-14.3" font-family="Times,serif" font-size="14.00">MergedResult</text>
</g>
<!-- __main__.merge_runs_MergedResult&#45;&gt;MergedResult -->
<g id="edge10" class="edge">
<title>__main__.merge_runs_MergedResult&#45;&gt;MergedResult</title>
<path fill="none" stroke="black" d="M491.5,-71.7C491.5,-63.98 491.5,-54.71 491.5,-46.11"/>
<polygon fill="black" stroke="black" points="495,-46.1 491.5,-36.1 488,-46.1 495,-46.1"/>
</g>
<!-- Series[RunID, Result] -->
<g id="node18" class="node">
<title>Series[RunID, Result]</title>
<polygon fill="none" stroke="black" points="577,-180 406,-180 406,-144 577,-144 577,-180"/>
<text text-anchor="middle" x="491.5" y="-158.3" font-family="Times,serif" font-size="14.00">Series[RunID, Result]</text>
</g>
<!-- Series[RunID, Result]&#45;&gt;__main__.merge_runs_MergedResult -->
<g id="edge9" class="edge">
<title>Series[RunID, Result]&#45;&gt;__main__.merge_runs_MergedResult</title>
<path fill="none" stroke="black" d="M491.5,-143.7C491.5,-135.98 491.5,-126.71 491.5,-118.11"/>
<polygon fill="black" stroke="black" points="495,-118.1 491.5,-108.1 488,-118.1 495,-118.1"/>
</g>
<!-- __main__.load_RawData(RunID=102)&#45;&gt;RawData(RunID=102) -->
<g id="edge12" class="edge">
<title>__main__.load_RawData(RunID=102)&#45;&gt;RawData(RunID=102)</title>
<path fill="none" stroke="black" d="M101.5,-575.7C101.5,-567.98 101.5,-558.71 101.5,-550.11"/>
<polygon fill="black" stroke="black" points="105,-550.1 101.5,-540.1 98,-550.1 105,-550.1"/>
</g>
<!-- __main__.load_RawData(RunID=103)&#45;&gt;RawData(RunID=103) -->
<g id="edge14" class="edge">
<title>__main__.load_RawData(RunID=103)&#45;&gt;RawData(RunID=103)</title>
<path fill="none" stroke="black" d="M322.5,-575.7C322.5,-567.98 322.5,-558.71 322.5,-550.11"/>
<polygon fill="black" stroke="black" points="326,-550.1 322.5,-540.1 319,-550.1 326,-550.1"/>
</g>
<!-- __main__.load_RawData(RunID=104)&#45;&gt;RawData(RunID=104) -->
<g id="edge16" class="edge">
<title>__main__.load_RawData(RunID=104)&#45;&gt;RawData(RunID=104)</title>
<path fill="none" stroke="black" d="M662.5,-575.7C662.5,-567.98 662.5,-558.71 662.5,-550.11"/>
<polygon fill="black" stroke="black" points="666,-550.1 662.5,-540.1 659,-550.1 666,-550.1"/>
</g>
<!-- __main__.load_RawData(RunID=105)&#45;&gt;RawData(RunID=105) -->
<g id="edge18" class="edge">
<title>__main__.load_RawData(RunID=105)&#45;&gt;RawData(RunID=105)</title>
<path fill="none" stroke="black" d="M883.5,-575.7C883.5,-567.98 883.5,-558.71 883.5,-550.11"/>
<polygon fill="black" stroke="black" points="887,-550.1 883.5,-540.1 880,-550.1 887,-550.1"/>
</g>
<!-- Result(RunID=102) -->
<g id="node26" class="node">
<title>Result(RunID=102)</title>
<polygon fill="none" stroke="black" points="308,-252 151,-252 151,-216 308,-216 308,-252"/>
<text text-anchor="middle" x="229.5" y="-230.3" font-family="Times,serif" font-size="14.00">Result(RunID=102)</text>
</g>
<!-- __main__.process_Result(RunID=102)&#45;&gt;Result(RunID=102) -->
<g id="edge21" class="edge">
<title>__main__.process_Result(RunID=102)&#45;&gt;Result(RunID=102)</title>
<path fill="none" stroke="black" d="M229.5,-287.7C229.5,-279.98 229.5,-270.71 229.5,-262.11"/>
<polygon fill="black" stroke="black" points="233,-262.1 229.5,-252.1 226,-262.1 233,-262.1"/>
</g>
<!-- ScaleFactor -->
<g id="node25" class="node">
<title>ScaleFactor</title>
<polygon fill="none" stroke="black" points="543,-396 442,-396 442,-360 543,-360 543,-396"/>
<text text-anchor="middle" x="492.5" y="-374.3" font-family="Times,serif" font-size="14.00">ScaleFactor</text>
</g>
<!-- ScaleFactor&#45;&gt;__main__.process_Result(RunID=102) -->
<g id="edge20" class="edge">
<title>ScaleFactor&#45;&gt;__main__.process_Result(RunID=102)</title>
<path fill="none" stroke="black" d="M441.78,-362.55C438.64,-361.68 435.53,-360.82 432.5,-360 379.25,-345.51 317.93,-329.6 276.74,-319.04"/>
<polygon fill="black" stroke="black" points="277.53,-315.63 266.98,-316.54 275.79,-322.41 277.53,-315.63"/>
</g>
<!-- ScaleFactor&#45;&gt;__main__.process_Result(RunID=103) -->
<g id="edge23" class="edge">
<title>ScaleFactor&#45;&gt;__main__.process_Result(RunID=103)</title>
<path fill="none" stroke="black" d="M470.75,-359.7C458.97,-350.33 444.32,-338.67 431.78,-328.7"/>
<polygon fill="black" stroke="black" points="433.91,-325.92 423.91,-322.44 429.55,-331.4 433.91,-325.92"/>
</g>
<!-- ScaleFactor&#45;&gt;__main__.process_Result(RunID=104) -->
<g id="edge26" class="edge">
<title>ScaleFactor&#45;&gt;__main__.process_Result(RunID=104)</title>
<path fill="none" stroke="black" d="M514.01,-359.7C525.53,-350.42 539.86,-338.89 552.17,-328.99"/>
<polygon fill="black" stroke="black" points="554.72,-331.43 560.31,-322.44 550.33,-325.98 554.72,-331.43"/>
</g>
<!-- ScaleFactor&#45;&gt;__main__.process_Result(RunID=105) -->
<g id="edge29" class="edge">
<title>ScaleFactor&#45;&gt;__main__.process_Result(RunID=105)</title>
<path fill="none" stroke="black" d="M543.22,-362.55C546.36,-361.68 549.47,-360.83 552.5,-360 605.33,-345.59 666.14,-329.73 707.12,-319.15"/>
<polygon fill="black" stroke="black" points="708.03,-322.53 716.84,-316.65 706.28,-315.75 708.03,-322.53"/>
</g>
<!-- Result(RunID=102)&#45;&gt;Series[RunID, Result] -->
<g id="edge31" class="edge">
<title>Result(RunID=102)&#45;&gt;Series[RunID, Result]</title>
<path fill="none" stroke="black" stroke-dasharray="5,2" d="M293.26,-215.97C330.82,-205.93 378.5,-193.19 417.69,-182.72"/>
<polygon fill="black" stroke="black" points="418.7,-186.07 427.46,-180.11 416.89,-179.31 418.7,-186.07"/>
</g>
<!-- Result(RunID=103) -->
<g id="node28" class="node">
<title>Result(RunID=103)</title>
<polygon fill="none" stroke="black" points="483,-252 326,-252 326,-216 483,-216 483,-252"/>
<text text-anchor="middle" x="404.5" y="-230.3" font-family="Times,serif" font-size="14.00">Result(RunID=103)</text>
</g>
<!-- __main__.process_Result(RunID=103)&#45;&gt;Result(RunID=103) -->
<g id="edge24" class="edge">
<title>__main__.process_Result(RunID=103)&#45;&gt;Result(RunID=103)</title>
<path fill="none" stroke="black" d="M404.5,-287.7C404.5,-279.98 404.5,-270.71 404.5,-262.11"/>
<polygon fill="black" stroke="black" points="408,-262.1 404.5,-252.1 401,-262.1 408,-262.1"/>
</g>
<!-- Result(RunID=103)&#45;&gt;Series[RunID, Result] -->
<g id="edge32" class="edge">
<title>Result(RunID=103)&#45;&gt;Series[RunID, Result]</title>
<path fill="none" stroke="black" stroke-dasharray="5,2" d="M426.01,-215.7C436.96,-206.88 450.45,-196.03 462.32,-186.47"/>
<polygon fill="black" stroke="black" points="464.64,-189.1 470.24,-180.1 460.26,-183.65 464.64,-189.1"/>
</g>
<!-- Result(RunID=104) -->
<g id="node30" class="node">
<title>Result(RunID=104)</title>
<polygon fill="none" stroke="black" points="658,-252 501,-252 501,-216 658,-216 658,-252"/>
<text text-anchor="middle" x="579.5" y="-230.3" font-family="Times,serif" font-size="14.00">Result(RunID=104)</text>
</g>
<!-- __main__.process_Result(RunID=104)&#45;&gt;Result(RunID=104) -->
<g id="edge27" class="edge">
<title>__main__.process_Result(RunID=104)&#45;&gt;Result(RunID=104)</title>
<path fill="none" stroke="black" d="M579.5,-287.7C579.5,-279.98 579.5,-270.71 579.5,-262.11"/>
<polygon fill="black" stroke="black" points="583,-262.1 579.5,-252.1 576,-262.1 583,-262.1"/>
</g>
<!-- Result(RunID=104)&#45;&gt;Series[RunID, Result] -->
<g id="edge33" class="edge">
<title>Result(RunID=104)&#45;&gt;Series[RunID, Result]</title>
<path fill="none" stroke="black" stroke-dasharray="5,2" d="M557.75,-215.7C546.66,-206.88 533.03,-196.03 521.01,-186.47"/>
<polygon fill="black" stroke="black" points="523.01,-183.59 513,-180.1 518.65,-189.07 523.01,-183.59"/>
</g>
<!-- Result(RunID=105) -->
<g id="node32" class="node">
<title>Result(RunID=105)</title>
<polygon fill="none" stroke="black" points="833,-252 676,-252 676,-216 833,-216 833,-252"/>
<text text-anchor="middle" x="754.5" y="-230.3" font-family="Times,serif" font-size="14.00">Result(RunID=105)</text>
</g>
<!-- __main__.process_Result(RunID=105)&#45;&gt;Result(RunID=105) -->
<g id="edge30" class="edge">
<title>__main__.process_Result(RunID=105)&#45;&gt;Result(RunID=105)</title>
<path fill="none" stroke="black" d="M754.5,-287.7C754.5,-279.98 754.5,-270.71 754.5,-262.11"/>
<polygon fill="black" stroke="black" points="758,-262.1 754.5,-252.1 751,-262.1 758,-262.1"/>
</g>
<!-- Result(RunID=105)&#45;&gt;Series[RunID, Result] -->
<g id="edge34" class="edge">
<title>Result(RunID=105)&#45;&gt;Series[RunID, Result]</title>
<path fill="none" stroke="black" stroke-dasharray="5,2" d="M690.5,-215.97C652.79,-205.93 604.93,-193.19 565.59,-182.72"/>
<polygon fill="black" stroke="black" points="566.35,-179.3 555.79,-180.11 564.55,-186.07 566.35,-179.3"/>
</g>
</g>
</svg>
