<?xml version="1.0" encoding="UTF-8" standalone="no"?>
<!DOCTYPE svg PUBLIC "-//W3C//DTD SVG 1.1//EN"
 "http://www.w3.org/Graphics/SVG/1.1/DTD/svg11.dtd">
<!-- Generated by graphviz version 2.43.0 (0)
 -->
<!-- Title: %3 Pages: 1 -->
<svg width="405pt" height="620pt"
 viewBox="0.00 0.00 404.74 620.00" xmlns="http://www.w3.org/2000/svg" xmlns:xlink="http://www.w3.org/1999/xlink">
<g id="graph0" class="graph" transform="scale(1 1) rotate(0) translate(4 616)">
<title>%3</title>
<polygon fill="white" stroke="transparent" points="-4,4 -4,-616 400.74,-616 400.74,4 -4,4"/>
<!-- BackgroundFilename -->
<g id="node1" class="node">
<title>BackgroundFilename</title>
<polygon fill="none" stroke="black" points="178.24,-612 10.24,-612 10.24,-576 178.24,-576 178.24,-612"/>
<text text-anchor="middle" x="94.24" y="-590.3" font-family="Times,serif" font-size="14.00">BackgroundFilename</text>
</g>
<!-- __main__.load_background_RawBackground -->
<g id="node11" class="node">
<title>__main__.load_background_RawBackground</title>
<ellipse fill="none" stroke="black" cx="94.24" cy="-522" rx="89.08" ry="18"/>
<text text-anchor="middle" x="94.24" y="-518.3" font-family="Times,serif" font-size="14.00">load_background</text>
</g>
<!-- BackgroundFilename&#45;&gt;__main__.load_background_RawBackground -->
<g id="edge8" class="edge">
<title>BackgroundFilename&#45;&gt;__main__.load_background_RawBackground</title>
<path fill="none" stroke="black" d="M94.24,-575.7C94.24,-567.98 94.24,-558.71 94.24,-550.11"/>
<polygon fill="black" stroke="black" points="97.74,-550.1 94.24,-540.1 90.74,-550.1 97.74,-550.1"/>
</g>
<!-- __main__.subtract_background_BackgroundSubtractedData -->
<g id="node2" class="node">
<title>__main__.subtract_background_BackgroundSubtractedData</title>
<ellipse fill="none" stroke="black" cx="170.24" cy="-234" rx="108.58" ry="18"/>
<text text-anchor="middle" x="170.24" y="-230.3" font-family="Times,serif" font-size="14.00">subtract_background</text>
</g>
<!-- BackgroundSubtractedData -->
<g id="node5" class="node">
<title>BackgroundSubtractedData</title>
<polygon fill="none" stroke="black" points="277.74,-180 62.74,-180 62.74,-144 277.74,-144 277.74,-180"/>
<text text-anchor="middle" x="170.24" y="-158.3" font-family="Times,serif" font-size="14.00">BackgroundSubtractedData</text>
</g>
<!-- __main__.subtract_background_BackgroundSubtractedData&#45;&gt;BackgroundSubtractedData -->
<g id="edge3" class="edge">
<title>__main__.subtract_background_BackgroundSubtractedData&#45;&gt;BackgroundSubtractedData</title>
<path fill="none" stroke="black" d="M170.24,-215.7C170.24,-207.98 170.24,-198.71 170.24,-190.11"/>
<polygon fill="black" stroke="black" points="173.74,-190.1 170.24,-180.1 166.74,-190.1 173.74,-190.1"/>
</g>
<!-- CleanedData -->
<g id="node3" class="node">
<title>CleanedData</title>
<polygon fill="none" stroke="black" points="300.24,-324 192.24,-324 192.24,-288 300.24,-288 300.24,-324"/>
<text text-anchor="middle" x="246.24" y="-302.3" font-family="Times,serif" font-size="14.00">CleanedData</text>
</g>
<!-- CleanedData&#45;&gt;__main__.subtract_background_BackgroundSubtractedData -->
<g id="edge1" class="edge">
<title>CleanedData&#45;&gt;__main__.subtract_background_BackgroundSubtractedData</title>
<path fill="none" stroke="black" d="M227.46,-287.7C218,-278.99 206.39,-268.29 196.1,-258.82"/>
<polygon fill="black" stroke="black" points="198.28,-256.06 188.55,-251.86 193.53,-261.21 198.28,-256.06"/>
</g>
<!-- CleanedBackground -->
<g id="node4" class="node">
<title>CleanedBackground</title>
<polygon fill="none" stroke="black" points="174.24,-324 14.24,-324 14.24,-288 174.24,-288 174.24,-324"/>
<text text-anchor="middle" x="94.24" y="-302.3" font-family="Times,serif" font-size="14.00">CleanedBackground</text>
</g>
<!-- CleanedBackground&#45;&gt;__main__.subtract_background_BackgroundSubtractedData -->
<g id="edge2" class="edge">
<title>CleanedBackground&#45;&gt;__main__.subtract_background_BackgroundSubtractedData</title>
<path fill="none" stroke="black" d="M113.03,-287.7C122.49,-278.99 134.1,-268.29 144.38,-258.82"/>
<polygon fill="black" stroke="black" points="146.95,-261.21 151.93,-251.86 142.21,-256.06 146.95,-261.21"/>
</g>
<!-- __main__.process_Result -->
<g id="node13" class="node">
<title>__main__.process_Result</title>
<ellipse fill="none" stroke="black" cx="258.24" cy="-90" rx="46.29" ry="18"/>
<text text-anchor="middle" x="258.24" y="-86.3" font-family="Times,serif" font-size="14.00">process</text>
</g>
<!-- BackgroundSubtractedData&#45;&gt;__main__.process_Result -->
<g id="edge12" class="edge">
<title>BackgroundSubtractedData&#45;&gt;__main__.process_Result</title>
<path fill="none" stroke="black" d="M191.99,-143.7C203.77,-134.33 218.43,-122.67 230.96,-112.7"/>
<polygon fill="black" stroke="black" points="233.19,-115.4 238.84,-106.44 228.83,-109.92 233.19,-115.4"/>
</g>
<!-- __main__.clean_background_CleanedBackground -->
<g id="node6" class="node">
<title>__main__.clean_background_CleanedBackground</title>
<ellipse fill="none" stroke="black" cx="94.24" cy="-378" rx="94.48" ry="18"/>
<text text-anchor="middle" x="94.24" y="-374.3" font-family="Times,serif" font-size="14.00">clean_background</text>
</g>
<!-- __main__.clean_background_CleanedBackground&#45;&gt;CleanedBackground -->
<g id="edge5" class="edge">
<title>__main__.clean_background_CleanedBackground&#45;&gt;CleanedBackground</title>
<path fill="none" stroke="black" d="M94.24,-359.7C94.24,-351.98 94.24,-342.71 94.24,-334.11"/>
<polygon fill="black" stroke="black" points="97.74,-334.1 94.24,-324.1 90.74,-334.1 97.74,-334.1"/>
</g>
<!-- RawBackground -->
<g id="node7" class="node">
<title>RawBackground</title>
<polygon fill="none" stroke="black" points="160.74,-468 27.74,-468 27.74,-432 160.74,-432 160.74,-468"/>
<text text-anchor="middle" x="94.24" y="-446.3" font-family="Times,serif" font-size="14.00">RawBackground</text>
</g>
<!-- RawBackground&#45;&gt;__main__.clean_background_CleanedBackground -->
<g id="edge4" class="edge">
<title>RawBackground&#45;&gt;__main__.clean_background_CleanedBackground</title>
<path fill="none" stroke="black" d="M94.24,-431.7C94.24,-423.98 94.24,-414.71 94.24,-406.11"/>
<polygon fill="black" stroke="black" points="97.74,-406.1 94.24,-396.1 90.74,-406.1 97.74,-406.1"/>
</g>
<!-- __main__.clean_CleanedData -->
<g id="node8" class="node">
<title>__main__.clean_CleanedData</title>
<ellipse fill="none" stroke="black" cx="246.24" cy="-378" rx="35.19" ry="18"/>
<text text-anchor="middle" x="246.24" y="-374.3" font-family="Times,serif" font-size="14.00">clean</text>
</g>
<!-- __main__.clean_CleanedData&#45;&gt;CleanedData -->
<g id="edge7" class="edge">
<title>__main__.clean_CleanedData&#45;&gt;CleanedData</title>
<path fill="none" stroke="black" d="M246.24,-359.7C246.24,-351.98 246.24,-342.71 246.24,-334.11"/>
<polygon fill="black" stroke="black" points="249.74,-334.1 246.24,-324.1 242.74,-334.1 249.74,-334.1"/>
</g>
<!-- RawData -->
<g id="node9" class="node">
<title>RawData</title>
<polygon fill="none" stroke="black" points="286.74,-468 205.74,-468 205.74,-432 286.74,-432 286.74,-468"/>
<text text-anchor="middle" x="246.24" y="-446.3" font-family="Times,serif" font-size="14.00">RawData</text>
</g>
<!-- RawData&#45;&gt;__main__.clean_CleanedData -->
<g id="edge6" class="edge">
<title>RawData&#45;&gt;__main__.clean_CleanedData</title>
<path fill="none" stroke="black" d="M246.24,-431.7C246.24,-423.98 246.24,-414.71 246.24,-406.11"/>
<polygon fill="black" stroke="black" points="249.74,-406.1 246.24,-396.1 242.74,-406.1 249.74,-406.1"/>
</g>
<!-- Filename -->
<g id="node10" class="node">
<title>Filename</title>
<polygon fill="none" stroke="black" points="287.74,-612 204.74,-612 204.74,-576 287.74,-576 287.74,-612"/>
<text text-anchor="middle" x="246.24" y="-590.3" font-family="Times,serif" font-size="14.00">Filename</text>
</g>
<!-- __main__.load_RawData -->
<g id="node12" class="node">
<title>__main__.load_RawData</title>
<ellipse fill="none" stroke="black" cx="246.24" cy="-522" rx="30.59" ry="18"/>
<text text-anchor="middle" x="246.24" y="-518.3" font-family="Times,serif" font-size="14.00">load</text>
</g>
<!-- Filename&#45;&gt;__main__.load_RawData -->
<g id="edge10" class="edge">
<title>Filename&#45;&gt;__main__.load_RawData</title>
<path fill="none" stroke="black" d="M246.24,-575.7C246.24,-567.98 246.24,-558.71 246.24,-550.11"/>
<polygon fill="black" stroke="black" points="249.74,-550.1 246.24,-540.1 242.74,-550.1 249.74,-550.1"/>
</g>
<!-- __main__.load_background_RawBackground&#45;&gt;RawBackground -->
<g id="edge9" class="edge">
<title>__main__.load_background_RawBackground&#45;&gt;RawBackground</title>
<path fill="none" stroke="black" d="M94.24,-503.7C94.24,-495.98 94.24,-486.71 94.24,-478.11"/>
<polygon fill="black" stroke="black" points="97.74,-478.1 94.24,-468.1 90.74,-478.1 97.74,-478.1"/>
</g>
<!-- __main__.load_RawData&#45;&gt;RawData -->
<g id="edge11" class="edge">
<title>__main__.load_RawData&#45;&gt;RawData</title>
<path fill="none" stroke="black" d="M246.24,-503.7C246.24,-495.98 246.24,-486.71 246.24,-478.11"/>
<polygon fill="black" stroke="black" points="249.74,-478.1 246.24,-468.1 242.74,-478.1 249.74,-478.1"/>
</g>
<!-- Result -->
<g id="node15" class="node">
<title>Result</title>
<polygon fill="none" stroke="black" points="289.24,-36 227.24,-36 227.24,0 289.24,0 289.24,-36"/>
<text text-anchor="middle" x="258.24" y="-14.3" font-family="Times,serif" font-size="14.00">Result</text>
</g>
<!-- __main__.process_Result&#45;&gt;Result -->
<g id="edge14" class="edge">
<title>__main__.process_Result&#45;&gt;Result</title>
<path fill="none" stroke="black" d="M258.24,-71.7C258.24,-63.98 258.24,-54.71 258.24,-46.11"/>
<polygon fill="black" stroke="black" points="261.74,-46.1 258.24,-36.1 254.74,-46.1 261.74,-46.1"/>
</g>
<!-- ScaleFactor -->
<g id="node14" class="node">
<title>ScaleFactor</title>
<polygon fill="none" stroke="black" points="396.74,-180 295.74,-180 295.74,-144 396.74,-144 396.74,-180"/>
<text text-anchor="middle" x="346.24" y="-158.3" font-family="Times,serif" font-size="14.00">ScaleFactor</text>
</g>
<!-- ScaleFactor&#45;&gt;__main__.process_Result -->
<g id="edge13" class="edge">
<title>ScaleFactor&#45;&gt;__main__.process_Result</title>
<path fill="none" stroke="black" d="M324.49,-143.7C312.71,-134.33 298.06,-122.67 285.52,-112.7"/>
<polygon fill="black" stroke="black" points="287.65,-109.92 277.65,-106.44 283.29,-115.4 287.65,-109.92"/>
</g>
</g>
</svg>
