<?xml version="1.0" encoding="UTF-8" standalone="no"?>
<!DOCTYPE svg PUBLIC "-//W3C//DTD SVG 1.1//EN"
 "http://www.w3.org/Graphics/SVG/1.1/DTD/svg11.dtd">
<!-- Generated by graphviz version 2.43.0 (0)
 -->
<!-- Title: %3 Pages: 1 -->
<svg width="458pt" height="130pt"
 viewBox="0.00 0.00 458.08 130.00" xmlns="http://www.w3.org/2000/svg" xmlns:xlink="http://www.w3.org/1999/xlink">
<g id="graph0" class="graph" transform="scale(1 1) rotate(0) translate(4 126)">
<title>%3</title>
<polygon fill="white" stroke="transparent" points="-4,4 -4,-126 454.08,-126 454.08,4 -4,4"/>
<g id="clust1" class="cluster">
<title>cluster_Int</title>
<polygon fill="#f0f0ff" stroke="#f0f0ff" points="154.09,-8 154.09,-114 228.09,-114 228.09,-8 154.09,-8"/>
</g>
<!-- __main__.make_int_b_Int[B] -->
<g id="node1" class="node">
<title>__main__.make_int_b_Int[B]</title>
<ellipse fill="none" stroke="black" cx="63.04" cy="-88" rx="63.09" ry="18"/>
<text text-anchor="middle" x="63.04" y="-84.3" font-family="Times,serif" font-size="14.00">make_int_b</text>
</g>
<!-- Int[B] -->
<g id="node2" class="node">
<title>Int[B]</title>
<polygon fill="none" stroke="black" points="220.09,-106 162.09,-106 162.09,-70 220.09,-70 220.09,-106"/>
<text text-anchor="middle" x="191.09" y="-84.3" font-family="Times,serif" font-size="14.00">Int[B]</text>
</g>
<!-- __main__.make_int_b_Int[B]&#45;&gt;Int[B] -->
<g id="edge1" class="edge">
<title>__main__.make_int_b_Int[B]&#45;&gt;Int[B]</title>
<path fill="none" stroke="black" d="M126.33,-88C135.04,-88 143.77,-88 151.85,-88"/>
<polygon fill="black" stroke="black" points="152.05,-91.5 162.05,-88 152.05,-84.5 152.05,-91.5"/>
</g>
<!-- __main__.to_string_str -->
<g id="node4" class="node">
<title>__main__.to_string_str</title>
<ellipse fill="none" stroke="black" cx="308.08" cy="-61" rx="51.99" ry="18"/>
<text text-anchor="middle" x="308.08" y="-57.3" font-family="Times,serif" font-size="14.00">to_string</text>
</g>
<!-- Int[B]&#45;&gt;__main__.to_string_str -->
<g id="edge3" class="edge">
<title>Int[B]&#45;&gt;__main__.to_string_str</title>
<path fill="none" stroke="black" d="M220.22,-81.4C230.61,-78.96 242.75,-76.11 254.6,-73.32"/>
<polygon fill="black" stroke="black" points="255.51,-76.71 264.44,-71.01 253.91,-69.89 255.51,-76.71"/>
</g>
<!-- Int[A] -->
<g id="node3" class="node">
<title>Int[A]</title>
<polygon fill="none" stroke="black" points="219.59,-52 162.59,-52 162.59,-16 219.59,-16 219.59,-52"/>
<text text-anchor="middle" x="191.09" y="-30.3" font-family="Times,serif" font-size="14.00">Int[A]</text>
</g>
<!-- Int[A]&#45;&gt;__main__.to_string_str -->
<g id="edge2" class="edge">
<title>Int[A]&#45;&gt;__main__.to_string_str</title>
<path fill="none" stroke="black" d="M219.63,-40.47C230.12,-42.93 242.45,-45.82 254.49,-48.65"/>
<polygon fill="black" stroke="black" points="253.95,-52.12 264.49,-51 255.55,-45.31 253.95,-52.12"/>
</g>
<!-- str -->
<g id="node5" class="node">
<title>str</title>
<polygon fill="none" stroke="black" points="450.08,-79 396.08,-79 396.08,-43 450.08,-43 450.08,-79"/>
<text text-anchor="middle" x="423.08" y="-57.3" font-family="Times,serif" font-size="14.00">str</text>
</g>
<!-- __main__.to_string_str&#45;&gt;str -->
<g id="edge4" class="edge">
<title>__main__.to_string_str&#45;&gt;str</title>
<path fill="none" stroke="black" d="M360.29,-61C368.9,-61 377.67,-61 385.8,-61"/>
<polygon fill="black" stroke="black" points="386.05,-64.5 396.05,-61 386.05,-57.5 386.05,-64.5"/>
</g>
</g>
</svg>
