<?xml version="1.0" encoding="UTF-8" standalone="no"?>
<!DOCTYPE svg PUBLIC "-//W3C//DTD SVG 1.1//EN"
 "http://www.w3.org/Graphics/SVG/1.1/DTD/svg11.dtd">
<!-- Generated by graphviz version 2.43.0 (0)
 -->
<!-- Title: %3 Pages: 1 -->
<svg width="1268pt" height="332pt"
 viewBox="0.00 0.00 1268.00 332.00" xmlns="http://www.w3.org/2000/svg" xmlns:xlink="http://www.w3.org/1999/xlink">
<g id="graph0" class="graph" transform="scale(1 1) rotate(0) translate(4 328)">
<title>%3</title>
<polygon fill="white" stroke="transparent" points="-4,4 -4,-328 1264,-328 1264,4 -4,4"/>
<!-- Param1(dim_0=0) -->
<g id="node1" class="node">
<title>Param1(dim_0=0)</title>
<polygon fill="none" stroke="black" points="321.5,-324 175.5,-324 175.5,-288 321.5,-288 321.5,-324"/>
<text text-anchor="middle" x="248.5" y="-302.3" font-family="Times,serif" font-size="14.00">Param1(dim_0=0)</text>
</g>
<!-- __main__.product_float(dim_0=0, dim_1=0) -->
<g id="node6" class="node">
<title>__main__.product_float(dim_0=0, dim_1=0)</title>
<ellipse fill="none" stroke="black" cx="231.5" cy="-234" rx="46.59" ry="18"/>
<text text-anchor="middle" x="231.5" y="-230.3" font-family="Times,serif" font-size="14.00">product</text>
</g>
<!-- Param1(dim_0=0)&#45;&gt;__main__.product_float(dim_0=0, dim_1=0) -->
<g id="edge1" class="edge">
<title>Param1(dim_0=0)&#45;&gt;__main__.product_float(dim_0=0, dim_1=0)</title>
<path fill="none" stroke="black" d="M244.3,-287.7C242.4,-279.9 240.12,-270.51 238.02,-261.83"/>
<polygon fill="black" stroke="black" points="241.42,-261 235.65,-252.1 234.61,-262.65 241.42,-261"/>
</g>
<!-- __main__.product_float(dim_0=0, dim_1=1) -->
<g id="node8" class="node">
<title>__main__.product_float(dim_0=0, dim_1=1)</title>
<ellipse fill="none" stroke="black" cx="343.5" cy="-234" rx="46.59" ry="18"/>
<text text-anchor="middle" x="343.5" y="-230.3" font-family="Times,serif" font-size="14.00">product</text>
</g>
<!-- Param1(dim_0=0)&#45;&gt;__main__.product_float(dim_0=0, dim_1=1) -->
<g id="edge4" class="edge">
<title>Param1(dim_0=0)&#45;&gt;__main__.product_float(dim_0=0, dim_1=1)</title>
<path fill="none" stroke="black" d="M271.98,-287.7C284.91,-278.17 301.05,-266.28 314.72,-256.2"/>
<polygon fill="black" stroke="black" points="316.89,-258.95 322.87,-250.2 312.74,-253.32 316.89,-258.95"/>
</g>
<!-- Param1(dim_0=1) -->
<g id="node2" class="node">
<title>Param1(dim_0=1)</title>
<polygon fill="none" stroke="black" points="702.5,-324 556.5,-324 556.5,-288 702.5,-288 702.5,-324"/>
<text text-anchor="middle" x="629.5" y="-302.3" font-family="Times,serif" font-size="14.00">Param1(dim_0=1)</text>
</g>
<!-- __main__.product_float(dim_0=1, dim_1=0) -->
<g id="node10" class="node">
<title>__main__.product_float(dim_0=1, dim_1=0)</title>
<ellipse fill="none" stroke="black" cx="523.5" cy="-234" rx="46.59" ry="18"/>
<text text-anchor="middle" x="523.5" y="-230.3" font-family="Times,serif" font-size="14.00">product</text>
</g>
<!-- Param1(dim_0=1)&#45;&gt;__main__.product_float(dim_0=1, dim_1=0) -->
<g id="edge7" class="edge">
<title>Param1(dim_0=1)&#45;&gt;__main__.product_float(dim_0=1, dim_1=0)</title>
<path fill="none" stroke="black" d="M603.57,-287.88C588.81,-278.13 570.23,-265.86 554.68,-255.59"/>
<polygon fill="black" stroke="black" points="556.2,-252.4 545.93,-249.81 552.35,-258.24 556.2,-252.4"/>
</g>
<!-- __main__.product_float(dim_0=1, dim_1=1) -->
<g id="node12" class="node">
<title>__main__.product_float(dim_0=1, dim_1=1)</title>
<ellipse fill="none" stroke="black" cx="736.5" cy="-234" rx="46.59" ry="18"/>
<text text-anchor="middle" x="736.5" y="-230.3" font-family="Times,serif" font-size="14.00">product</text>
</g>
<!-- Param1(dim_0=1)&#45;&gt;__main__.product_float(dim_0=1, dim_1=1) -->
<g id="edge10" class="edge">
<title>Param1(dim_0=1)&#45;&gt;__main__.product_float(dim_0=1, dim_1=1)</title>
<path fill="none" stroke="black" d="M655.68,-287.88C670.71,-278.04 689.68,-265.63 705.46,-255.31"/>
<polygon fill="black" stroke="black" points="707.4,-258.22 713.86,-249.81 703.57,-252.36 707.4,-258.22"/>
</g>
<!-- Param1(dim_0=2) -->
<g id="node3" class="node">
<title>Param1(dim_0=2)</title>
<polygon fill="none" stroke="black" points="1056.5,-324 910.5,-324 910.5,-288 1056.5,-288 1056.5,-324"/>
<text text-anchor="middle" x="983.5" y="-302.3" font-family="Times,serif" font-size="14.00">Param1(dim_0=2)</text>
</g>
<!-- __main__.product_float(dim_0=2, dim_1=0) -->
<g id="node14" class="node">
<title>__main__.product_float(dim_0=2, dim_1=0)</title>
<ellipse fill="none" stroke="black" cx="888.5" cy="-234" rx="46.59" ry="18"/>
<text text-anchor="middle" x="888.5" y="-230.3" font-family="Times,serif" font-size="14.00">product</text>
</g>
<!-- Param1(dim_0=2)&#45;&gt;__main__.product_float(dim_0=2, dim_1=0) -->
<g id="edge13" class="edge">
<title>Param1(dim_0=2)&#45;&gt;__main__.product_float(dim_0=2, dim_1=0)</title>
<path fill="none" stroke="black" d="M960.02,-287.7C947.09,-278.17 930.95,-266.28 917.28,-256.2"/>
<polygon fill="black" stroke="black" points="919.26,-253.32 909.13,-250.2 915.11,-258.95 919.26,-253.32"/>
</g>
<!-- __main__.product_float(dim_0=2, dim_1=1) -->
<g id="node16" class="node">
<title>__main__.product_float(dim_0=2, dim_1=1)</title>
<ellipse fill="none" stroke="black" cx="1000.5" cy="-234" rx="46.59" ry="18"/>
<text text-anchor="middle" x="1000.5" y="-230.3" font-family="Times,serif" font-size="14.00">product</text>
</g>
<!-- Param1(dim_0=2)&#45;&gt;__main__.product_float(dim_0=2, dim_1=1) -->
<g id="edge16" class="edge">
<title>Param1(dim_0=2)&#45;&gt;__main__.product_float(dim_0=2, dim_1=1)</title>
<path fill="none" stroke="black" d="M987.7,-287.7C989.6,-279.9 991.88,-270.51 993.98,-261.83"/>
<polygon fill="black" stroke="black" points="997.39,-262.65 996.35,-252.1 990.58,-261 997.39,-262.65"/>
</g>
<!-- Param2(dim_1=0) -->
<g id="node4" class="node">
<title>Param2(dim_1=0)</title>
<polygon fill="none" stroke="black" points="538.5,-324 392.5,-324 392.5,-288 538.5,-288 538.5,-324"/>
<text text-anchor="middle" x="465.5" y="-302.3" font-family="Times,serif" font-size="14.00">Param2(dim_1=0)</text>
</g>
<!-- Param2(dim_1=0)&#45;&gt;__main__.product_float(dim_0=0, dim_1=0) -->
<g id="edge2" class="edge">
<title>Param2(dim_1=0)&#45;&gt;__main__.product_float(dim_0=0, dim_1=0)</title>
<path fill="none" stroke="black" d="M407.76,-287.89C372.92,-277.55 327.64,-264.07 287.5,-252 283.99,-250.94 280.35,-249.85 276.69,-248.74"/>
<polygon fill="black" stroke="black" points="277.63,-245.37 267.04,-245.82 275.6,-252.07 277.63,-245.37"/>
</g>
<!-- Param2(dim_1=0)&#45;&gt;__main__.product_float(dim_0=1, dim_1=0) -->
<g id="edge8" class="edge">
<title>Param2(dim_1=0)&#45;&gt;__main__.product_float(dim_0=1, dim_1=0)</title>
<path fill="none" stroke="black" d="M479.84,-287.7C486.89,-279.18 495.52,-268.76 503.24,-259.45"/>
<polygon fill="black" stroke="black" points="506.04,-261.56 509.73,-251.62 500.65,-257.09 506.04,-261.56"/>
</g>
<!-- Param2(dim_1=0)&#45;&gt;__main__.product_float(dim_0=2, dim_1=0) -->
<g id="edge14" class="edge">
<title>Param2(dim_1=0)&#45;&gt;__main__.product_float(dim_0=2, dim_1=0)</title>
<path fill="none" stroke="black" d="M538.78,-289.59C541.72,-289.04 544.64,-288.51 547.5,-288 655.87,-268.82 683.86,-269.6 792.5,-252 806.89,-249.67 822.45,-246.98 836.78,-244.45"/>
<polygon fill="black" stroke="black" points="837.73,-247.83 846.96,-242.63 836.5,-240.94 837.73,-247.83"/>
</g>
<!-- Param2(dim_1=1) -->
<g id="node5" class="node">
<title>Param2(dim_1=1)</title>
<polygon fill="none" stroke="black" points="866.5,-324 720.5,-324 720.5,-288 866.5,-288 866.5,-324"/>
<text text-anchor="middle" x="793.5" y="-302.3" font-family="Times,serif" font-size="14.00">Param2(dim_1=1)</text>
</g>
<!-- Param2(dim_1=1)&#45;&gt;__main__.product_float(dim_0=0, dim_1=1) -->
<g id="edge5" class="edge">
<title>Param2(dim_1=1)&#45;&gt;__main__.product_float(dim_0=0, dim_1=1)</title>
<path fill="none" stroke="black" d="M720.23,-289.58C717.28,-289.03 714.36,-288.5 711.5,-288 652.18,-277.59 483.8,-254.19 396.88,-242.28"/>
<polygon fill="black" stroke="black" points="397.33,-238.81 386.95,-240.92 396.38,-245.74 397.33,-238.81"/>
</g>
<!-- Param2(dim_1=1)&#45;&gt;__main__.product_float(dim_0=1, dim_1=1) -->
<g id="edge11" class="edge">
<title>Param2(dim_1=1)&#45;&gt;__main__.product_float(dim_0=1, dim_1=1)</title>
<path fill="none" stroke="black" d="M779.41,-287.7C772.47,-279.18 763.99,-268.76 756.41,-259.45"/>
<polygon fill="black" stroke="black" points="759.06,-257.17 750.04,-251.62 753.64,-261.59 759.06,-257.17"/>
</g>
<!-- Param2(dim_1=1)&#45;&gt;__main__.product_float(dim_0=2, dim_1=1) -->
<g id="edge17" class="edge">
<title>Param2(dim_1=1)&#45;&gt;__main__.product_float(dim_0=2, dim_1=1)</title>
<path fill="none" stroke="black" d="M843.87,-287.97C878.36,-276.3 923.65,-260.99 956.65,-249.83"/>
<polygon fill="black" stroke="black" points="958.12,-253.03 966.47,-246.51 955.88,-246.4 958.12,-253.03"/>
</g>
<!-- float(dim_0=0, dim_1=0) -->
<g id="node7" class="node">
<title>float(dim_0=0, dim_1=0)</title>
<polygon fill="none" stroke="black" points="195,-180 0,-180 0,-144 195,-144 195,-180"/>
<text text-anchor="middle" x="97.5" y="-158.3" font-family="Times,serif" font-size="14.00">float(dim_0=0, dim_1=0)</text>
</g>
<!-- __main__.product_float(dim_0=0, dim_1=0)&#45;&gt;float(dim_0=0, dim_1=0) -->
<g id="edge3" class="edge">
<title>__main__.product_float(dim_0=0, dim_1=0)&#45;&gt;float(dim_0=0, dim_1=0)</title>
<path fill="none" stroke="black" d="M204.71,-219C185.99,-209.23 160.64,-195.98 139.29,-184.83"/>
<polygon fill="black" stroke="black" points="140.9,-181.72 130.41,-180.19 137.66,-187.93 140.9,-181.72"/>
</g>
<!-- __main__.gather_reduce_both -->
<g id="node18" class="node">
<title>__main__.gather_reduce_both</title>
<ellipse fill="none" stroke="black" cx="629.5" cy="-90" rx="41.69" ry="18"/>
<text text-anchor="middle" x="629.5" y="-86.3" font-family="Times,serif" font-size="14.00">gather</text>
</g>
<!-- float(dim_0=0, dim_1=0)&#45;&gt;__main__.gather_reduce_both -->
<g id="edge19" class="edge">
<title>float(dim_0=0, dim_1=0)&#45;&gt;__main__.gather_reduce_both</title>
<path fill="none" stroke="black" d="M195.09,-145.22C197.92,-144.8 200.73,-144.39 203.5,-144 339.26,-124.68 499.92,-105.75 579.57,-96.63"/>
<polygon fill="black" stroke="black" points="580.26,-100.08 589.79,-95.47 579.46,-93.12 580.26,-100.08"/>
</g>
<!-- float(dim_0=0, dim_1=1) -->
<g id="node9" class="node">
<title>float(dim_0=0, dim_1=1)</title>
<polygon fill="none" stroke="black" points="408,-180 213,-180 213,-144 408,-144 408,-180"/>
<text text-anchor="middle" x="310.5" y="-158.3" font-family="Times,serif" font-size="14.00">float(dim_0=0, dim_1=1)</text>
</g>
<!-- __main__.product_float(dim_0=0, dim_1=1)&#45;&gt;float(dim_0=0, dim_1=1) -->
<g id="edge6" class="edge">
<title>__main__.product_float(dim_0=0, dim_1=1)&#45;&gt;float(dim_0=0, dim_1=1)</title>
<path fill="none" stroke="black" d="M335.51,-216.05C331.76,-208.09 327.19,-198.41 323,-189.51"/>
<polygon fill="black" stroke="black" points="326.07,-187.83 318.64,-180.28 319.74,-190.81 326.07,-187.83"/>
</g>
<!-- float(dim_0=0, dim_1=1)&#45;&gt;__main__.gather_reduce_both -->
<g id="edge20" class="edge">
<title>float(dim_0=0, dim_1=1)&#45;&gt;__main__.gather_reduce_both</title>
<path fill="none" stroke="black" d="M388.13,-143.97C449.16,-130.57 532.14,-112.37 583.19,-101.16"/>
<polygon fill="black" stroke="black" points="583.94,-104.58 592.96,-99.02 582.44,-97.74 583.94,-104.58"/>
</g>
<!-- float(dim_0=1, dim_1=0) -->
<g id="node11" class="node">
<title>float(dim_0=1, dim_1=0)</title>
<polygon fill="none" stroke="black" points="621,-180 426,-180 426,-144 621,-144 621,-180"/>
<text text-anchor="middle" x="523.5" y="-158.3" font-family="Times,serif" font-size="14.00">float(dim_0=1, dim_1=0)</text>
</g>
<!-- __main__.product_float(dim_0=1, dim_1=0)&#45;&gt;float(dim_0=1, dim_1=0) -->
<g id="edge9" class="edge">
<title>__main__.product_float(dim_0=1, dim_1=0)&#45;&gt;float(dim_0=1, dim_1=0)</title>
<path fill="none" stroke="black" d="M523.5,-215.7C523.5,-207.98 523.5,-198.71 523.5,-190.11"/>
<polygon fill="black" stroke="black" points="527,-190.1 523.5,-180.1 520,-190.1 527,-190.1"/>
</g>
<!-- float(dim_0=1, dim_1=0)&#45;&gt;__main__.gather_reduce_both -->
<g id="edge21" class="edge">
<title>float(dim_0=1, dim_1=0)&#45;&gt;__main__.gather_reduce_both</title>
<path fill="none" stroke="black" d="M549.43,-143.88C564.53,-133.9 583.64,-121.29 599.4,-110.88"/>
<polygon fill="black" stroke="black" points="601.35,-113.78 607.77,-105.35 597.49,-107.94 601.35,-113.78"/>
</g>
<!-- float(dim_0=1, dim_1=1) -->
<g id="node13" class="node">
<title>float(dim_0=1, dim_1=1)</title>
<polygon fill="none" stroke="black" points="834,-180 639,-180 639,-144 834,-144 834,-180"/>
<text text-anchor="middle" x="736.5" y="-158.3" font-family="Times,serif" font-size="14.00">float(dim_0=1, dim_1=1)</text>
</g>
<!-- __main__.product_float(dim_0=1, dim_1=1)&#45;&gt;float(dim_0=1, dim_1=1) -->
<g id="edge12" class="edge">
<title>__main__.product_float(dim_0=1, dim_1=1)&#45;&gt;float(dim_0=1, dim_1=1)</title>
<path fill="none" stroke="black" d="M736.5,-215.7C736.5,-207.98 736.5,-198.71 736.5,-190.11"/>
<polygon fill="black" stroke="black" points="740,-190.1 736.5,-180.1 733,-190.1 740,-190.1"/>
</g>
<!-- float(dim_0=1, dim_1=1)&#45;&gt;__main__.gather_reduce_both -->
<g id="edge22" class="edge">
<title>float(dim_0=1, dim_1=1)&#45;&gt;__main__.gather_reduce_both</title>
<path fill="none" stroke="black" d="M710.32,-143.88C695.08,-133.9 675.79,-121.29 659.88,-110.88"/>
<polygon fill="black" stroke="black" points="661.72,-107.9 651.44,-105.35 657.89,-113.76 661.72,-107.9"/>
</g>
<!-- float(dim_0=2, dim_1=0) -->
<g id="node15" class="node">
<title>float(dim_0=2, dim_1=0)</title>
<polygon fill="none" stroke="black" points="1047,-180 852,-180 852,-144 1047,-144 1047,-180"/>
<text text-anchor="middle" x="949.5" y="-158.3" font-family="Times,serif" font-size="14.00">float(dim_0=2, dim_1=0)</text>
</g>
<!-- __main__.product_float(dim_0=2, dim_1=0)&#45;&gt;float(dim_0=2, dim_1=0) -->
<g id="edge15" class="edge">
<title>__main__.product_float(dim_0=2, dim_1=0)&#45;&gt;float(dim_0=2, dim_1=0)</title>
<path fill="none" stroke="black" d="M902.65,-216.76C910.13,-208.18 919.47,-197.46 927.84,-187.86"/>
<polygon fill="black" stroke="black" points="930.65,-189.96 934.58,-180.12 925.37,-185.36 930.65,-189.96"/>
</g>
<!-- float(dim_0=2, dim_1=0)&#45;&gt;__main__.gather_reduce_both -->
<g id="edge23" class="edge">
<title>float(dim_0=2, dim_1=0)&#45;&gt;__main__.gather_reduce_both</title>
<path fill="none" stroke="black" d="M871.63,-143.97C810.23,-130.53 726.7,-112.26 675.52,-101.07"/>
<polygon fill="black" stroke="black" points="676.25,-97.64 665.73,-98.93 674.75,-104.48 676.25,-97.64"/>
</g>
<!-- float(dim_0=2, dim_1=1) -->
<g id="node17" class="node">
<title>float(dim_0=2, dim_1=1)</title>
<polygon fill="none" stroke="black" points="1260,-180 1065,-180 1065,-144 1260,-144 1260,-180"/>
<text text-anchor="middle" x="1162.5" y="-158.3" font-family="Times,serif" font-size="14.00">float(dim_0=2, dim_1=1)</text>
</g>
<!-- __main__.product_float(dim_0=2, dim_1=1)&#45;&gt;float(dim_0=2, dim_1=1) -->
<g id="edge18" class="edge">
<title>__main__.product_float(dim_0=2, dim_1=1)&#45;&gt;float(dim_0=2, dim_1=1)</title>
<path fill="none" stroke="black" d="M1030.59,-220C1053.92,-209.92 1086.72,-195.74 1113.78,-184.05"/>
<polygon fill="black" stroke="black" points="1115.29,-187.21 1123.08,-180.03 1112.52,-180.79 1115.29,-187.21"/>
</g>
<!-- float(dim_0=2, dim_1=1)&#45;&gt;__main__.gather_reduce_both -->
<g id="edge24" class="edge">
<title>float(dim_0=2, dim_1=1)&#45;&gt;__main__.gather_reduce_both</title>
<path fill="none" stroke="black" d="M1064.84,-145.35C1061.69,-144.88 1058.57,-144.44 1055.5,-144 919.73,-124.77 759.07,-105.81 679.43,-96.66"/>
<polygon fill="black" stroke="black" points="679.54,-93.15 669.2,-95.49 678.74,-100.1 679.54,-93.15"/>
</g>
<!-- reduce_both -->
<g id="node19" class="node">
<title>reduce_both</title>
<polygon fill="none" stroke="black" points="681.5,-36 577.5,-36 577.5,0 681.5,0 681.5,-36"/>
<text text-anchor="middle" x="629.5" y="-14.3" font-family="Times,serif" font-size="14.00">reduce_both</text>
</g>
<!-- __main__.gather_reduce_both&#45;&gt;reduce_both -->
<g id="edge25" class="edge">
<title>__main__.gather_reduce_both&#45;&gt;reduce_both</title>
<path fill="none" stroke="black" d="M629.5,-71.7C629.5,-63.98 629.5,-54.71 629.5,-46.11"/>
<polygon fill="black" stroke="black" points="633,-46.1 629.5,-36.1 626,-46.1 633,-46.1"/>
</g>
</g>
</svg>
