<?xml version="1.0" encoding="UTF-8" standalone="no"?>
<!DOCTYPE svg PUBLIC "-//W3C//DTD SVG 1.1//EN"
 "http://www.w3.org/Graphics/SVG/1.1/DTD/svg11.dtd">
<!-- Generated by graphviz version 2.43.0 (0)
 -->
<!-- Title: %3 Pages: 1 -->
<svg width="1213pt" height="169pt"
 viewBox="0.00 0.00 1213.00 169.00" xmlns="http://www.w3.org/2000/svg" xmlns:xlink="http://www.w3.org/1999/xlink">
<g id="graph0" class="graph" transform="scale(1 1) rotate(0) translate(4 165)">
<title>%3</title>
<polygon fill="white" stroke="transparent" points="-4,4 -4,-165 1209,-165 1209,4 -4,4"/>
<!-- Param1(dim_0=0) -->
<g id="node1" class="node">
<title>Param1(dim_0=0)</title>
<polygon fill="none" stroke="black" points="268.5,-161 122.5,-161 122.5,-138 268.5,-138 268.5,-161"/>
<text text-anchor="middle" x="195.5" y="-145.8" font-family="Times,serif" font-size="14.00">Param1(dim_0=0)</text>
</g>
<!-- float(dim_0=0, dim_1=0) -->
<g id="node6" class="node">
<title>float(dim_0=0, dim_1=0)</title>
<polygon fill="none" stroke="black" points="195,-102 0,-102 0,-69 195,-69 195,-102"/>
<text text-anchor="start" x="8" y="-87.8" font-family="Times,serif" font-size="14.00">float(dim_0=0, dim_1=0)</text>
<text text-anchor="start" x="65.5" y="-76.2" font-family="Times,serif" font-size="11.00">via:</text>
<text text-anchor="start" x="86.5" y="-76.2" font-family="Times,serif" font-style="italic" font-size="11.00">product</text>
</g>
<!-- Param1(dim_0=0)&#45;&gt;float(dim_0=0, dim_1=0) -->
<g id="edge1" class="edge">
<title>Param1(dim_0=0)&#45;&gt;float(dim_0=0, dim_1=0)</title>
<path fill="none" stroke="black" d="M178.88,-137.98C165.79,-129.7 147.13,-117.9 130.98,-107.68"/>
<polygon fill="black" stroke="black" points="132.63,-104.59 122.31,-102.2 128.89,-110.5 132.63,-104.59"/>
</g>
<!-- float(dim_0=0, dim_1=1) -->
<g id="node7" class="node">
<title>float(dim_0=0, dim_1=1)</title>
<polygon fill="none" stroke="black" points="397,-102 202,-102 202,-69 397,-69 397,-102"/>
<text text-anchor="start" x="210" y="-87.8" font-family="Times,serif" font-size="14.00">float(dim_0=0, dim_1=1)</text>
<text text-anchor="start" x="267.5" y="-76.2" font-family="Times,serif" font-size="11.00">via:</text>
<text text-anchor="start" x="288.5" y="-76.2" font-family="Times,serif" font-style="italic" font-size="11.00">product</text>
</g>
<!-- Param1(dim_0=0)&#45;&gt;float(dim_0=0, dim_1=1) -->
<g id="edge3" class="edge">
<title>Param1(dim_0=0)&#45;&gt;float(dim_0=0, dim_1=1)</title>
<path fill="none" stroke="black" d="M213.14,-137.98C227.16,-129.63 247.2,-117.68 264.45,-107.4"/>
<polygon fill="black" stroke="black" points="266.37,-110.32 273.17,-102.2 262.79,-104.31 266.37,-110.32"/>
</g>
<!-- Param1(dim_0=1) -->
<g id="node2" class="node">
<title>Param1(dim_0=1)</title>
<polygon fill="none" stroke="black" points="647.5,-161 501.5,-161 501.5,-138 647.5,-138 647.5,-161"/>
<text text-anchor="middle" x="574.5" y="-145.8" font-family="Times,serif" font-size="14.00">Param1(dim_0=1)</text>
</g>
<!-- float(dim_0=1, dim_1=0) -->
<g id="node8" class="node">
<title>float(dim_0=1, dim_1=0)</title>
<polygon fill="none" stroke="black" points="599,-102 404,-102 404,-69 599,-69 599,-102"/>
<text text-anchor="start" x="412" y="-87.8" font-family="Times,serif" font-size="14.00">float(dim_0=1, dim_1=0)</text>
<text text-anchor="start" x="469.5" y="-76.2" font-family="Times,serif" font-size="11.00">via:</text>
<text text-anchor="start" x="490.5" y="-76.2" font-family="Times,serif" font-style="italic" font-size="11.00">product</text>
</g>
<!-- Param1(dim_0=1)&#45;&gt;float(dim_0=1, dim_1=0) -->
<g id="edge5" class="edge">
<title>Param1(dim_0=1)&#45;&gt;float(dim_0=1, dim_1=0)</title>
<path fill="none" stroke="black" d="M562.12,-137.98C552.73,-130.01 539.49,-118.77 527.78,-108.82"/>
<polygon fill="black" stroke="black" points="529.87,-106 519.98,-102.2 525.34,-111.34 529.87,-106"/>
</g>
<!-- float(dim_0=1, dim_1=1) -->
<g id="node9" class="node">
<title>float(dim_0=1, dim_1=1)</title>
<polygon fill="none" stroke="black" points="801,-102 606,-102 606,-69 801,-69 801,-102"/>
<text text-anchor="start" x="614" y="-87.8" font-family="Times,serif" font-size="14.00">float(dim_0=1, dim_1=1)</text>
<text text-anchor="start" x="671.5" y="-76.2" font-family="Times,serif" font-size="11.00">via:</text>
<text text-anchor="start" x="692.5" y="-76.2" font-family="Times,serif" font-style="italic" font-size="11.00">product</text>
</g>
<!-- Param1(dim_0=1)&#45;&gt;float(dim_0=1, dim_1=1) -->
<g id="edge7" class="edge">
<title>Param1(dim_0=1)&#45;&gt;float(dim_0=1, dim_1=1)</title>
<path fill="none" stroke="black" d="M596.38,-137.98C614.25,-129.4 640,-117.02 661.78,-106.55"/>
<polygon fill="black" stroke="black" points="663.34,-109.68 670.84,-102.2 660.31,-103.38 663.34,-109.68"/>
</g>
<!-- Param1(dim_0=2) -->
<g id="node3" class="node">
<title>Param1(dim_0=2)</title>
<polygon fill="none" stroke="black" points="1079.5,-161 933.5,-161 933.5,-138 1079.5,-138 1079.5,-161"/>
<text text-anchor="middle" x="1006.5" y="-145.8" font-family="Times,serif" font-size="14.00">Param1(dim_0=2)</text>
</g>
<!-- float(dim_0=2, dim_1=0) -->
<g id="node10" class="node">
<title>float(dim_0=2, dim_1=0)</title>
<polygon fill="none" stroke="black" points="1003,-102 808,-102 808,-69 1003,-69 1003,-102"/>
<text text-anchor="start" x="816" y="-87.8" font-family="Times,serif" font-size="14.00">float(dim_0=2, dim_1=0)</text>
<text text-anchor="start" x="873.5" y="-76.2" font-family="Times,serif" font-size="11.00">via:</text>
<text text-anchor="start" x="894.5" y="-76.2" font-family="Times,serif" font-style="italic" font-size="11.00">product</text>
</g>
<!-- Param1(dim_0=2)&#45;&gt;float(dim_0=2, dim_1=0) -->
<g id="edge9" class="edge">
<title>Param1(dim_0=2)&#45;&gt;float(dim_0=2, dim_1=0)</title>
<path fill="none" stroke="black" d="M989.37,-137.98C975.88,-129.7 956.65,-117.9 940,-107.68"/>
<polygon fill="black" stroke="black" points="941.43,-104.45 931.07,-102.2 937.76,-110.41 941.43,-104.45"/>
</g>
<!-- float(dim_0=2, dim_1=1) -->
<g id="node11" class="node">
<title>float(dim_0=2, dim_1=1)</title>
<polygon fill="none" stroke="black" points="1205,-102 1010,-102 1010,-69 1205,-69 1205,-102"/>
<text text-anchor="start" x="1018" y="-87.8" font-family="Times,serif" font-size="14.00">float(dim_0=2, dim_1=1)</text>
<text text-anchor="start" x="1075.5" y="-76.2" font-family="Times,serif" font-size="11.00">via:</text>
<text text-anchor="start" x="1096.5" y="-76.2" font-family="Times,serif" font-style="italic" font-size="11.00">product</text>
</g>
<!-- Param1(dim_0=2)&#45;&gt;float(dim_0=2, dim_1=1) -->
<g id="edge11" class="edge">
<title>Param1(dim_0=2)&#45;&gt;float(dim_0=2, dim_1=1)</title>
<path fill="none" stroke="black" d="M1023.63,-137.98C1037.12,-129.7 1056.35,-117.9 1073,-107.68"/>
<polygon fill="black" stroke="black" points="1075.24,-110.41 1081.93,-102.2 1071.57,-104.45 1075.24,-110.41"/>
</g>
<!-- Param2(dim_1=0) -->
<g id="node4" class="node">
<title>Param2(dim_1=0)</title>
<polygon fill="none" stroke="black" points="494.5,-161 348.5,-161 348.5,-138 494.5,-138 494.5,-161"/>
<text text-anchor="middle" x="421.5" y="-145.8" font-family="Times,serif" font-size="14.00">Param2(dim_1=0)</text>
</g>
<!-- Param2(dim_1=0)&#45;&gt;float(dim_0=0, dim_1=0) -->
<g id="edge2" class="edge">
<title>Param2(dim_1=0)&#45;&gt;float(dim_0=0, dim_1=0)</title>
<path fill="none" stroke="black" d="M366.54,-137.98C317.91,-128.68 246,-114.92 188.75,-103.96"/>
<polygon fill="black" stroke="black" points="189.09,-100.46 178.61,-102.02 187.77,-107.34 189.09,-100.46"/>
</g>
<!-- Param2(dim_1=0)&#45;&gt;float(dim_0=1, dim_1=0) -->
<g id="edge6" class="edge">
<title>Param2(dim_1=0)&#45;&gt;float(dim_0=1, dim_1=0)</title>
<path fill="none" stroke="black" d="M435.07,-137.98C445.46,-129.93 460.14,-118.55 473.07,-108.53"/>
<polygon fill="black" stroke="black" points="475.48,-111.09 481.24,-102.2 471.2,-105.56 475.48,-111.09"/>
</g>
<!-- Param2(dim_1=0)&#45;&gt;float(dim_0=2, dim_1=0) -->
<g id="edge10" class="edge">
<title>Param2(dim_1=0)&#45;&gt;float(dim_0=2, dim_1=0)</title>
<path fill="none" stroke="black" d="M494.86,-138.47C496.08,-138.31 497.3,-138.15 498.5,-138 630.6,-121.2 666.49,-120.29 797.75,-102.76"/>
<polygon fill="black" stroke="black" points="798.35,-106.22 807.79,-101.42 797.41,-99.28 798.35,-106.22"/>
</g>
<!-- Param2(dim_1=1) -->
<g id="node5" class="node">
<title>Param2(dim_1=1)</title>
<polygon fill="none" stroke="black" points="800.5,-161 654.5,-161 654.5,-138 800.5,-138 800.5,-161"/>
<text text-anchor="middle" x="727.5" y="-145.8" font-family="Times,serif" font-size="14.00">Param2(dim_1=1)</text>
</g>
<!-- Param2(dim_1=1)&#45;&gt;float(dim_0=0, dim_1=1) -->
<g id="edge4" class="edge">
<title>Param2(dim_1=1)&#45;&gt;float(dim_0=0, dim_1=1)</title>
<path fill="none" stroke="black" d="M654.41,-138.34C590.58,-129.42 495.12,-115.94 407.19,-102.99"/>
<polygon fill="black" stroke="black" points="407.46,-99.49 397.06,-101.49 406.44,-106.41 407.46,-99.49"/>
</g>
<!-- Param2(dim_1=1)&#45;&gt;float(dim_0=1, dim_1=1) -->
<g id="edge8" class="edge">
<title>Param2(dim_1=1)&#45;&gt;float(dim_0=1, dim_1=1)</title>
<path fill="none" stroke="black" d="M723.43,-137.98C720.64,-130.78 716.82,-120.9 713.26,-111.72"/>
<polygon fill="black" stroke="black" points="716.45,-110.26 709.58,-102.2 709.92,-112.79 716.45,-110.26"/>
</g>
<!-- Param2(dim_1=1)&#45;&gt;float(dim_0=2, dim_1=1) -->
<g id="edge12" class="edge">
<title>Param2(dim_1=1)&#45;&gt;float(dim_0=2, dim_1=1)</title>
<path fill="none" stroke="black" d="M791.96,-137.98C849.46,-128.6 934.73,-114.69 1002.14,-103.69"/>
<polygon fill="black" stroke="black" points="1003.07,-107.09 1012.37,-102.02 1001.94,-100.18 1003.07,-107.09"/>
</g>
<!-- reduce_both -->
<g id="node12" class="node">
<title>reduce_both</title>
<polygon fill="none" stroke="black" points="654.5,-33 550.5,-33 550.5,0 654.5,0 654.5,-33"/>
<text text-anchor="start" x="558.5" y="-18.8" font-family="Times,serif" font-size="14.00">reduce_both</text>
<text text-anchor="start" x="573.5" y="-7.2" font-family="Times,serif" font-size="11.00">via:</text>
<text text-anchor="start" x="594.5" y="-7.2" font-family="Times,serif" font-style="italic" font-size="11.00">gather</text>
</g>
<!-- float(dim_0=0, dim_1=0)&#45;&gt;reduce_both -->
<g id="edge13" class="edge">
<title>float(dim_0=0, dim_1=0)&#45;&gt;reduce_both</title>
<path fill="none" stroke="black" d="M195.05,-69.49C196.21,-69.32 197.36,-69.16 198.5,-69 319.29,-52.04 460.73,-34.55 540.15,-24.95"/>
<polygon fill="black" stroke="black" points="540.96,-28.38 550.47,-23.7 540.12,-21.43 540.96,-28.38"/>
</g>
<!-- float(dim_0=0, dim_1=1)&#45;&gt;reduce_both -->
<g id="edge14" class="edge">
<title>float(dim_0=0, dim_1=1)&#45;&gt;reduce_both</title>
<path fill="none" stroke="black" d="M369.78,-68.96C421.3,-57.57 490.61,-42.24 540.16,-31.28"/>
<polygon fill="black" stroke="black" points="541.1,-34.66 550.11,-29.08 539.59,-27.83 541.1,-34.66"/>
</g>
<!-- float(dim_0=1, dim_1=0)&#45;&gt;reduce_both -->
<g id="edge15" class="edge">
<title>float(dim_0=1, dim_1=0)&#45;&gt;reduce_both</title>
<path fill="none" stroke="black" d="M524.93,-68.96C538.47,-59.98 555.7,-48.55 570.48,-38.74"/>
<polygon fill="black" stroke="black" points="572.45,-41.63 578.85,-33.19 568.58,-35.8 572.45,-41.63"/>
</g>
<!-- float(dim_0=1, dim_1=1)&#45;&gt;reduce_both -->
<g id="edge16" class="edge">
<title>float(dim_0=1, dim_1=1)&#45;&gt;reduce_both</title>
<path fill="none" stroke="black" d="M680.07,-68.96C666.53,-59.98 649.3,-48.55 634.52,-38.74"/>
<polygon fill="black" stroke="black" points="636.42,-35.8 626.15,-33.19 632.55,-41.63 636.42,-35.8"/>
</g>
<!-- float(dim_0=2, dim_1=0)&#45;&gt;reduce_both -->
<g id="edge17" class="edge">
<title>float(dim_0=2, dim_1=0)&#45;&gt;reduce_both</title>
<path fill="none" stroke="black" d="M835.22,-68.96C783.7,-57.57 714.39,-42.24 664.84,-31.28"/>
<polygon fill="black" stroke="black" points="665.41,-27.83 654.89,-29.08 663.9,-34.66 665.41,-27.83"/>
</g>
<!-- float(dim_0=2, dim_1=1)&#45;&gt;reduce_both -->
<g id="edge18" class="edge">
<title>float(dim_0=2, dim_1=1)&#45;&gt;reduce_both</title>
<path fill="none" stroke="black" d="M1009.79,-69.6C1008.35,-69.4 1006.92,-69.2 1005.5,-69 885.16,-52.17 744.3,-34.67 665.02,-25.02"/>
<polygon fill="black" stroke="black" points="665.07,-21.5 654.72,-23.77 664.23,-28.45 665.07,-21.5"/>
</g>
</g>
</svg>
