<?xml version="1.0" encoding="UTF-8" standalone="no"?>
<!DOCTYPE svg PUBLIC "-//W3C//DTD SVG 1.1//EN"
 "http://www.w3.org/Graphics/SVG/1.1/DTD/svg11.dtd">
<!-- Generated by graphviz version 2.43.0 (0)
 -->
<!-- Title: %3 Pages: 1 -->
<svg width="371pt" height="362pt"
 viewBox="0.00 0.00 370.50 362.00" xmlns="http://www.w3.org/2000/svg" xmlns:xlink="http://www.w3.org/1999/xlink">
<g id="graph0" class="graph" transform="scale(1 1) rotate(0) translate(4 358)">
<title>%3</title>
<polygon fill="white" stroke="transparent" points="-4,4 -4,-358 366.5,-358 366.5,4 -4,4"/>
<g id="clust2" class="cluster">
<title>cluster_CleanedData</title>
<polygon fill="#f0f0ff" stroke="#f0f0ff" points="95.5,-130 95.5,-200 354.5,-200 354.5,-130 95.5,-130"/>
<text text-anchor="middle" x="225" y="-184.8" font-family="Times,serif" font-size="14.00">CleanedData</text>
</g>
<g id="clust3" class="cluster">
<title>cluster_Filename</title>
<polygon fill="#f0f0ff" stroke="#f0f0ff" points="124.5,-286 124.5,-346 319.5,-346 319.5,-286 124.5,-286"/>
<text text-anchor="middle" x="222" y="-330.8" font-family="Times,serif" font-size="14.00">Filename</text>
</g>
<g id="clust4" class="cluster">
<title>cluster_RawData</title>
<polygon fill="#f0f0ff" stroke="#f0f0ff" points="124.5,-208 124.5,-278 319.5,-278 319.5,-208 124.5,-208"/>
<text text-anchor="start" x="189.5" y="-263.8" font-family="Times,serif" font-size="14.00">RawData</text>
<text text-anchor="start" x="199" y="-252.2" font-family="Times,serif" font-size="11.00">via:</text>
<text text-anchor="start" x="220" y="-252.2" font-family="Times,serif" font-style="italic" font-size="11.00">load</text>
</g>
<!-- CleanedData[Sample] -->
<g id="node1" class="node">
<title>CleanedData[Sample]</title>
<polygon fill="none" stroke="black" points="201.5,-169 103.5,-169 103.5,-138 201.5,-138 201.5,-169"/>
<text text-anchor="start" x="125" y="-156.4" font-family="Times,serif" font-size="12.00">[Sample]</text>
<text text-anchor="start" x="111.5" y="-145.2" font-family="Times,serif" font-size="11.00">via:</text>
<text text-anchor="start" x="132.5" y="-145.2" font-family="Times,serif" font-style="italic" font-size="11.00">clean_data</text>
</g>
<!-- BackgroundSubtractedData -->
<g id="node2" class="node">
<title>BackgroundSubtractedData</title>
<polygon fill="none" stroke="black" points="323,-102 108,-102 108,-69 323,-69 323,-102"/>
<text text-anchor="start" x="116" y="-87.8" font-family="Times,serif" font-size="14.00">BackgroundSubtractedData</text>
<text text-anchor="start" x="146" y="-76.2" font-family="Times,serif" font-size="11.00">via:</text>
<text text-anchor="start" x="167" y="-76.2" font-family="Times,serif" font-style="italic" font-size="11.00">subtract_background</text>
</g>
<!-- CleanedData[Sample]&#45;&gt;BackgroundSubtractedData -->
<g id="edge1" class="edge">
<title>CleanedData[Sample]&#45;&gt;BackgroundSubtractedData</title>
<path fill="none" stroke="black" d="M166.48,-137.85C174.49,-129.46 184.72,-118.75 193.75,-109.28"/>
<polygon fill="black" stroke="black" points="196.31,-111.68 200.68,-102.03 191.24,-106.84 196.31,-111.68"/>
</g>
<!-- Result -->
<g id="node8" class="node">
<title>Result</title>
<polygon fill="none" stroke="black" points="173,-33 92,-33 92,0 173,0 173,-33"/>
<text text-anchor="start" x="109.5" y="-18.8" font-family="Times,serif" font-size="14.00">Result</text>
<text text-anchor="start" x="100" y="-7.2" font-family="Times,serif" font-size="11.00">via:</text>
<text text-anchor="start" x="121" y="-7.2" font-family="Times,serif" font-style="italic" font-size="11.00">process</text>
</g>
<!-- BackgroundSubtractedData&#45;&gt;Result -->
<g id="edge7" class="edge">
<title>BackgroundSubtractedData&#45;&gt;Result</title>
<path fill="none" stroke="black" d="M196.25,-68.96C185.43,-60.23 171.75,-49.19 159.84,-39.57"/>
<polygon fill="black" stroke="black" points="161.91,-36.75 151.93,-33.19 157.52,-42.19 161.91,-36.75"/>
</g>
<!-- CleanedData[Background] -->
<g id="node3" class="node">
<title>CleanedData[Background]</title>
<polygon fill="none" stroke="black" points="346.5,-169 208.5,-169 208.5,-138 346.5,-138 346.5,-169"/>
<text text-anchor="start" x="235.5" y="-156.4" font-family="Times,serif" font-size="12.00">[Background]</text>
<text text-anchor="start" x="216.5" y="-145.2" font-family="Times,serif" font-size="11.00">via:</text>
<text text-anchor="start" x="237.5" y="-145.2" font-family="Times,serif" font-style="italic" font-size="11.00">clean_background</text>
</g>
<!-- CleanedData[Background]&#45;&gt;BackgroundSubtractedData -->
<g id="edge2" class="edge">
<title>CleanedData[Background]&#45;&gt;BackgroundSubtractedData</title>
<path fill="none" stroke="black" d="M263.74,-137.85C255.94,-129.55 245.99,-118.96 237.17,-109.57"/>
<polygon fill="black" stroke="black" points="239.48,-106.92 230.09,-102.03 234.38,-111.71 239.48,-106.92"/>
</g>
<!-- RawData[Background] -->
<g id="node4" class="node">
<title>RawData[Background]</title>
<polygon fill="none" stroke="black" points="311.5,-237 211.5,-237 211.5,-216 311.5,-216 311.5,-237"/>
<text text-anchor="start" x="219.5" y="-223.4" font-family="Times,serif" font-size="12.00">[Background]</text>
</g>
<!-- RawData[Background]&#45;&gt;CleanedData[Background] -->
<g id="edge3" class="edge">
<title>RawData[Background]&#45;&gt;CleanedData[Background]</title>
<path fill="none" stroke="black" d="M263.66,-215.92C265.78,-206.52 269.1,-191.78 271.96,-179.1"/>
<polygon fill="black" stroke="black" points="275.43,-179.61 274.21,-169.09 268.6,-178.07 275.43,-179.61"/>
</g>
<!-- RawData[Sample] -->
<g id="node5" class="node">
<title>RawData[Sample]</title>
<polygon fill="none" stroke="black" points="204,-237 133,-237 133,-216 204,-216 204,-237"/>
<text text-anchor="start" x="141" y="-223.4" font-family="Times,serif" font-size="12.00">[Sample]</text>
</g>
<!-- RawData[Sample]&#45;&gt;CleanedData[Sample] -->
<g id="edge4" class="edge">
<title>RawData[Sample]&#45;&gt;CleanedData[Sample]</title>
<path fill="none" stroke="black" d="M166.34,-215.92C164.22,-206.52 160.9,-191.78 158.04,-179.1"/>
<polygon fill="black" stroke="black" points="161.4,-178.07 155.79,-169.09 154.57,-179.61 161.4,-178.07"/>
</g>
<!-- Filename[Background] -->
<g id="node6" class="node">
<title>Filename[Background]</title>
<polygon fill="none" stroke="black" points="311.5,-315 211.5,-315 211.5,-294 311.5,-294 311.5,-315"/>
<text text-anchor="start" x="219.5" y="-301.4" font-family="Times,serif" font-size="12.00">[Background]</text>
</g>
<!-- Filename[Background]&#45;&gt;RawData[Background] -->
<g id="edge5" class="edge">
<title>Filename[Background]&#45;&gt;RawData[Background]</title>
<path fill="none" stroke="black" d="M261.5,-293.87C261.5,-282.29 261.5,-262.53 261.5,-247.57"/>
<polygon fill="black" stroke="black" points="265,-247.29 261.5,-237.29 258,-247.29 265,-247.29"/>
</g>
<!-- Filename[Sample] -->
<g id="node7" class="node">
<title>Filename[Sample]</title>
<polygon fill="none" stroke="black" points="204,-315 133,-315 133,-294 204,-294 204,-315"/>
<text text-anchor="start" x="141" y="-301.4" font-family="Times,serif" font-size="12.00">[Sample]</text>
</g>
<!-- Filename[Sample]&#45;&gt;RawData[Sample] -->
<g id="edge6" class="edge">
<title>Filename[Sample]&#45;&gt;RawData[Sample]</title>
<path fill="none" stroke="black" d="M168.5,-293.87C168.5,-282.29 168.5,-262.53 168.5,-247.57"/>
<polygon fill="black" stroke="black" points="172,-247.29 168.5,-237.29 165,-247.29 172,-247.29"/>
</g>
<!-- ScaleFactor -->
<g id="node9" class="node">
<title>ScaleFactor</title>
<polygon fill="none" stroke="black" points="101,-97 0,-97 0,-74 101,-74 101,-97"/>
<text text-anchor="middle" x="50.5" y="-81.8" font-family="Times,serif" font-size="14.00">ScaleFactor</text>
</g>
<!-- ScaleFactor&#45;&gt;Result -->
<g id="edge8" class="edge">
<title>ScaleFactor&#45;&gt;Result</title>
<path fill="none" stroke="black" d="M63.67,-73.74C74.88,-64.58 91.33,-51.14 105.33,-39.7"/>
<polygon fill="black" stroke="black" points="107.71,-42.27 113.24,-33.23 103.28,-36.85 107.71,-42.27"/>
</g>
</g>
</svg>
