<?xml version="1.0" encoding="UTF-8" standalone="no"?>
<!DOCTYPE svg PUBLIC "-//W3C//DTD SVG 1.1//EN"
 "http://www.w3.org/Graphics/SVG/1.1/DTD/svg11.dtd">
<!-- Generated by graphviz version 2.43.0 (0)
 -->
<!-- Title: %3 Pages: 1 -->
<svg width="974pt" height="332pt"
 viewBox="0.00 0.00 974.00 332.00" xmlns="http://www.w3.org/2000/svg" xmlns:xlink="http://www.w3.org/1999/xlink">
<g id="graph0" class="graph" transform="scale(1 1) rotate(0) translate(4 328)">
<title>%3</title>
<polygon fill="white" stroke="transparent" points="-4,4 -4,-328 970,-328 970,4 -4,4"/>
<!-- Param1(dim_0=0) -->
<g id="node1" class="node">
<title>Param1(dim_0=0)</title>
<polygon fill="none" stroke="black" points="146,-324 0,-324 0,-288 146,-288 146,-324"/>
<text text-anchor="middle" x="73" y="-302.3" font-family="Times,serif" font-size="14.00">Param1(dim_0=0)</text>
</g>
<!-- __main__.product_float(dim_0=0) -->
<g id="node12" class="node">
<title>__main__.product_float(dim_0=0)</title>
<ellipse fill="none" stroke="black" cx="237" cy="-234" rx="46.59" ry="18"/>
<text text-anchor="middle" x="237" y="-230.3" font-family="Times,serif" font-size="14.00">product</text>
</g>
<!-- Param1(dim_0=0)&#45;&gt;__main__.product_float(dim_0=0) -->
<g id="edge5" class="edge">
<title>Param1(dim_0=0)&#45;&gt;__main__.product_float(dim_0=0)</title>
<path fill="none" stroke="black" d="M113.12,-287.88C138.77,-276.93 171.88,-262.79 197.42,-251.89"/>
<polygon fill="black" stroke="black" points="198.99,-255.03 206.81,-247.89 196.24,-248.59 198.99,-255.03"/>
</g>
<!-- Param1(dim_0=1) -->
<g id="node2" class="node">
<title>Param1(dim_0=1)</title>
<polygon fill="none" stroke="black" points="474,-324 328,-324 328,-288 474,-288 474,-324"/>
<text text-anchor="middle" x="401" y="-302.3" font-family="Times,serif" font-size="14.00">Param1(dim_0=1)</text>
</g>
<!-- __main__.product_float(dim_0=1) -->
<g id="node13" class="node">
<title>__main__.product_float(dim_0=1)</title>
<ellipse fill="none" stroke="black" cx="483" cy="-234" rx="46.59" ry="18"/>
<text text-anchor="middle" x="483" y="-230.3" font-family="Times,serif" font-size="14.00">product</text>
</g>
<!-- Param1(dim_0=1)&#45;&gt;__main__.product_float(dim_0=1) -->
<g id="edge8" class="edge">
<title>Param1(dim_0=1)&#45;&gt;__main__.product_float(dim_0=1)</title>
<path fill="none" stroke="black" d="M421.27,-287.7C432.06,-278.49 445.45,-267.06 457,-257.2"/>
<polygon fill="black" stroke="black" points="459.31,-259.83 464.64,-250.67 454.76,-254.5 459.31,-259.83"/>
</g>
<!-- Param1(dim_0=2) -->
<g id="node3" class="node">
<title>Param1(dim_0=2)</title>
<polygon fill="none" stroke="black" points="802,-324 656,-324 656,-288 802,-288 802,-324"/>
<text text-anchor="middle" x="729" y="-302.3" font-family="Times,serif" font-size="14.00">Param1(dim_0=2)</text>
</g>
<!-- __main__.product_float(dim_0=2) -->
<g id="node14" class="node">
<title>__main__.product_float(dim_0=2)</title>
<ellipse fill="none" stroke="black" cx="729" cy="-234" rx="46.59" ry="18"/>
<text text-anchor="middle" x="729" y="-230.3" font-family="Times,serif" font-size="14.00">product</text>
</g>
<!-- Param1(dim_0=2)&#45;&gt;__main__.product_float(dim_0=2) -->
<g id="edge11" class="edge">
<title>Param1(dim_0=2)&#45;&gt;__main__.product_float(dim_0=2)</title>
<path fill="none" stroke="black" d="M729,-287.7C729,-279.98 729,-270.71 729,-262.11"/>
<polygon fill="black" stroke="black" points="732.5,-262.1 729,-252.1 725.5,-262.1 732.5,-262.1"/>
</g>
<!-- Param2(dim_0=0) -->
<g id="node4" class="node">
<title>Param2(dim_0=0)</title>
<polygon fill="none" stroke="black" points="310,-324 164,-324 164,-288 310,-288 310,-324"/>
<text text-anchor="middle" x="237" y="-302.3" font-family="Times,serif" font-size="14.00">Param2(dim_0=0)</text>
</g>
<!-- Param2(dim_0=0)&#45;&gt;__main__.product_float(dim_0=0) -->
<g id="edge6" class="edge">
<title>Param2(dim_0=0)&#45;&gt;__main__.product_float(dim_0=0)</title>
<path fill="none" stroke="black" d="M237,-287.7C237,-279.98 237,-270.71 237,-262.11"/>
<polygon fill="black" stroke="black" points="240.5,-262.1 237,-252.1 233.5,-262.1 240.5,-262.1"/>
</g>
<!-- Param2(dim_0=1) -->
<g id="node5" class="node">
<title>Param2(dim_0=1)</title>
<polygon fill="none" stroke="black" points="638,-324 492,-324 492,-288 638,-288 638,-324"/>
<text text-anchor="middle" x="565" y="-302.3" font-family="Times,serif" font-size="14.00">Param2(dim_0=1)</text>
</g>
<!-- Param2(dim_0=1)&#45;&gt;__main__.product_float(dim_0=1) -->
<g id="edge9" class="edge">
<title>Param2(dim_0=1)&#45;&gt;__main__.product_float(dim_0=1)</title>
<path fill="none" stroke="black" d="M544.73,-287.7C533.94,-278.49 520.55,-267.06 509,-257.2"/>
<polygon fill="black" stroke="black" points="511.24,-254.5 501.36,-250.67 506.69,-259.83 511.24,-254.5"/>
</g>
<!-- Param2(dim_0=2) -->
<g id="node6" class="node">
<title>Param2(dim_0=2)</title>
<polygon fill="none" stroke="black" points="966,-324 820,-324 820,-288 966,-288 966,-324"/>
<text text-anchor="middle" x="893" y="-302.3" font-family="Times,serif" font-size="14.00">Param2(dim_0=2)</text>
</g>
<!-- Param2(dim_0=2)&#45;&gt;__main__.product_float(dim_0=2) -->
<g id="edge12" class="edge">
<title>Param2(dim_0=2)&#45;&gt;__main__.product_float(dim_0=2)</title>
<path fill="none" stroke="black" d="M852.88,-287.88C827.23,-276.93 794.12,-262.79 768.58,-251.89"/>
<polygon fill="black" stroke="black" points="769.76,-248.59 759.19,-247.89 767.01,-255.03 769.76,-248.59"/>
</g>
<!-- __main__.gather_Sum -->
<g id="node7" class="node">
<title>__main__.gather_Sum</title>
<ellipse fill="none" stroke="black" cx="483" cy="-90" rx="41.69" ry="18"/>
<text text-anchor="middle" x="483" y="-86.3" font-family="Times,serif" font-size="14.00">gather</text>
</g>
<!-- Sum -->
<g id="node11" class="node">
<title>Sum</title>
<polygon fill="none" stroke="black" points="510,-36 456,-36 456,0 510,0 510,-36"/>
<text text-anchor="middle" x="483" y="-14.3" font-family="Times,serif" font-size="14.00">Sum</text>
</g>
<!-- __main__.gather_Sum&#45;&gt;Sum -->
<g id="edge4" class="edge">
<title>__main__.gather_Sum&#45;&gt;Sum</title>
<path fill="none" stroke="black" d="M483,-71.7C483,-63.98 483,-54.71 483,-46.11"/>
<polygon fill="black" stroke="black" points="486.5,-46.1 483,-36.1 479.5,-46.1 486.5,-46.1"/>
</g>
<!-- float(dim_0=0) -->
<g id="node8" class="node">
<title>float(dim_0=0)</title>
<polygon fill="none" stroke="black" points="392,-180 270,-180 270,-144 392,-144 392,-180"/>
<text text-anchor="middle" x="331" y="-158.3" font-family="Times,serif" font-size="14.00">float(dim_0=0)</text>
</g>
<!-- float(dim_0=0)&#45;&gt;__main__.gather_Sum -->
<g id="edge1" class="edge">
<title>float(dim_0=0)&#45;&gt;__main__.gather_Sum</title>
<path fill="none" stroke="black" d="M368.18,-143.88C391.82,-132.99 422.31,-118.95 445.92,-108.07"/>
<polygon fill="black" stroke="black" points="447.64,-111.14 455.26,-103.78 444.71,-104.78 447.64,-111.14"/>
</g>
<!-- float(dim_0=1) -->
<g id="node9" class="node">
<title>float(dim_0=1)</title>
<polygon fill="none" stroke="black" points="544,-180 422,-180 422,-144 544,-144 544,-180"/>
<text text-anchor="middle" x="483" y="-158.3" font-family="Times,serif" font-size="14.00">float(dim_0=1)</text>
</g>
<!-- float(dim_0=1)&#45;&gt;__main__.gather_Sum -->
<g id="edge2" class="edge">
<title>float(dim_0=1)&#45;&gt;__main__.gather_Sum</title>
<path fill="none" stroke="black" d="M483,-143.7C483,-135.98 483,-126.71 483,-118.11"/>
<polygon fill="black" stroke="black" points="486.5,-118.1 483,-108.1 479.5,-118.1 486.5,-118.1"/>
</g>
<!-- float(dim_0=2) -->
<g id="node10" class="node">
<title>float(dim_0=2)</title>
<polygon fill="none" stroke="black" points="737,-180 615,-180 615,-144 737,-144 737,-180"/>
<text text-anchor="middle" x="676" y="-158.3" font-family="Times,serif" font-size="14.00">float(dim_0=2)</text>
</g>
<!-- float(dim_0=2)&#45;&gt;__main__.gather_Sum -->
<g id="edge3" class="edge">
<title>float(dim_0=2)&#45;&gt;__main__.gather_Sum</title>
<path fill="none" stroke="black" d="M628.79,-143.88C596.46,-132.15 554.05,-116.77 523.31,-105.62"/>
<polygon fill="black" stroke="black" points="524.37,-102.28 513.77,-102.16 521.98,-108.86 524.37,-102.28"/>
</g>
<!-- __main__.product_float(dim_0=0)&#45;&gt;float(dim_0=0) -->
<g id="edge7" class="edge">
<title>__main__.product_float(dim_0=0)&#45;&gt;float(dim_0=0)</title>
<path fill="none" stroke="black" d="M257.86,-217.46C270.13,-208.33 285.89,-196.59 299.64,-186.35"/>
<polygon fill="black" stroke="black" points="301.96,-188.99 307.89,-180.21 297.78,-183.38 301.96,-188.99"/>
</g>
<!-- __main__.product_float(dim_0=1)&#45;&gt;float(dim_0=1) -->
<g id="edge10" class="edge">
<title>__main__.product_float(dim_0=1)&#45;&gt;float(dim_0=1)</title>
<path fill="none" stroke="black" d="M483,-215.7C483,-207.98 483,-198.71 483,-190.11"/>
<polygon fill="black" stroke="black" points="486.5,-190.1 483,-180.1 479.5,-190.1 486.5,-190.1"/>
</g>
<!-- __main__.product_float(dim_0=2)&#45;&gt;float(dim_0=2) -->
<g id="edge13" class="edge">
<title>__main__.product_float(dim_0=2)&#45;&gt;float(dim_0=2)</title>
<path fill="none" stroke="black" d="M716.44,-216.41C710.16,-208.12 702.42,-197.89 695.39,-188.62"/>
<polygon fill="black" stroke="black" points="698.04,-186.31 689.21,-180.45 692.46,-190.53 698.04,-186.31"/>
</g>
</g>
</svg>
