<?xml version="1.0" encoding="UTF-8" standalone="no"?>
<!DOCTYPE svg PUBLIC "-//W3C//DTD SVG 1.1//EN"
 "http://www.w3.org/Graphics/SVG/1.1/DTD/svg11.dtd">
<!-- Generated by graphviz version 2.43.0 (0)
 -->
<!-- Title: %3 Pages: 1 -->
<svg width="949pt" height="307pt"
 viewBox="0.00 0.00 949.00 307.00" xmlns="http://www.w3.org/2000/svg" xmlns:xlink="http://www.w3.org/1999/xlink">
<g id="graph0" class="graph" transform="scale(1 1) rotate(0) translate(4 303)">
<title>%3</title>
<polygon fill="white" stroke="transparent" points="-4,4 -4,-303 945,-303 945,4 -4,4"/>
<!-- RawData(run_id=102) -->
<g id="node1" class="node">
<title>RawData(run_id=102)</title>
<polygon fill="none" stroke="black" points="189.5,-240 13.5,-240 13.5,-207 189.5,-207 189.5,-240"/>
<text text-anchor="start" x="21.5" y="-225.8" font-family="Times,serif" font-size="14.00">RawData(run_id=102)</text>
<text text-anchor="start" x="78.5" y="-214.2" font-family="Times,serif" font-size="11.00">via:</text>
<text text-anchor="start" x="99.5" y="-214.2" font-family="Times,serif" font-style="italic" font-size="11.00">load</text>
</g>
<!-- CleanedData(run_id=102) -->
<g id="node2" class="node">
<title>CleanedData(run_id=102)</title>
<polygon fill="none" stroke="black" points="203,-171 0,-171 0,-138 203,-138 203,-171"/>
<text text-anchor="start" x="8" y="-156.8" font-family="Times,serif" font-size="14.00">CleanedData(run_id=102)</text>
<text text-anchor="start" x="75.5" y="-145.2" font-family="Times,serif" font-size="11.00">via:</text>
<text text-anchor="start" x="96.5" y="-145.2" font-family="Times,serif" font-style="italic" font-size="11.00">clean</text>
</g>
<!-- RawData(run_id=102)&#45;&gt;CleanedData(run_id=102) -->
<g id="edge1" class="edge">
<title>RawData(run_id=102)&#45;&gt;CleanedData(run_id=102)</title>
<path fill="none" stroke="black" d="M101.5,-206.96C101.5,-199.38 101.5,-190.05 101.5,-181.42"/>
<polygon fill="black" stroke="black" points="105,-181.42 101.5,-171.42 98,-181.42 105,-181.42"/>
</g>
<!-- Result(run_id=102) -->
<g id="node13" class="node">
<title>Result(run_id=102)</title>
<polygon fill="none" stroke="black" points="303,-102 146,-102 146,-69 303,-69 303,-102"/>
<text text-anchor="start" x="154" y="-87.8" font-family="Times,serif" font-size="14.00">Result(run_id=102)</text>
<text text-anchor="start" x="192" y="-76.2" font-family="Times,serif" font-size="11.00">via:</text>
<text text-anchor="start" x="213" y="-76.2" font-family="Times,serif" font-style="italic" font-size="11.00">process</text>
</g>
<!-- CleanedData(run_id=102)&#45;&gt;Result(run_id=102) -->
<g id="edge9" class="edge">
<title>CleanedData(run_id=102)&#45;&gt;Result(run_id=102)</title>
<path fill="none" stroke="black" d="M130.03,-137.96C146.91,-128.77 168.49,-117.01 186.76,-107.06"/>
<polygon fill="black" stroke="black" points="188.59,-110.04 195.7,-102.19 185.24,-103.9 188.59,-110.04"/>
</g>
<!-- RawData(run_id=103) -->
<g id="node3" class="node">
<title>RawData(run_id=103)</title>
<polygon fill="none" stroke="black" points="399.5,-240 223.5,-240 223.5,-207 399.5,-207 399.5,-240"/>
<text text-anchor="start" x="231.5" y="-225.8" font-family="Times,serif" font-size="14.00">RawData(run_id=103)</text>
<text text-anchor="start" x="288.5" y="-214.2" font-family="Times,serif" font-size="11.00">via:</text>
<text text-anchor="start" x="309.5" y="-214.2" font-family="Times,serif" font-style="italic" font-size="11.00">load</text>
</g>
<!-- CleanedData(run_id=103) -->
<g id="node4" class="node">
<title>CleanedData(run_id=103)</title>
<polygon fill="none" stroke="black" points="413,-171 210,-171 210,-138 413,-138 413,-171"/>
<text text-anchor="start" x="218" y="-156.8" font-family="Times,serif" font-size="14.00">CleanedData(run_id=103)</text>
<text text-anchor="start" x="285.5" y="-145.2" font-family="Times,serif" font-size="11.00">via:</text>
<text text-anchor="start" x="306.5" y="-145.2" font-family="Times,serif" font-style="italic" font-size="11.00">clean</text>
</g>
<!-- RawData(run_id=103)&#45;&gt;CleanedData(run_id=103) -->
<g id="edge2" class="edge">
<title>RawData(run_id=103)&#45;&gt;CleanedData(run_id=103)</title>
<path fill="none" stroke="black" d="M311.5,-206.96C311.5,-199.38 311.5,-190.05 311.5,-181.42"/>
<polygon fill="black" stroke="black" points="315,-181.42 311.5,-171.42 308,-181.42 315,-181.42"/>
</g>
<!-- Result(run_id=103) -->
<g id="node15" class="node">
<title>Result(run_id=103)</title>
<polygon fill="none" stroke="black" points="467,-102 310,-102 310,-69 467,-69 467,-102"/>
<text text-anchor="start" x="318" y="-87.8" font-family="Times,serif" font-size="14.00">Result(run_id=103)</text>
<text text-anchor="start" x="356" y="-76.2" font-family="Times,serif" font-size="11.00">via:</text>
<text text-anchor="start" x="377" y="-76.2" font-family="Times,serif" font-style="italic" font-size="11.00">process</text>
</g>
<!-- CleanedData(run_id=103)&#45;&gt;Result(run_id=103) -->
<g id="edge11" class="edge">
<title>CleanedData(run_id=103)&#45;&gt;Result(run_id=103)</title>
<path fill="none" stroke="black" d="M329.36,-137.96C339.3,-129.31 351.84,-118.4 362.82,-108.85"/>
<polygon fill="black" stroke="black" points="365.22,-111.39 370.47,-102.19 360.63,-106.11 365.22,-111.39"/>
</g>
<!-- RawData(run_id=104) -->
<g id="node5" class="node">
<title>RawData(run_id=104)</title>
<polygon fill="none" stroke="black" points="717.5,-240 541.5,-240 541.5,-207 717.5,-207 717.5,-240"/>
<text text-anchor="start" x="549.5" y="-225.8" font-family="Times,serif" font-size="14.00">RawData(run_id=104)</text>
<text text-anchor="start" x="606.5" y="-214.2" font-family="Times,serif" font-size="11.00">via:</text>
<text text-anchor="start" x="627.5" y="-214.2" font-family="Times,serif" font-style="italic" font-size="11.00">load</text>
</g>
<!-- CleanedData(run_id=104) -->
<g id="node6" class="node">
<title>CleanedData(run_id=104)</title>
<polygon fill="none" stroke="black" points="731,-171 528,-171 528,-138 731,-138 731,-171"/>
<text text-anchor="start" x="536" y="-156.8" font-family="Times,serif" font-size="14.00">CleanedData(run_id=104)</text>
<text text-anchor="start" x="603.5" y="-145.2" font-family="Times,serif" font-size="11.00">via:</text>
<text text-anchor="start" x="624.5" y="-145.2" font-family="Times,serif" font-style="italic" font-size="11.00">clean</text>
</g>
<!-- RawData(run_id=104)&#45;&gt;CleanedData(run_id=104) -->
<g id="edge3" class="edge">
<title>RawData(run_id=104)&#45;&gt;CleanedData(run_id=104)</title>
<path fill="none" stroke="black" d="M629.5,-206.96C629.5,-199.38 629.5,-190.05 629.5,-181.42"/>
<polygon fill="black" stroke="black" points="633,-181.42 629.5,-171.42 626,-181.42 633,-181.42"/>
</g>
<!-- Result(run_id=104) -->
<g id="node16" class="node">
<title>Result(run_id=104)</title>
<polygon fill="none" stroke="black" points="631,-102 474,-102 474,-69 631,-69 631,-102"/>
<text text-anchor="start" x="482" y="-87.8" font-family="Times,serif" font-size="14.00">Result(run_id=104)</text>
<text text-anchor="start" x="520" y="-76.2" font-family="Times,serif" font-size="11.00">via:</text>
<text text-anchor="start" x="541" y="-76.2" font-family="Times,serif" font-style="italic" font-size="11.00">process</text>
</g>
<!-- CleanedData(run_id=104)&#45;&gt;Result(run_id=104) -->
<g id="edge13" class="edge">
<title>CleanedData(run_id=104)&#45;&gt;Result(run_id=104)</title>
<path fill="none" stroke="black" d="M611.64,-137.96C601.7,-129.31 589.16,-118.4 578.18,-108.85"/>
<polygon fill="black" stroke="black" points="580.37,-106.11 570.53,-102.19 575.78,-111.39 580.37,-106.11"/>
</g>
<!-- RawData(run_id=105) -->
<g id="node7" class="node">
<title>RawData(run_id=105)</title>
<polygon fill="none" stroke="black" points="927.5,-240 751.5,-240 751.5,-207 927.5,-207 927.5,-240"/>
<text text-anchor="start" x="759.5" y="-225.8" font-family="Times,serif" font-size="14.00">RawData(run_id=105)</text>
<text text-anchor="start" x="816.5" y="-214.2" font-family="Times,serif" font-size="11.00">via:</text>
<text text-anchor="start" x="837.5" y="-214.2" font-family="Times,serif" font-style="italic" font-size="11.00">load</text>
</g>
<!-- CleanedData(run_id=105) -->
<g id="node8" class="node">
<title>CleanedData(run_id=105)</title>
<polygon fill="none" stroke="black" points="941,-171 738,-171 738,-138 941,-138 941,-171"/>
<text text-anchor="start" x="746" y="-156.8" font-family="Times,serif" font-size="14.00">CleanedData(run_id=105)</text>
<text text-anchor="start" x="813.5" y="-145.2" font-family="Times,serif" font-size="11.00">via:</text>
<text text-anchor="start" x="834.5" y="-145.2" font-family="Times,serif" font-style="italic" font-size="11.00">clean</text>
</g>
<!-- RawData(run_id=105)&#45;&gt;CleanedData(run_id=105) -->
<g id="edge4" class="edge">
<title>RawData(run_id=105)&#45;&gt;CleanedData(run_id=105)</title>
<path fill="none" stroke="black" d="M839.5,-206.96C839.5,-199.38 839.5,-190.05 839.5,-181.42"/>
<polygon fill="black" stroke="black" points="843,-181.42 839.5,-171.42 836,-181.42 843,-181.42"/>
</g>
<!-- Result(run_id=105) -->
<g id="node17" class="node">
<title>Result(run_id=105)</title>
<polygon fill="none" stroke="black" points="795,-102 638,-102 638,-69 795,-69 795,-102"/>
<text text-anchor="start" x="646" y="-87.8" font-family="Times,serif" font-size="14.00">Result(run_id=105)</text>
<text text-anchor="start" x="684" y="-76.2" font-family="Times,serif" font-size="11.00">via:</text>
<text text-anchor="start" x="705" y="-76.2" font-family="Times,serif" font-style="italic" font-size="11.00">process</text>
</g>
<!-- CleanedData(run_id=105)&#45;&gt;Result(run_id=105) -->
<g id="edge15" class="edge">
<title>CleanedData(run_id=105)&#45;&gt;Result(run_id=105)</title>
<path fill="none" stroke="black" d="M810.97,-137.96C794.09,-128.77 772.51,-117.01 754.24,-107.06"/>
<polygon fill="black" stroke="black" points="755.76,-103.9 745.3,-102.19 752.41,-110.04 755.76,-103.9"/>
</g>
<!-- Filename(run_id=102) -->
<g id="node9" class="node">
<title>Filename(run_id=102)</title>
<polygon fill="none" stroke="black" points="190,-299 13,-299 13,-276 190,-276 190,-299"/>
<text text-anchor="middle" x="101.5" y="-283.8" font-family="Times,serif" font-size="14.00">Filename(run_id=102)</text>
</g>
<!-- Filename(run_id=102)&#45;&gt;RawData(run_id=102) -->
<g id="edge5" class="edge">
<title>Filename(run_id=102)&#45;&gt;RawData(run_id=102)</title>
<path fill="none" stroke="black" d="M101.5,-275.98C101.5,-268.93 101.5,-259.32 101.5,-250.31"/>
<polygon fill="black" stroke="black" points="105,-250.2 101.5,-240.2 98,-250.2 105,-250.2"/>
</g>
<!-- Filename(run_id=103) -->
<g id="node10" class="node">
<title>Filename(run_id=103)</title>
<polygon fill="none" stroke="black" points="400,-299 223,-299 223,-276 400,-276 400,-299"/>
<text text-anchor="middle" x="311.5" y="-283.8" font-family="Times,serif" font-size="14.00">Filename(run_id=103)</text>
</g>
<!-- Filename(run_id=103)&#45;&gt;RawData(run_id=103) -->
<g id="edge6" class="edge">
<title>Filename(run_id=103)&#45;&gt;RawData(run_id=103)</title>
<path fill="none" stroke="black" d="M311.5,-275.98C311.5,-268.93 311.5,-259.32 311.5,-250.31"/>
<polygon fill="black" stroke="black" points="315,-250.2 311.5,-240.2 308,-250.2 315,-250.2"/>
</g>
<!-- Filename(run_id=104) -->
<g id="node11" class="node">
<title>Filename(run_id=104)</title>
<polygon fill="none" stroke="black" points="718,-299 541,-299 541,-276 718,-276 718,-299"/>
<text text-anchor="middle" x="629.5" y="-283.8" font-family="Times,serif" font-size="14.00">Filename(run_id=104)</text>
</g>
<!-- Filename(run_id=104)&#45;&gt;RawData(run_id=104) -->
<g id="edge7" class="edge">
<title>Filename(run_id=104)&#45;&gt;RawData(run_id=104)</title>
<path fill="none" stroke="black" d="M629.5,-275.98C629.5,-268.93 629.5,-259.32 629.5,-250.31"/>
<polygon fill="black" stroke="black" points="633,-250.2 629.5,-240.2 626,-250.2 633,-250.2"/>
</g>
<!-- Filename(run_id=105) -->
<g id="node12" class="node">
<title>Filename(run_id=105)</title>
<polygon fill="none" stroke="black" points="928,-299 751,-299 751,-276 928,-276 928,-299"/>
<text text-anchor="middle" x="839.5" y="-283.8" font-family="Times,serif" font-size="14.00">Filename(run_id=105)</text>
</g>
<!-- Filename(run_id=105)&#45;&gt;RawData(run_id=105) -->
<g id="edge8" class="edge">
<title>Filename(run_id=105)&#45;&gt;RawData(run_id=105)</title>
<path fill="none" stroke="black" d="M839.5,-275.98C839.5,-268.93 839.5,-259.32 839.5,-250.31"/>
<polygon fill="black" stroke="black" points="843,-250.2 839.5,-240.2 836,-250.2 843,-250.2"/>
</g>
<!-- merged -->
<g id="node18" class="node">
<title>merged</title>
<polygon fill="none" stroke="black" points="519,-33 422,-33 422,0 519,0 519,-33"/>
<text text-anchor="start" x="443" y="-18.8" font-family="Times,serif" font-size="14.00">merged</text>
<text text-anchor="start" x="430" y="-7.2" font-family="Times,serif" font-size="11.00">via:</text>
<text text-anchor="start" x="451" y="-7.2" font-family="Times,serif" font-style="italic" font-size="11.00">&lt;lambda&gt;</text>
</g>
<!-- Result(run_id=102)&#45;&gt;merged -->
<g id="edge17" class="edge">
<title>Result(run_id=102)&#45;&gt;merged</title>
<path fill="none" stroke="black" d="M281.56,-68.96C320.68,-58.3 372.44,-44.21 411.89,-33.46"/>
<polygon fill="black" stroke="black" points="412.91,-36.81 421.64,-30.81 411.07,-30.06 412.91,-36.81"/>
</g>
<!-- ScaleFactor -->
<g id="node14" class="node">
<title>ScaleFactor</title>
<polygon fill="none" stroke="black" points="521,-166 420,-166 420,-143 521,-143 521,-166"/>
<text text-anchor="middle" x="470.5" y="-150.8" font-family="Times,serif" font-size="14.00">ScaleFactor</text>
</g>
<!-- ScaleFactor&#45;&gt;Result(run_id=102) -->
<g id="edge10" class="edge">
<title>ScaleFactor&#45;&gt;Result(run_id=102)</title>
<path fill="none" stroke="black" d="M433.24,-142.94C427.31,-141.27 421.24,-139.58 415.5,-138 374.95,-126.82 329.48,-114.55 293.08,-104.79"/>
<polygon fill="black" stroke="black" points="293.63,-101.31 283.06,-102.11 291.82,-108.08 293.63,-101.31"/>
</g>
<!-- ScaleFactor&#45;&gt;Result(run_id=103) -->
<g id="edge12" class="edge">
<title>ScaleFactor&#45;&gt;Result(run_id=103)</title>
<path fill="none" stroke="black" d="M457.33,-142.74C446.12,-133.58 429.67,-120.14 415.67,-108.7"/>
<polygon fill="black" stroke="black" points="417.72,-105.85 407.76,-102.23 413.29,-111.27 417.72,-105.85"/>
</g>
<!-- ScaleFactor&#45;&gt;Result(run_id=104) -->
<g id="edge14" class="edge">
<title>ScaleFactor&#45;&gt;Result(run_id=104)</title>
<path fill="none" stroke="black" d="M483.67,-142.74C494.88,-133.58 511.33,-120.14 525.33,-108.7"/>
<polygon fill="black" stroke="black" points="527.71,-111.27 533.24,-102.23 523.28,-105.85 527.71,-111.27"/>
</g>
<!-- ScaleFactor&#45;&gt;Result(run_id=105) -->
<g id="edge16" class="edge">
<title>ScaleFactor&#45;&gt;Result(run_id=105)</title>
<path fill="none" stroke="black" d="M506.78,-142.99C512.7,-141.3 518.77,-139.59 524.5,-138 565.23,-126.69 610.94,-114.42 647.54,-104.69"/>
<polygon fill="black" stroke="black" points="648.84,-107.96 657.61,-102.01 647.04,-101.2 648.84,-107.96"/>
</g>
<!-- Result(run_id=103)&#45;&gt;merged -->
<g id="edge18" class="edge">
<title>Result(run_id=103)&#45;&gt;merged</title>
<path fill="none" stroke="black" d="M407.52,-68.96C418.21,-60.23 431.72,-49.19 443.49,-39.57"/>
<polygon fill="black" stroke="black" points="445.77,-42.22 451.3,-33.19 441.34,-36.8 445.77,-42.22"/>
</g>
<!-- Result(run_id=104)&#45;&gt;merged -->
<g id="edge19" class="edge">
<title>Result(run_id=104)&#45;&gt;merged</title>
<path fill="none" stroke="black" d="M533.48,-68.96C522.79,-60.23 509.28,-49.19 497.51,-39.57"/>
<polygon fill="black" stroke="black" points="499.66,-36.8 489.7,-33.19 495.23,-42.22 499.66,-36.8"/>
</g>
<!-- Result(run_id=105)&#45;&gt;merged -->
<g id="edge20" class="edge">
<title>Result(run_id=105)&#45;&gt;merged</title>
<path fill="none" stroke="black" d="M659.44,-68.96C620.32,-58.3 568.56,-44.21 529.11,-33.46"/>
<polygon fill="black" stroke="black" points="529.93,-30.06 519.36,-30.81 528.09,-36.81 529.93,-30.06"/>
</g>
</g>
</svg>
