<?xml version="1.0" encoding="UTF-8" standalone="no"?>
<!DOCTYPE svg PUBLIC "-//W3C//DTD SVG 1.1//EN"
 "http://www.w3.org/Graphics/SVG/1.1/DTD/svg11.dtd">
<!-- Generated by graphviz version 2.43.0 (0)
 -->
<!-- Title: %3 Pages: 1 -->
<svg width="1342pt" height="780pt"
 viewBox="0.00 0.00 1342.00 780.00" xmlns="http://www.w3.org/2000/svg" xmlns:xlink="http://www.w3.org/1999/xlink">
<g id="graph0" class="graph" transform="scale(1 1) rotate(0) translate(4 776)">
<title>%3</title>
<polygon fill="white" stroke="transparent" points="-4,4 -4,-776 1338,-776 1338,4 -4,4"/>
<g id="clust5" class="cluster">
<title>cluster_CleanedData</title>
<polygon fill="#f0f0ff" stroke="#f0f0ff" points="29,-424 29,-476 1305,-476 1305,-424 29,-424"/>
</g>
<g id="clust6" class="cluster">
<title>cluster_Filename</title>
<polygon fill="#f0f0ff" stroke="#f0f0ff" points="92,-712 92,-764 1242,-764 1242,-712 92,-712"/>
</g>
<g id="clust7" class="cluster">
<title>cluster_RawData</title>
<polygon fill="#f0f0ff" stroke="#f0f0ff" points="96,-568 96,-620 1238,-620 1238,-568 96,-568"/>
</g>
<!-- __main__.subtract_background_BackgroundSubtractedData(dim_0=0) -->
<g id="node1" class="node">
<title>__main__.subtract_background_BackgroundSubtractedData(dim_0=0)</title>
<ellipse fill="none" stroke="black" cx="160" cy="-378" rx="108.58" ry="18"/>
<text text-anchor="middle" x="160" y="-374.3" font-family="Times,serif" font-size="14.00">subtract_background</text>
</g>
<!-- BackgroundSubtractedData(dim_0=0) -->
<g id="node4" class="node">
<title>BackgroundSubtractedData(dim_0=0)</title>
<polygon fill="none" stroke="black" points="290,-324 0,-324 0,-288 290,-288 290,-324"/>
<text text-anchor="middle" x="145" y="-302.3" font-family="Times,serif" font-size="14.00">BackgroundSubtractedData(dim_0=0)</text>
</g>
<!-- __main__.subtract_background_BackgroundSubtractedData(dim_0=0)&#45;&gt;BackgroundSubtractedData(dim_0=0) -->
<g id="edge3" class="edge">
<title>__main__.subtract_background_BackgroundSubtractedData(dim_0=0)&#45;&gt;BackgroundSubtractedData(dim_0=0)</title>
<path fill="none" stroke="black" d="M156.29,-359.7C154.64,-351.98 152.65,-342.71 150.81,-334.11"/>
<polygon fill="black" stroke="black" points="154.18,-333.15 148.67,-324.1 147.34,-334.62 154.18,-333.15"/>
</g>
<!-- CleanedData[Sample](dim_0=0) -->
<g id="node2" class="node">
<title>CleanedData[Sample](dim_0=0)</title>
<polygon fill="none" stroke="black" points="283,-468 37,-468 37,-432 283,-432 283,-468"/>
<text text-anchor="middle" x="160" y="-446.3" font-family="Times,serif" font-size="14.00">CleanedData[Sample](dim_0=0)</text>
</g>
<!-- CleanedData[Sample](dim_0=0)&#45;&gt;__main__.subtract_background_BackgroundSubtractedData(dim_0=0) -->
<g id="edge1" class="edge">
<title>CleanedData[Sample](dim_0=0)&#45;&gt;__main__.subtract_background_BackgroundSubtractedData(dim_0=0)</title>
<path fill="none" stroke="black" d="M160,-431.7C160,-423.98 160,-414.71 160,-406.11"/>
<polygon fill="black" stroke="black" points="163.5,-406.1 160,-396.1 156.5,-406.1 163.5,-406.1"/>
</g>
<!-- CleanedData[Background] -->
<g id="node3" class="node">
<title>CleanedData[Background]</title>
<polygon fill="none" stroke="black" points="769,-468 565,-468 565,-432 769,-432 769,-468"/>
<text text-anchor="middle" x="667" y="-446.3" font-family="Times,serif" font-size="14.00">CleanedData[Background]</text>
</g>
<!-- CleanedData[Background]&#45;&gt;__main__.subtract_background_BackgroundSubtractedData(dim_0=0) -->
<g id="edge2" class="edge">
<title>CleanedData[Background]&#45;&gt;__main__.subtract_background_BackgroundSubtractedData(dim_0=0)</title>
<path fill="none" stroke="black" d="M596.76,-431.97C583.29,-429.05 569.24,-426.24 556,-424 501.01,-414.71 358.23,-399.28 260.05,-389.12"/>
<polygon fill="black" stroke="black" points="260.4,-385.64 250.09,-388.09 259.68,-392.6 260.4,-385.64"/>
</g>
<!-- __main__.subtract_background_BackgroundSubtractedData(dim_0=1) -->
<g id="node5" class="node">
<title>__main__.subtract_background_BackgroundSubtractedData(dim_0=1)</title>
<ellipse fill="none" stroke="black" cx="453" cy="-378" rx="108.58" ry="18"/>
<text text-anchor="middle" x="453" y="-374.3" font-family="Times,serif" font-size="14.00">subtract_background</text>
</g>
<!-- CleanedData[Background]&#45;&gt;__main__.subtract_background_BackgroundSubtractedData(dim_0=1) -->
<g id="edge5" class="edge">
<title>CleanedData[Background]&#45;&gt;__main__.subtract_background_BackgroundSubtractedData(dim_0=1)</title>
<path fill="none" stroke="black" d="M614.92,-431.97C583.08,-421.55 542.34,-408.22 509.68,-397.54"/>
<polygon fill="black" stroke="black" points="510.42,-394.1 499.83,-394.32 508.25,-400.75 510.42,-394.1"/>
</g>
<!-- __main__.subtract_background_BackgroundSubtractedData(dim_0=2) -->
<g id="node8" class="node">
<title>__main__.subtract_background_BackgroundSubtractedData(dim_0=2)</title>
<ellipse fill="none" stroke="black" cx="881" cy="-378" rx="108.58" ry="18"/>
<text text-anchor="middle" x="881" y="-374.3" font-family="Times,serif" font-size="14.00">subtract_background</text>
</g>
<!-- CleanedData[Background]&#45;&gt;__main__.subtract_background_BackgroundSubtractedData(dim_0=2) -->
<g id="edge8" class="edge">
<title>CleanedData[Background]&#45;&gt;__main__.subtract_background_BackgroundSubtractedData(dim_0=2)</title>
<path fill="none" stroke="black" d="M719.08,-431.97C750.92,-421.55 791.66,-408.22 824.32,-397.54"/>
<polygon fill="black" stroke="black" points="825.75,-400.75 834.17,-394.32 823.58,-394.1 825.75,-400.75"/>
</g>
<!-- __main__.subtract_background_BackgroundSubtractedData(dim_0=3) -->
<g id="node11" class="node">
<title>__main__.subtract_background_BackgroundSubtractedData(dim_0=3)</title>
<ellipse fill="none" stroke="black" cx="1174" cy="-378" rx="108.58" ry="18"/>
<text text-anchor="middle" x="1174" y="-374.3" font-family="Times,serif" font-size="14.00">subtract_background</text>
</g>
<!-- CleanedData[Background]&#45;&gt;__main__.subtract_background_BackgroundSubtractedData(dim_0=3) -->
<g id="edge11" class="edge">
<title>CleanedData[Background]&#45;&gt;__main__.subtract_background_BackgroundSubtractedData(dim_0=3)</title>
<path fill="none" stroke="black" d="M737.24,-431.97C750.71,-429.05 764.76,-426.24 778,-424 832.99,-414.71 975.77,-399.28 1073.95,-389.12"/>
<polygon fill="black" stroke="black" points="1074.32,-392.6 1083.91,-388.09 1073.6,-385.64 1074.32,-392.6"/>
</g>
<!-- __main__.process_Result(dim_0=0) -->
<g id="node34" class="node">
<title>__main__.process_Result(dim_0=0)</title>
<ellipse fill="none" stroke="black" cx="434" cy="-234" rx="46.29" ry="18"/>
<text text-anchor="middle" x="434" y="-230.3" font-family="Times,serif" font-size="14.00">process</text>
</g>
<!-- BackgroundSubtractedData(dim_0=0)&#45;&gt;__main__.process_Result(dim_0=0) -->
<g id="edge33" class="edge">
<title>BackgroundSubtractedData(dim_0=0)&#45;&gt;__main__.process_Result(dim_0=0)</title>
<path fill="none" stroke="black" d="M215.33,-287.97C268.25,-275.15 339.39,-257.92 385.94,-246.64"/>
<polygon fill="black" stroke="black" points="386.88,-250.01 395.78,-244.26 385.24,-243.21 386.88,-250.01"/>
</g>
<!-- BackgroundSubtractedData(dim_0=1) -->
<g id="node7" class="node">
<title>BackgroundSubtractedData(dim_0=1)</title>
<polygon fill="none" stroke="black" points="598,-324 308,-324 308,-288 598,-288 598,-324"/>
<text text-anchor="middle" x="453" y="-302.3" font-family="Times,serif" font-size="14.00">BackgroundSubtractedData(dim_0=1)</text>
</g>
<!-- __main__.subtract_background_BackgroundSubtractedData(dim_0=1)&#45;&gt;BackgroundSubtractedData(dim_0=1) -->
<g id="edge6" class="edge">
<title>__main__.subtract_background_BackgroundSubtractedData(dim_0=1)&#45;&gt;BackgroundSubtractedData(dim_0=1)</title>
<path fill="none" stroke="black" d="M453,-359.7C453,-351.98 453,-342.71 453,-334.11"/>
<polygon fill="black" stroke="black" points="456.5,-334.1 453,-324.1 449.5,-334.1 456.5,-334.1"/>
</g>
<!-- CleanedData[Sample](dim_0=1) -->
<g id="node6" class="node">
<title>CleanedData[Sample](dim_0=1)</title>
<polygon fill="none" stroke="black" points="547,-468 301,-468 301,-432 547,-432 547,-468"/>
<text text-anchor="middle" x="424" y="-446.3" font-family="Times,serif" font-size="14.00">CleanedData[Sample](dim_0=1)</text>
</g>
<!-- CleanedData[Sample](dim_0=1)&#45;&gt;__main__.subtract_background_BackgroundSubtractedData(dim_0=1) -->
<g id="edge4" class="edge">
<title>CleanedData[Sample](dim_0=1)&#45;&gt;__main__.subtract_background_BackgroundSubtractedData(dim_0=1)</title>
<path fill="none" stroke="black" d="M431.17,-431.7C434.43,-423.81 438.37,-414.3 442,-405.55"/>
<polygon fill="black" stroke="black" points="445.32,-406.68 445.91,-396.1 438.85,-404 445.32,-406.68"/>
</g>
<!-- __main__.process_Result(dim_0=1) -->
<g id="node37" class="node">
<title>__main__.process_Result(dim_0=1)</title>
<ellipse fill="none" stroke="black" cx="589" cy="-234" rx="46.29" ry="18"/>
<text text-anchor="middle" x="589" y="-230.3" font-family="Times,serif" font-size="14.00">process</text>
</g>
<!-- BackgroundSubtractedData(dim_0=1)&#45;&gt;__main__.process_Result(dim_0=1) -->
<g id="edge36" class="edge">
<title>BackgroundSubtractedData(dim_0=1)&#45;&gt;__main__.process_Result(dim_0=1)</title>
<path fill="none" stroke="black" d="M486.27,-287.88C506.45,-277.49 532.22,-264.22 552.9,-253.58"/>
<polygon fill="black" stroke="black" points="554.71,-256.58 562,-248.9 551.51,-250.36 554.71,-256.58"/>
</g>
<!-- BackgroundSubtractedData(dim_0=2) -->
<g id="node10" class="node">
<title>BackgroundSubtractedData(dim_0=2)</title>
<polygon fill="none" stroke="black" points="1026,-324 736,-324 736,-288 1026,-288 1026,-324"/>
<text text-anchor="middle" x="881" y="-302.3" font-family="Times,serif" font-size="14.00">BackgroundSubtractedData(dim_0=2)</text>
</g>
<!-- __main__.subtract_background_BackgroundSubtractedData(dim_0=2)&#45;&gt;BackgroundSubtractedData(dim_0=2) -->
<g id="edge9" class="edge">
<title>__main__.subtract_background_BackgroundSubtractedData(dim_0=2)&#45;&gt;BackgroundSubtractedData(dim_0=2)</title>
<path fill="none" stroke="black" d="M881,-359.7C881,-351.98 881,-342.71 881,-334.11"/>
<polygon fill="black" stroke="black" points="884.5,-334.1 881,-324.1 877.5,-334.1 884.5,-334.1"/>
</g>
<!-- CleanedData[Sample](dim_0=2) -->
<g id="node9" class="node">
<title>CleanedData[Sample](dim_0=2)</title>
<polygon fill="none" stroke="black" points="1033,-468 787,-468 787,-432 1033,-432 1033,-468"/>
<text text-anchor="middle" x="910" y="-446.3" font-family="Times,serif" font-size="14.00">CleanedData[Sample](dim_0=2)</text>
</g>
<!-- CleanedData[Sample](dim_0=2)&#45;&gt;__main__.subtract_background_BackgroundSubtractedData(dim_0=2) -->
<g id="edge7" class="edge">
<title>CleanedData[Sample](dim_0=2)&#45;&gt;__main__.subtract_background_BackgroundSubtractedData(dim_0=2)</title>
<path fill="none" stroke="black" d="M902.83,-431.7C899.57,-423.81 895.63,-414.3 892,-405.55"/>
<polygon fill="black" stroke="black" points="895.15,-404 888.09,-396.1 888.68,-406.68 895.15,-404"/>
</g>
<!-- __main__.process_Result(dim_0=2) -->
<g id="node39" class="node">
<title>__main__.process_Result(dim_0=2)</title>
<ellipse fill="none" stroke="black" cx="744" cy="-234" rx="46.29" ry="18"/>
<text text-anchor="middle" x="744" y="-230.3" font-family="Times,serif" font-size="14.00">process</text>
</g>
<!-- BackgroundSubtractedData(dim_0=2)&#45;&gt;__main__.process_Result(dim_0=2) -->
<g id="edge39" class="edge">
<title>BackgroundSubtractedData(dim_0=2)&#45;&gt;__main__.process_Result(dim_0=2)</title>
<path fill="none" stroke="black" d="M847.49,-287.88C826.92,-277.37 800.61,-263.92 779.66,-253.22"/>
<polygon fill="black" stroke="black" points="781.25,-250.1 770.75,-248.67 778.06,-256.34 781.25,-250.1"/>
</g>
<!-- BackgroundSubtractedData(dim_0=3) -->
<g id="node13" class="node">
<title>BackgroundSubtractedData(dim_0=3)</title>
<polygon fill="none" stroke="black" points="1334,-324 1044,-324 1044,-288 1334,-288 1334,-324"/>
<text text-anchor="middle" x="1189" y="-302.3" font-family="Times,serif" font-size="14.00">BackgroundSubtractedData(dim_0=3)</text>
</g>
<!-- __main__.subtract_background_BackgroundSubtractedData(dim_0=3)&#45;&gt;BackgroundSubtractedData(dim_0=3) -->
<g id="edge12" class="edge">
<title>__main__.subtract_background_BackgroundSubtractedData(dim_0=3)&#45;&gt;BackgroundSubtractedData(dim_0=3)</title>
<path fill="none" stroke="black" d="M1177.71,-359.7C1179.36,-351.98 1181.35,-342.71 1183.19,-334.11"/>
<polygon fill="black" stroke="black" points="1186.66,-334.62 1185.33,-324.1 1179.82,-333.15 1186.66,-334.62"/>
</g>
<!-- CleanedData[Sample](dim_0=3) -->
<g id="node12" class="node">
<title>CleanedData[Sample](dim_0=3)</title>
<polygon fill="none" stroke="black" points="1297,-468 1051,-468 1051,-432 1297,-432 1297,-468"/>
<text text-anchor="middle" x="1174" y="-446.3" font-family="Times,serif" font-size="14.00">CleanedData[Sample](dim_0=3)</text>
</g>
<!-- CleanedData[Sample](dim_0=3)&#45;&gt;__main__.subtract_background_BackgroundSubtractedData(dim_0=3) -->
<g id="edge10" class="edge">
<title>CleanedData[Sample](dim_0=3)&#45;&gt;__main__.subtract_background_BackgroundSubtractedData(dim_0=3)</title>
<path fill="none" stroke="black" d="M1174,-431.7C1174,-423.98 1174,-414.71 1174,-406.11"/>
<polygon fill="black" stroke="black" points="1177.5,-406.1 1174,-396.1 1170.5,-406.1 1177.5,-406.1"/>
</g>
<!-- __main__.process_Result(dim_0=3) -->
<g id="node41" class="node">
<title>__main__.process_Result(dim_0=3)</title>
<ellipse fill="none" stroke="black" cx="899" cy="-234" rx="46.29" ry="18"/>
<text text-anchor="middle" x="899" y="-230.3" font-family="Times,serif" font-size="14.00">process</text>
</g>
<!-- BackgroundSubtractedData(dim_0=3)&#45;&gt;__main__.process_Result(dim_0=3) -->
<g id="edge42" class="edge">
<title>BackgroundSubtractedData(dim_0=3)&#45;&gt;__main__.process_Result(dim_0=3)</title>
<path fill="none" stroke="black" d="M1118.43,-287.97C1065.32,-275.15 993.94,-257.92 947.22,-246.64"/>
<polygon fill="black" stroke="black" points="947.9,-243.2 937.35,-244.26 946.25,-250.01 947.9,-243.2"/>
</g>
<!-- __main__.clean_background_CleanedData[Background] -->
<g id="node14" class="node">
<title>__main__.clean_background_CleanedData[Background]</title>
<ellipse fill="none" stroke="black" cx="667" cy="-522" rx="94.48" ry="18"/>
<text text-anchor="middle" x="667" y="-518.3" font-family="Times,serif" font-size="14.00">clean_background</text>
</g>
<!-- __main__.clean_background_CleanedData[Background]&#45;&gt;CleanedData[Background] -->
<g id="edge14" class="edge">
<title>__main__.clean_background_CleanedData[Background]&#45;&gt;CleanedData[Background]</title>
<path fill="none" stroke="black" d="M667,-503.7C667,-495.98 667,-486.71 667,-478.11"/>
<polygon fill="black" stroke="black" points="670.5,-478.1 667,-468.1 663.5,-478.1 670.5,-478.1"/>
</g>
<!-- RawData[Background] -->
<g id="node15" class="node">
<title>RawData[Background]</title>
<polygon fill="none" stroke="black" points="755.5,-612 578.5,-612 578.5,-576 755.5,-576 755.5,-612"/>
<text text-anchor="middle" x="667" y="-590.3" font-family="Times,serif" font-size="14.00">RawData[Background]</text>
</g>
<!-- RawData[Background]&#45;&gt;__main__.clean_background_CleanedData[Background] -->
<g id="edge13" class="edge">
<title>RawData[Background]&#45;&gt;__main__.clean_background_CleanedData[Background]</title>
<path fill="none" stroke="black" d="M667,-575.7C667,-567.98 667,-558.71 667,-550.11"/>
<polygon fill="black" stroke="black" points="670.5,-550.1 667,-540.1 663.5,-550.1 670.5,-550.1"/>
</g>
<!-- __main__.clean_data_CleanedData[Sample](dim_0=0) -->
<g id="node16" class="node">
<title>__main__.clean_data_CleanedData[Sample](dim_0=0)</title>
<ellipse fill="none" stroke="black" cx="187" cy="-522" rx="59.59" ry="18"/>
<text text-anchor="middle" x="187" y="-518.3" font-family="Times,serif" font-size="14.00">clean_data</text>
</g>
<!-- __main__.clean_data_CleanedData[Sample](dim_0=0)&#45;&gt;CleanedData[Sample](dim_0=0) -->
<g id="edge16" class="edge">
<title>__main__.clean_data_CleanedData[Sample](dim_0=0)&#45;&gt;CleanedData[Sample](dim_0=0)</title>
<path fill="none" stroke="black" d="M180.46,-504.05C177.43,-496.18 173.74,-486.62 170.33,-477.79"/>
<polygon fill="black" stroke="black" points="173.53,-476.35 166.66,-468.28 167,-478.86 173.53,-476.35"/>
</g>
<!-- RawData[Sample](dim_0=0) -->
<g id="node17" class="node">
<title>RawData[Sample](dim_0=0)</title>
<polygon fill="none" stroke="black" points="323.5,-612 104.5,-612 104.5,-576 323.5,-576 323.5,-612"/>
<text text-anchor="middle" x="214" y="-590.3" font-family="Times,serif" font-size="14.00">RawData[Sample](dim_0=0)</text>
</g>
<!-- RawData[Sample](dim_0=0)&#45;&gt;__main__.clean_data_CleanedData[Sample](dim_0=0) -->
<g id="edge15" class="edge">
<title>RawData[Sample](dim_0=0)&#45;&gt;__main__.clean_data_CleanedData[Sample](dim_0=0)</title>
<path fill="none" stroke="black" d="M207.33,-575.7C204.29,-567.81 200.62,-558.3 197.24,-549.55"/>
<polygon fill="black" stroke="black" points="200.46,-548.17 193.6,-540.1 193.93,-550.69 200.46,-548.17"/>
</g>
<!-- __main__.clean_data_CleanedData[Sample](dim_0=1) -->
<g id="node18" class="node">
<title>__main__.clean_data_CleanedData[Sample](dim_0=1)</title>
<ellipse fill="none" stroke="black" cx="437" cy="-522" rx="59.59" ry="18"/>
<text text-anchor="middle" x="437" y="-518.3" font-family="Times,serif" font-size="14.00">clean_data</text>
</g>
<!-- __main__.clean_data_CleanedData[Sample](dim_0=1)&#45;&gt;CleanedData[Sample](dim_0=1) -->
<g id="edge18" class="edge">
<title>__main__.clean_data_CleanedData[Sample](dim_0=1)&#45;&gt;CleanedData[Sample](dim_0=1)</title>
<path fill="none" stroke="black" d="M433.79,-503.7C432.35,-495.98 430.63,-486.71 429.04,-478.11"/>
<polygon fill="black" stroke="black" points="432.44,-477.3 427.18,-468.1 425.56,-478.58 432.44,-477.3"/>
</g>
<!-- RawData[Sample](dim_0=1) -->
<g id="node19" class="node">
<title>RawData[Sample](dim_0=1)</title>
<polygon fill="none" stroke="black" points="560.5,-612 341.5,-612 341.5,-576 560.5,-576 560.5,-612"/>
<text text-anchor="middle" x="451" y="-590.3" font-family="Times,serif" font-size="14.00">RawData[Sample](dim_0=1)</text>
</g>
<!-- RawData[Sample](dim_0=1)&#45;&gt;__main__.clean_data_CleanedData[Sample](dim_0=1) -->
<g id="edge17" class="edge">
<title>RawData[Sample](dim_0=1)&#45;&gt;__main__.clean_data_CleanedData[Sample](dim_0=1)</title>
<path fill="none" stroke="black" d="M447.54,-575.7C446,-567.98 444.14,-558.71 442.42,-550.11"/>
<polygon fill="black" stroke="black" points="445.81,-549.22 440.42,-540.1 438.95,-550.6 445.81,-549.22"/>
</g>
<!-- __main__.clean_data_CleanedData[Sample](dim_0=2) -->
<g id="node20" class="node">
<title>__main__.clean_data_CleanedData[Sample](dim_0=2)</title>
<ellipse fill="none" stroke="black" cx="896" cy="-522" rx="59.59" ry="18"/>
<text text-anchor="middle" x="896" y="-518.3" font-family="Times,serif" font-size="14.00">clean_data</text>
</g>
<!-- __main__.clean_data_CleanedData[Sample](dim_0=2)&#45;&gt;CleanedData[Sample](dim_0=2) -->
<g id="edge20" class="edge">
<title>__main__.clean_data_CleanedData[Sample](dim_0=2)&#45;&gt;CleanedData[Sample](dim_0=2)</title>
<path fill="none" stroke="black" d="M899.46,-503.7C901,-495.98 902.86,-486.71 904.58,-478.11"/>
<polygon fill="black" stroke="black" points="908.05,-478.6 906.58,-468.1 901.19,-477.22 908.05,-478.6"/>
</g>
<!-- RawData[Sample](dim_0=2) -->
<g id="node21" class="node">
<title>RawData[Sample](dim_0=2)</title>
<polygon fill="none" stroke="black" points="992.5,-612 773.5,-612 773.5,-576 992.5,-576 992.5,-612"/>
<text text-anchor="middle" x="883" y="-590.3" font-family="Times,serif" font-size="14.00">RawData[Sample](dim_0=2)</text>
</g>
<!-- RawData[Sample](dim_0=2)&#45;&gt;__main__.clean_data_CleanedData[Sample](dim_0=2) -->
<g id="edge19" class="edge">
<title>RawData[Sample](dim_0=2)&#45;&gt;__main__.clean_data_CleanedData[Sample](dim_0=2)</title>
<path fill="none" stroke="black" d="M886.21,-575.7C887.65,-567.98 889.37,-558.71 890.96,-550.11"/>
<polygon fill="black" stroke="black" points="894.44,-550.58 892.82,-540.1 887.56,-549.3 894.44,-550.58"/>
</g>
<!-- __main__.clean_data_CleanedData[Sample](dim_0=3) -->
<g id="node22" class="node">
<title>__main__.clean_data_CleanedData[Sample](dim_0=3)</title>
<ellipse fill="none" stroke="black" cx="1147" cy="-522" rx="59.59" ry="18"/>
<text text-anchor="middle" x="1147" y="-518.3" font-family="Times,serif" font-size="14.00">clean_data</text>
</g>
<!-- __main__.clean_data_CleanedData[Sample](dim_0=3)&#45;&gt;CleanedData[Sample](dim_0=3) -->
<g id="edge22" class="edge">
<title>__main__.clean_data_CleanedData[Sample](dim_0=3)&#45;&gt;CleanedData[Sample](dim_0=3)</title>
<path fill="none" stroke="black" d="M1153.54,-504.05C1156.57,-496.18 1160.26,-486.62 1163.67,-477.79"/>
<polygon fill="black" stroke="black" points="1167,-478.86 1167.34,-468.28 1160.47,-476.35 1167,-478.86"/>
</g>
<!-- RawData[Sample](dim_0=3) -->
<g id="node23" class="node">
<title>RawData[Sample](dim_0=3)</title>
<polygon fill="none" stroke="black" points="1229.5,-612 1010.5,-612 1010.5,-576 1229.5,-576 1229.5,-612"/>
<text text-anchor="middle" x="1120" y="-590.3" font-family="Times,serif" font-size="14.00">RawData[Sample](dim_0=3)</text>
</g>
<!-- RawData[Sample](dim_0=3)&#45;&gt;__main__.clean_data_CleanedData[Sample](dim_0=3) -->
<g id="edge21" class="edge">
<title>RawData[Sample](dim_0=3)&#45;&gt;__main__.clean_data_CleanedData[Sample](dim_0=3)</title>
<path fill="none" stroke="black" d="M1126.67,-575.7C1129.71,-567.81 1133.38,-558.3 1136.76,-549.55"/>
<polygon fill="black" stroke="black" points="1140.07,-550.69 1140.4,-540.1 1133.54,-548.17 1140.07,-550.69"/>
</g>
<!-- Filename[Background] -->
<g id="node24" class="node">
<title>Filename[Background]</title>
<polygon fill="none" stroke="black" points="756.5,-756 577.5,-756 577.5,-720 756.5,-720 756.5,-756"/>
<text text-anchor="middle" x="667" y="-734.3" font-family="Times,serif" font-size="14.00">Filename[Background]</text>
</g>
<!-- __main__.load_RawData[Background] -->
<g id="node29" class="node">
<title>__main__.load_RawData[Background]</title>
<ellipse fill="none" stroke="black" cx="667" cy="-666" rx="30.59" ry="18"/>
<text text-anchor="middle" x="667" y="-662.3" font-family="Times,serif" font-size="14.00">load</text>
</g>
<!-- Filename[Background]&#45;&gt;__main__.load_RawData[Background] -->
<g id="edge23" class="edge">
<title>Filename[Background]&#45;&gt;__main__.load_RawData[Background]</title>
<path fill="none" stroke="black" d="M667,-719.7C667,-711.98 667,-702.71 667,-694.11"/>
<polygon fill="black" stroke="black" points="670.5,-694.1 667,-684.1 663.5,-694.1 670.5,-694.1"/>
</g>
<!-- Filename[Sample](dim_0=0) -->
<g id="node25" class="node">
<title>Filename[Sample](dim_0=0)</title>
<polygon fill="none" stroke="black" points="320.5,-756 99.5,-756 99.5,-720 320.5,-720 320.5,-756"/>
<text text-anchor="middle" x="210" y="-734.3" font-family="Times,serif" font-size="14.00">Filename[Sample](dim_0=0)</text>
</g>
<!-- __main__.load_RawData[Sample](dim_0=0) -->
<g id="node30" class="node">
<title>__main__.load_RawData[Sample](dim_0=0)</title>
<ellipse fill="none" stroke="black" cx="212" cy="-666" rx="30.59" ry="18"/>
<text text-anchor="middle" x="212" y="-662.3" font-family="Times,serif" font-size="14.00">load</text>
</g>
<!-- Filename[Sample](dim_0=0)&#45;&gt;__main__.load_RawData[Sample](dim_0=0) -->
<g id="edge25" class="edge">
<title>Filename[Sample](dim_0=0)&#45;&gt;__main__.load_RawData[Sample](dim_0=0)</title>
<path fill="none" stroke="black" d="M210.49,-719.7C210.71,-711.98 210.98,-702.71 211.23,-694.11"/>
<polygon fill="black" stroke="black" points="214.72,-694.2 211.51,-684.1 207.73,-694 214.72,-694.2"/>
</g>
<!-- Filename[Sample](dim_0=1) -->
<g id="node26" class="node">
<title>Filename[Sample](dim_0=1)</title>
<polygon fill="none" stroke="black" points="559.5,-756 338.5,-756 338.5,-720 559.5,-720 559.5,-756"/>
<text text-anchor="middle" x="449" y="-734.3" font-family="Times,serif" font-size="14.00">Filename[Sample](dim_0=1)</text>
</g>
<!-- __main__.load_RawData[Sample](dim_0=1) -->
<g id="node31" class="node">
<title>__main__.load_RawData[Sample](dim_0=1)</title>
<ellipse fill="none" stroke="black" cx="450" cy="-666" rx="30.59" ry="18"/>
<text text-anchor="middle" x="450" y="-662.3" font-family="Times,serif" font-size="14.00">load</text>
</g>
<!-- Filename[Sample](dim_0=1)&#45;&gt;__main__.load_RawData[Sample](dim_0=1) -->
<g id="edge27" class="edge">
<title>Filename[Sample](dim_0=1)&#45;&gt;__main__.load_RawData[Sample](dim_0=1)</title>
<path fill="none" stroke="black" d="M449.25,-719.7C449.36,-711.98 449.49,-702.71 449.61,-694.11"/>
<polygon fill="black" stroke="black" points="453.11,-694.15 449.76,-684.1 446.11,-694.05 453.11,-694.15"/>
</g>
<!-- Filename[Sample](dim_0=2) -->
<g id="node27" class="node">
<title>Filename[Sample](dim_0=2)</title>
<polygon fill="none" stroke="black" points="995.5,-756 774.5,-756 774.5,-720 995.5,-720 995.5,-756"/>
<text text-anchor="middle" x="885" y="-734.3" font-family="Times,serif" font-size="14.00">Filename[Sample](dim_0=2)</text>
</g>
<!-- __main__.load_RawData[Sample](dim_0=2) -->
<g id="node32" class="node">
<title>__main__.load_RawData[Sample](dim_0=2)</title>
<ellipse fill="none" stroke="black" cx="884" cy="-666" rx="30.59" ry="18"/>
<text text-anchor="middle" x="884" y="-662.3" font-family="Times,serif" font-size="14.00">load</text>
</g>
<!-- Filename[Sample](dim_0=2)&#45;&gt;__main__.load_RawData[Sample](dim_0=2) -->
<g id="edge29" class="edge">
<title>Filename[Sample](dim_0=2)&#45;&gt;__main__.load_RawData[Sample](dim_0=2)</title>
<path fill="none" stroke="black" d="M884.75,-719.7C884.64,-711.98 884.51,-702.71 884.39,-694.11"/>
<polygon fill="black" stroke="black" points="887.89,-694.05 884.24,-684.1 880.89,-694.15 887.89,-694.05"/>
</g>
<!-- Filename[Sample](dim_0=3) -->
<g id="node28" class="node">
<title>Filename[Sample](dim_0=3)</title>
<polygon fill="none" stroke="black" points="1234.5,-756 1013.5,-756 1013.5,-720 1234.5,-720 1234.5,-756"/>
<text text-anchor="middle" x="1124" y="-734.3" font-family="Times,serif" font-size="14.00">Filename[Sample](dim_0=3)</text>
</g>
<!-- __main__.load_RawData[Sample](dim_0=3) -->
<g id="node33" class="node">
<title>__main__.load_RawData[Sample](dim_0=3)</title>
<ellipse fill="none" stroke="black" cx="1122" cy="-666" rx="30.59" ry="18"/>
<text text-anchor="middle" x="1122" y="-662.3" font-family="Times,serif" font-size="14.00">load</text>
</g>
<!-- Filename[Sample](dim_0=3)&#45;&gt;__main__.load_RawData[Sample](dim_0=3) -->
<g id="edge31" class="edge">
<title>Filename[Sample](dim_0=3)&#45;&gt;__main__.load_RawData[Sample](dim_0=3)</title>
<path fill="none" stroke="black" d="M1123.51,-719.7C1123.29,-711.98 1123.02,-702.71 1122.77,-694.11"/>
<polygon fill="black" stroke="black" points="1126.27,-694 1122.49,-684.1 1119.28,-694.2 1126.27,-694"/>
</g>
<!-- __main__.load_RawData[Background]&#45;&gt;RawData[Background] -->
<g id="edge24" class="edge">
<title>__main__.load_RawData[Background]&#45;&gt;RawData[Background]</title>
<path fill="none" stroke="black" d="M667,-647.7C667,-639.98 667,-630.71 667,-622.11"/>
<polygon fill="black" stroke="black" points="670.5,-622.1 667,-612.1 663.5,-622.1 670.5,-622.1"/>
</g>
<!-- __main__.load_RawData[Sample](dim_0=0)&#45;&gt;RawData[Sample](dim_0=0) -->
<g id="edge26" class="edge">
<title>__main__.load_RawData[Sample](dim_0=0)&#45;&gt;RawData[Sample](dim_0=0)</title>
<path fill="none" stroke="black" d="M212.49,-647.7C212.71,-639.98 212.98,-630.71 213.23,-622.11"/>
<polygon fill="black" stroke="black" points="216.72,-622.2 213.51,-612.1 209.73,-622 216.72,-622.2"/>
</g>
<!-- __main__.load_RawData[Sample](dim_0=1)&#45;&gt;RawData[Sample](dim_0=1) -->
<g id="edge28" class="edge">
<title>__main__.load_RawData[Sample](dim_0=1)&#45;&gt;RawData[Sample](dim_0=1)</title>
<path fill="none" stroke="black" d="M450.25,-647.7C450.36,-639.98 450.49,-630.71 450.61,-622.11"/>
<polygon fill="black" stroke="black" points="454.11,-622.15 450.76,-612.1 447.11,-622.05 454.11,-622.15"/>
</g>
<!-- __main__.load_RawData[Sample](dim_0=2)&#45;&gt;RawData[Sample](dim_0=2) -->
<g id="edge30" class="edge">
<title>__main__.load_RawData[Sample](dim_0=2)&#45;&gt;RawData[Sample](dim_0=2)</title>
<path fill="none" stroke="black" d="M883.75,-647.7C883.64,-639.98 883.51,-630.71 883.39,-622.11"/>
<polygon fill="black" stroke="black" points="886.89,-622.05 883.24,-612.1 879.89,-622.15 886.89,-622.05"/>
</g>
<!-- __main__.load_RawData[Sample](dim_0=3)&#45;&gt;RawData[Sample](dim_0=3) -->
<g id="edge32" class="edge">
<title>__main__.load_RawData[Sample](dim_0=3)&#45;&gt;RawData[Sample](dim_0=3)</title>
<path fill="none" stroke="black" d="M1121.51,-647.7C1121.29,-639.98 1121.02,-630.71 1120.77,-622.11"/>
<polygon fill="black" stroke="black" points="1124.27,-622 1120.49,-612.1 1117.28,-622.2 1124.27,-622"/>
</g>
<!-- Result(dim_0=0) -->
<g id="node36" class="node">
<title>Result(dim_0=0)</title>
<polygon fill="none" stroke="black" points="502.5,-180 365.5,-180 365.5,-144 502.5,-144 502.5,-180"/>
<text text-anchor="middle" x="434" y="-158.3" font-family="Times,serif" font-size="14.00">Result(dim_0=0)</text>
</g>
<!-- __main__.process_Result(dim_0=0)&#45;&gt;Result(dim_0=0) -->
<g id="edge35" class="edge">
<title>__main__.process_Result(dim_0=0)&#45;&gt;Result(dim_0=0)</title>
<path fill="none" stroke="black" d="M434,-215.7C434,-207.98 434,-198.71 434,-190.11"/>
<polygon fill="black" stroke="black" points="437.5,-190.1 434,-180.1 430.5,-190.1 437.5,-190.1"/>
</g>
<!-- ScaleFactor -->
<g id="node35" class="node">
<title>ScaleFactor</title>
<polygon fill="none" stroke="black" points="717.5,-324 616.5,-324 616.5,-288 717.5,-288 717.5,-324"/>
<text text-anchor="middle" x="667" y="-302.3" font-family="Times,serif" font-size="14.00">ScaleFactor</text>
</g>
<!-- ScaleFactor&#45;&gt;__main__.process_Result(dim_0=0) -->
<g id="edge34" class="edge">
<title>ScaleFactor&#45;&gt;__main__.process_Result(dim_0=0)</title>
<path fill="none" stroke="black" d="M616.44,-289.81C575.48,-277.5 518.3,-260.32 478.92,-248.5"/>
<polygon fill="black" stroke="black" points="479.9,-245.14 469.32,-245.61 477.89,-251.84 479.9,-245.14"/>
</g>
<!-- ScaleFactor&#45;&gt;__main__.process_Result(dim_0=1) -->
<g id="edge37" class="edge">
<title>ScaleFactor&#45;&gt;__main__.process_Result(dim_0=1)</title>
<path fill="none" stroke="black" d="M647.72,-287.7C637.55,-278.57 624.96,-267.28 614.05,-257.48"/>
<polygon fill="black" stroke="black" points="616.24,-254.75 606.46,-250.67 611.57,-259.96 616.24,-254.75"/>
</g>
<!-- ScaleFactor&#45;&gt;__main__.process_Result(dim_0=2) -->
<g id="edge40" class="edge">
<title>ScaleFactor&#45;&gt;__main__.process_Result(dim_0=2)</title>
<path fill="none" stroke="black" d="M686.03,-287.7C696,-278.64 708.32,-267.44 719.04,-257.69"/>
<polygon fill="black" stroke="black" points="721.46,-260.22 726.5,-250.91 716.75,-255.04 721.46,-260.22"/>
</g>
<!-- ScaleFactor&#45;&gt;__main__.process_Result(dim_0=3) -->
<g id="edge43" class="edge">
<title>ScaleFactor&#45;&gt;__main__.process_Result(dim_0=3)</title>
<path fill="none" stroke="black" d="M717.63,-289.72C758.14,-277.5 814.44,-260.51 853.53,-248.72"/>
<polygon fill="black" stroke="black" points="855.01,-251.93 863.57,-245.69 852.99,-245.23 855.01,-251.93"/>
</g>
<!-- __main__.&lt;lambda&gt;_collected -->
<g id="node43" class="node">
<title>__main__.&lt;lambda&gt;_collected</title>
<ellipse fill="none" stroke="black" cx="666" cy="-90" rx="44.69" ry="18"/>
<text text-anchor="start" x="639.5" y="-86.3" font-family="Times,serif" font-size="14.00">lambda</text>
</g>
<!-- Result(dim_0=0)&#45;&gt;__main__.&lt;lambda&gt;_collected -->
<g id="edge45" class="edge">
<title>Result(dim_0=0)&#45;&gt;__main__.&lt;lambda&gt;_collected</title>
<path fill="none" stroke="black" d="M490.46,-143.97C530.84,-131.78 584.44,-115.61 621.74,-104.36"/>
<polygon fill="black" stroke="black" points="622.76,-107.7 631.33,-101.46 620.74,-101 622.76,-107.7"/>
</g>
<!-- Result(dim_0=1) -->
<g id="node38" class="node">
<title>Result(dim_0=1)</title>
<polygon fill="none" stroke="black" points="657.5,-180 520.5,-180 520.5,-144 657.5,-144 657.5,-180"/>
<text text-anchor="middle" x="589" y="-158.3" font-family="Times,serif" font-size="14.00">Result(dim_0=1)</text>
</g>
<!-- __main__.process_Result(dim_0=1)&#45;&gt;Result(dim_0=1) -->
<g id="edge38" class="edge">
<title>__main__.process_Result(dim_0=1)&#45;&gt;Result(dim_0=1)</title>
<path fill="none" stroke="black" d="M589,-215.7C589,-207.98 589,-198.71 589,-190.11"/>
<polygon fill="black" stroke="black" points="592.5,-190.1 589,-180.1 585.5,-190.1 592.5,-190.1"/>
</g>
<!-- Result(dim_0=1)&#45;&gt;__main__.&lt;lambda&gt;_collected -->
<g id="edge46" class="edge">
<title>Result(dim_0=1)&#45;&gt;__main__.&lt;lambda&gt;_collected</title>
<path fill="none" stroke="black" d="M608.03,-143.7C618.07,-134.57 630.5,-123.28 641.27,-113.48"/>
<polygon fill="black" stroke="black" points="643.72,-115.99 648.76,-106.67 639.01,-110.81 643.72,-115.99"/>
</g>
<!-- Result(dim_0=2) -->
<g id="node40" class="node">
<title>Result(dim_0=2)</title>
<polygon fill="none" stroke="black" points="812.5,-180 675.5,-180 675.5,-144 812.5,-144 812.5,-180"/>
<text text-anchor="middle" x="744" y="-158.3" font-family="Times,serif" font-size="14.00">Result(dim_0=2)</text>
</g>
<!-- __main__.process_Result(dim_0=2)&#45;&gt;Result(dim_0=2) -->
<g id="edge41" class="edge">
<title>__main__.process_Result(dim_0=2)&#45;&gt;Result(dim_0=2)</title>
<path fill="none" stroke="black" d="M744,-215.7C744,-207.98 744,-198.71 744,-190.11"/>
<polygon fill="black" stroke="black" points="747.5,-190.1 744,-180.1 740.5,-190.1 747.5,-190.1"/>
</g>
<!-- Result(dim_0=2)&#45;&gt;__main__.&lt;lambda&gt;_collected -->
<g id="edge47" class="edge">
<title>Result(dim_0=2)&#45;&gt;__main__.&lt;lambda&gt;_collected</title>
<path fill="none" stroke="black" d="M724.72,-143.7C714.55,-134.57 701.96,-123.28 691.05,-113.48"/>
<polygon fill="black" stroke="black" points="693.24,-110.75 683.46,-106.67 688.57,-115.96 693.24,-110.75"/>
</g>
<!-- Result(dim_0=3) -->
<g id="node42" class="node">
<title>Result(dim_0=3)</title>
<polygon fill="none" stroke="black" points="967.5,-180 830.5,-180 830.5,-144 967.5,-144 967.5,-180"/>
<text text-anchor="middle" x="899" y="-158.3" font-family="Times,serif" font-size="14.00">Result(dim_0=3)</text>
</g>
<!-- __main__.process_Result(dim_0=3)&#45;&gt;Result(dim_0=3) -->
<g id="edge44" class="edge">
<title>__main__.process_Result(dim_0=3)&#45;&gt;Result(dim_0=3)</title>
<path fill="none" stroke="black" d="M899,-215.7C899,-207.98 899,-198.71 899,-190.11"/>
<polygon fill="black" stroke="black" points="902.5,-190.1 899,-180.1 895.5,-190.1 902.5,-190.1"/>
</g>
<!-- Result(dim_0=3)&#45;&gt;__main__.&lt;lambda&gt;_collected -->
<g id="edge48" class="edge">
<title>Result(dim_0=3)&#45;&gt;__main__.&lt;lambda&gt;_collected</title>
<path fill="none" stroke="black" d="M842.3,-143.97C801.74,-131.78 747.92,-115.61 710.45,-104.36"/>
<polygon fill="black" stroke="black" points="711.41,-100.99 700.82,-101.46 709.39,-107.69 711.41,-100.99"/>
</g>
<!-- collected -->
<g id="node44" class="node">
<title>collected</title>
<polygon fill="none" stroke="black" points="706,-36 626,-36 626,0 706,0 706,-36"/>
<text text-anchor="middle" x="666" y="-14.3" font-family="Times,serif" font-size="14.00">collected</text>
</g>
<!-- __main__.&lt;lambda&gt;_collected&#45;&gt;collected -->
<g id="edge49" class="edge">
<title>__main__.&lt;lambda&gt;_collected&#45;&gt;collected</title>
<path fill="none" stroke="black" d="M666,-71.7C666,-63.98 666,-54.71 666,-46.11"/>
<polygon fill="black" stroke="black" points="669.5,-46.1 666,-36.1 662.5,-46.1 669.5,-46.1"/>
</g>
</g>
</svg>
