<?xml version="1.0" encoding="UTF-8" standalone="no"?>
<!DOCTYPE svg PUBLIC "-//W3C//DTD SVG 1.1//EN"
 "http://www.w3.org/Graphics/SVG/1.1/DTD/svg11.dtd">
<!-- Generated by graphviz version 2.43.0 (0)
 -->
<!-- Title: %3 Pages: 1 -->
<svg width="993pt" height="476pt"
 viewBox="0.00 0.00 993.00 476.00" xmlns="http://www.w3.org/2000/svg" xmlns:xlink="http://www.w3.org/1999/xlink">
<g id="graph0" class="graph" transform="scale(1 1) rotate(0) translate(4 472)">
<title>%3</title>
<polygon fill="white" stroke="transparent" points="-4,4 -4,-472 989,-472 989,4 -4,4"/>
<!-- __main__.clean_CleanedData(run_id=102) -->
<g id="node1" class="node">
<title>__main__.clean_CleanedData(run_id=102)</title>
<ellipse fill="none" stroke="black" cx="101.5" cy="-234" rx="35.19" ry="18"/>
<text text-anchor="middle" x="101.5" y="-230.3" font-family="Times,serif" font-size="14.00">clean</text>
</g>
<!-- CleanedData(run_id=102) -->
<g id="node3" class="node">
<title>CleanedData(run_id=102)</title>
<polygon fill="none" stroke="black" points="203,-180 0,-180 0,-144 203,-144 203,-180"/>
<text text-anchor="middle" x="101.5" y="-158.3" font-family="Times,serif" font-size="14.00">CleanedData(run_id=102)</text>
</g>
<!-- __main__.clean_CleanedData(run_id=102)&#45;&gt;CleanedData(run_id=102) -->
<g id="edge2" class="edge">
<title>__main__.clean_CleanedData(run_id=102)&#45;&gt;CleanedData(run_id=102)</title>
<path fill="none" stroke="black" d="M101.5,-215.7C101.5,-207.98 101.5,-198.71 101.5,-190.11"/>
<polygon fill="black" stroke="black" points="105,-190.1 101.5,-180.1 98,-190.1 105,-190.1"/>
</g>
<!-- RawData(run_id=102) -->
<g id="node2" class="node">
<title>RawData(run_id=102)</title>
<polygon fill="none" stroke="black" points="189.5,-324 13.5,-324 13.5,-288 189.5,-288 189.5,-324"/>
<text text-anchor="middle" x="101.5" y="-302.3" font-family="Times,serif" font-size="14.00">RawData(run_id=102)</text>
</g>
<!-- RawData(run_id=102)&#45;&gt;__main__.clean_CleanedData(run_id=102) -->
<g id="edge1" class="edge">
<title>RawData(run_id=102)&#45;&gt;__main__.clean_CleanedData(run_id=102)</title>
<path fill="none" stroke="black" d="M101.5,-287.7C101.5,-279.98 101.5,-270.71 101.5,-262.11"/>
<polygon fill="black" stroke="black" points="105,-262.1 101.5,-252.1 98,-262.1 105,-262.1"/>
</g>
<!-- __main__.process_Result(run_id=102) -->
<g id="node21" class="node">
<title>__main__.process_Result(run_id=102)</title>
<ellipse fill="none" stroke="black" cx="156.5" cy="-90" rx="46.29" ry="18"/>
<text text-anchor="middle" x="156.5" y="-86.3" font-family="Times,serif" font-size="14.00">process</text>
</g>
<!-- CleanedData(run_id=102)&#45;&gt;__main__.process_Result(run_id=102) -->
<g id="edge17" class="edge">
<title>CleanedData(run_id=102)&#45;&gt;__main__.process_Result(run_id=102)</title>
<path fill="none" stroke="black" d="M115.1,-143.7C121.72,-135.27 129.81,-124.97 137.07,-115.73"/>
<polygon fill="black" stroke="black" points="140.01,-117.65 143.44,-107.62 134.51,-113.32 140.01,-117.65"/>
</g>
<!-- __main__.clean_CleanedData(run_id=103) -->
<g id="node4" class="node">
<title>__main__.clean_CleanedData(run_id=103)</title>
<ellipse fill="none" stroke="black" cx="322.5" cy="-234" rx="35.19" ry="18"/>
<text text-anchor="middle" x="322.5" y="-230.3" font-family="Times,serif" font-size="14.00">clean</text>
</g>
<!-- CleanedData(run_id=103) -->
<g id="node6" class="node">
<title>CleanedData(run_id=103)</title>
<polygon fill="none" stroke="black" points="424,-180 221,-180 221,-144 424,-144 424,-180"/>
<text text-anchor="middle" x="322.5" y="-158.3" font-family="Times,serif" font-size="14.00">CleanedData(run_id=103)</text>
</g>
<!-- __main__.clean_CleanedData(run_id=103)&#45;&gt;CleanedData(run_id=103) -->
<g id="edge4" class="edge">
<title>__main__.clean_CleanedData(run_id=103)&#45;&gt;CleanedData(run_id=103)</title>
<path fill="none" stroke="black" d="M322.5,-215.7C322.5,-207.98 322.5,-198.71 322.5,-190.11"/>
<polygon fill="black" stroke="black" points="326,-190.1 322.5,-180.1 319,-190.1 326,-190.1"/>
</g>
<!-- RawData(run_id=103) -->
<g id="node5" class="node">
<title>RawData(run_id=103)</title>
<polygon fill="none" stroke="black" points="410.5,-324 234.5,-324 234.5,-288 410.5,-288 410.5,-324"/>
<text text-anchor="middle" x="322.5" y="-302.3" font-family="Times,serif" font-size="14.00">RawData(run_id=103)</text>
</g>
<!-- RawData(run_id=103)&#45;&gt;__main__.clean_CleanedData(run_id=103) -->
<g id="edge3" class="edge">
<title>RawData(run_id=103)&#45;&gt;__main__.clean_CleanedData(run_id=103)</title>
<path fill="none" stroke="black" d="M322.5,-287.7C322.5,-279.98 322.5,-270.71 322.5,-262.11"/>
<polygon fill="black" stroke="black" points="326,-262.1 322.5,-252.1 319,-262.1 326,-262.1"/>
</g>
<!-- __main__.process_Result(run_id=103) -->
<g id="node24" class="node">
<title>__main__.process_Result(run_id=103)</title>
<ellipse fill="none" stroke="black" cx="354.5" cy="-90" rx="46.29" ry="18"/>
<text text-anchor="middle" x="354.5" y="-86.3" font-family="Times,serif" font-size="14.00">process</text>
</g>
<!-- CleanedData(run_id=103)&#45;&gt;__main__.process_Result(run_id=103) -->
<g id="edge20" class="edge">
<title>CleanedData(run_id=103)&#45;&gt;__main__.process_Result(run_id=103)</title>
<path fill="none" stroke="black" d="M330.41,-143.7C334.05,-135.73 338.45,-126.1 342.49,-117.26"/>
<polygon fill="black" stroke="black" points="345.71,-118.65 346.68,-108.1 339.34,-115.74 345.71,-118.65"/>
</g>
<!-- __main__.clean_CleanedData(run_id=104) -->
<g id="node7" class="node">
<title>__main__.clean_CleanedData(run_id=104)</title>
<ellipse fill="none" stroke="black" cx="662.5" cy="-234" rx="35.19" ry="18"/>
<text text-anchor="middle" x="662.5" y="-230.3" font-family="Times,serif" font-size="14.00">clean</text>
</g>
<!-- CleanedData(run_id=104) -->
<g id="node9" class="node">
<title>CleanedData(run_id=104)</title>
<polygon fill="none" stroke="black" points="764,-180 561,-180 561,-144 764,-144 764,-180"/>
<text text-anchor="middle" x="662.5" y="-158.3" font-family="Times,serif" font-size="14.00">CleanedData(run_id=104)</text>
</g>
<!-- __main__.clean_CleanedData(run_id=104)&#45;&gt;CleanedData(run_id=104) -->
<g id="edge6" class="edge">
<title>__main__.clean_CleanedData(run_id=104)&#45;&gt;CleanedData(run_id=104)</title>
<path fill="none" stroke="black" d="M662.5,-215.7C662.5,-207.98 662.5,-198.71 662.5,-190.11"/>
<polygon fill="black" stroke="black" points="666,-190.1 662.5,-180.1 659,-190.1 666,-190.1"/>
</g>
<!-- RawData(run_id=104) -->
<g id="node8" class="node">
<title>RawData(run_id=104)</title>
<polygon fill="none" stroke="black" points="750.5,-324 574.5,-324 574.5,-288 750.5,-288 750.5,-324"/>
<text text-anchor="middle" x="662.5" y="-302.3" font-family="Times,serif" font-size="14.00">RawData(run_id=104)</text>
</g>
<!-- RawData(run_id=104)&#45;&gt;__main__.clean_CleanedData(run_id=104) -->
<g id="edge5" class="edge">
<title>RawData(run_id=104)&#45;&gt;__main__.clean_CleanedData(run_id=104)</title>
<path fill="none" stroke="black" d="M662.5,-287.7C662.5,-279.98 662.5,-270.71 662.5,-262.11"/>
<polygon fill="black" stroke="black" points="666,-262.1 662.5,-252.1 659,-262.1 666,-262.1"/>
</g>
<!-- __main__.process_Result(run_id=104) -->
<g id="node26" class="node">
<title>__main__.process_Result(run_id=104)</title>
<ellipse fill="none" stroke="black" cx="611.5" cy="-90" rx="46.29" ry="18"/>
<text text-anchor="middle" x="611.5" y="-86.3" font-family="Times,serif" font-size="14.00">process</text>
</g>
<!-- CleanedData(run_id=104)&#45;&gt;__main__.process_Result(run_id=104) -->
<g id="edge23" class="edge">
<title>CleanedData(run_id=104)&#45;&gt;__main__.process_Result(run_id=104)</title>
<path fill="none" stroke="black" d="M649.89,-143.7C643.75,-135.27 636.25,-124.97 629.52,-115.73"/>
<polygon fill="black" stroke="black" points="632.33,-113.64 623.61,-107.62 626.67,-117.77 632.33,-113.64"/>
</g>
<!-- __main__.clean_CleanedData(run_id=105) -->
<g id="node10" class="node">
<title>__main__.clean_CleanedData(run_id=105)</title>
<ellipse fill="none" stroke="black" cx="883.5" cy="-234" rx="35.19" ry="18"/>
<text text-anchor="middle" x="883.5" y="-230.3" font-family="Times,serif" font-size="14.00">clean</text>
</g>
<!-- CleanedData(run_id=105) -->
<g id="node12" class="node">
<title>CleanedData(run_id=105)</title>
<polygon fill="none" stroke="black" points="985,-180 782,-180 782,-144 985,-144 985,-180"/>
<text text-anchor="middle" x="883.5" y="-158.3" font-family="Times,serif" font-size="14.00">CleanedData(run_id=105)</text>
</g>
<!-- __main__.clean_CleanedData(run_id=105)&#45;&gt;CleanedData(run_id=105) -->
<g id="edge8" class="edge">
<title>__main__.clean_CleanedData(run_id=105)&#45;&gt;CleanedData(run_id=105)</title>
<path fill="none" stroke="black" d="M883.5,-215.7C883.5,-207.98 883.5,-198.71 883.5,-190.11"/>
<polygon fill="black" stroke="black" points="887,-190.1 883.5,-180.1 880,-190.1 887,-190.1"/>
</g>
<!-- RawData(run_id=105) -->
<g id="node11" class="node">
<title>RawData(run_id=105)</title>
<polygon fill="none" stroke="black" points="971.5,-324 795.5,-324 795.5,-288 971.5,-288 971.5,-324"/>
<text text-anchor="middle" x="883.5" y="-302.3" font-family="Times,serif" font-size="14.00">RawData(run_id=105)</text>
</g>
<!-- RawData(run_id=105)&#45;&gt;__main__.clean_CleanedData(run_id=105) -->
<g id="edge7" class="edge">
<title>RawData(run_id=105)&#45;&gt;__main__.clean_CleanedData(run_id=105)</title>
<path fill="none" stroke="black" d="M883.5,-287.7C883.5,-279.98 883.5,-270.71 883.5,-262.11"/>
<polygon fill="black" stroke="black" points="887,-262.1 883.5,-252.1 880,-262.1 887,-262.1"/>
</g>
<!-- __main__.process_Result(run_id=105) -->
<g id="node28" class="node">
<title>__main__.process_Result(run_id=105)</title>
<ellipse fill="none" stroke="black" cx="850.5" cy="-90" rx="46.29" ry="18"/>
<text text-anchor="middle" x="850.5" y="-86.3" font-family="Times,serif" font-size="14.00">process</text>
</g>
<!-- CleanedData(run_id=105)&#45;&gt;__main__.process_Result(run_id=105) -->
<g id="edge26" class="edge">
<title>CleanedData(run_id=105)&#45;&gt;__main__.process_Result(run_id=105)</title>
<path fill="none" stroke="black" d="M875.34,-143.7C871.59,-135.73 867.05,-126.1 862.88,-117.26"/>
<polygon fill="black" stroke="black" points="865.99,-115.66 858.56,-108.1 859.66,-118.64 865.99,-115.66"/>
</g>
<!-- Filename(run_id=102) -->
<g id="node13" class="node">
<title>Filename(run_id=102)</title>
<polygon fill="none" stroke="black" points="190,-468 13,-468 13,-432 190,-432 190,-468"/>
<text text-anchor="middle" x="101.5" y="-446.3" font-family="Times,serif" font-size="14.00">Filename(run_id=102)</text>
</g>
<!-- __main__.load_RawData(run_id=102) -->
<g id="node17" class="node">
<title>__main__.load_RawData(run_id=102)</title>
<ellipse fill="none" stroke="black" cx="101.5" cy="-378" rx="30.59" ry="18"/>
<text text-anchor="middle" x="101.5" y="-374.3" font-family="Times,serif" font-size="14.00">load</text>
</g>
<!-- Filename(run_id=102)&#45;&gt;__main__.load_RawData(run_id=102) -->
<g id="edge9" class="edge">
<title>Filename(run_id=102)&#45;&gt;__main__.load_RawData(run_id=102)</title>
<path fill="none" stroke="black" d="M101.5,-431.7C101.5,-423.98 101.5,-414.71 101.5,-406.11"/>
<polygon fill="black" stroke="black" points="105,-406.1 101.5,-396.1 98,-406.1 105,-406.1"/>
</g>
<!-- Filename(run_id=103) -->
<g id="node14" class="node">
<title>Filename(run_id=103)</title>
<polygon fill="none" stroke="black" points="411,-468 234,-468 234,-432 411,-432 411,-468"/>
<text text-anchor="middle" x="322.5" y="-446.3" font-family="Times,serif" font-size="14.00">Filename(run_id=103)</text>
</g>
<!-- __main__.load_RawData(run_id=103) -->
<g id="node18" class="node">
<title>__main__.load_RawData(run_id=103)</title>
<ellipse fill="none" stroke="black" cx="322.5" cy="-378" rx="30.59" ry="18"/>
<text text-anchor="middle" x="322.5" y="-374.3" font-family="Times,serif" font-size="14.00">load</text>
</g>
<!-- Filename(run_id=103)&#45;&gt;__main__.load_RawData(run_id=103) -->
<g id="edge11" class="edge">
<title>Filename(run_id=103)&#45;&gt;__main__.load_RawData(run_id=103)</title>
<path fill="none" stroke="black" d="M322.5,-431.7C322.5,-423.98 322.5,-414.71 322.5,-406.11"/>
<polygon fill="black" stroke="black" points="326,-406.1 322.5,-396.1 319,-406.1 326,-406.1"/>
</g>
<!-- Filename(run_id=104) -->
<g id="node15" class="node">
<title>Filename(run_id=104)</title>
<polygon fill="none" stroke="black" points="751,-468 574,-468 574,-432 751,-432 751,-468"/>
<text text-anchor="middle" x="662.5" y="-446.3" font-family="Times,serif" font-size="14.00">Filename(run_id=104)</text>
</g>
<!-- __main__.load_RawData(run_id=104) -->
<g id="node19" class="node">
<title>__main__.load_RawData(run_id=104)</title>
<ellipse fill="none" stroke="black" cx="662.5" cy="-378" rx="30.59" ry="18"/>
<text text-anchor="middle" x="662.5" y="-374.3" font-family="Times,serif" font-size="14.00">load</text>
</g>
<!-- Filename(run_id=104)&#45;&gt;__main__.load_RawData(run_id=104) -->
<g id="edge13" class="edge">
<title>Filename(run_id=104)&#45;&gt;__main__.load_RawData(run_id=104)</title>
<path fill="none" stroke="black" d="M662.5,-431.7C662.5,-423.98 662.5,-414.71 662.5,-406.11"/>
<polygon fill="black" stroke="black" points="666,-406.1 662.5,-396.1 659,-406.1 666,-406.1"/>
</g>
<!-- Filename(run_id=105) -->
<g id="node16" class="node">
<title>Filename(run_id=105)</title>
<polygon fill="none" stroke="black" points="972,-468 795,-468 795,-432 972,-432 972,-468"/>
<text text-anchor="middle" x="883.5" y="-446.3" font-family="Times,serif" font-size="14.00">Filename(run_id=105)</text>
</g>
<!-- __main__.load_RawData(run_id=105) -->
<g id="node20" class="node">
<title>__main__.load_RawData(run_id=105)</title>
<ellipse fill="none" stroke="black" cx="883.5" cy="-378" rx="30.59" ry="18"/>
<text text-anchor="middle" x="883.5" y="-374.3" font-family="Times,serif" font-size="14.00">load</text>
</g>
<!-- Filename(run_id=105)&#45;&gt;__main__.load_RawData(run_id=105) -->
<g id="edge15" class="edge">
<title>Filename(run_id=105)&#45;&gt;__main__.load_RawData(run_id=105)</title>
<path fill="none" stroke="black" d="M883.5,-431.7C883.5,-423.98 883.5,-414.71 883.5,-406.11"/>
<polygon fill="black" stroke="black" points="887,-406.1 883.5,-396.1 880,-406.1 887,-406.1"/>
</g>
<!-- __main__.load_RawData(run_id=102)&#45;&gt;RawData(run_id=102) -->
<g id="edge10" class="edge">
<title>__main__.load_RawData(run_id=102)&#45;&gt;RawData(run_id=102)</title>
<path fill="none" stroke="black" d="M101.5,-359.7C101.5,-351.98 101.5,-342.71 101.5,-334.11"/>
<polygon fill="black" stroke="black" points="105,-334.1 101.5,-324.1 98,-334.1 105,-334.1"/>
</g>
<!-- __main__.load_RawData(run_id=103)&#45;&gt;RawData(run_id=103) -->
<g id="edge12" class="edge">
<title>__main__.load_RawData(run_id=103)&#45;&gt;RawData(run_id=103)</title>
<path fill="none" stroke="black" d="M322.5,-359.7C322.5,-351.98 322.5,-342.71 322.5,-334.11"/>
<polygon fill="black" stroke="black" points="326,-334.1 322.5,-324.1 319,-334.1 326,-334.1"/>
</g>
<!-- __main__.load_RawData(run_id=104)&#45;&gt;RawData(run_id=104) -->
<g id="edge14" class="edge">
<title>__main__.load_RawData(run_id=104)&#45;&gt;RawData(run_id=104)</title>
<path fill="none" stroke="black" d="M662.5,-359.7C662.5,-351.98 662.5,-342.71 662.5,-334.11"/>
<polygon fill="black" stroke="black" points="666,-334.1 662.5,-324.1 659,-334.1 666,-334.1"/>
</g>
<!-- __main__.load_RawData(run_id=105)&#45;&gt;RawData(run_id=105) -->
<g id="edge16" class="edge">
<title>__main__.load_RawData(run_id=105)&#45;&gt;RawData(run_id=105)</title>
<path fill="none" stroke="black" d="M883.5,-359.7C883.5,-351.98 883.5,-342.71 883.5,-334.11"/>
<polygon fill="black" stroke="black" points="887,-334.1 883.5,-324.1 880,-334.1 887,-334.1"/>
</g>
<!-- Result(run_id=102) -->
<g id="node23" class="node">
<title>Result(run_id=102)</title>
<polygon fill="none" stroke="black" points="235,-36 78,-36 78,0 235,0 235,-36"/>
<text text-anchor="middle" x="156.5" y="-14.3" font-family="Times,serif" font-size="14.00">Result(run_id=102)</text>
</g>
<!-- __main__.process_Result(run_id=102)&#45;&gt;Result(run_id=102) -->
<g id="edge19" class="edge">
<title>__main__.process_Result(run_id=102)&#45;&gt;Result(run_id=102)</title>
<path fill="none" stroke="black" d="M156.5,-71.7C156.5,-63.98 156.5,-54.71 156.5,-46.11"/>
<polygon fill="black" stroke="black" points="160,-46.1 156.5,-36.1 153,-46.1 160,-46.1"/>
</g>
<!-- ScaleFactor -->
<g id="node22" class="node">
<title>ScaleFactor</title>
<polygon fill="none" stroke="black" points="543,-180 442,-180 442,-144 543,-144 543,-180"/>
<text text-anchor="middle" x="492.5" y="-158.3" font-family="Times,serif" font-size="14.00">ScaleFactor</text>
</g>
<!-- ScaleFactor&#45;&gt;__main__.process_Result(run_id=102) -->
<g id="edge18" class="edge">
<title>ScaleFactor&#45;&gt;__main__.process_Result(run_id=102)</title>
<path fill="none" stroke="black" d="M441.84,-146.31C438.69,-145.5 435.55,-144.72 432.5,-144 354.96,-125.61 264.01,-109.11 208.33,-99.58"/>
<polygon fill="black" stroke="black" points="208.8,-96.11 198.35,-97.88 207.62,-103.01 208.8,-96.11"/>
</g>
<!-- ScaleFactor&#45;&gt;__main__.process_Result(run_id=103) -->
<g id="edge21" class="edge">
<title>ScaleFactor&#45;&gt;__main__.process_Result(run_id=103)</title>
<path fill="none" stroke="black" d="M458.74,-143.88C438.03,-133.37 411.52,-119.92 390.42,-109.22"/>
<polygon fill="black" stroke="black" points="391.95,-106.07 381.45,-104.67 388.78,-112.31 391.95,-106.07"/>
</g>
<!-- ScaleFactor&#45;&gt;__main__.process_Result(run_id=104) -->
<g id="edge24" class="edge">
<title>ScaleFactor&#45;&gt;__main__.process_Result(run_id=104)</title>
<path fill="none" stroke="black" d="M521.61,-143.88C538.72,-133.81 560.41,-121.05 578.2,-110.59"/>
<polygon fill="black" stroke="black" points="580.26,-113.44 587.1,-105.35 576.71,-107.41 580.26,-113.44"/>
</g>
<!-- ScaleFactor&#45;&gt;__main__.process_Result(run_id=105) -->
<g id="edge27" class="edge">
<title>ScaleFactor&#45;&gt;__main__.process_Result(run_id=105)</title>
<path fill="none" stroke="black" d="M543.15,-146.26C546.3,-145.47 549.44,-144.7 552.5,-144 637.7,-124.4 738.03,-107.89 797.83,-98.73"/>
<polygon fill="black" stroke="black" points="798.43,-102.18 807.79,-97.22 797.38,-95.26 798.43,-102.18"/>
</g>
<!-- Result(run_id=103) -->
<g id="node25" class="node">
<title>Result(run_id=103)</title>
<polygon fill="none" stroke="black" points="433,-36 276,-36 276,0 433,0 433,-36"/>
<text text-anchor="middle" x="354.5" y="-14.3" font-family="Times,serif" font-size="14.00">Result(run_id=103)</text>
</g>
<!-- __main__.process_Result(run_id=103)&#45;&gt;Result(run_id=103) -->
<g id="edge22" class="edge">
<title>__main__.process_Result(run_id=103)&#45;&gt;Result(run_id=103)</title>
<path fill="none" stroke="black" d="M354.5,-71.7C354.5,-63.98 354.5,-54.71 354.5,-46.11"/>
<polygon fill="black" stroke="black" points="358,-46.1 354.5,-36.1 351,-46.1 358,-46.1"/>
</g>
<!-- Result(run_id=104) -->
<g id="node27" class="node">
<title>Result(run_id=104)</title>
<polygon fill="none" stroke="black" points="690,-36 533,-36 533,0 690,0 690,-36"/>
<text text-anchor="middle" x="611.5" y="-14.3" font-family="Times,serif" font-size="14.00">Result(run_id=104)</text>
</g>
<!-- __main__.process_Result(run_id=104)&#45;&gt;Result(run_id=104) -->
<g id="edge25" class="edge">
<title>__main__.process_Result(run_id=104)&#45;&gt;Result(run_id=104)</title>
<path fill="none" stroke="black" d="M611.5,-71.7C611.5,-63.98 611.5,-54.71 611.5,-46.11"/>
<polygon fill="black" stroke="black" points="615,-46.1 611.5,-36.1 608,-46.1 615,-46.1"/>
</g>
<!-- Result(run_id=105) -->
<g id="node29" class="node">
<title>Result(run_id=105)</title>
<polygon fill="none" stroke="black" points="929,-36 772,-36 772,0 929,0 929,-36"/>
<text text-anchor="middle" x="850.5" y="-14.3" font-family="Times,serif" font-size="14.00">Result(run_id=105)</text>
</g>
<!-- __main__.process_Result(run_id=105)&#45;&gt;Result(run_id=105) -->
<g id="edge28" class="edge">
<title>__main__.process_Result(run_id=105)&#45;&gt;Result(run_id=105)</title>
<path fill="none" stroke="black" d="M850.5,-71.7C850.5,-63.98 850.5,-54.71 850.5,-46.11"/>
<polygon fill="black" stroke="black" points="854,-46.1 850.5,-36.1 847,-46.1 854,-46.1"/>
</g>
</g>
</svg>
