<?xml version="1.0" encoding="UTF-8" standalone="no"?>
<!DOCTYPE svg PUBLIC "-//W3C//DTD SVG 1.1//EN"
 "http://www.w3.org/Graphics/SVG/1.1/DTD/svg11.dtd">
<!-- Generated by graphviz version 2.43.0 (0)
 -->
<!-- Title: %3 Pages: 1 -->
<svg width="1213pt" height="238pt"
 viewBox="0.00 0.00 1213.00 238.00" xmlns="http://www.w3.org/2000/svg" xmlns:xlink="http://www.w3.org/1999/xlink">
<g id="graph0" class="graph" transform="scale(1 1) rotate(0) translate(4 234)">
<title>%3</title>
<polygon fill="white" stroke="transparent" points="-4,4 -4,-234 1209,-234 1209,4 -4,4"/>
<!-- Param1(dim_0=0) -->
<g id="node1" class="node">
<title>Param1(dim_0=0)</title>
<polygon fill="none" stroke="black" points="268.5,-230 122.5,-230 122.5,-207 268.5,-207 268.5,-230"/>
<text text-anchor="middle" x="195.5" y="-214.8" font-family="Times,serif" font-size="14.00">Param1(dim_0=0)</text>
</g>
<!-- float(dim_0=0, dim_1=0) -->
<g id="node6" class="node">
<title>float(dim_0=0, dim_1=0)</title>
<polygon fill="none" stroke="black" points="195,-171 0,-171 0,-138 195,-138 195,-171"/>
<text text-anchor="start" x="8" y="-156.8" font-family="Times,serif" font-size="14.00">float(dim_0=0, dim_1=0)</text>
<text text-anchor="start" x="65.5" y="-145.2" font-family="Times,serif" font-size="11.00">via:</text>
<text text-anchor="start" x="86.5" y="-145.2" font-family="Times,serif" font-style="italic" font-size="11.00">product</text>
</g>
<!-- Param1(dim_0=0)&#45;&gt;float(dim_0=0, dim_1=0) -->
<g id="edge1" class="edge">
<title>Param1(dim_0=0)&#45;&gt;float(dim_0=0, dim_1=0)</title>
<path fill="none" stroke="black" d="M178.88,-206.98C165.79,-198.7 147.13,-186.9 130.98,-176.68"/>
<polygon fill="black" stroke="black" points="132.63,-173.59 122.31,-171.2 128.89,-179.5 132.63,-173.59"/>
</g>
<!-- float(dim_0=0, dim_1=1) -->
<g id="node7" class="node">
<title>float(dim_0=0, dim_1=1)</title>
<polygon fill="none" stroke="black" points="397,-171 202,-171 202,-138 397,-138 397,-171"/>
<text text-anchor="start" x="210" y="-156.8" font-family="Times,serif" font-size="14.00">float(dim_0=0, dim_1=1)</text>
<text text-anchor="start" x="267.5" y="-145.2" font-family="Times,serif" font-size="11.00">via:</text>
<text text-anchor="start" x="288.5" y="-145.2" font-family="Times,serif" font-style="italic" font-size="11.00">product</text>
</g>
<!-- Param1(dim_0=0)&#45;&gt;float(dim_0=0, dim_1=1) -->
<g id="edge3" class="edge">
<title>Param1(dim_0=0)&#45;&gt;float(dim_0=0, dim_1=1)</title>
<path fill="none" stroke="black" d="M213.14,-206.98C227.16,-198.63 247.2,-186.68 264.45,-176.4"/>
<polygon fill="black" stroke="black" points="266.37,-179.32 273.17,-171.2 262.79,-173.31 266.37,-179.32"/>
</g>
<!-- Param1(dim_0=1) -->
<g id="node2" class="node">
<title>Param1(dim_0=1)</title>
<polygon fill="none" stroke="black" points="647.5,-230 501.5,-230 501.5,-207 647.5,-207 647.5,-230"/>
<text text-anchor="middle" x="574.5" y="-214.8" font-family="Times,serif" font-size="14.00">Param1(dim_0=1)</text>
</g>
<!-- float(dim_0=1, dim_1=0) -->
<g id="node8" class="node">
<title>float(dim_0=1, dim_1=0)</title>
<polygon fill="none" stroke="black" points="599,-171 404,-171 404,-138 599,-138 599,-171"/>
<text text-anchor="start" x="412" y="-156.8" font-family="Times,serif" font-size="14.00">float(dim_0=1, dim_1=0)</text>
<text text-anchor="start" x="469.5" y="-145.2" font-family="Times,serif" font-size="11.00">via:</text>
<text text-anchor="start" x="490.5" y="-145.2" font-family="Times,serif" font-style="italic" font-size="11.00">product</text>
</g>
<!-- Param1(dim_0=1)&#45;&gt;float(dim_0=1, dim_1=0) -->
<g id="edge5" class="edge">
<title>Param1(dim_0=1)&#45;&gt;float(dim_0=1, dim_1=0)</title>
<path fill="none" stroke="black" d="M562.12,-206.98C552.73,-199.01 539.49,-187.77 527.78,-177.82"/>
<polygon fill="black" stroke="black" points="529.87,-175 519.98,-171.2 525.34,-180.34 529.87,-175"/>
</g>
<!-- float(dim_0=1, dim_1=1) -->
<g id="node9" class="node">
<title>float(dim_0=1, dim_1=1)</title>
<polygon fill="none" stroke="black" points="801,-171 606,-171 606,-138 801,-138 801,-171"/>
<text text-anchor="start" x="614" y="-156.8" font-family="Times,serif" font-size="14.00">float(dim_0=1, dim_1=1)</text>
<text text-anchor="start" x="671.5" y="-145.2" font-family="Times,serif" font-size="11.00">via:</text>
<text text-anchor="start" x="692.5" y="-145.2" font-family="Times,serif" font-style="italic" font-size="11.00">product</text>
</g>
<!-- Param1(dim_0=1)&#45;&gt;float(dim_0=1, dim_1=1) -->
<g id="edge7" class="edge">
<title>Param1(dim_0=1)&#45;&gt;float(dim_0=1, dim_1=1)</title>
<path fill="none" stroke="black" d="M596.38,-206.98C614.25,-198.4 640,-186.02 661.78,-175.55"/>
<polygon fill="black" stroke="black" points="663.34,-178.68 670.84,-171.2 660.31,-172.38 663.34,-178.68"/>
</g>
<!-- Param1(dim_0=2) -->
<g id="node3" class="node">
<title>Param1(dim_0=2)</title>
<polygon fill="none" stroke="black" points="1079.5,-230 933.5,-230 933.5,-207 1079.5,-207 1079.5,-230"/>
<text text-anchor="middle" x="1006.5" y="-214.8" font-family="Times,serif" font-size="14.00">Param1(dim_0=2)</text>
</g>
<!-- float(dim_0=2, dim_1=0) -->
<g id="node10" class="node">
<title>float(dim_0=2, dim_1=0)</title>
<polygon fill="none" stroke="black" points="1003,-171 808,-171 808,-138 1003,-138 1003,-171"/>
<text text-anchor="start" x="816" y="-156.8" font-family="Times,serif" font-size="14.00">float(dim_0=2, dim_1=0)</text>
<text text-anchor="start" x="873.5" y="-145.2" font-family="Times,serif" font-size="11.00">via:</text>
<text text-anchor="start" x="894.5" y="-145.2" font-family="Times,serif" font-style="italic" font-size="11.00">product</text>
</g>
<!-- Param1(dim_0=2)&#45;&gt;float(dim_0=2, dim_1=0) -->
<g id="edge9" class="edge">
<title>Param1(dim_0=2)&#45;&gt;float(dim_0=2, dim_1=0)</title>
<path fill="none" stroke="black" d="M989.37,-206.98C975.88,-198.7 956.65,-186.9 940,-176.68"/>
<polygon fill="black" stroke="black" points="941.43,-173.45 931.07,-171.2 937.76,-179.41 941.43,-173.45"/>
</g>
<!-- float(dim_0=2, dim_1=1) -->
<g id="node11" class="node">
<title>float(dim_0=2, dim_1=1)</title>
<polygon fill="none" stroke="black" points="1205,-171 1010,-171 1010,-138 1205,-138 1205,-171"/>
<text text-anchor="start" x="1018" y="-156.8" font-family="Times,serif" font-size="14.00">float(dim_0=2, dim_1=1)</text>
<text text-anchor="start" x="1075.5" y="-145.2" font-family="Times,serif" font-size="11.00">via:</text>
<text text-anchor="start" x="1096.5" y="-145.2" font-family="Times,serif" font-style="italic" font-size="11.00">product</text>
</g>
<!-- Param1(dim_0=2)&#45;&gt;float(dim_0=2, dim_1=1) -->
<g id="edge11" class="edge">
<title>Param1(dim_0=2)&#45;&gt;float(dim_0=2, dim_1=1)</title>
<path fill="none" stroke="black" d="M1023.63,-206.98C1037.12,-198.7 1056.35,-186.9 1073,-176.68"/>
<polygon fill="black" stroke="black" points="1075.24,-179.41 1081.93,-171.2 1071.57,-173.45 1075.24,-179.41"/>
</g>
<!-- Param2(dim_1=0) -->
<g id="node4" class="node">
<title>Param2(dim_1=0)</title>
<polygon fill="none" stroke="black" points="494.5,-230 348.5,-230 348.5,-207 494.5,-207 494.5,-230"/>
<text text-anchor="middle" x="421.5" y="-214.8" font-family="Times,serif" font-size="14.00">Param2(dim_1=0)</text>
</g>
<!-- Param2(dim_1=0)&#45;&gt;float(dim_0=0, dim_1=0) -->
<g id="edge2" class="edge">
<title>Param2(dim_1=0)&#45;&gt;float(dim_0=0, dim_1=0)</title>
<path fill="none" stroke="black" d="M366.54,-206.98C317.91,-197.68 246,-183.92 188.75,-172.96"/>
<polygon fill="black" stroke="black" points="189.09,-169.46 178.61,-171.02 187.77,-176.34 189.09,-169.46"/>
</g>
<!-- Param2(dim_1=0)&#45;&gt;float(dim_0=1, dim_1=0) -->
<g id="edge6" class="edge">
<title>Param2(dim_1=0)&#45;&gt;float(dim_0=1, dim_1=0)</title>
<path fill="none" stroke="black" d="M435.07,-206.98C445.46,-198.93 460.14,-187.55 473.07,-177.53"/>
<polygon fill="black" stroke="black" points="475.48,-180.09 481.24,-171.2 471.2,-174.56 475.48,-180.09"/>
</g>
<!-- Param2(dim_1=0)&#45;&gt;float(dim_0=2, dim_1=0) -->
<g id="edge10" class="edge">
<title>Param2(dim_1=0)&#45;&gt;float(dim_0=2, dim_1=0)</title>
<path fill="none" stroke="black" d="M494.86,-207.47C496.08,-207.31 497.3,-207.15 498.5,-207 631.03,-190.17 667.06,-189.42 797.94,-171.88"/>
<polygon fill="black" stroke="black" points="798.51,-175.33 807.95,-170.53 797.57,-168.4 798.51,-175.33"/>
</g>
<!-- Param2(dim_1=1) -->
<g id="node5" class="node">
<title>Param2(dim_1=1)</title>
<polygon fill="none" stroke="black" points="800.5,-230 654.5,-230 654.5,-207 800.5,-207 800.5,-230"/>
<text text-anchor="middle" x="727.5" y="-214.8" font-family="Times,serif" font-size="14.00">Param2(dim_1=1)</text>
</g>
<!-- Param2(dim_1=1)&#45;&gt;float(dim_0=0, dim_1=1) -->
<g id="edge4" class="edge">
<title>Param2(dim_1=1)&#45;&gt;float(dim_0=0, dim_1=1)</title>
<path fill="none" stroke="black" d="M654.41,-207.34C590.58,-198.42 495.12,-184.94 407.19,-171.99"/>
<polygon fill="black" stroke="black" points="407.46,-168.49 397.06,-170.49 406.44,-175.41 407.46,-168.49"/>
</g>
<!-- Param2(dim_1=1)&#45;&gt;float(dim_0=1, dim_1=1) -->
<g id="edge8" class="edge">
<title>Param2(dim_1=1)&#45;&gt;float(dim_0=1, dim_1=1)</title>
<path fill="none" stroke="black" d="M723.43,-206.98C720.64,-199.78 716.82,-189.9 713.26,-180.72"/>
<polygon fill="black" stroke="black" points="716.45,-179.26 709.58,-171.2 709.92,-181.79 716.45,-179.26"/>
</g>
<!-- Param2(dim_1=1)&#45;&gt;float(dim_0=2, dim_1=1) -->
<g id="edge12" class="edge">
<title>Param2(dim_1=1)&#45;&gt;float(dim_0=2, dim_1=1)</title>
<path fill="none" stroke="black" d="M791.96,-206.98C849.46,-197.6 934.73,-183.69 1002.14,-172.69"/>
<polygon fill="black" stroke="black" points="1003.07,-176.09 1012.37,-171.02 1001.94,-169.18 1003.07,-176.09"/>
</g>
<!-- reduce_1(dim_0=0) -->
<g id="node12" class="node">
<title>reduce_1(dim_0=0)</title>
<polygon fill="none" stroke="black" points="377,-102 222,-102 222,-69 377,-69 377,-102"/>
<text text-anchor="start" x="230" y="-87.8" font-family="Times,serif" font-size="14.00">reduce_1(dim_0=0)</text>
<text text-anchor="start" x="270.5" y="-76.2" font-family="Times,serif" font-size="11.00">via:</text>
<text text-anchor="start" x="291.5" y="-76.2" font-family="Times,serif" font-style="italic" font-size="11.00">gather</text>
</g>
<!-- float(dim_0=0, dim_1=0)&#45;&gt;reduce_1(dim_0=0) -->
<g id="edge16" class="edge">
<title>float(dim_0=0, dim_1=0)&#45;&gt;reduce_1(dim_0=0)</title>
<path fill="none" stroke="black" d="M144.35,-137.96C173.69,-128.23 211.69,-115.63 242.74,-105.33"/>
<polygon fill="black" stroke="black" points="244.16,-108.54 252.55,-102.07 241.96,-101.9 244.16,-108.54"/>
</g>
<!-- float(dim_0=0, dim_1=1)&#45;&gt;reduce_1(dim_0=0) -->
<g id="edge17" class="edge">
<title>float(dim_0=0, dim_1=1)&#45;&gt;reduce_1(dim_0=0)</title>
<path fill="none" stroke="black" d="M299.5,-137.96C299.5,-130.38 299.5,-121.05 299.5,-112.42"/>
<polygon fill="black" stroke="black" points="303,-112.42 299.5,-102.42 296,-112.42 303,-112.42"/>
</g>
<!-- reduce_1(dim_0=1) -->
<g id="node14" class="node">
<title>reduce_1(dim_0=1)</title>
<polygon fill="none" stroke="black" points="680,-102 525,-102 525,-69 680,-69 680,-102"/>
<text text-anchor="start" x="533" y="-87.8" font-family="Times,serif" font-size="14.00">reduce_1(dim_0=1)</text>
<text text-anchor="start" x="573.5" y="-76.2" font-family="Times,serif" font-size="11.00">via:</text>
<text text-anchor="start" x="594.5" y="-76.2" font-family="Times,serif" font-style="italic" font-size="11.00">gather</text>
</g>
<!-- float(dim_0=1, dim_1=0)&#45;&gt;reduce_1(dim_0=1) -->
<g id="edge18" class="edge">
<title>float(dim_0=1, dim_1=0)&#45;&gt;reduce_1(dim_0=1)</title>
<path fill="none" stroke="black" d="M524.93,-137.96C538.47,-128.98 555.7,-117.55 570.48,-107.74"/>
<polygon fill="black" stroke="black" points="572.45,-110.63 578.85,-102.19 568.58,-104.8 572.45,-110.63"/>
</g>
<!-- float(dim_0=1, dim_1=1)&#45;&gt;reduce_1(dim_0=1) -->
<g id="edge19" class="edge">
<title>float(dim_0=1, dim_1=1)&#45;&gt;reduce_1(dim_0=1)</title>
<path fill="none" stroke="black" d="M680.07,-137.96C666.53,-128.98 649.3,-117.55 634.52,-107.74"/>
<polygon fill="black" stroke="black" points="636.42,-104.8 626.15,-102.19 632.55,-110.63 636.42,-104.8"/>
</g>
<!-- reduce_1(dim_0=2) -->
<g id="node15" class="node">
<title>reduce_1(dim_0=2)</title>
<polygon fill="none" stroke="black" points="983,-102 828,-102 828,-69 983,-69 983,-102"/>
<text text-anchor="start" x="836" y="-87.8" font-family="Times,serif" font-size="14.00">reduce_1(dim_0=2)</text>
<text text-anchor="start" x="876.5" y="-76.2" font-family="Times,serif" font-size="11.00">via:</text>
<text text-anchor="start" x="897.5" y="-76.2" font-family="Times,serif" font-style="italic" font-size="11.00">gather</text>
</g>
<!-- float(dim_0=2, dim_1=0)&#45;&gt;reduce_1(dim_0=2) -->
<g id="edge20" class="edge">
<title>float(dim_0=2, dim_1=0)&#45;&gt;reduce_1(dim_0=2)</title>
<path fill="none" stroke="black" d="M905.5,-137.96C905.5,-130.38 905.5,-121.05 905.5,-112.42"/>
<polygon fill="black" stroke="black" points="909,-112.42 905.5,-102.42 902,-112.42 909,-112.42"/>
</g>
<!-- float(dim_0=2, dim_1=1)&#45;&gt;reduce_1(dim_0=2) -->
<g id="edge21" class="edge">
<title>float(dim_0=2, dim_1=1)&#45;&gt;reduce_1(dim_0=2)</title>
<path fill="none" stroke="black" d="M1060.65,-137.96C1031.31,-128.23 993.31,-115.63 962.26,-105.33"/>
<polygon fill="black" stroke="black" points="963.04,-101.9 952.45,-102.07 960.84,-108.54 963.04,-101.9"/>
</g>
<!-- reduce_0 -->
<g id="node13" class="node">
<title>reduce_0</title>
<polygon fill="none" stroke="black" points="643,-33 562,-33 562,0 643,0 643,-33"/>
<text text-anchor="start" x="570" y="-18.8" font-family="Times,serif" font-size="14.00">reduce_0</text>
<text text-anchor="start" x="573.5" y="-7.2" font-family="Times,serif" font-size="11.00">via:</text>
<text text-anchor="start" x="594.5" y="-7.2" font-family="Times,serif" font-style="italic" font-size="11.00">gather</text>
</g>
<!-- reduce_1(dim_0=0)&#45;&gt;reduce_0 -->
<g id="edge13" class="edge">
<title>reduce_1(dim_0=0)&#45;&gt;reduce_0</title>
<path fill="none" stroke="black" d="M369.78,-68.96C425.55,-56.63 502.17,-39.68 552.01,-28.66"/>
<polygon fill="black" stroke="black" points="552.9,-32.05 561.91,-26.48 551.39,-25.22 552.9,-32.05"/>
</g>
<!-- reduce_1(dim_0=1)&#45;&gt;reduce_0 -->
<g id="edge14" class="edge">
<title>reduce_1(dim_0=1)&#45;&gt;reduce_0</title>
<path fill="none" stroke="black" d="M602.5,-68.96C602.5,-61.38 602.5,-52.05 602.5,-43.42"/>
<polygon fill="black" stroke="black" points="606,-43.42 602.5,-33.42 599,-43.42 606,-43.42"/>
</g>
<!-- reduce_1(dim_0=2)&#45;&gt;reduce_0 -->
<g id="edge15" class="edge">
<title>reduce_1(dim_0=2)&#45;&gt;reduce_0</title>
<path fill="none" stroke="black" d="M835.22,-68.96C779.45,-56.63 702.83,-39.68 652.99,-28.66"/>
<polygon fill="black" stroke="black" points="653.61,-25.22 643.09,-26.48 652.1,-32.05 653.61,-25.22"/>
</g>
</g>
</svg>
