<?xml version="1.0" encoding="UTF-8" standalone="no"?>
<!DOCTYPE svg PUBLIC "-//W3C//DTD SVG 1.1//EN"
 "http://www.w3.org/Graphics/SVG/1.1/DTD/svg11.dtd">
<!-- Generated by graphviz version 2.43.0 (0)
 -->
<!-- Title: %3 Pages: 1 -->
<svg width="1232pt" height="620pt"
 viewBox="0.00 0.00 1232.00 620.00" xmlns="http://www.w3.org/2000/svg" xmlns:xlink="http://www.w3.org/1999/xlink">
<g id="graph0" class="graph" transform="scale(1 1) rotate(0) translate(4 616)">
<title>%3</title>
<polygon fill="white" stroke="transparent" points="-4,4 -4,-616 1228,-616 1228,4 -4,4"/>
<g id="clust9" class="cluster">
<title>cluster_Row1, float</title>
<polygon fill="#f0f0ff" stroke="#f0f0ff" points="370.5,-352 370.5,-404 852.5,-404 852.5,-352 370.5,-352"/>
</g>
<!-- __main__.gather1_List1(Row2=0) -->
<g id="node1" class="node">
<title>__main__.gather1_List1(Row2=0)</title>
<ellipse fill="none" stroke="black" cx="515.5" cy="-306" rx="47.39" ry="18"/>
<text text-anchor="middle" x="515.5" y="-302.3" font-family="Times,serif" font-size="14.00">gather1</text>
</g>
<!-- List1(Row2=0) -->
<g id="node3" class="node">
<title>List1(Row2=0)</title>
<polygon fill="none" stroke="black" points="627.5,-252 503.5,-252 503.5,-216 627.5,-216 627.5,-252"/>
<text text-anchor="middle" x="565.5" y="-230.3" font-family="Times,serif" font-size="14.00">List1(Row2=0)</text>
</g>
<!-- __main__.gather1_List1(Row2=0)&#45;&gt;List1(Row2=0) -->
<g id="edge2" class="edge">
<title>__main__.gather1_List1(Row2=0)&#45;&gt;List1(Row2=0)</title>
<path fill="none" stroke="black" d="M527.35,-288.41C533.27,-280.12 540.58,-269.89 547.2,-260.62"/>
<polygon fill="black" stroke="black" points="550.07,-262.62 553.04,-252.45 544.38,-258.55 550.07,-262.62"/>
</g>
<!-- Series[Row1, float](Row2=0) -->
<g id="node2" class="node">
<title>Series[Row1, float](Row2=0)</title>
<polygon fill="none" stroke="black" points="602.5,-396 378.5,-396 378.5,-360 602.5,-360 602.5,-396"/>
<text text-anchor="middle" x="490.5" y="-374.3" font-family="Times,serif" font-size="14.00">Series[Row1, float](Row2=0)</text>
</g>
<!-- Series[Row1, float](Row2=0)&#45;&gt;__main__.gather1_List1(Row2=0) -->
<g id="edge1" class="edge">
<title>Series[Row1, float](Row2=0)&#45;&gt;__main__.gather1_List1(Row2=0)</title>
<path fill="none" stroke="black" d="M496.68,-359.7C499.5,-351.81 502.89,-342.3 506.02,-333.55"/>
<polygon fill="black" stroke="black" points="509.32,-334.7 509.39,-324.1 502.73,-332.34 509.32,-334.7"/>
</g>
<!-- Series[Row2, List1] -->
<g id="node8" class="node">
<title>Series[Row2, List1]</title>
<polygon fill="none" stroke="black" points="715,-180 558,-180 558,-144 715,-144 715,-180"/>
<text text-anchor="middle" x="636.5" y="-158.3" font-family="Times,serif" font-size="14.00">Series[Row2, List1]</text>
</g>
<!-- List1(Row2=0)&#45;&gt;Series[Row2, List1] -->
<g id="edge13" class="edge">
<title>List1(Row2=0)&#45;&gt;Series[Row2, List1]</title>
<path fill="none" stroke="black" stroke-dasharray="5,2" d="M583.05,-215.7C591.73,-207.14 602.36,-196.66 611.85,-187.3"/>
<polygon fill="black" stroke="black" points="614.49,-189.62 619.15,-180.1 609.57,-184.63 614.49,-189.62"/>
</g>
<!-- __main__.gather1_List1(Row2=1) -->
<g id="node4" class="node">
<title>__main__.gather1_List1(Row2=1)</title>
<ellipse fill="none" stroke="black" cx="725.5" cy="-306" rx="47.39" ry="18"/>
<text text-anchor="middle" x="725.5" y="-302.3" font-family="Times,serif" font-size="14.00">gather1</text>
</g>
<!-- List1(Row2=1) -->
<g id="node6" class="node">
<title>List1(Row2=1)</title>
<polygon fill="none" stroke="black" points="781.5,-252 657.5,-252 657.5,-216 781.5,-216 781.5,-252"/>
<text text-anchor="middle" x="719.5" y="-230.3" font-family="Times,serif" font-size="14.00">List1(Row2=1)</text>
</g>
<!-- __main__.gather1_List1(Row2=1)&#45;&gt;List1(Row2=1) -->
<g id="edge4" class="edge">
<title>__main__.gather1_List1(Row2=1)&#45;&gt;List1(Row2=1)</title>
<path fill="none" stroke="black" d="M724.02,-287.7C723.36,-279.98 722.56,-270.71 721.82,-262.11"/>
<polygon fill="black" stroke="black" points="725.31,-261.77 720.97,-252.1 718.33,-262.37 725.31,-261.77"/>
</g>
<!-- Series[Row1, float](Row2=1) -->
<g id="node5" class="node">
<title>Series[Row1, float](Row2=1)</title>
<polygon fill="none" stroke="black" points="844.5,-396 620.5,-396 620.5,-360 844.5,-360 844.5,-396"/>
<text text-anchor="middle" x="732.5" y="-374.3" font-family="Times,serif" font-size="14.00">Series[Row1, float](Row2=1)</text>
</g>
<!-- Series[Row1, float](Row2=1)&#45;&gt;__main__.gather1_List1(Row2=1) -->
<g id="edge3" class="edge">
<title>Series[Row1, float](Row2=1)&#45;&gt;__main__.gather1_List1(Row2=1)</title>
<path fill="none" stroke="black" d="M730.77,-359.7C730,-351.98 729.07,-342.71 728.21,-334.11"/>
<polygon fill="black" stroke="black" points="731.69,-333.71 727.21,-324.1 724.72,-334.4 731.69,-333.71"/>
</g>
<!-- List1(Row2=1)&#45;&gt;Series[Row2, List1] -->
<g id="edge14" class="edge">
<title>List1(Row2=1)&#45;&gt;Series[Row2, List1]</title>
<path fill="none" stroke="black" stroke-dasharray="5,2" d="M698.98,-215.7C688.63,-206.97 675.91,-196.24 664.66,-186.75"/>
<polygon fill="black" stroke="black" points="666.68,-183.88 656.78,-180.1 662.17,-189.23 666.68,-183.88"/>
</g>
<!-- __main__.gather2_List2 -->
<g id="node7" class="node">
<title>__main__.gather2_List2</title>
<ellipse fill="none" stroke="black" cx="636.5" cy="-90" rx="47.39" ry="18"/>
<text text-anchor="middle" x="636.5" y="-86.3" font-family="Times,serif" font-size="14.00">gather2</text>
</g>
<!-- List2 -->
<g id="node9" class="node">
<title>List2</title>
<polygon fill="none" stroke="black" points="663.5,-36 609.5,-36 609.5,0 663.5,0 663.5,-36"/>
<text text-anchor="middle" x="636.5" y="-14.3" font-family="Times,serif" font-size="14.00">List2</text>
</g>
<!-- __main__.gather2_List2&#45;&gt;List2 -->
<g id="edge6" class="edge">
<title>__main__.gather2_List2&#45;&gt;List2</title>
<path fill="none" stroke="black" d="M636.5,-71.7C636.5,-63.98 636.5,-54.71 636.5,-46.11"/>
<polygon fill="black" stroke="black" points="640,-46.1 636.5,-36.1 633,-46.1 640,-46.1"/>
</g>
<!-- Series[Row2, List1]&#45;&gt;__main__.gather2_List2 -->
<g id="edge5" class="edge">
<title>Series[Row2, List1]&#45;&gt;__main__.gather2_List2</title>
<path fill="none" stroke="black" d="M636.5,-143.7C636.5,-135.98 636.5,-126.71 636.5,-118.11"/>
<polygon fill="black" stroke="black" points="640,-118.1 636.5,-108.1 633,-118.1 640,-118.1"/>
</g>
<!-- Param1(Row1=0) -->
<g id="node10" class="node">
<title>Param1(Row1=0)</title>
<polygon fill="none" stroke="black" points="477,-612 334,-612 334,-576 477,-576 477,-612"/>
<text text-anchor="middle" x="405.5" y="-590.3" font-family="Times,serif" font-size="14.00">Param1(Row1=0)</text>
</g>
<!-- __main__.product_float(Row1=0, Row2=0) -->
<g id="node21" class="node">
<title>__main__.product_float(Row1=0, Row2=0)</title>
<ellipse fill="none" stroke="black" cx="216.5" cy="-522" rx="46.59" ry="18"/>
<text text-anchor="middle" x="216.5" y="-518.3" font-family="Times,serif" font-size="14.00">product</text>
</g>
<!-- Param1(Row1=0)&#45;&gt;__main__.product_float(Row1=0, Row2=0) -->
<g id="edge15" class="edge">
<title>Param1(Row1=0)&#45;&gt;__main__.product_float(Row1=0, Row2=0)</title>
<path fill="none" stroke="black" d="M359.27,-575.88C328.53,-564.49 288.49,-549.66 258.64,-538.61"/>
<polygon fill="black" stroke="black" points="259.53,-535.2 248.93,-535.01 257.1,-541.77 259.53,-535.2"/>
</g>
<!-- __main__.product_float(Row1=0, Row2=1) -->
<g id="node22" class="node">
<title>__main__.product_float(Row1=0, Row2=1)</title>
<ellipse fill="none" stroke="black" cx="715.5" cy="-522" rx="46.59" ry="18"/>
<text text-anchor="middle" x="715.5" y="-518.3" font-family="Times,serif" font-size="14.00">product</text>
</g>
<!-- Param1(Row1=0)&#45;&gt;__main__.product_float(Row1=0, Row2=1) -->
<g id="edge18" class="edge">
<title>Param1(Row1=0)&#45;&gt;__main__.product_float(Row1=0, Row2=1)</title>
<path fill="none" stroke="black" d="M477.01,-576.85C535.01,-563.76 615.24,-545.64 666.26,-534.12"/>
<polygon fill="black" stroke="black" points="667.07,-537.52 676.06,-531.91 665.53,-530.69 667.07,-537.52"/>
</g>
<!-- Param1(Row1=1) -->
<g id="node11" class="node">
<title>Param1(Row1=1)</title>
<polygon fill="none" stroke="black" points="638,-612 495,-612 495,-576 638,-576 638,-612"/>
<text text-anchor="middle" x="566.5" y="-590.3" font-family="Times,serif" font-size="14.00">Param1(Row1=1)</text>
</g>
<!-- __main__.product_float(Row1=1, Row2=0) -->
<g id="node23" class="node">
<title>__main__.product_float(Row1=1, Row2=0)</title>
<ellipse fill="none" stroke="black" cx="328.5" cy="-522" rx="46.59" ry="18"/>
<text text-anchor="middle" x="328.5" y="-518.3" font-family="Times,serif" font-size="14.00">product</text>
</g>
<!-- Param1(Row1=1)&#45;&gt;__main__.product_float(Row1=1, Row2=0) -->
<g id="edge21" class="edge">
<title>Param1(Row1=1)&#45;&gt;__main__.product_float(Row1=1, Row2=0)</title>
<path fill="none" stroke="black" d="M508.58,-575.97C467.28,-563.82 412.51,-547.71 374.26,-536.46"/>
<polygon fill="black" stroke="black" points="375,-533.03 364.42,-533.56 373.03,-539.74 375,-533.03"/>
</g>
<!-- __main__.product_float(Row1=1, Row2=1) -->
<g id="node24" class="node">
<title>__main__.product_float(Row1=1, Row2=1)</title>
<ellipse fill="none" stroke="black" cx="830.5" cy="-522" rx="46.59" ry="18"/>
<text text-anchor="middle" x="830.5" y="-518.3" font-family="Times,serif" font-size="14.00">product</text>
</g>
<!-- Param1(Row1=1)&#45;&gt;__main__.product_float(Row1=1, Row2=1) -->
<g id="edge24" class="edge">
<title>Param1(Row1=1)&#45;&gt;__main__.product_float(Row1=1, Row2=1)</title>
<path fill="none" stroke="black" d="M634.49,-575.92C674.46,-565.76 725.93,-552.45 771.5,-540 775.78,-538.83 780.23,-537.59 784.68,-536.34"/>
<polygon fill="black" stroke="black" points="785.69,-539.69 794.35,-533.59 783.77,-532.96 785.69,-539.69"/>
</g>
<!-- Param1(Row1=2) -->
<g id="node12" class="node">
<title>Param1(Row1=2)</title>
<polygon fill="none" stroke="black" points="799,-612 656,-612 656,-576 799,-576 799,-612"/>
<text text-anchor="middle" x="727.5" y="-590.3" font-family="Times,serif" font-size="14.00">Param1(Row1=2)</text>
</g>
<!-- __main__.product_float(Row1=2, Row2=0) -->
<g id="node25" class="node">
<title>__main__.product_float(Row1=2, Row2=0)</title>
<ellipse fill="none" stroke="black" cx="508.5" cy="-522" rx="46.59" ry="18"/>
<text text-anchor="middle" x="508.5" y="-518.3" font-family="Times,serif" font-size="14.00">product</text>
</g>
<!-- Param1(Row1=2)&#45;&gt;__main__.product_float(Row1=2, Row2=0) -->
<g id="edge27" class="edge">
<title>Param1(Row1=2)&#45;&gt;__main__.product_float(Row1=2, Row2=0)</title>
<path fill="none" stroke="black" d="M674.21,-575.97C637.22,-564.14 588.48,-548.57 553.46,-537.37"/>
<polygon fill="black" stroke="black" points="554.1,-533.9 543.51,-534.19 551.97,-540.57 554.1,-533.9"/>
</g>
<!-- __main__.product_float(Row1=2, Row2=1) -->
<g id="node26" class="node">
<title>__main__.product_float(Row1=2, Row2=1)</title>
<ellipse fill="none" stroke="black" cx="942.5" cy="-522" rx="46.59" ry="18"/>
<text text-anchor="middle" x="942.5" y="-518.3" font-family="Times,serif" font-size="14.00">product</text>
</g>
<!-- Param1(Row1=2)&#45;&gt;__main__.product_float(Row1=2, Row2=1) -->
<g id="edge30" class="edge">
<title>Param1(Row1=2)&#45;&gt;__main__.product_float(Row1=2, Row2=1)</title>
<path fill="none" stroke="black" d="M779.82,-575.97C816.02,-564.18 863.68,-548.66 898.04,-537.47"/>
<polygon fill="black" stroke="black" points="899.38,-540.72 907.81,-534.3 897.21,-534.06 899.38,-540.72"/>
</g>
<!-- Param2(Row2=0) -->
<g id="node13" class="node">
<title>Param2(Row2=0)</title>
<polygon fill="none" stroke="black" points="316,-612 173,-612 173,-576 316,-576 316,-612"/>
<text text-anchor="middle" x="244.5" y="-590.3" font-family="Times,serif" font-size="14.00">Param2(Row2=0)</text>
</g>
<!-- Param2(Row2=0)&#45;&gt;__main__.product_float(Row1=0, Row2=0) -->
<g id="edge16" class="edge">
<title>Param2(Row2=0)&#45;&gt;__main__.product_float(Row1=0, Row2=0)</title>
<path fill="none" stroke="black" d="M237.58,-575.7C234.43,-567.81 230.62,-558.3 227.12,-549.55"/>
<polygon fill="black" stroke="black" points="230.31,-548.09 223.34,-540.1 223.81,-550.69 230.31,-548.09"/>
</g>
<!-- Param2(Row2=0)&#45;&gt;__main__.product_float(Row1=1, Row2=0) -->
<g id="edge22" class="edge">
<title>Param2(Row2=0)&#45;&gt;__main__.product_float(Row1=1, Row2=0)</title>
<path fill="none" stroke="black" d="M265.26,-575.7C276.32,-566.49 290.03,-555.06 301.86,-545.2"/>
<polygon fill="black" stroke="black" points="304.25,-547.76 309.69,-538.67 299.77,-542.38 304.25,-547.76"/>
</g>
<!-- Param2(Row2=0)&#45;&gt;__main__.product_float(Row1=2, Row2=0) -->
<g id="edge28" class="edge">
<title>Param2(Row2=0)&#45;&gt;__main__.product_float(Row1=2, Row2=0)</title>
<path fill="none" stroke="black" d="M308.74,-575.97C355.8,-563.49 418.61,-546.84 461.14,-535.56"/>
<polygon fill="black" stroke="black" points="462.19,-538.9 470.96,-532.95 460.4,-532.13 462.19,-538.9"/>
</g>
<!-- Param2(Row2=1) -->
<g id="node14" class="node">
<title>Param2(Row2=1)</title>
<polygon fill="none" stroke="black" points="960,-612 817,-612 817,-576 960,-576 960,-612"/>
<text text-anchor="middle" x="888.5" y="-590.3" font-family="Times,serif" font-size="14.00">Param2(Row2=1)</text>
</g>
<!-- Param2(Row2=1)&#45;&gt;__main__.product_float(Row1=0, Row2=1) -->
<g id="edge19" class="edge">
<title>Param2(Row2=1)&#45;&gt;__main__.product_float(Row1=0, Row2=1)</title>
<path fill="none" stroke="black" d="M846.18,-575.88C818.74,-564.77 783.19,-550.39 756.1,-539.43"/>
<polygon fill="black" stroke="black" points="757.11,-536.06 746.53,-535.56 754.49,-542.55 757.11,-536.06"/>
</g>
<!-- Param2(Row2=1)&#45;&gt;__main__.product_float(Row1=1, Row2=1) -->
<g id="edge25" class="edge">
<title>Param2(Row2=1)&#45;&gt;__main__.product_float(Row1=1, Row2=1)</title>
<path fill="none" stroke="black" d="M874.16,-575.7C867.11,-567.18 858.48,-556.76 850.76,-547.45"/>
<polygon fill="black" stroke="black" points="853.35,-545.09 844.27,-539.62 847.96,-549.56 853.35,-545.09"/>
</g>
<!-- Param2(Row2=1)&#45;&gt;__main__.product_float(Row1=2, Row2=1) -->
<g id="edge31" class="edge">
<title>Param2(Row2=1)&#45;&gt;__main__.product_float(Row1=2, Row2=1)</title>
<path fill="none" stroke="black" d="M901.85,-575.7C908.35,-567.27 916.29,-556.97 923.42,-547.73"/>
<polygon fill="black" stroke="black" points="926.34,-549.68 929.68,-539.62 920.8,-545.4 926.34,-549.68"/>
</g>
<!-- float(Row1=0, Row2=0) -->
<g id="node15" class="node">
<title>float(Row1=0, Row2=0)</title>
<polygon fill="none" stroke="black" points="189,-468 0,-468 0,-432 189,-432 189,-468"/>
<text text-anchor="middle" x="94.5" y="-446.3" font-family="Times,serif" font-size="14.00">float(Row1=0, Row2=0)</text>
</g>
<!-- float(Row1=0, Row2=0)&#45;&gt;Series[Row1, float](Row2=0) -->
<g id="edge7" class="edge">
<title>float(Row1=0, Row2=0)&#45;&gt;Series[Row1, float](Row2=0)</title>
<path fill="none" stroke="black" stroke-dasharray="5,2" d="M189.1,-432.28C247.83,-421.9 323.44,-408.53 384.23,-397.78"/>
<polygon fill="black" stroke="black" points="385,-401.2 394.24,-396.02 383.79,-394.31 385,-401.2"/>
</g>
<!-- float(Row1=1, Row2=0) -->
<g id="node16" class="node">
<title>float(Row1=1, Row2=0)</title>
<polygon fill="none" stroke="black" points="396,-468 207,-468 207,-432 396,-432 396,-468"/>
<text text-anchor="middle" x="301.5" y="-446.3" font-family="Times,serif" font-size="14.00">float(Row1=1, Row2=0)</text>
</g>
<!-- float(Row1=1, Row2=0)&#45;&gt;Series[Row1, float](Row2=0) -->
<g id="edge8" class="edge">
<title>float(Row1=1, Row2=0)&#45;&gt;Series[Row1, float](Row2=0)</title>
<path fill="none" stroke="black" stroke-dasharray="5,2" d="M347.73,-431.88C374.03,-422.14 407.14,-409.87 434.86,-399.61"/>
<polygon fill="black" stroke="black" points="436.25,-402.82 444.42,-396.07 433.82,-396.26 436.25,-402.82"/>
</g>
<!-- float(Row1=2, Row2=0) -->
<g id="node17" class="node">
<title>float(Row1=2, Row2=0)</title>
<polygon fill="none" stroke="black" points="603,-468 414,-468 414,-432 603,-432 603,-468"/>
<text text-anchor="middle" x="508.5" y="-446.3" font-family="Times,serif" font-size="14.00">float(Row1=2, Row2=0)</text>
</g>
<!-- float(Row1=2, Row2=0)&#45;&gt;Series[Row1, float](Row2=0) -->
<g id="edge9" class="edge">
<title>float(Row1=2, Row2=0)&#45;&gt;Series[Row1, float](Row2=0)</title>
<path fill="none" stroke="black" stroke-dasharray="5,2" d="M504.05,-431.7C502.05,-423.9 499.63,-414.51 497.4,-405.83"/>
<polygon fill="black" stroke="black" points="500.78,-404.92 494.9,-396.1 494,-406.66 500.78,-404.92"/>
</g>
<!-- float(Row1=0, Row2=1) -->
<g id="node18" class="node">
<title>float(Row1=0, Row2=1)</title>
<polygon fill="none" stroke="black" points="810,-468 621,-468 621,-432 810,-432 810,-468"/>
<text text-anchor="middle" x="715.5" y="-446.3" font-family="Times,serif" font-size="14.00">float(Row1=0, Row2=1)</text>
</g>
<!-- float(Row1=0, Row2=1)&#45;&gt;Series[Row1, float](Row2=1) -->
<g id="edge10" class="edge">
<title>float(Row1=0, Row2=1)&#45;&gt;Series[Row1, float](Row2=1)</title>
<path fill="none" stroke="black" stroke-dasharray="5,2" d="M719.7,-431.7C721.6,-423.9 723.88,-414.51 725.98,-405.83"/>
<polygon fill="black" stroke="black" points="729.39,-406.65 728.35,-396.1 722.58,-405 729.39,-406.65"/>
</g>
<!-- float(Row1=1, Row2=1) -->
<g id="node19" class="node">
<title>float(Row1=1, Row2=1)</title>
<polygon fill="none" stroke="black" points="1017,-468 828,-468 828,-432 1017,-432 1017,-468"/>
<text text-anchor="middle" x="922.5" y="-446.3" font-family="Times,serif" font-size="14.00">float(Row1=1, Row2=1)</text>
</g>
<!-- float(Row1=1, Row2=1)&#45;&gt;Series[Row1, float](Row2=1) -->
<g id="edge11" class="edge">
<title>float(Row1=1, Row2=1)&#45;&gt;Series[Row1, float](Row2=1)</title>
<path fill="none" stroke="black" stroke-dasharray="5,2" d="M876.02,-431.88C849.58,-422.14 816.3,-409.87 788.44,-399.61"/>
<polygon fill="black" stroke="black" points="789.42,-396.24 778.83,-396.07 787,-402.81 789.42,-396.24"/>
</g>
<!-- float(Row1=2, Row2=1) -->
<g id="node20" class="node">
<title>float(Row1=2, Row2=1)</title>
<polygon fill="none" stroke="black" points="1224,-468 1035,-468 1035,-432 1224,-432 1224,-468"/>
<text text-anchor="middle" x="1129.5" y="-446.3" font-family="Times,serif" font-size="14.00">float(Row1=2, Row2=1)</text>
</g>
<!-- float(Row1=2, Row2=1)&#45;&gt;Series[Row1, float](Row2=1) -->
<g id="edge12" class="edge">
<title>float(Row1=2, Row2=1)&#45;&gt;Series[Row1, float](Row2=1)</title>
<path fill="none" stroke="black" stroke-dasharray="5,2" d="M1034.91,-432.32C976.04,-421.94 900.18,-408.57 839.17,-397.81"/>
<polygon fill="black" stroke="black" points="839.58,-394.33 829.12,-396.04 838.36,-401.22 839.58,-394.33"/>
</g>
<!-- __main__.product_float(Row1=0, Row2=0)&#45;&gt;float(Row1=0, Row2=0) -->
<g id="edge17" class="edge">
<title>__main__.product_float(Row1=0, Row2=0)&#45;&gt;float(Row1=0, Row2=0)</title>
<path fill="none" stroke="black" d="M191.52,-506.67C174.67,-497 152.1,-484.05 132.98,-473.08"/>
<polygon fill="black" stroke="black" points="134.6,-469.97 124.18,-468.03 131.12,-476.04 134.6,-469.97"/>
</g>
<!-- __main__.product_float(Row1=0, Row2=1)&#45;&gt;float(Row1=0, Row2=1) -->
<g id="edge20" class="edge">
<title>__main__.product_float(Row1=0, Row2=1)&#45;&gt;float(Row1=0, Row2=1)</title>
<path fill="none" stroke="black" d="M715.5,-503.7C715.5,-495.98 715.5,-486.71 715.5,-478.11"/>
<polygon fill="black" stroke="black" points="719,-478.1 715.5,-468.1 712,-478.1 719,-478.1"/>
</g>
<!-- __main__.product_float(Row1=1, Row2=0)&#45;&gt;float(Row1=1, Row2=0) -->
<g id="edge23" class="edge">
<title>__main__.product_float(Row1=1, Row2=0)&#45;&gt;float(Row1=1, Row2=0)</title>
<path fill="none" stroke="black" d="M321.96,-504.05C318.93,-496.18 315.24,-486.62 311.83,-477.79"/>
<polygon fill="black" stroke="black" points="315.03,-476.35 308.16,-468.28 308.5,-478.86 315.03,-476.35"/>
</g>
<!-- __main__.product_float(Row1=1, Row2=1)&#45;&gt;float(Row1=1, Row2=1) -->
<g id="edge26" class="edge">
<title>__main__.product_float(Row1=1, Row2=1)&#45;&gt;float(Row1=1, Row2=1)</title>
<path fill="none" stroke="black" d="M850.92,-505.46C862.93,-496.33 878.35,-484.59 891.81,-474.35"/>
<polygon fill="black" stroke="black" points="894.04,-477.05 899.88,-468.21 889.8,-471.48 894.04,-477.05"/>
</g>
<!-- __main__.product_float(Row1=2, Row2=0)&#45;&gt;float(Row1=2, Row2=0) -->
<g id="edge29" class="edge">
<title>__main__.product_float(Row1=2, Row2=0)&#45;&gt;float(Row1=2, Row2=0)</title>
<path fill="none" stroke="black" d="M508.5,-503.7C508.5,-495.98 508.5,-486.71 508.5,-478.11"/>
<polygon fill="black" stroke="black" points="512,-478.1 508.5,-468.1 505,-478.1 512,-478.1"/>
</g>
<!-- __main__.product_float(Row1=2, Row2=1)&#45;&gt;float(Row1=2, Row2=1) -->
<g id="edge32" class="edge">
<title>__main__.product_float(Row1=2, Row2=1)&#45;&gt;float(Row1=2, Row2=1)</title>
<path fill="none" stroke="black" d="M975.07,-508.81C1002.38,-498.58 1041.98,-483.76 1074.24,-471.69"/>
<polygon fill="black" stroke="black" points="1075.86,-474.82 1083.99,-468.03 1073.4,-468.26 1075.86,-474.82"/>
</g>
</g>
</svg>
