<?xml version="1.0" encoding="UTF-8" standalone="no"?>
<!DOCTYPE svg PUBLIC "-//W3C//DTD SVG 1.1//EN"
 "http://www.w3.org/Graphics/SVG/1.1/DTD/svg11.dtd">
<!-- Generated by graphviz version 2.43.0 (0)
 -->
<!-- Title: %3 Pages: 1 -->
<svg width="993pt" height="620pt"
 viewBox="0.00 0.00 993.00 620.00" xmlns="http://www.w3.org/2000/svg" xmlns:xlink="http://www.w3.org/1999/xlink">
<g id="graph0" class="graph" transform="scale(1 1) rotate(0) translate(4 616)">
<title>%3</title>
<polygon fill="white" stroke="transparent" points="-4,4 -4,-616 989,-616 989,4 -4,4"/>
<!-- __main__.clean_CleanedData(run_id=102) -->
<g id="node1" class="node">
<title>__main__.clean_CleanedData(run_id=102)</title>
<ellipse fill="none" stroke="black" cx="101.5" cy="-378" rx="35.19" ry="18"/>
<text text-anchor="middle" x="101.5" y="-374.3" font-family="Times,serif" font-size="14.00">clean</text>
</g>
<!-- CleanedData(run_id=102) -->
<g id="node3" class="node">
<title>CleanedData(run_id=102)</title>
<polygon fill="none" stroke="black" points="203,-324 0,-324 0,-288 203,-288 203,-324"/>
<text text-anchor="middle" x="101.5" y="-302.3" font-family="Times,serif" font-size="14.00">CleanedData(run_id=102)</text>
</g>
<!-- __main__.clean_CleanedData(run_id=102)&#45;&gt;CleanedData(run_id=102) -->
<g id="edge2" class="edge">
<title>__main__.clean_CleanedData(run_id=102)&#45;&gt;CleanedData(run_id=102)</title>
<path fill="none" stroke="black" d="M101.5,-359.7C101.5,-351.98 101.5,-342.71 101.5,-334.11"/>
<polygon fill="black" stroke="black" points="105,-334.1 101.5,-324.1 98,-334.1 105,-334.1"/>
</g>
<!-- RawData(run_id=102) -->
<g id="node2" class="node">
<title>RawData(run_id=102)</title>
<polygon fill="none" stroke="black" points="189.5,-468 13.5,-468 13.5,-432 189.5,-432 189.5,-468"/>
<text text-anchor="middle" x="101.5" y="-446.3" font-family="Times,serif" font-size="14.00">RawData(run_id=102)</text>
</g>
<!-- RawData(run_id=102)&#45;&gt;__main__.clean_CleanedData(run_id=102) -->
<g id="edge1" class="edge">
<title>RawData(run_id=102)&#45;&gt;__main__.clean_CleanedData(run_id=102)</title>
<path fill="none" stroke="black" d="M101.5,-431.7C101.5,-423.98 101.5,-414.71 101.5,-406.11"/>
<polygon fill="black" stroke="black" points="105,-406.1 101.5,-396.1 98,-406.1 105,-406.1"/>
</g>
<!-- __main__.process_Result(run_id=102) -->
<g id="node21" class="node">
<title>__main__.process_Result(run_id=102)</title>
<ellipse fill="none" stroke="black" cx="229.5" cy="-234" rx="46.29" ry="18"/>
<text text-anchor="middle" x="229.5" y="-230.3" font-family="Times,serif" font-size="14.00">process</text>
</g>
<!-- CleanedData(run_id=102)&#45;&gt;__main__.process_Result(run_id=102) -->
<g id="edge17" class="edge">
<title>CleanedData(run_id=102)&#45;&gt;__main__.process_Result(run_id=102)</title>
<path fill="none" stroke="black" d="M132.81,-287.88C151.6,-277.6 175.52,-264.52 194.87,-253.94"/>
<polygon fill="black" stroke="black" points="196.58,-256.99 203.68,-249.12 193.22,-250.85 196.58,-256.99"/>
</g>
<!-- __main__.clean_CleanedData(run_id=103) -->
<g id="node4" class="node">
<title>__main__.clean_CleanedData(run_id=103)</title>
<ellipse fill="none" stroke="black" cx="322.5" cy="-378" rx="35.19" ry="18"/>
<text text-anchor="middle" x="322.5" y="-374.3" font-family="Times,serif" font-size="14.00">clean</text>
</g>
<!-- CleanedData(run_id=103) -->
<g id="node6" class="node">
<title>CleanedData(run_id=103)</title>
<polygon fill="none" stroke="black" points="424,-324 221,-324 221,-288 424,-288 424,-324"/>
<text text-anchor="middle" x="322.5" y="-302.3" font-family="Times,serif" font-size="14.00">CleanedData(run_id=103)</text>
</g>
<!-- __main__.clean_CleanedData(run_id=103)&#45;&gt;CleanedData(run_id=103) -->
<g id="edge4" class="edge">
<title>__main__.clean_CleanedData(run_id=103)&#45;&gt;CleanedData(run_id=103)</title>
<path fill="none" stroke="black" d="M322.5,-359.7C322.5,-351.98 322.5,-342.71 322.5,-334.11"/>
<polygon fill="black" stroke="black" points="326,-334.1 322.5,-324.1 319,-334.1 326,-334.1"/>
</g>
<!-- RawData(run_id=103) -->
<g id="node5" class="node">
<title>RawData(run_id=103)</title>
<polygon fill="none" stroke="black" points="410.5,-468 234.5,-468 234.5,-432 410.5,-432 410.5,-468"/>
<text text-anchor="middle" x="322.5" y="-446.3" font-family="Times,serif" font-size="14.00">RawData(run_id=103)</text>
</g>
<!-- RawData(run_id=103)&#45;&gt;__main__.clean_CleanedData(run_id=103) -->
<g id="edge3" class="edge">
<title>RawData(run_id=103)&#45;&gt;__main__.clean_CleanedData(run_id=103)</title>
<path fill="none" stroke="black" d="M322.5,-431.7C322.5,-423.98 322.5,-414.71 322.5,-406.11"/>
<polygon fill="black" stroke="black" points="326,-406.1 322.5,-396.1 319,-406.1 326,-406.1"/>
</g>
<!-- __main__.process_Result(run_id=103) -->
<g id="node24" class="node">
<title>__main__.process_Result(run_id=103)</title>
<ellipse fill="none" stroke="black" cx="404.5" cy="-234" rx="46.29" ry="18"/>
<text text-anchor="middle" x="404.5" y="-230.3" font-family="Times,serif" font-size="14.00">process</text>
</g>
<!-- CleanedData(run_id=103)&#45;&gt;__main__.process_Result(run_id=103) -->
<g id="edge20" class="edge">
<title>CleanedData(run_id=103)&#45;&gt;__main__.process_Result(run_id=103)</title>
<path fill="none" stroke="black" d="M342.77,-287.7C353.56,-278.49 366.95,-267.06 378.5,-257.2"/>
<polygon fill="black" stroke="black" points="380.81,-259.83 386.14,-250.67 376.26,-254.5 380.81,-259.83"/>
</g>
<!-- __main__.clean_CleanedData(run_id=104) -->
<g id="node7" class="node">
<title>__main__.clean_CleanedData(run_id=104)</title>
<ellipse fill="none" stroke="black" cx="662.5" cy="-378" rx="35.19" ry="18"/>
<text text-anchor="middle" x="662.5" y="-374.3" font-family="Times,serif" font-size="14.00">clean</text>
</g>
<!-- CleanedData(run_id=104) -->
<g id="node9" class="node">
<title>CleanedData(run_id=104)</title>
<polygon fill="none" stroke="black" points="764,-324 561,-324 561,-288 764,-288 764,-324"/>
<text text-anchor="middle" x="662.5" y="-302.3" font-family="Times,serif" font-size="14.00">CleanedData(run_id=104)</text>
</g>
<!-- __main__.clean_CleanedData(run_id=104)&#45;&gt;CleanedData(run_id=104) -->
<g id="edge6" class="edge">
<title>__main__.clean_CleanedData(run_id=104)&#45;&gt;CleanedData(run_id=104)</title>
<path fill="none" stroke="black" d="M662.5,-359.7C662.5,-351.98 662.5,-342.71 662.5,-334.11"/>
<polygon fill="black" stroke="black" points="666,-334.1 662.5,-324.1 659,-334.1 666,-334.1"/>
</g>
<!-- RawData(run_id=104) -->
<g id="node8" class="node">
<title>RawData(run_id=104)</title>
<polygon fill="none" stroke="black" points="750.5,-468 574.5,-468 574.5,-432 750.5,-432 750.5,-468"/>
<text text-anchor="middle" x="662.5" y="-446.3" font-family="Times,serif" font-size="14.00">RawData(run_id=104)</text>
</g>
<!-- RawData(run_id=104)&#45;&gt;__main__.clean_CleanedData(run_id=104) -->
<g id="edge5" class="edge">
<title>RawData(run_id=104)&#45;&gt;__main__.clean_CleanedData(run_id=104)</title>
<path fill="none" stroke="black" d="M662.5,-431.7C662.5,-423.98 662.5,-414.71 662.5,-406.11"/>
<polygon fill="black" stroke="black" points="666,-406.1 662.5,-396.1 659,-406.1 666,-406.1"/>
</g>
<!-- __main__.process_Result(run_id=104) -->
<g id="node26" class="node">
<title>__main__.process_Result(run_id=104)</title>
<ellipse fill="none" stroke="black" cx="579.5" cy="-234" rx="46.29" ry="18"/>
<text text-anchor="middle" x="579.5" y="-230.3" font-family="Times,serif" font-size="14.00">process</text>
</g>
<!-- CleanedData(run_id=104)&#45;&gt;__main__.process_Result(run_id=104) -->
<g id="edge23" class="edge">
<title>CleanedData(run_id=104)&#45;&gt;__main__.process_Result(run_id=104)</title>
<path fill="none" stroke="black" d="M641.98,-287.7C631.06,-278.49 617.51,-267.06 605.82,-257.2"/>
<polygon fill="black" stroke="black" points="607.98,-254.44 598.08,-250.67 603.47,-259.79 607.98,-254.44"/>
</g>
<!-- __main__.clean_CleanedData(run_id=105) -->
<g id="node10" class="node">
<title>__main__.clean_CleanedData(run_id=105)</title>
<ellipse fill="none" stroke="black" cx="883.5" cy="-378" rx="35.19" ry="18"/>
<text text-anchor="middle" x="883.5" y="-374.3" font-family="Times,serif" font-size="14.00">clean</text>
</g>
<!-- CleanedData(run_id=105) -->
<g id="node12" class="node">
<title>CleanedData(run_id=105)</title>
<polygon fill="none" stroke="black" points="985,-324 782,-324 782,-288 985,-288 985,-324"/>
<text text-anchor="middle" x="883.5" y="-302.3" font-family="Times,serif" font-size="14.00">CleanedData(run_id=105)</text>
</g>
<!-- __main__.clean_CleanedData(run_id=105)&#45;&gt;CleanedData(run_id=105) -->
<g id="edge8" class="edge">
<title>__main__.clean_CleanedData(run_id=105)&#45;&gt;CleanedData(run_id=105)</title>
<path fill="none" stroke="black" d="M883.5,-359.7C883.5,-351.98 883.5,-342.71 883.5,-334.11"/>
<polygon fill="black" stroke="black" points="887,-334.1 883.5,-324.1 880,-334.1 887,-334.1"/>
</g>
<!-- RawData(run_id=105) -->
<g id="node11" class="node">
<title>RawData(run_id=105)</title>
<polygon fill="none" stroke="black" points="971.5,-468 795.5,-468 795.5,-432 971.5,-432 971.5,-468"/>
<text text-anchor="middle" x="883.5" y="-446.3" font-family="Times,serif" font-size="14.00">RawData(run_id=105)</text>
</g>
<!-- RawData(run_id=105)&#45;&gt;__main__.clean_CleanedData(run_id=105) -->
<g id="edge7" class="edge">
<title>RawData(run_id=105)&#45;&gt;__main__.clean_CleanedData(run_id=105)</title>
<path fill="none" stroke="black" d="M883.5,-431.7C883.5,-423.98 883.5,-414.71 883.5,-406.11"/>
<polygon fill="black" stroke="black" points="887,-406.1 883.5,-396.1 880,-406.1 887,-406.1"/>
</g>
<!-- __main__.process_Result(run_id=105) -->
<g id="node28" class="node">
<title>__main__.process_Result(run_id=105)</title>
<ellipse fill="none" stroke="black" cx="754.5" cy="-234" rx="46.29" ry="18"/>
<text text-anchor="middle" x="754.5" y="-230.3" font-family="Times,serif" font-size="14.00">process</text>
</g>
<!-- CleanedData(run_id=105)&#45;&gt;__main__.process_Result(run_id=105) -->
<g id="edge26" class="edge">
<title>CleanedData(run_id=105)&#45;&gt;__main__.process_Result(run_id=105)</title>
<path fill="none" stroke="black" d="M851.94,-287.88C833.01,-277.6 808.9,-264.52 789.41,-253.94"/>
<polygon fill="black" stroke="black" points="790.98,-250.82 780.53,-249.12 787.65,-256.97 790.98,-250.82"/>
</g>
<!-- Filename(run_id=102) -->
<g id="node13" class="node">
<title>Filename(run_id=102)</title>
<polygon fill="none" stroke="black" points="190,-612 13,-612 13,-576 190,-576 190,-612"/>
<text text-anchor="middle" x="101.5" y="-590.3" font-family="Times,serif" font-size="14.00">Filename(run_id=102)</text>
</g>
<!-- __main__.load_RawData(run_id=102) -->
<g id="node17" class="node">
<title>__main__.load_RawData(run_id=102)</title>
<ellipse fill="none" stroke="black" cx="101.5" cy="-522" rx="30.59" ry="18"/>
<text text-anchor="middle" x="101.5" y="-518.3" font-family="Times,serif" font-size="14.00">load</text>
</g>
<!-- Filename(run_id=102)&#45;&gt;__main__.load_RawData(run_id=102) -->
<g id="edge9" class="edge">
<title>Filename(run_id=102)&#45;&gt;__main__.load_RawData(run_id=102)</title>
<path fill="none" stroke="black" d="M101.5,-575.7C101.5,-567.98 101.5,-558.71 101.5,-550.11"/>
<polygon fill="black" stroke="black" points="105,-550.1 101.5,-540.1 98,-550.1 105,-550.1"/>
</g>
<!-- Filename(run_id=103) -->
<g id="node14" class="node">
<title>Filename(run_id=103)</title>
<polygon fill="none" stroke="black" points="411,-612 234,-612 234,-576 411,-576 411,-612"/>
<text text-anchor="middle" x="322.5" y="-590.3" font-family="Times,serif" font-size="14.00">Filename(run_id=103)</text>
</g>
<!-- __main__.load_RawData(run_id=103) -->
<g id="node18" class="node">
<title>__main__.load_RawData(run_id=103)</title>
<ellipse fill="none" stroke="black" cx="322.5" cy="-522" rx="30.59" ry="18"/>
<text text-anchor="middle" x="322.5" y="-518.3" font-family="Times,serif" font-size="14.00">load</text>
</g>
<!-- Filename(run_id=103)&#45;&gt;__main__.load_RawData(run_id=103) -->
<g id="edge11" class="edge">
<title>Filename(run_id=103)&#45;&gt;__main__.load_RawData(run_id=103)</title>
<path fill="none" stroke="black" d="M322.5,-575.7C322.5,-567.98 322.5,-558.71 322.5,-550.11"/>
<polygon fill="black" stroke="black" points="326,-550.1 322.5,-540.1 319,-550.1 326,-550.1"/>
</g>
<!-- Filename(run_id=104) -->
<g id="node15" class="node">
<title>Filename(run_id=104)</title>
<polygon fill="none" stroke="black" points="751,-612 574,-612 574,-576 751,-576 751,-612"/>
<text text-anchor="middle" x="662.5" y="-590.3" font-family="Times,serif" font-size="14.00">Filename(run_id=104)</text>
</g>
<!-- __main__.load_RawData(run_id=104) -->
<g id="node19" class="node">
<title>__main__.load_RawData(run_id=104)</title>
<ellipse fill="none" stroke="black" cx="662.5" cy="-522" rx="30.59" ry="18"/>
<text text-anchor="middle" x="662.5" y="-518.3" font-family="Times,serif" font-size="14.00">load</text>
</g>
<!-- Filename(run_id=104)&#45;&gt;__main__.load_RawData(run_id=104) -->
<g id="edge13" class="edge">
<title>Filename(run_id=104)&#45;&gt;__main__.load_RawData(run_id=104)</title>
<path fill="none" stroke="black" d="M662.5,-575.7C662.5,-567.98 662.5,-558.71 662.5,-550.11"/>
<polygon fill="black" stroke="black" points="666,-550.1 662.5,-540.1 659,-550.1 666,-550.1"/>
</g>
<!-- Filename(run_id=105) -->
<g id="node16" class="node">
<title>Filename(run_id=105)</title>
<polygon fill="none" stroke="black" points="972,-612 795,-612 795,-576 972,-576 972,-612"/>
<text text-anchor="middle" x="883.5" y="-590.3" font-family="Times,serif" font-size="14.00">Filename(run_id=105)</text>
</g>
<!-- __main__.load_RawData(run_id=105) -->
<g id="node20" class="node">
<title>__main__.load_RawData(run_id=105)</title>
<ellipse fill="none" stroke="black" cx="883.5" cy="-522" rx="30.59" ry="18"/>
<text text-anchor="middle" x="883.5" y="-518.3" font-family="Times,serif" font-size="14.00">load</text>
</g>
<!-- Filename(run_id=105)&#45;&gt;__main__.load_RawData(run_id=105) -->
<g id="edge15" class="edge">
<title>Filename(run_id=105)&#45;&gt;__main__.load_RawData(run_id=105)</title>
<path fill="none" stroke="black" d="M883.5,-575.7C883.5,-567.98 883.5,-558.71 883.5,-550.11"/>
<polygon fill="black" stroke="black" points="887,-550.1 883.5,-540.1 880,-550.1 887,-550.1"/>
</g>
<!-- __main__.load_RawData(run_id=102)&#45;&gt;RawData(run_id=102) -->
<g id="edge10" class="edge">
<title>__main__.load_RawData(run_id=102)&#45;&gt;RawData(run_id=102)</title>
<path fill="none" stroke="black" d="M101.5,-503.7C101.5,-495.98 101.5,-486.71 101.5,-478.11"/>
<polygon fill="black" stroke="black" points="105,-478.1 101.5,-468.1 98,-478.1 105,-478.1"/>
</g>
<!-- __main__.load_RawData(run_id=103)&#45;&gt;RawData(run_id=103) -->
<g id="edge12" class="edge">
<title>__main__.load_RawData(run_id=103)&#45;&gt;RawData(run_id=103)</title>
<path fill="none" stroke="black" d="M322.5,-503.7C322.5,-495.98 322.5,-486.71 322.5,-478.11"/>
<polygon fill="black" stroke="black" points="326,-478.1 322.5,-468.1 319,-478.1 326,-478.1"/>
</g>
<!-- __main__.load_RawData(run_id=104)&#45;&gt;RawData(run_id=104) -->
<g id="edge14" class="edge">
<title>__main__.load_RawData(run_id=104)&#45;&gt;RawData(run_id=104)</title>
<path fill="none" stroke="black" d="M662.5,-503.7C662.5,-495.98 662.5,-486.71 662.5,-478.11"/>
<polygon fill="black" stroke="black" points="666,-478.1 662.5,-468.1 659,-478.1 666,-478.1"/>
</g>
<!-- __main__.load_RawData(run_id=105)&#45;&gt;RawData(run_id=105) -->
<g id="edge16" class="edge">
<title>__main__.load_RawData(run_id=105)&#45;&gt;RawData(run_id=105)</title>
<path fill="none" stroke="black" d="M883.5,-503.7C883.5,-495.98 883.5,-486.71 883.5,-478.11"/>
<polygon fill="black" stroke="black" points="887,-478.1 883.5,-468.1 880,-478.1 887,-478.1"/>
</g>
<!-- Result(run_id=102) -->
<g id="node23" class="node">
<title>Result(run_id=102)</title>
<polygon fill="none" stroke="black" points="308,-180 151,-180 151,-144 308,-144 308,-180"/>
<text text-anchor="middle" x="229.5" y="-158.3" font-family="Times,serif" font-size="14.00">Result(run_id=102)</text>
</g>
<!-- __main__.process_Result(run_id=102)&#45;&gt;Result(run_id=102) -->
<g id="edge19" class="edge">
<title>__main__.process_Result(run_id=102)&#45;&gt;Result(run_id=102)</title>
<path fill="none" stroke="black" d="M229.5,-215.7C229.5,-207.98 229.5,-198.71 229.5,-190.11"/>
<polygon fill="black" stroke="black" points="233,-190.1 229.5,-180.1 226,-190.1 233,-190.1"/>
</g>
<!-- ScaleFactor -->
<g id="node22" class="node">
<title>ScaleFactor</title>
<polygon fill="none" stroke="black" points="543,-324 442,-324 442,-288 543,-288 543,-324"/>
<text text-anchor="middle" x="492.5" y="-302.3" font-family="Times,serif" font-size="14.00">ScaleFactor</text>
</g>
<!-- ScaleFactor&#45;&gt;__main__.process_Result(run_id=102) -->
<g id="edge18" class="edge">
<title>ScaleFactor&#45;&gt;__main__.process_Result(run_id=102)</title>
<path fill="none" stroke="black" d="M441.78,-290.55C438.64,-289.68 435.53,-288.82 432.5,-288 379.25,-273.51 317.93,-257.6 276.74,-247.04"/>
<polygon fill="black" stroke="black" points="277.53,-243.63 266.98,-244.54 275.79,-250.41 277.53,-243.63"/>
</g>
<!-- ScaleFactor&#45;&gt;__main__.process_Result(run_id=103) -->
<g id="edge21" class="edge">
<title>ScaleFactor&#45;&gt;__main__.process_Result(run_id=103)</title>
<path fill="none" stroke="black" d="M470.75,-287.7C458.97,-278.33 444.32,-266.67 431.78,-256.7"/>
<polygon fill="black" stroke="black" points="433.91,-253.92 423.91,-250.44 429.55,-259.4 433.91,-253.92"/>
</g>
<!-- ScaleFactor&#45;&gt;__main__.process_Result(run_id=104) -->
<g id="edge24" class="edge">
<title>ScaleFactor&#45;&gt;__main__.process_Result(run_id=104)</title>
<path fill="none" stroke="black" d="M514.01,-287.7C525.53,-278.42 539.86,-266.89 552.17,-256.99"/>
<polygon fill="black" stroke="black" points="554.72,-259.43 560.31,-250.44 550.33,-253.98 554.72,-259.43"/>
</g>
<!-- ScaleFactor&#45;&gt;__main__.process_Result(run_id=105) -->
<g id="edge27" class="edge">
<title>ScaleFactor&#45;&gt;__main__.process_Result(run_id=105)</title>
<path fill="none" stroke="black" d="M543.22,-290.55C546.36,-289.68 549.47,-288.83 552.5,-288 605.33,-273.59 666.14,-257.73 707.12,-247.15"/>
<polygon fill="black" stroke="black" points="708.03,-250.53 716.84,-244.65 706.28,-243.75 708.03,-250.53"/>
</g>
<!-- __main__.&lt;lambda&gt;_merged -->
<g id="node30" class="node">
<title>__main__.&lt;lambda&gt;_merged</title>
<ellipse fill="none" stroke="black" cx="491.5" cy="-90" rx="44.69" ry="18"/>
<text text-anchor="start" x="465" y="-86.3" font-family="Times,serif" font-size="14.00">lambda</text>
</g>
<!-- Result(run_id=102)&#45;&gt;__main__.&lt;lambda&gt;_merged -->
<g id="edge29" class="edge">
<title>Result(run_id=102)&#45;&gt;__main__.&lt;lambda&gt;_merged</title>
<path fill="none" stroke="black" d="M293.26,-143.97C340.23,-131.41 403.04,-114.63 445.26,-103.35"/>
<polygon fill="black" stroke="black" points="446.24,-106.72 455,-100.75 444.43,-99.95 446.24,-106.72"/>
</g>
<!-- Result(run_id=103) -->
<g id="node25" class="node">
<title>Result(run_id=103)</title>
<polygon fill="none" stroke="black" points="483,-180 326,-180 326,-144 483,-144 483,-180"/>
<text text-anchor="middle" x="404.5" y="-158.3" font-family="Times,serif" font-size="14.00">Result(run_id=103)</text>
</g>
<!-- __main__.process_Result(run_id=103)&#45;&gt;Result(run_id=103) -->
<g id="edge22" class="edge">
<title>__main__.process_Result(run_id=103)&#45;&gt;Result(run_id=103)</title>
<path fill="none" stroke="black" d="M404.5,-215.7C404.5,-207.98 404.5,-198.71 404.5,-190.11"/>
<polygon fill="black" stroke="black" points="408,-190.1 404.5,-180.1 401,-190.1 408,-190.1"/>
</g>
<!-- Result(run_id=103)&#45;&gt;__main__.&lt;lambda&gt;_merged -->
<g id="edge30" class="edge">
<title>Result(run_id=103)&#45;&gt;__main__.&lt;lambda&gt;_merged</title>
<path fill="none" stroke="black" d="M426.01,-143.7C437.53,-134.42 451.86,-122.89 464.17,-112.99"/>
<polygon fill="black" stroke="black" points="466.72,-115.43 472.31,-106.44 462.33,-109.98 466.72,-115.43"/>
</g>
<!-- Result(run_id=104) -->
<g id="node27" class="node">
<title>Result(run_id=104)</title>
<polygon fill="none" stroke="black" points="658,-180 501,-180 501,-144 658,-144 658,-180"/>
<text text-anchor="middle" x="579.5" y="-158.3" font-family="Times,serif" font-size="14.00">Result(run_id=104)</text>
</g>
<!-- __main__.process_Result(run_id=104)&#45;&gt;Result(run_id=104) -->
<g id="edge25" class="edge">
<title>__main__.process_Result(run_id=104)&#45;&gt;Result(run_id=104)</title>
<path fill="none" stroke="black" d="M579.5,-215.7C579.5,-207.98 579.5,-198.71 579.5,-190.11"/>
<polygon fill="black" stroke="black" points="583,-190.1 579.5,-180.1 576,-190.1 583,-190.1"/>
</g>
<!-- Result(run_id=104)&#45;&gt;__main__.&lt;lambda&gt;_merged -->
<g id="edge31" class="edge">
<title>Result(run_id=104)&#45;&gt;__main__.&lt;lambda&gt;_merged</title>
<path fill="none" stroke="black" d="M557.75,-143.7C545.97,-134.33 531.32,-122.67 518.78,-112.7"/>
<polygon fill="black" stroke="black" points="520.91,-109.92 510.91,-106.44 516.55,-115.4 520.91,-109.92"/>
</g>
<!-- Result(run_id=105) -->
<g id="node29" class="node">
<title>Result(run_id=105)</title>
<polygon fill="none" stroke="black" points="833,-180 676,-180 676,-144 833,-144 833,-180"/>
<text text-anchor="middle" x="754.5" y="-158.3" font-family="Times,serif" font-size="14.00">Result(run_id=105)</text>
</g>
<!-- __main__.process_Result(run_id=105)&#45;&gt;Result(run_id=105) -->
<g id="edge28" class="edge">
<title>__main__.process_Result(run_id=105)&#45;&gt;Result(run_id=105)</title>
<path fill="none" stroke="black" d="M754.5,-215.7C754.5,-207.98 754.5,-198.71 754.5,-190.11"/>
<polygon fill="black" stroke="black" points="758,-190.1 754.5,-180.1 751,-190.1 758,-190.1"/>
</g>
<!-- Result(run_id=105)&#45;&gt;__main__.&lt;lambda&gt;_merged -->
<g id="edge32" class="edge">
<title>Result(run_id=105)&#45;&gt;__main__.&lt;lambda&gt;_merged</title>
<path fill="none" stroke="black" d="M690.5,-143.97C643.2,-131.38 579.92,-114.53 537.54,-103.25"/>
<polygon fill="black" stroke="black" points="538.33,-99.84 527.77,-100.65 536.53,-106.61 538.33,-99.84"/>
</g>
<!-- merged -->
<g id="node31" class="node">
<title>merged</title>
<polygon fill="none" stroke="black" points="527,-36 456,-36 456,0 527,0 527,-36"/>
<text text-anchor="middle" x="491.5" y="-14.3" font-family="Times,serif" font-size="14.00">merged</text>
</g>
<!-- __main__.&lt;lambda&gt;_merged&#45;&gt;merged -->
<g id="edge33" class="edge">
<title>__main__.&lt;lambda&gt;_merged&#45;&gt;merged</title>
<path fill="none" stroke="black" d="M491.5,-71.7C491.5,-63.98 491.5,-54.71 491.5,-46.11"/>
<polygon fill="black" stroke="black" points="495,-46.1 491.5,-36.1 488,-46.1 495,-46.1"/>
</g>
</g>
</svg>
