<?xml version="1.0" encoding="UTF-8" standalone="no"?>
<!DOCTYPE svg PUBLIC "-//W3C//DTD SVG 1.1//EN"
 "http://www.w3.org/Graphics/SVG/1.1/DTD/svg11.dtd">
<!-- Generated by graphviz version 2.43.0 (0)
 -->
<!-- Title: %3 Pages: 1 -->
<svg width="378pt" height="307pt"
 viewBox="0.00 0.00 377.50 307.00" xmlns="http://www.w3.org/2000/svg" xmlns:xlink="http://www.w3.org/1999/xlink">
<g id="graph0" class="graph" transform="scale(1 1) rotate(0) translate(4 303)">
<title>%3</title>
<polygon fill="white" stroke="transparent" points="-4,4 -4,-303 373.5,-303 373.5,4 -4,4"/>
<!-- BackgroundFilename -->
<g id="node1" class="node">
<title>BackgroundFilename</title>
<polygon fill="none" stroke="black" points="168,-299 0,-299 0,-276 168,-276 168,-299"/>
<text text-anchor="middle" x="84" y="-283.8" font-family="Times,serif" font-size="14.00">BackgroundFilename</text>
</g>
<!-- RawBackground -->
<g id="node5" class="node">
<title>RawBackground</title>
<polygon fill="none" stroke="black" points="150.5,-240 17.5,-240 17.5,-207 150.5,-207 150.5,-240"/>
<text text-anchor="start" x="25.5" y="-225.8" font-family="Times,serif" font-size="14.00">RawBackground</text>
<text text-anchor="start" x="26" y="-214.2" font-family="Times,serif" font-size="11.00">via:</text>
<text text-anchor="start" x="47" y="-214.2" font-family="Times,serif" font-style="italic" font-size="11.00">load_background</text>
</g>
<!-- BackgroundFilename&#45;&gt;RawBackground -->
<g id="edge5" class="edge">
<title>BackgroundFilename&#45;&gt;RawBackground</title>
<path fill="none" stroke="black" d="M84,-275.98C84,-268.93 84,-259.32 84,-250.31"/>
<polygon fill="black" stroke="black" points="87.5,-250.2 84,-240.2 80.5,-250.2 87.5,-250.2"/>
</g>
<!-- CleanedData -->
<g id="node2" class="node">
<title>CleanedData</title>
<polygon fill="none" stroke="black" points="279,-171 171,-171 171,-138 279,-138 279,-171"/>
<text text-anchor="start" x="179" y="-156.8" font-family="Times,serif" font-size="14.00">CleanedData</text>
<text text-anchor="start" x="199" y="-145.2" font-family="Times,serif" font-size="11.00">via:</text>
<text text-anchor="start" x="220" y="-145.2" font-family="Times,serif" font-style="italic" font-size="11.00">clean</text>
</g>
<!-- BackgroundSubtractedData -->
<g id="node3" class="node">
<title>BackgroundSubtractedData</title>
<polygon fill="none" stroke="black" points="261.5,-102 46.5,-102 46.5,-69 261.5,-69 261.5,-102"/>
<text text-anchor="start" x="54.5" y="-87.8" font-family="Times,serif" font-size="14.00">BackgroundSubtractedData</text>
<text text-anchor="start" x="84.5" y="-76.2" font-family="Times,serif" font-size="11.00">via:</text>
<text text-anchor="start" x="105.5" y="-76.2" font-family="Times,serif" font-style="italic" font-size="11.00">subtract_background</text>
</g>
<!-- CleanedData&#45;&gt;BackgroundSubtractedData -->
<g id="edge1" class="edge">
<title>CleanedData&#45;&gt;BackgroundSubtractedData</title>
<path fill="none" stroke="black" d="M208.53,-137.96C199.52,-129.46 188.19,-118.76 178.19,-109.33"/>
<polygon fill="black" stroke="black" points="180.55,-106.74 170.87,-102.42 175.74,-111.83 180.55,-106.74"/>
</g>
<!-- Result -->
<g id="node8" class="node">
<title>Result</title>
<polygon fill="none" stroke="black" points="276.5,-33 195.5,-33 195.5,0 276.5,0 276.5,-33"/>
<text text-anchor="start" x="213" y="-18.8" font-family="Times,serif" font-size="14.00">Result</text>
<text text-anchor="start" x="203.5" y="-7.2" font-family="Times,serif" font-size="11.00">via:</text>
<text text-anchor="start" x="224.5" y="-7.2" font-family="Times,serif" font-style="italic" font-size="11.00">process</text>
</g>
<!-- BackgroundSubtractedData&#45;&gt;Result -->
<g id="edge7" class="edge">
<title>BackgroundSubtractedData&#45;&gt;Result</title>
<path fill="none" stroke="black" d="M173.02,-68.96C183.71,-60.23 197.22,-49.19 208.99,-39.57"/>
<polygon fill="black" stroke="black" points="211.27,-42.22 216.8,-33.19 206.84,-36.8 211.27,-42.22"/>
</g>
<!-- CleanedBackground -->
<g id="node4" class="node">
<title>CleanedBackground</title>
<polygon fill="none" stroke="black" points="164,-171 4,-171 4,-138 164,-138 164,-171"/>
<text text-anchor="start" x="12" y="-156.8" font-family="Times,serif" font-size="14.00">CleanedBackground</text>
<text text-anchor="start" x="23" y="-145.2" font-family="Times,serif" font-size="11.00">via:</text>
<text text-anchor="start" x="44" y="-145.2" font-family="Times,serif" font-style="italic" font-size="11.00">clean_background</text>
</g>
<!-- CleanedBackground&#45;&gt;BackgroundSubtractedData -->
<g id="edge2" class="edge">
<title>CleanedBackground&#45;&gt;BackgroundSubtractedData</title>
<path fill="none" stroke="black" d="M100.24,-137.96C109.03,-129.54 120.07,-118.97 129.86,-109.61"/>
<polygon fill="black" stroke="black" points="132.56,-111.86 137.37,-102.42 127.72,-106.81 132.56,-111.86"/>
</g>
<!-- RawBackground&#45;&gt;CleanedBackground -->
<g id="edge3" class="edge">
<title>RawBackground&#45;&gt;CleanedBackground</title>
<path fill="none" stroke="black" d="M84,-206.96C84,-199.38 84,-190.05 84,-181.42"/>
<polygon fill="black" stroke="black" points="87.5,-181.42 84,-171.42 80.5,-181.42 87.5,-181.42"/>
</g>
<!-- RawData -->
<g id="node6" class="node">
<title>RawData</title>
<polygon fill="none" stroke="black" points="265.5,-240 184.5,-240 184.5,-207 265.5,-207 265.5,-240"/>
<text text-anchor="start" x="192.5" y="-225.8" font-family="Times,serif" font-size="14.00">RawData</text>
<text text-anchor="start" x="202" y="-214.2" font-family="Times,serif" font-size="11.00">via:</text>
<text text-anchor="start" x="223" y="-214.2" font-family="Times,serif" font-style="italic" font-size="11.00">load</text>
</g>
<!-- RawData&#45;&gt;CleanedData -->
<g id="edge4" class="edge">
<title>RawData&#45;&gt;CleanedData</title>
<path fill="none" stroke="black" d="M225,-206.96C225,-199.38 225,-190.05 225,-181.42"/>
<polygon fill="black" stroke="black" points="228.5,-181.42 225,-171.42 221.5,-181.42 228.5,-181.42"/>
</g>
<!-- Filename -->
<g id="node7" class="node">
<title>Filename</title>
<polygon fill="none" stroke="black" points="266.5,-299 183.5,-299 183.5,-276 266.5,-276 266.5,-299"/>
<text text-anchor="middle" x="225" y="-283.8" font-family="Times,serif" font-size="14.00">Filename</text>
</g>
<!-- Filename&#45;&gt;RawData -->
<g id="edge6" class="edge">
<title>Filename&#45;&gt;RawData</title>
<path fill="none" stroke="black" d="M225,-275.98C225,-268.93 225,-259.32 225,-250.31"/>
<polygon fill="black" stroke="black" points="228.5,-250.2 225,-240.2 221.5,-250.2 228.5,-250.2"/>
</g>
<!-- ScaleFactor -->
<g id="node9" class="node">
<title>ScaleFactor</title>
<polygon fill="none" stroke="black" points="369.5,-97 268.5,-97 268.5,-74 369.5,-74 369.5,-97"/>
<text text-anchor="middle" x="319" y="-81.8" font-family="Times,serif" font-size="14.00">ScaleFactor</text>
</g>
<!-- ScaleFactor&#45;&gt;Result -->
<g id="edge8" class="edge">
<title>ScaleFactor&#45;&gt;Result</title>
<path fill="none" stroke="black" d="M305.66,-73.74C294.33,-64.58 277.68,-51.14 263.5,-39.7"/>
<polygon fill="black" stroke="black" points="265.47,-36.79 255.49,-33.23 261.08,-42.24 265.47,-36.79"/>
</g>
</g>
</svg>
