<?xml version="1.0" encoding="UTF-8" standalone="no"?>
<!DOCTYPE svg PUBLIC "-//W3C//DTD SVG 1.1//EN"
 "http://www.w3.org/Graphics/SVG/1.1/DTD/svg11.dtd">
<!-- Generated by graphviz version 2.43.0 (0)
 -->
<!-- Title: %3 Pages: 1 -->
<svg width="1422pt" height="708pt"
 viewBox="0.00 0.00 1422.00 708.00" xmlns="http://www.w3.org/2000/svg" xmlns:xlink="http://www.w3.org/1999/xlink">
<g id="graph0" class="graph" transform="scale(1 1) rotate(0) translate(4 704)">
<title>%3</title>
<polygon fill="white" stroke="transparent" points="-4,4 -4,-704 1418,-704 1418,4 -4,4"/>
<g id="clust5" class="cluster">
<title>cluster_CleanedData</title>
<polygon fill="#f0f0ff" stroke="#f0f0ff" points="29,-352 29,-404 1385,-404 1385,-352 29,-352"/>
</g>
<g id="clust6" class="cluster">
<title>cluster_Filename</title>
<polygon fill="#f0f0ff" stroke="#f0f0ff" points="91,-640 91,-692 1323,-692 1323,-640 91,-640"/>
</g>
<g id="clust7" class="cluster">
<title>cluster_RawData</title>
<polygon fill="#f0f0ff" stroke="#f0f0ff" points="97,-496 97,-548 1317,-548 1317,-496 97,-496"/>
</g>
<!-- __main__.subtract_background_BackgroundSubtractedData(RunID=102) -->
<g id="node1" class="node">
<title>__main__.subtract_background_BackgroundSubtractedData(RunID=102)</title>
<ellipse fill="none" stroke="black" cx="170" cy="-306" rx="108.58" ry="18"/>
<text text-anchor="middle" x="170" y="-302.3" font-family="Times,serif" font-size="14.00">subtract_background</text>
</g>
<!-- BackgroundSubtractedData(RunID=102) -->
<g id="node4" class="node">
<title>BackgroundSubtractedData(RunID=102)</title>
<polygon fill="none" stroke="black" points="310,-252 0,-252 0,-216 310,-216 310,-252"/>
<text text-anchor="middle" x="155" y="-230.3" font-family="Times,serif" font-size="14.00">BackgroundSubtractedData(RunID=102)</text>
</g>
<!-- __main__.subtract_background_BackgroundSubtractedData(RunID=102)&#45;&gt;BackgroundSubtractedData(RunID=102) -->
<g id="edge3" class="edge">
<title>__main__.subtract_background_BackgroundSubtractedData(RunID=102)&#45;&gt;BackgroundSubtractedData(RunID=102)</title>
<path fill="none" stroke="black" d="M166.29,-287.7C164.64,-279.98 162.65,-270.71 160.81,-262.11"/>
<polygon fill="black" stroke="black" points="164.18,-261.15 158.67,-252.1 157.34,-262.62 164.18,-261.15"/>
</g>
<!-- CleanedData[Sample](RunID=102) -->
<g id="node2" class="node">
<title>CleanedData[Sample](RunID=102)</title>
<polygon fill="none" stroke="black" points="303,-396 37,-396 37,-360 303,-360 303,-396"/>
<text text-anchor="middle" x="170" y="-374.3" font-family="Times,serif" font-size="14.00">CleanedData[Sample](RunID=102)</text>
</g>
<!-- CleanedData[Sample](RunID=102)&#45;&gt;__main__.subtract_background_BackgroundSubtractedData(RunID=102) -->
<g id="edge1" class="edge">
<title>CleanedData[Sample](RunID=102)&#45;&gt;__main__.subtract_background_BackgroundSubtractedData(RunID=102)</title>
<path fill="none" stroke="black" d="M170,-359.7C170,-351.98 170,-342.71 170,-334.11"/>
<polygon fill="black" stroke="black" points="173.5,-334.1 170,-324.1 166.5,-334.1 173.5,-334.1"/>
</g>
<!-- CleanedData[Background] -->
<g id="node3" class="node">
<title>CleanedData[Background]</title>
<polygon fill="none" stroke="black" points="809,-396 605,-396 605,-360 809,-360 809,-396"/>
<text text-anchor="middle" x="707" y="-374.3" font-family="Times,serif" font-size="14.00">CleanedData[Background]</text>
</g>
<!-- CleanedData[Background]&#45;&gt;__main__.subtract_background_BackgroundSubtractedData(RunID=102) -->
<g id="edge2" class="edge">
<title>CleanedData[Background]&#45;&gt;__main__.subtract_background_BackgroundSubtractedData(RunID=102)</title>
<path fill="none" stroke="black" d="M637.08,-359.95C623.5,-357.01 609.35,-354.2 596,-352 535.93,-342.1 378.46,-326.46 272.74,-316.47"/>
<polygon fill="black" stroke="black" points="272.96,-312.97 262.68,-315.52 272.3,-319.94 272.96,-312.97"/>
</g>
<!-- __main__.subtract_background_BackgroundSubtractedData(RunID=103) -->
<g id="node5" class="node">
<title>__main__.subtract_background_BackgroundSubtractedData(RunID=103)</title>
<ellipse fill="none" stroke="black" cx="483" cy="-306" rx="108.58" ry="18"/>
<text text-anchor="middle" x="483" y="-302.3" font-family="Times,serif" font-size="14.00">subtract_background</text>
</g>
<!-- CleanedData[Background]&#45;&gt;__main__.subtract_background_BackgroundSubtractedData(RunID=103) -->
<g id="edge5" class="edge">
<title>CleanedData[Background]&#45;&gt;__main__.subtract_background_BackgroundSubtractedData(RunID=103)</title>
<path fill="none" stroke="black" d="M652.49,-359.97C618.9,-349.47 575.84,-336.01 541.53,-325.29"/>
<polygon fill="black" stroke="black" points="542.23,-321.84 531.64,-322.2 540.14,-328.52 542.23,-321.84"/>
</g>
<!-- __main__.subtract_background_BackgroundSubtractedData(RunID=104) -->
<g id="node8" class="node">
<title>__main__.subtract_background_BackgroundSubtractedData(RunID=104)</title>
<ellipse fill="none" stroke="black" cx="931" cy="-306" rx="108.58" ry="18"/>
<text text-anchor="middle" x="931" y="-302.3" font-family="Times,serif" font-size="14.00">subtract_background</text>
</g>
<!-- CleanedData[Background]&#45;&gt;__main__.subtract_background_BackgroundSubtractedData(RunID=104) -->
<g id="edge8" class="edge">
<title>CleanedData[Background]&#45;&gt;__main__.subtract_background_BackgroundSubtractedData(RunID=104)</title>
<path fill="none" stroke="black" d="M761.51,-359.97C795.1,-349.47 838.16,-336.01 872.47,-325.29"/>
<polygon fill="black" stroke="black" points="873.86,-328.52 882.36,-322.2 871.77,-321.84 873.86,-328.52"/>
</g>
<!-- __main__.subtract_background_BackgroundSubtractedData(RunID=105) -->
<g id="node11" class="node">
<title>__main__.subtract_background_BackgroundSubtractedData(RunID=105)</title>
<ellipse fill="none" stroke="black" cx="1244" cy="-306" rx="108.58" ry="18"/>
<text text-anchor="middle" x="1244" y="-302.3" font-family="Times,serif" font-size="14.00">subtract_background</text>
</g>
<!-- CleanedData[Background]&#45;&gt;__main__.subtract_background_BackgroundSubtractedData(RunID=105) -->
<g id="edge11" class="edge">
<title>CleanedData[Background]&#45;&gt;__main__.subtract_background_BackgroundSubtractedData(RunID=105)</title>
<path fill="none" stroke="black" d="M776.92,-359.95C790.5,-357.01 804.65,-354.2 818,-352 878.07,-342.1 1035.54,-326.46 1141.26,-316.47"/>
<polygon fill="black" stroke="black" points="1141.7,-319.94 1151.32,-315.52 1141.04,-312.97 1141.7,-319.94"/>
</g>
<!-- __main__.process_Result(RunID=102) -->
<g id="node34" class="node">
<title>__main__.process_Result(RunID=102)</title>
<ellipse fill="none" stroke="black" cx="444" cy="-162" rx="46.29" ry="18"/>
<text text-anchor="middle" x="444" y="-158.3" font-family="Times,serif" font-size="14.00">process</text>
</g>
<!-- BackgroundSubtractedData(RunID=102)&#45;&gt;__main__.process_Result(RunID=102) -->
<g id="edge33" class="edge">
<title>BackgroundSubtractedData(RunID=102)&#45;&gt;__main__.process_Result(RunID=102)</title>
<path fill="none" stroke="black" d="M225.33,-215.97C278.25,-203.15 349.39,-185.92 395.94,-174.64"/>
<polygon fill="black" stroke="black" points="396.88,-178.01 405.78,-172.26 395.24,-171.21 396.88,-178.01"/>
</g>
<!-- BackgroundSubtractedData(RunID=103) -->
<g id="node7" class="node">
<title>BackgroundSubtractedData(RunID=103)</title>
<polygon fill="none" stroke="black" points="638,-252 328,-252 328,-216 638,-216 638,-252"/>
<text text-anchor="middle" x="483" y="-230.3" font-family="Times,serif" font-size="14.00">BackgroundSubtractedData(RunID=103)</text>
</g>
<!-- __main__.subtract_background_BackgroundSubtractedData(RunID=103)&#45;&gt;BackgroundSubtractedData(RunID=103) -->
<g id="edge6" class="edge">
<title>__main__.subtract_background_BackgroundSubtractedData(RunID=103)&#45;&gt;BackgroundSubtractedData(RunID=103)</title>
<path fill="none" stroke="black" d="M483,-287.7C483,-279.98 483,-270.71 483,-262.11"/>
<polygon fill="black" stroke="black" points="486.5,-262.1 483,-252.1 479.5,-262.1 486.5,-262.1"/>
</g>
<!-- CleanedData[Sample](RunID=103) -->
<g id="node6" class="node">
<title>CleanedData[Sample](RunID=103)</title>
<polygon fill="none" stroke="black" points="587,-396 321,-396 321,-360 587,-360 587,-396"/>
<text text-anchor="middle" x="454" y="-374.3" font-family="Times,serif" font-size="14.00">CleanedData[Sample](RunID=103)</text>
</g>
<!-- CleanedData[Sample](RunID=103)&#45;&gt;__main__.subtract_background_BackgroundSubtractedData(RunID=103) -->
<g id="edge4" class="edge">
<title>CleanedData[Sample](RunID=103)&#45;&gt;__main__.subtract_background_BackgroundSubtractedData(RunID=103)</title>
<path fill="none" stroke="black" d="M461.17,-359.7C464.43,-351.81 468.37,-342.3 472,-333.55"/>
<polygon fill="black" stroke="black" points="475.32,-334.68 475.91,-324.1 468.85,-332 475.32,-334.68"/>
</g>
<!-- __main__.process_Result(RunID=103) -->
<g id="node37" class="node">
<title>__main__.process_Result(RunID=103)</title>
<ellipse fill="none" stroke="black" cx="619" cy="-162" rx="46.29" ry="18"/>
<text text-anchor="middle" x="619" y="-158.3" font-family="Times,serif" font-size="14.00">process</text>
</g>
<!-- BackgroundSubtractedData(RunID=103)&#45;&gt;__main__.process_Result(RunID=103) -->
<g id="edge36" class="edge">
<title>BackgroundSubtractedData(RunID=103)&#45;&gt;__main__.process_Result(RunID=103)</title>
<path fill="none" stroke="black" d="M516.27,-215.88C536.45,-205.49 562.22,-192.22 582.9,-181.58"/>
<polygon fill="black" stroke="black" points="584.71,-184.58 592,-176.9 581.51,-178.36 584.71,-184.58"/>
</g>
<!-- BackgroundSubtractedData(RunID=104) -->
<g id="node10" class="node">
<title>BackgroundSubtractedData(RunID=104)</title>
<polygon fill="none" stroke="black" points="1086,-252 776,-252 776,-216 1086,-216 1086,-252"/>
<text text-anchor="middle" x="931" y="-230.3" font-family="Times,serif" font-size="14.00">BackgroundSubtractedData(RunID=104)</text>
</g>
<!-- __main__.subtract_background_BackgroundSubtractedData(RunID=104)&#45;&gt;BackgroundSubtractedData(RunID=104) -->
<g id="edge9" class="edge">
<title>__main__.subtract_background_BackgroundSubtractedData(RunID=104)&#45;&gt;BackgroundSubtractedData(RunID=104)</title>
<path fill="none" stroke="black" d="M931,-287.7C931,-279.98 931,-270.71 931,-262.11"/>
<polygon fill="black" stroke="black" points="934.5,-262.1 931,-252.1 927.5,-262.1 934.5,-262.1"/>
</g>
<!-- CleanedData[Sample](RunID=104) -->
<g id="node9" class="node">
<title>CleanedData[Sample](RunID=104)</title>
<polygon fill="none" stroke="black" points="1093,-396 827,-396 827,-360 1093,-360 1093,-396"/>
<text text-anchor="middle" x="960" y="-374.3" font-family="Times,serif" font-size="14.00">CleanedData[Sample](RunID=104)</text>
</g>
<!-- CleanedData[Sample](RunID=104)&#45;&gt;__main__.subtract_background_BackgroundSubtractedData(RunID=104) -->
<g id="edge7" class="edge">
<title>CleanedData[Sample](RunID=104)&#45;&gt;__main__.subtract_background_BackgroundSubtractedData(RunID=104)</title>
<path fill="none" stroke="black" d="M952.83,-359.7C949.57,-351.81 945.63,-342.3 942,-333.55"/>
<polygon fill="black" stroke="black" points="945.15,-332 938.09,-324.1 938.68,-334.68 945.15,-332"/>
</g>
<!-- __main__.process_Result(RunID=104) -->
<g id="node39" class="node">
<title>__main__.process_Result(RunID=104)</title>
<ellipse fill="none" stroke="black" cx="794" cy="-162" rx="46.29" ry="18"/>
<text text-anchor="middle" x="794" y="-158.3" font-family="Times,serif" font-size="14.00">process</text>
</g>
<!-- BackgroundSubtractedData(RunID=104)&#45;&gt;__main__.process_Result(RunID=104) -->
<g id="edge39" class="edge">
<title>BackgroundSubtractedData(RunID=104)&#45;&gt;__main__.process_Result(RunID=104)</title>
<path fill="none" stroke="black" d="M897.49,-215.88C876.92,-205.37 850.61,-191.92 829.66,-181.22"/>
<polygon fill="black" stroke="black" points="831.25,-178.1 820.75,-176.67 828.06,-184.34 831.25,-178.1"/>
</g>
<!-- BackgroundSubtractedData(RunID=105) -->
<g id="node13" class="node">
<title>BackgroundSubtractedData(RunID=105)</title>
<polygon fill="none" stroke="black" points="1414,-252 1104,-252 1104,-216 1414,-216 1414,-252"/>
<text text-anchor="middle" x="1259" y="-230.3" font-family="Times,serif" font-size="14.00">BackgroundSubtractedData(RunID=105)</text>
</g>
<!-- __main__.subtract_background_BackgroundSubtractedData(RunID=105)&#45;&gt;BackgroundSubtractedData(RunID=105) -->
<g id="edge12" class="edge">
<title>__main__.subtract_background_BackgroundSubtractedData(RunID=105)&#45;&gt;BackgroundSubtractedData(RunID=105)</title>
<path fill="none" stroke="black" d="M1247.71,-287.7C1249.36,-279.98 1251.35,-270.71 1253.19,-262.11"/>
<polygon fill="black" stroke="black" points="1256.66,-262.62 1255.33,-252.1 1249.82,-261.15 1256.66,-262.62"/>
</g>
<!-- CleanedData[Sample](RunID=105) -->
<g id="node12" class="node">
<title>CleanedData[Sample](RunID=105)</title>
<polygon fill="none" stroke="black" points="1377,-396 1111,-396 1111,-360 1377,-360 1377,-396"/>
<text text-anchor="middle" x="1244" y="-374.3" font-family="Times,serif" font-size="14.00">CleanedData[Sample](RunID=105)</text>
</g>
<!-- CleanedData[Sample](RunID=105)&#45;&gt;__main__.subtract_background_BackgroundSubtractedData(RunID=105) -->
<g id="edge10" class="edge">
<title>CleanedData[Sample](RunID=105)&#45;&gt;__main__.subtract_background_BackgroundSubtractedData(RunID=105)</title>
<path fill="none" stroke="black" d="M1244,-359.7C1244,-351.98 1244,-342.71 1244,-334.11"/>
<polygon fill="black" stroke="black" points="1247.5,-334.1 1244,-324.1 1240.5,-334.1 1247.5,-334.1"/>
</g>
<!-- __main__.process_Result(RunID=105) -->
<g id="node41" class="node">
<title>__main__.process_Result(RunID=105)</title>
<ellipse fill="none" stroke="black" cx="969" cy="-162" rx="46.29" ry="18"/>
<text text-anchor="middle" x="969" y="-158.3" font-family="Times,serif" font-size="14.00">process</text>
</g>
<!-- BackgroundSubtractedData(RunID=105)&#45;&gt;__main__.process_Result(RunID=105) -->
<g id="edge42" class="edge">
<title>BackgroundSubtractedData(RunID=105)&#45;&gt;__main__.process_Result(RunID=105)</title>
<path fill="none" stroke="black" d="M1188.43,-215.97C1135.32,-203.15 1063.94,-185.92 1017.22,-174.64"/>
<polygon fill="black" stroke="black" points="1017.9,-171.2 1007.35,-172.26 1016.25,-178.01 1017.9,-171.2"/>
</g>
<!-- __main__.clean_background_CleanedData[Background] -->
<g id="node14" class="node">
<title>__main__.clean_background_CleanedData[Background]</title>
<ellipse fill="none" stroke="black" cx="707" cy="-450" rx="94.48" ry="18"/>
<text text-anchor="middle" x="707" y="-446.3" font-family="Times,serif" font-size="14.00">clean_background</text>
</g>
<!-- __main__.clean_background_CleanedData[Background]&#45;&gt;CleanedData[Background] -->
<g id="edge14" class="edge">
<title>__main__.clean_background_CleanedData[Background]&#45;&gt;CleanedData[Background]</title>
<path fill="none" stroke="black" d="M707,-431.7C707,-423.98 707,-414.71 707,-406.11"/>
<polygon fill="black" stroke="black" points="710.5,-406.1 707,-396.1 703.5,-406.1 710.5,-406.1"/>
</g>
<!-- RawData[Background] -->
<g id="node15" class="node">
<title>RawData[Background]</title>
<polygon fill="none" stroke="black" points="795.5,-540 618.5,-540 618.5,-504 795.5,-504 795.5,-540"/>
<text text-anchor="middle" x="707" y="-518.3" font-family="Times,serif" font-size="14.00">RawData[Background]</text>
</g>
<!-- RawData[Background]&#45;&gt;__main__.clean_background_CleanedData[Background] -->
<g id="edge13" class="edge">
<title>RawData[Background]&#45;&gt;__main__.clean_background_CleanedData[Background]</title>
<path fill="none" stroke="black" d="M707,-503.7C707,-495.98 707,-486.71 707,-478.11"/>
<polygon fill="black" stroke="black" points="710.5,-478.1 707,-468.1 703.5,-478.1 710.5,-478.1"/>
</g>
<!-- __main__.clean_data_CleanedData[Sample](RunID=102) -->
<g id="node16" class="node">
<title>__main__.clean_data_CleanedData[Sample](RunID=102)</title>
<ellipse fill="none" stroke="black" cx="197" cy="-450" rx="59.59" ry="18"/>
<text text-anchor="middle" x="197" y="-446.3" font-family="Times,serif" font-size="14.00">clean_data</text>
</g>
<!-- __main__.clean_data_CleanedData[Sample](RunID=102)&#45;&gt;CleanedData[Sample](RunID=102) -->
<g id="edge16" class="edge">
<title>__main__.clean_data_CleanedData[Sample](RunID=102)&#45;&gt;CleanedData[Sample](RunID=102)</title>
<path fill="none" stroke="black" d="M190.46,-432.05C187.43,-424.18 183.74,-414.62 180.33,-405.79"/>
<polygon fill="black" stroke="black" points="183.53,-404.35 176.66,-396.28 177,-406.86 183.53,-404.35"/>
</g>
<!-- RawData[Sample](RunID=102) -->
<g id="node17" class="node">
<title>RawData[Sample](RunID=102)</title>
<polygon fill="none" stroke="black" points="343.5,-540 104.5,-540 104.5,-504 343.5,-504 343.5,-540"/>
<text text-anchor="middle" x="224" y="-518.3" font-family="Times,serif" font-size="14.00">RawData[Sample](RunID=102)</text>
</g>
<!-- RawData[Sample](RunID=102)&#45;&gt;__main__.clean_data_CleanedData[Sample](RunID=102) -->
<g id="edge15" class="edge">
<title>RawData[Sample](RunID=102)&#45;&gt;__main__.clean_data_CleanedData[Sample](RunID=102)</title>
<path fill="none" stroke="black" d="M217.33,-503.7C214.29,-495.81 210.62,-486.3 207.24,-477.55"/>
<polygon fill="black" stroke="black" points="210.46,-476.17 203.6,-468.1 203.93,-478.69 210.46,-476.17"/>
</g>
<!-- __main__.clean_data_CleanedData[Sample](RunID=103) -->
<g id="node18" class="node">
<title>__main__.clean_data_CleanedData[Sample](RunID=103)</title>
<ellipse fill="none" stroke="black" cx="467" cy="-450" rx="59.59" ry="18"/>
<text text-anchor="middle" x="467" y="-446.3" font-family="Times,serif" font-size="14.00">clean_data</text>
</g>
<!-- __main__.clean_data_CleanedData[Sample](RunID=103)&#45;&gt;CleanedData[Sample](RunID=103) -->
<g id="edge18" class="edge">
<title>__main__.clean_data_CleanedData[Sample](RunID=103)&#45;&gt;CleanedData[Sample](RunID=103)</title>
<path fill="none" stroke="black" d="M463.79,-431.7C462.35,-423.98 460.63,-414.71 459.04,-406.11"/>
<polygon fill="black" stroke="black" points="462.44,-405.3 457.18,-396.1 455.56,-406.58 462.44,-405.3"/>
</g>
<!-- RawData[Sample](RunID=103) -->
<g id="node19" class="node">
<title>RawData[Sample](RunID=103)</title>
<polygon fill="none" stroke="black" points="600.5,-540 361.5,-540 361.5,-504 600.5,-504 600.5,-540"/>
<text text-anchor="middle" x="481" y="-518.3" font-family="Times,serif" font-size="14.00">RawData[Sample](RunID=103)</text>
</g>
<!-- RawData[Sample](RunID=103)&#45;&gt;__main__.clean_data_CleanedData[Sample](RunID=103) -->
<g id="edge17" class="edge">
<title>RawData[Sample](RunID=103)&#45;&gt;__main__.clean_data_CleanedData[Sample](RunID=103)</title>
<path fill="none" stroke="black" d="M477.54,-503.7C476,-495.98 474.14,-486.71 472.42,-478.11"/>
<polygon fill="black" stroke="black" points="475.81,-477.22 470.42,-468.1 468.95,-478.6 475.81,-477.22"/>
</g>
<!-- __main__.clean_data_CleanedData[Sample](RunID=104) -->
<g id="node20" class="node">
<title>__main__.clean_data_CleanedData[Sample](RunID=104)</title>
<ellipse fill="none" stroke="black" cx="946" cy="-450" rx="59.59" ry="18"/>
<text text-anchor="middle" x="946" y="-446.3" font-family="Times,serif" font-size="14.00">clean_data</text>
</g>
<!-- __main__.clean_data_CleanedData[Sample](RunID=104)&#45;&gt;CleanedData[Sample](RunID=104) -->
<g id="edge20" class="edge">
<title>__main__.clean_data_CleanedData[Sample](RunID=104)&#45;&gt;CleanedData[Sample](RunID=104)</title>
<path fill="none" stroke="black" d="M949.46,-431.7C951,-423.98 952.86,-414.71 954.58,-406.11"/>
<polygon fill="black" stroke="black" points="958.05,-406.6 956.58,-396.1 951.19,-405.22 958.05,-406.6"/>
</g>
<!-- RawData[Sample](RunID=104) -->
<g id="node21" class="node">
<title>RawData[Sample](RunID=104)</title>
<polygon fill="none" stroke="black" points="1052.5,-540 813.5,-540 813.5,-504 1052.5,-504 1052.5,-540"/>
<text text-anchor="middle" x="933" y="-518.3" font-family="Times,serif" font-size="14.00">RawData[Sample](RunID=104)</text>
</g>
<!-- RawData[Sample](RunID=104)&#45;&gt;__main__.clean_data_CleanedData[Sample](RunID=104) -->
<g id="edge19" class="edge">
<title>RawData[Sample](RunID=104)&#45;&gt;__main__.clean_data_CleanedData[Sample](RunID=104)</title>
<path fill="none" stroke="black" d="M936.21,-503.7C937.65,-495.98 939.37,-486.71 940.96,-478.11"/>
<polygon fill="black" stroke="black" points="944.44,-478.58 942.82,-468.1 937.56,-477.3 944.44,-478.58"/>
</g>
<!-- __main__.clean_data_CleanedData[Sample](RunID=105) -->
<g id="node22" class="node">
<title>__main__.clean_data_CleanedData[Sample](RunID=105)</title>
<ellipse fill="none" stroke="black" cx="1217" cy="-450" rx="59.59" ry="18"/>
<text text-anchor="middle" x="1217" y="-446.3" font-family="Times,serif" font-size="14.00">clean_data</text>
</g>
<!-- __main__.clean_data_CleanedData[Sample](RunID=105)&#45;&gt;CleanedData[Sample](RunID=105) -->
<g id="edge22" class="edge">
<title>__main__.clean_data_CleanedData[Sample](RunID=105)&#45;&gt;CleanedData[Sample](RunID=105)</title>
<path fill="none" stroke="black" d="M1223.54,-432.05C1226.57,-424.18 1230.26,-414.62 1233.67,-405.79"/>
<polygon fill="black" stroke="black" points="1237,-406.86 1237.34,-396.28 1230.47,-404.35 1237,-406.86"/>
</g>
<!-- RawData[Sample](RunID=105) -->
<g id="node23" class="node">
<title>RawData[Sample](RunID=105)</title>
<polygon fill="none" stroke="black" points="1309.5,-540 1070.5,-540 1070.5,-504 1309.5,-504 1309.5,-540"/>
<text text-anchor="middle" x="1190" y="-518.3" font-family="Times,serif" font-size="14.00">RawData[Sample](RunID=105)</text>
</g>
<!-- RawData[Sample](RunID=105)&#45;&gt;__main__.clean_data_CleanedData[Sample](RunID=105) -->
<g id="edge21" class="edge">
<title>RawData[Sample](RunID=105)&#45;&gt;__main__.clean_data_CleanedData[Sample](RunID=105)</title>
<path fill="none" stroke="black" d="M1196.67,-503.7C1199.71,-495.81 1203.38,-486.3 1206.76,-477.55"/>
<polygon fill="black" stroke="black" points="1210.07,-478.69 1210.4,-468.1 1203.54,-476.17 1210.07,-478.69"/>
</g>
<!-- Filename[Background] -->
<g id="node24" class="node">
<title>Filename[Background]</title>
<polygon fill="none" stroke="black" points="796.5,-684 617.5,-684 617.5,-648 796.5,-648 796.5,-684"/>
<text text-anchor="middle" x="707" y="-662.3" font-family="Times,serif" font-size="14.00">Filename[Background]</text>
</g>
<!-- __main__.load_RawData[Background] -->
<g id="node29" class="node">
<title>__main__.load_RawData[Background]</title>
<ellipse fill="none" stroke="black" cx="707" cy="-594" rx="30.59" ry="18"/>
<text text-anchor="middle" x="707" y="-590.3" font-family="Times,serif" font-size="14.00">load</text>
</g>
<!-- Filename[Background]&#45;&gt;__main__.load_RawData[Background] -->
<g id="edge23" class="edge">
<title>Filename[Background]&#45;&gt;__main__.load_RawData[Background]</title>
<path fill="none" stroke="black" d="M707,-647.7C707,-639.98 707,-630.71 707,-622.11"/>
<polygon fill="black" stroke="black" points="710.5,-622.1 707,-612.1 703.5,-622.1 710.5,-622.1"/>
</g>
<!-- Filename[Sample](RunID=102) -->
<g id="node25" class="node">
<title>Filename[Sample](RunID=102)</title>
<polygon fill="none" stroke="black" points="340.5,-684 99.5,-684 99.5,-648 340.5,-648 340.5,-684"/>
<text text-anchor="middle" x="220" y="-662.3" font-family="Times,serif" font-size="14.00">Filename[Sample](RunID=102)</text>
</g>
<!-- __main__.load_RawData[Sample](RunID=102) -->
<g id="node30" class="node">
<title>__main__.load_RawData[Sample](RunID=102)</title>
<ellipse fill="none" stroke="black" cx="222" cy="-594" rx="30.59" ry="18"/>
<text text-anchor="middle" x="222" y="-590.3" font-family="Times,serif" font-size="14.00">load</text>
</g>
<!-- Filename[Sample](RunID=102)&#45;&gt;__main__.load_RawData[Sample](RunID=102) -->
<g id="edge25" class="edge">
<title>Filename[Sample](RunID=102)&#45;&gt;__main__.load_RawData[Sample](RunID=102)</title>
<path fill="none" stroke="black" d="M220.49,-647.7C220.71,-639.98 220.98,-630.71 221.23,-622.11"/>
<polygon fill="black" stroke="black" points="224.72,-622.2 221.51,-612.1 217.73,-622 224.72,-622.2"/>
</g>
<!-- Filename[Sample](RunID=103) -->
<g id="node26" class="node">
<title>Filename[Sample](RunID=103)</title>
<polygon fill="none" stroke="black" points="599.5,-684 358.5,-684 358.5,-648 599.5,-648 599.5,-684"/>
<text text-anchor="middle" x="479" y="-662.3" font-family="Times,serif" font-size="14.00">Filename[Sample](RunID=103)</text>
</g>
<!-- __main__.load_RawData[Sample](RunID=103) -->
<g id="node31" class="node">
<title>__main__.load_RawData[Sample](RunID=103)</title>
<ellipse fill="none" stroke="black" cx="480" cy="-594" rx="30.59" ry="18"/>
<text text-anchor="middle" x="480" y="-590.3" font-family="Times,serif" font-size="14.00">load</text>
</g>
<!-- Filename[Sample](RunID=103)&#45;&gt;__main__.load_RawData[Sample](RunID=103) -->
<g id="edge27" class="edge">
<title>Filename[Sample](RunID=103)&#45;&gt;__main__.load_RawData[Sample](RunID=103)</title>
<path fill="none" stroke="black" d="M479.25,-647.7C479.36,-639.98 479.49,-630.71 479.61,-622.11"/>
<polygon fill="black" stroke="black" points="483.11,-622.15 479.76,-612.1 476.11,-622.05 483.11,-622.15"/>
</g>
<!-- Filename[Sample](RunID=104) -->
<g id="node27" class="node">
<title>Filename[Sample](RunID=104)</title>
<polygon fill="none" stroke="black" points="1055.5,-684 814.5,-684 814.5,-648 1055.5,-648 1055.5,-684"/>
<text text-anchor="middle" x="935" y="-662.3" font-family="Times,serif" font-size="14.00">Filename[Sample](RunID=104)</text>
</g>
<!-- __main__.load_RawData[Sample](RunID=104) -->
<g id="node32" class="node">
<title>__main__.load_RawData[Sample](RunID=104)</title>
<ellipse fill="none" stroke="black" cx="934" cy="-594" rx="30.59" ry="18"/>
<text text-anchor="middle" x="934" y="-590.3" font-family="Times,serif" font-size="14.00">load</text>
</g>
<!-- Filename[Sample](RunID=104)&#45;&gt;__main__.load_RawData[Sample](RunID=104) -->
<g id="edge29" class="edge">
<title>Filename[Sample](RunID=104)&#45;&gt;__main__.load_RawData[Sample](RunID=104)</title>
<path fill="none" stroke="black" d="M934.75,-647.7C934.64,-639.98 934.51,-630.71 934.39,-622.11"/>
<polygon fill="black" stroke="black" points="937.89,-622.05 934.24,-612.1 930.89,-622.15 937.89,-622.05"/>
</g>
<!-- Filename[Sample](RunID=105) -->
<g id="node28" class="node">
<title>Filename[Sample](RunID=105)</title>
<polygon fill="none" stroke="black" points="1314.5,-684 1073.5,-684 1073.5,-648 1314.5,-648 1314.5,-684"/>
<text text-anchor="middle" x="1194" y="-662.3" font-family="Times,serif" font-size="14.00">Filename[Sample](RunID=105)</text>
</g>
<!-- __main__.load_RawData[Sample](RunID=105) -->
<g id="node33" class="node">
<title>__main__.load_RawData[Sample](RunID=105)</title>
<ellipse fill="none" stroke="black" cx="1192" cy="-594" rx="30.59" ry="18"/>
<text text-anchor="middle" x="1192" y="-590.3" font-family="Times,serif" font-size="14.00">load</text>
</g>
<!-- Filename[Sample](RunID=105)&#45;&gt;__main__.load_RawData[Sample](RunID=105) -->
<g id="edge31" class="edge">
<title>Filename[Sample](RunID=105)&#45;&gt;__main__.load_RawData[Sample](RunID=105)</title>
<path fill="none" stroke="black" d="M1193.51,-647.7C1193.29,-639.98 1193.02,-630.71 1192.77,-622.11"/>
<polygon fill="black" stroke="black" points="1196.27,-622 1192.49,-612.1 1189.28,-622.2 1196.27,-622"/>
</g>
<!-- __main__.load_RawData[Background]&#45;&gt;RawData[Background] -->
<g id="edge24" class="edge">
<title>__main__.load_RawData[Background]&#45;&gt;RawData[Background]</title>
<path fill="none" stroke="black" d="M707,-575.7C707,-567.98 707,-558.71 707,-550.11"/>
<polygon fill="black" stroke="black" points="710.5,-550.1 707,-540.1 703.5,-550.1 710.5,-550.1"/>
</g>
<!-- __main__.load_RawData[Sample](RunID=102)&#45;&gt;RawData[Sample](RunID=102) -->
<g id="edge26" class="edge">
<title>__main__.load_RawData[Sample](RunID=102)&#45;&gt;RawData[Sample](RunID=102)</title>
<path fill="none" stroke="black" d="M222.49,-575.7C222.71,-567.98 222.98,-558.71 223.23,-550.11"/>
<polygon fill="black" stroke="black" points="226.72,-550.2 223.51,-540.1 219.73,-550 226.72,-550.2"/>
</g>
<!-- __main__.load_RawData[Sample](RunID=103)&#45;&gt;RawData[Sample](RunID=103) -->
<g id="edge28" class="edge">
<title>__main__.load_RawData[Sample](RunID=103)&#45;&gt;RawData[Sample](RunID=103)</title>
<path fill="none" stroke="black" d="M480.25,-575.7C480.36,-567.98 480.49,-558.71 480.61,-550.11"/>
<polygon fill="black" stroke="black" points="484.11,-550.15 480.76,-540.1 477.11,-550.05 484.11,-550.15"/>
</g>
<!-- __main__.load_RawData[Sample](RunID=104)&#45;&gt;RawData[Sample](RunID=104) -->
<g id="edge30" class="edge">
<title>__main__.load_RawData[Sample](RunID=104)&#45;&gt;RawData[Sample](RunID=104)</title>
<path fill="none" stroke="black" d="M933.75,-575.7C933.64,-567.98 933.51,-558.71 933.39,-550.11"/>
<polygon fill="black" stroke="black" points="936.89,-550.05 933.24,-540.1 929.89,-550.15 936.89,-550.05"/>
</g>
<!-- __main__.load_RawData[Sample](RunID=105)&#45;&gt;RawData[Sample](RunID=105) -->
<g id="edge32" class="edge">
<title>__main__.load_RawData[Sample](RunID=105)&#45;&gt;RawData[Sample](RunID=105)</title>
<path fill="none" stroke="black" d="M1191.51,-575.7C1191.29,-567.98 1191.02,-558.71 1190.77,-550.11"/>
<polygon fill="black" stroke="black" points="1194.27,-550 1190.49,-540.1 1187.28,-550.2 1194.27,-550"/>
</g>
<!-- Result(RunID=102) -->
<g id="node36" class="node">
<title>Result(RunID=102)</title>
<polygon fill="none" stroke="black" points="522.5,-108 365.5,-108 365.5,-72 522.5,-72 522.5,-108"/>
<text text-anchor="middle" x="444" y="-86.3" font-family="Times,serif" font-size="14.00">Result(RunID=102)</text>
</g>
<!-- __main__.process_Result(RunID=102)&#45;&gt;Result(RunID=102) -->
<g id="edge35" class="edge">
<title>__main__.process_Result(RunID=102)&#45;&gt;Result(RunID=102)</title>
<path fill="none" stroke="black" d="M444,-143.7C444,-135.98 444,-126.71 444,-118.11"/>
<polygon fill="black" stroke="black" points="447.5,-118.1 444,-108.1 440.5,-118.1 447.5,-118.1"/>
</g>
<!-- ScaleFactor -->
<g id="node35" class="node">
<title>ScaleFactor</title>
<polygon fill="none" stroke="black" points="757.5,-252 656.5,-252 656.5,-216 757.5,-216 757.5,-252"/>
<text text-anchor="middle" x="707" y="-230.3" font-family="Times,serif" font-size="14.00">ScaleFactor</text>
</g>
<!-- ScaleFactor&#45;&gt;__main__.process_Result(RunID=102) -->
<g id="edge34" class="edge">
<title>ScaleFactor&#45;&gt;__main__.process_Result(RunID=102)</title>
<path fill="none" stroke="black" d="M656.28,-218.55C653.14,-217.68 650.03,-216.82 647,-216 593.75,-201.51 532.43,-185.6 491.24,-175.04"/>
<polygon fill="black" stroke="black" points="492.03,-171.63 481.48,-172.54 490.29,-178.41 492.03,-171.63"/>
</g>
<!-- ScaleFactor&#45;&gt;__main__.process_Result(RunID=103) -->
<g id="edge37" class="edge">
<title>ScaleFactor&#45;&gt;__main__.process_Result(RunID=103)</title>
<path fill="none" stroke="black" d="M685.25,-215.7C673.47,-206.33 658.82,-194.67 646.28,-184.7"/>
<polygon fill="black" stroke="black" points="648.41,-181.92 638.41,-178.44 644.05,-187.4 648.41,-181.92"/>
</g>
<!-- ScaleFactor&#45;&gt;__main__.process_Result(RunID=104) -->
<g id="edge40" class="edge">
<title>ScaleFactor&#45;&gt;__main__.process_Result(RunID=104)</title>
<path fill="none" stroke="black" d="M728.51,-215.7C740.03,-206.42 754.36,-194.89 766.67,-184.99"/>
<polygon fill="black" stroke="black" points="769.22,-187.43 774.81,-178.44 764.83,-181.98 769.22,-187.43"/>
</g>
<!-- ScaleFactor&#45;&gt;__main__.process_Result(RunID=105) -->
<g id="edge43" class="edge">
<title>ScaleFactor&#45;&gt;__main__.process_Result(RunID=105)</title>
<path fill="none" stroke="black" d="M757.72,-218.55C760.86,-217.68 763.97,-216.83 767,-216 819.83,-201.59 880.64,-185.73 921.62,-175.15"/>
<polygon fill="black" stroke="black" points="922.53,-178.53 931.34,-172.65 920.78,-171.75 922.53,-178.53"/>
</g>
<!-- Series[RunID, Result] -->
<g id="node43" class="node">
<title>Series[RunID, Result]</title>
<polygon fill="none" stroke="black" points="791.5,-36 620.5,-36 620.5,0 791.5,0 791.5,-36"/>
<text text-anchor="middle" x="706" y="-14.3" font-family="Times,serif" font-size="14.00">Series[RunID, Result]</text>
</g>
<!-- Result(RunID=102)&#45;&gt;Series[RunID, Result] -->
<g id="edge45" class="edge">
<title>Result(RunID=102)&#45;&gt;Series[RunID, Result]</title>
<path fill="none" stroke="black" stroke-dasharray="5,2" d="M507.76,-71.97C545.32,-61.93 593,-49.19 632.19,-38.72"/>
<polygon fill="black" stroke="black" points="633.2,-42.07 641.96,-36.11 631.39,-35.31 633.2,-42.07"/>
</g>
<!-- Result(RunID=103) -->
<g id="node38" class="node">
<title>Result(RunID=103)</title>
<polygon fill="none" stroke="black" points="697.5,-108 540.5,-108 540.5,-72 697.5,-72 697.5,-108"/>
<text text-anchor="middle" x="619" y="-86.3" font-family="Times,serif" font-size="14.00">Result(RunID=103)</text>
</g>
<!-- __main__.process_Result(RunID=103)&#45;&gt;Result(RunID=103) -->
<g id="edge38" class="edge">
<title>__main__.process_Result(RunID=103)&#45;&gt;Result(RunID=103)</title>
<path fill="none" stroke="black" d="M619,-143.7C619,-135.98 619,-126.71 619,-118.11"/>
<polygon fill="black" stroke="black" points="622.5,-118.1 619,-108.1 615.5,-118.1 622.5,-118.1"/>
</g>
<!-- Result(RunID=103)&#45;&gt;Series[RunID, Result] -->
<g id="edge46" class="edge">
<title>Result(RunID=103)&#45;&gt;Series[RunID, Result]</title>
<path fill="none" stroke="black" stroke-dasharray="5,2" d="M640.51,-71.7C651.46,-62.88 664.95,-52.03 676.82,-42.47"/>
<polygon fill="black" stroke="black" points="679.14,-45.1 684.74,-36.1 674.76,-39.65 679.14,-45.1"/>
</g>
<!-- Result(RunID=104) -->
<g id="node40" class="node">
<title>Result(RunID=104)</title>
<polygon fill="none" stroke="black" points="872.5,-108 715.5,-108 715.5,-72 872.5,-72 872.5,-108"/>
<text text-anchor="middle" x="794" y="-86.3" font-family="Times,serif" font-size="14.00">Result(RunID=104)</text>
</g>
<!-- __main__.process_Result(RunID=104)&#45;&gt;Result(RunID=104) -->
<g id="edge41" class="edge">
<title>__main__.process_Result(RunID=104)&#45;&gt;Result(RunID=104)</title>
<path fill="none" stroke="black" d="M794,-143.7C794,-135.98 794,-126.71 794,-118.11"/>
<polygon fill="black" stroke="black" points="797.5,-118.1 794,-108.1 790.5,-118.1 797.5,-118.1"/>
</g>
<!-- Result(RunID=104)&#45;&gt;Series[RunID, Result] -->
<g id="edge47" class="edge">
<title>Result(RunID=104)&#45;&gt;Series[RunID, Result]</title>
<path fill="none" stroke="black" stroke-dasharray="5,2" d="M772.25,-71.7C761.16,-62.88 747.53,-52.03 735.51,-42.47"/>
<polygon fill="black" stroke="black" points="737.51,-39.59 727.5,-36.1 733.15,-45.07 737.51,-39.59"/>
</g>
<!-- Result(RunID=105) -->
<g id="node42" class="node">
<title>Result(RunID=105)</title>
<polygon fill="none" stroke="black" points="1047.5,-108 890.5,-108 890.5,-72 1047.5,-72 1047.5,-108"/>
<text text-anchor="middle" x="969" y="-86.3" font-family="Times,serif" font-size="14.00">Result(RunID=105)</text>
</g>
<!-- __main__.process_Result(RunID=105)&#45;&gt;Result(RunID=105) -->
<g id="edge44" class="edge">
<title>__main__.process_Result(RunID=105)&#45;&gt;Result(RunID=105)</title>
<path fill="none" stroke="black" d="M969,-143.7C969,-135.98 969,-126.71 969,-118.11"/>
<polygon fill="black" stroke="black" points="972.5,-118.1 969,-108.1 965.5,-118.1 972.5,-118.1"/>
</g>
<!-- Result(RunID=105)&#45;&gt;Series[RunID, Result] -->
<g id="edge48" class="edge">
<title>Result(RunID=105)&#45;&gt;Series[RunID, Result]</title>
<path fill="none" stroke="black" stroke-dasharray="5,2" d="M905,-71.97C867.29,-61.93 819.43,-49.19 780.09,-38.72"/>
<polygon fill="black" stroke="black" points="780.85,-35.3 770.29,-36.11 779.05,-42.07 780.85,-35.3"/>
</g>
</g>
</svg>
