<?xml version="1.0" encoding="UTF-8" standalone="no"?>
<!DOCTYPE svg PUBLIC "-//W3C//DTD SVG 1.1//EN"
 "http://www.w3.org/Graphics/SVG/1.1/DTD/svg11.dtd">
<!-- Generated by graphviz version 2.43.0 (0)
 -->
<!-- Title: %3 Pages: 1 -->
<svg width="1268pt" height="476pt"
 viewBox="0.00 0.00 1268.00 476.00" xmlns="http://www.w3.org/2000/svg" xmlns:xlink="http://www.w3.org/1999/xlink">
<g id="graph0" class="graph" transform="scale(1 1) rotate(0) translate(4 472)">
<title>%3</title>
<polygon fill="white" stroke="transparent" points="-4,4 -4,-472 1264,-472 1264,4 -4,4"/>
<!-- Param1(dim_0=0) -->
<g id="node1" class="node">
<title>Param1(dim_0=0)</title>
<polygon fill="none" stroke="black" points="321.5,-468 175.5,-468 175.5,-432 321.5,-432 321.5,-468"/>
<text text-anchor="middle" x="248.5" y="-446.3" font-family="Times,serif" font-size="14.00">Param1(dim_0=0)</text>
</g>
<!-- __main__.product_float(dim_0=0, dim_1=0) -->
<g id="node6" class="node">
<title>__main__.product_float(dim_0=0, dim_1=0)</title>
<ellipse fill="none" stroke="black" cx="231.5" cy="-378" rx="46.59" ry="18"/>
<text text-anchor="middle" x="231.5" y="-374.3" font-family="Times,serif" font-size="14.00">product</text>
</g>
<!-- Param1(dim_0=0)&#45;&gt;__main__.product_float(dim_0=0, dim_1=0) -->
<g id="edge1" class="edge">
<title>Param1(dim_0=0)&#45;&gt;__main__.product_float(dim_0=0, dim_1=0)</title>
<path fill="none" stroke="black" d="M244.3,-431.7C242.4,-423.9 240.12,-414.51 238.02,-405.83"/>
<polygon fill="black" stroke="black" points="241.42,-405 235.65,-396.1 234.61,-406.65 241.42,-405"/>
</g>
<!-- __main__.product_float(dim_0=0, dim_1=1) -->
<g id="node8" class="node">
<title>__main__.product_float(dim_0=0, dim_1=1)</title>
<ellipse fill="none" stroke="black" cx="343.5" cy="-378" rx="46.59" ry="18"/>
<text text-anchor="middle" x="343.5" y="-374.3" font-family="Times,serif" font-size="14.00">product</text>
</g>
<!-- Param1(dim_0=0)&#45;&gt;__main__.product_float(dim_0=0, dim_1=1) -->
<g id="edge4" class="edge">
<title>Param1(dim_0=0)&#45;&gt;__main__.product_float(dim_0=0, dim_1=1)</title>
<path fill="none" stroke="black" d="M271.98,-431.7C284.91,-422.17 301.05,-410.28 314.72,-400.2"/>
<polygon fill="black" stroke="black" points="316.89,-402.95 322.87,-394.2 312.74,-397.32 316.89,-402.95"/>
</g>
<!-- Param1(dim_0=1) -->
<g id="node2" class="node">
<title>Param1(dim_0=1)</title>
<polygon fill="none" stroke="black" points="702.5,-468 556.5,-468 556.5,-432 702.5,-432 702.5,-468"/>
<text text-anchor="middle" x="629.5" y="-446.3" font-family="Times,serif" font-size="14.00">Param1(dim_0=1)</text>
</g>
<!-- __main__.product_float(dim_0=1, dim_1=0) -->
<g id="node10" class="node">
<title>__main__.product_float(dim_0=1, dim_1=0)</title>
<ellipse fill="none" stroke="black" cx="523.5" cy="-378" rx="46.59" ry="18"/>
<text text-anchor="middle" x="523.5" y="-374.3" font-family="Times,serif" font-size="14.00">product</text>
</g>
<!-- Param1(dim_0=1)&#45;&gt;__main__.product_float(dim_0=1, dim_1=0) -->
<g id="edge7" class="edge">
<title>Param1(dim_0=1)&#45;&gt;__main__.product_float(dim_0=1, dim_1=0)</title>
<path fill="none" stroke="black" d="M603.57,-431.88C588.81,-422.13 570.23,-409.86 554.68,-399.59"/>
<polygon fill="black" stroke="black" points="556.2,-396.4 545.93,-393.81 552.35,-402.24 556.2,-396.4"/>
</g>
<!-- __main__.product_float(dim_0=1, dim_1=1) -->
<g id="node12" class="node">
<title>__main__.product_float(dim_0=1, dim_1=1)</title>
<ellipse fill="none" stroke="black" cx="736.5" cy="-378" rx="46.59" ry="18"/>
<text text-anchor="middle" x="736.5" y="-374.3" font-family="Times,serif" font-size="14.00">product</text>
</g>
<!-- Param1(dim_0=1)&#45;&gt;__main__.product_float(dim_0=1, dim_1=1) -->
<g id="edge10" class="edge">
<title>Param1(dim_0=1)&#45;&gt;__main__.product_float(dim_0=1, dim_1=1)</title>
<path fill="none" stroke="black" d="M655.68,-431.88C670.71,-422.04 689.68,-409.63 705.46,-399.31"/>
<polygon fill="black" stroke="black" points="707.4,-402.22 713.86,-393.81 703.57,-396.36 707.4,-402.22"/>
</g>
<!-- Param1(dim_0=2) -->
<g id="node3" class="node">
<title>Param1(dim_0=2)</title>
<polygon fill="none" stroke="black" points="1056.5,-468 910.5,-468 910.5,-432 1056.5,-432 1056.5,-468"/>
<text text-anchor="middle" x="983.5" y="-446.3" font-family="Times,serif" font-size="14.00">Param1(dim_0=2)</text>
</g>
<!-- __main__.product_float(dim_0=2, dim_1=0) -->
<g id="node14" class="node">
<title>__main__.product_float(dim_0=2, dim_1=0)</title>
<ellipse fill="none" stroke="black" cx="888.5" cy="-378" rx="46.59" ry="18"/>
<text text-anchor="middle" x="888.5" y="-374.3" font-family="Times,serif" font-size="14.00">product</text>
</g>
<!-- Param1(dim_0=2)&#45;&gt;__main__.product_float(dim_0=2, dim_1=0) -->
<g id="edge13" class="edge">
<title>Param1(dim_0=2)&#45;&gt;__main__.product_float(dim_0=2, dim_1=0)</title>
<path fill="none" stroke="black" d="M960.02,-431.7C947.09,-422.17 930.95,-410.28 917.28,-400.2"/>
<polygon fill="black" stroke="black" points="919.26,-397.32 909.13,-394.2 915.11,-402.95 919.26,-397.32"/>
</g>
<!-- __main__.product_float(dim_0=2, dim_1=1) -->
<g id="node16" class="node">
<title>__main__.product_float(dim_0=2, dim_1=1)</title>
<ellipse fill="none" stroke="black" cx="1000.5" cy="-378" rx="46.59" ry="18"/>
<text text-anchor="middle" x="1000.5" y="-374.3" font-family="Times,serif" font-size="14.00">product</text>
</g>
<!-- Param1(dim_0=2)&#45;&gt;__main__.product_float(dim_0=2, dim_1=1) -->
<g id="edge16" class="edge">
<title>Param1(dim_0=2)&#45;&gt;__main__.product_float(dim_0=2, dim_1=1)</title>
<path fill="none" stroke="black" d="M987.7,-431.7C989.6,-423.9 991.88,-414.51 993.98,-405.83"/>
<polygon fill="black" stroke="black" points="997.39,-406.65 996.35,-396.1 990.58,-405 997.39,-406.65"/>
</g>
<!-- Param2(dim_1=0) -->
<g id="node4" class="node">
<title>Param2(dim_1=0)</title>
<polygon fill="none" stroke="black" points="538.5,-468 392.5,-468 392.5,-432 538.5,-432 538.5,-468"/>
<text text-anchor="middle" x="465.5" y="-446.3" font-family="Times,serif" font-size="14.00">Param2(dim_1=0)</text>
</g>
<!-- Param2(dim_1=0)&#45;&gt;__main__.product_float(dim_0=0, dim_1=0) -->
<g id="edge2" class="edge">
<title>Param2(dim_1=0)&#45;&gt;__main__.product_float(dim_0=0, dim_1=0)</title>
<path fill="none" stroke="black" d="M407.76,-431.89C372.92,-421.55 327.64,-408.07 287.5,-396 283.99,-394.94 280.35,-393.85 276.69,-392.74"/>
<polygon fill="black" stroke="black" points="277.63,-389.37 267.04,-389.82 275.6,-396.07 277.63,-389.37"/>
</g>
<!-- Param2(dim_1=0)&#45;&gt;__main__.product_float(dim_0=1, dim_1=0) -->
<g id="edge8" class="edge">
<title>Param2(dim_1=0)&#45;&gt;__main__.product_float(dim_0=1, dim_1=0)</title>
<path fill="none" stroke="black" d="M479.84,-431.7C486.89,-423.18 495.52,-412.76 503.24,-403.45"/>
<polygon fill="black" stroke="black" points="506.04,-405.56 509.73,-395.62 500.65,-401.09 506.04,-405.56"/>
</g>
<!-- Param2(dim_1=0)&#45;&gt;__main__.product_float(dim_0=2, dim_1=0) -->
<g id="edge14" class="edge">
<title>Param2(dim_1=0)&#45;&gt;__main__.product_float(dim_0=2, dim_1=0)</title>
<path fill="none" stroke="black" d="M538.78,-433.59C541.72,-433.04 544.64,-432.51 547.5,-432 655.87,-412.82 683.86,-413.6 792.5,-396 806.89,-393.67 822.45,-390.98 836.78,-388.45"/>
<polygon fill="black" stroke="black" points="837.73,-391.83 846.96,-386.63 836.5,-384.94 837.73,-391.83"/>
</g>
<!-- Param2(dim_1=1) -->
<g id="node5" class="node">
<title>Param2(dim_1=1)</title>
<polygon fill="none" stroke="black" points="866.5,-468 720.5,-468 720.5,-432 866.5,-432 866.5,-468"/>
<text text-anchor="middle" x="793.5" y="-446.3" font-family="Times,serif" font-size="14.00">Param2(dim_1=1)</text>
</g>
<!-- Param2(dim_1=1)&#45;&gt;__main__.product_float(dim_0=0, dim_1=1) -->
<g id="edge5" class="edge">
<title>Param2(dim_1=1)&#45;&gt;__main__.product_float(dim_0=0, dim_1=1)</title>
<path fill="none" stroke="black" d="M720.23,-433.58C717.28,-433.03 714.36,-432.5 711.5,-432 652.18,-421.59 483.8,-398.19 396.88,-386.28"/>
<polygon fill="black" stroke="black" points="397.33,-382.81 386.95,-384.92 396.38,-389.74 397.33,-382.81"/>
</g>
<!-- Param2(dim_1=1)&#45;&gt;__main__.product_float(dim_0=1, dim_1=1) -->
<g id="edge11" class="edge">
<title>Param2(dim_1=1)&#45;&gt;__main__.product_float(dim_0=1, dim_1=1)</title>
<path fill="none" stroke="black" d="M779.41,-431.7C772.47,-423.18 763.99,-412.76 756.41,-403.45"/>
<polygon fill="black" stroke="black" points="759.06,-401.17 750.04,-395.62 753.64,-405.59 759.06,-401.17"/>
</g>
<!-- Param2(dim_1=1)&#45;&gt;__main__.product_float(dim_0=2, dim_1=1) -->
<g id="edge17" class="edge">
<title>Param2(dim_1=1)&#45;&gt;__main__.product_float(dim_0=2, dim_1=1)</title>
<path fill="none" stroke="black" d="M843.87,-431.97C878.36,-420.3 923.65,-404.99 956.65,-393.83"/>
<polygon fill="black" stroke="black" points="958.12,-397.03 966.47,-390.51 955.88,-390.4 958.12,-397.03"/>
</g>
<!-- float(dim_0=0, dim_1=0) -->
<g id="node7" class="node">
<title>float(dim_0=0, dim_1=0)</title>
<polygon fill="none" stroke="black" points="195,-324 0,-324 0,-288 195,-288 195,-324"/>
<text text-anchor="middle" x="97.5" y="-302.3" font-family="Times,serif" font-size="14.00">float(dim_0=0, dim_1=0)</text>
</g>
<!-- __main__.product_float(dim_0=0, dim_1=0)&#45;&gt;float(dim_0=0, dim_1=0) -->
<g id="edge3" class="edge">
<title>__main__.product_float(dim_0=0, dim_1=0)&#45;&gt;float(dim_0=0, dim_1=0)</title>
<path fill="none" stroke="black" d="M204.71,-363C185.99,-353.23 160.64,-339.98 139.29,-328.83"/>
<polygon fill="black" stroke="black" points="140.9,-325.72 130.41,-324.19 137.66,-331.93 140.9,-325.72"/>
</g>
<!-- __main__.gather_reduce_1(dim_0=0) -->
<g id="node23" class="node">
<title>__main__.gather_reduce_1(dim_0=0)</title>
<ellipse fill="none" stroke="black" cx="310.5" cy="-234" rx="41.69" ry="18"/>
<text text-anchor="middle" x="310.5" y="-230.3" font-family="Times,serif" font-size="14.00">gather</text>
</g>
<!-- float(dim_0=0, dim_1=0)&#45;&gt;__main__.gather_reduce_1(dim_0=0) -->
<g id="edge23" class="edge">
<title>float(dim_0=0, dim_1=0)&#45;&gt;__main__.gather_reduce_1(dim_0=0)</title>
<path fill="none" stroke="black" d="M149.33,-287.97C185.98,-275.92 234.48,-259.98 268.67,-248.75"/>
<polygon fill="black" stroke="black" points="269.95,-252.01 278.35,-245.56 267.76,-245.36 269.95,-252.01"/>
</g>
<!-- float(dim_0=0, dim_1=1) -->
<g id="node9" class="node">
<title>float(dim_0=0, dim_1=1)</title>
<polygon fill="none" stroke="black" points="408,-324 213,-324 213,-288 408,-288 408,-324"/>
<text text-anchor="middle" x="310.5" y="-302.3" font-family="Times,serif" font-size="14.00">float(dim_0=0, dim_1=1)</text>
</g>
<!-- __main__.product_float(dim_0=0, dim_1=1)&#45;&gt;float(dim_0=0, dim_1=1) -->
<g id="edge6" class="edge">
<title>__main__.product_float(dim_0=0, dim_1=1)&#45;&gt;float(dim_0=0, dim_1=1)</title>
<path fill="none" stroke="black" d="M335.51,-360.05C331.76,-352.09 327.19,-342.41 323,-333.51"/>
<polygon fill="black" stroke="black" points="326.07,-331.83 318.64,-324.28 319.74,-334.81 326.07,-331.83"/>
</g>
<!-- float(dim_0=0, dim_1=1)&#45;&gt;__main__.gather_reduce_1(dim_0=0) -->
<g id="edge24" class="edge">
<title>float(dim_0=0, dim_1=1)&#45;&gt;__main__.gather_reduce_1(dim_0=0)</title>
<path fill="none" stroke="black" d="M310.5,-287.7C310.5,-279.98 310.5,-270.71 310.5,-262.11"/>
<polygon fill="black" stroke="black" points="314,-262.1 310.5,-252.1 307,-262.1 314,-262.1"/>
</g>
<!-- float(dim_0=1, dim_1=0) -->
<g id="node11" class="node">
<title>float(dim_0=1, dim_1=0)</title>
<polygon fill="none" stroke="black" points="621,-324 426,-324 426,-288 621,-288 621,-324"/>
<text text-anchor="middle" x="523.5" y="-302.3" font-family="Times,serif" font-size="14.00">float(dim_0=1, dim_1=0)</text>
</g>
<!-- __main__.product_float(dim_0=1, dim_1=0)&#45;&gt;float(dim_0=1, dim_1=0) -->
<g id="edge9" class="edge">
<title>__main__.product_float(dim_0=1, dim_1=0)&#45;&gt;float(dim_0=1, dim_1=0)</title>
<path fill="none" stroke="black" d="M523.5,-359.7C523.5,-351.98 523.5,-342.71 523.5,-334.11"/>
<polygon fill="black" stroke="black" points="527,-334.1 523.5,-324.1 520,-334.1 527,-334.1"/>
</g>
<!-- __main__.gather_reduce_1(dim_0=1) -->
<g id="node24" class="node">
<title>__main__.gather_reduce_1(dim_0=1)</title>
<ellipse fill="none" stroke="black" cx="629.5" cy="-234" rx="41.69" ry="18"/>
<text text-anchor="middle" x="629.5" y="-230.3" font-family="Times,serif" font-size="14.00">gather</text>
</g>
<!-- float(dim_0=1, dim_1=0)&#45;&gt;__main__.gather_reduce_1(dim_0=1) -->
<g id="edge26" class="edge">
<title>float(dim_0=1, dim_1=0)&#45;&gt;__main__.gather_reduce_1(dim_0=1)</title>
<path fill="none" stroke="black" d="M549.43,-287.88C564.53,-277.9 583.64,-265.29 599.4,-254.88"/>
<polygon fill="black" stroke="black" points="601.35,-257.78 607.77,-249.35 597.49,-251.94 601.35,-257.78"/>
</g>
<!-- float(dim_0=1, dim_1=1) -->
<g id="node13" class="node">
<title>float(dim_0=1, dim_1=1)</title>
<polygon fill="none" stroke="black" points="834,-324 639,-324 639,-288 834,-288 834,-324"/>
<text text-anchor="middle" x="736.5" y="-302.3" font-family="Times,serif" font-size="14.00">float(dim_0=1, dim_1=1)</text>
</g>
<!-- __main__.product_float(dim_0=1, dim_1=1)&#45;&gt;float(dim_0=1, dim_1=1) -->
<g id="edge12" class="edge">
<title>__main__.product_float(dim_0=1, dim_1=1)&#45;&gt;float(dim_0=1, dim_1=1)</title>
<path fill="none" stroke="black" d="M736.5,-359.7C736.5,-351.98 736.5,-342.71 736.5,-334.11"/>
<polygon fill="black" stroke="black" points="740,-334.1 736.5,-324.1 733,-334.1 740,-334.1"/>
</g>
<!-- float(dim_0=1, dim_1=1)&#45;&gt;__main__.gather_reduce_1(dim_0=1) -->
<g id="edge27" class="edge">
<title>float(dim_0=1, dim_1=1)&#45;&gt;__main__.gather_reduce_1(dim_0=1)</title>
<path fill="none" stroke="black" d="M710.32,-287.88C695.08,-277.9 675.79,-265.29 659.88,-254.88"/>
<polygon fill="black" stroke="black" points="661.72,-251.9 651.44,-249.35 657.89,-257.76 661.72,-251.9"/>
</g>
<!-- float(dim_0=2, dim_1=0) -->
<g id="node15" class="node">
<title>float(dim_0=2, dim_1=0)</title>
<polygon fill="none" stroke="black" points="1047,-324 852,-324 852,-288 1047,-288 1047,-324"/>
<text text-anchor="middle" x="949.5" y="-302.3" font-family="Times,serif" font-size="14.00">float(dim_0=2, dim_1=0)</text>
</g>
<!-- __main__.product_float(dim_0=2, dim_1=0)&#45;&gt;float(dim_0=2, dim_1=0) -->
<g id="edge15" class="edge">
<title>__main__.product_float(dim_0=2, dim_1=0)&#45;&gt;float(dim_0=2, dim_1=0)</title>
<path fill="none" stroke="black" d="M902.65,-360.76C910.13,-352.18 919.47,-341.46 927.84,-331.86"/>
<polygon fill="black" stroke="black" points="930.65,-333.96 934.58,-324.12 925.37,-329.36 930.65,-333.96"/>
</g>
<!-- __main__.gather_reduce_1(dim_0=2) -->
<g id="node25" class="node">
<title>__main__.gather_reduce_1(dim_0=2)</title>
<ellipse fill="none" stroke="black" cx="949.5" cy="-234" rx="41.69" ry="18"/>
<text text-anchor="middle" x="949.5" y="-230.3" font-family="Times,serif" font-size="14.00">gather</text>
</g>
<!-- float(dim_0=2, dim_1=0)&#45;&gt;__main__.gather_reduce_1(dim_0=2) -->
<g id="edge29" class="edge">
<title>float(dim_0=2, dim_1=0)&#45;&gt;__main__.gather_reduce_1(dim_0=2)</title>
<path fill="none" stroke="black" d="M949.5,-287.7C949.5,-279.98 949.5,-270.71 949.5,-262.11"/>
<polygon fill="black" stroke="black" points="953,-262.1 949.5,-252.1 946,-262.1 953,-262.1"/>
</g>
<!-- float(dim_0=2, dim_1=1) -->
<g id="node17" class="node">
<title>float(dim_0=2, dim_1=1)</title>
<polygon fill="none" stroke="black" points="1260,-324 1065,-324 1065,-288 1260,-288 1260,-324"/>
<text text-anchor="middle" x="1162.5" y="-302.3" font-family="Times,serif" font-size="14.00">float(dim_0=2, dim_1=1)</text>
</g>
<!-- __main__.product_float(dim_0=2, dim_1=1)&#45;&gt;float(dim_0=2, dim_1=1) -->
<g id="edge18" class="edge">
<title>__main__.product_float(dim_0=2, dim_1=1)&#45;&gt;float(dim_0=2, dim_1=1)</title>
<path fill="none" stroke="black" d="M1030.59,-364C1053.92,-353.92 1086.72,-339.74 1113.78,-328.05"/>
<polygon fill="black" stroke="black" points="1115.29,-331.21 1123.08,-324.03 1112.52,-324.79 1115.29,-331.21"/>
</g>
<!-- float(dim_0=2, dim_1=1)&#45;&gt;__main__.gather_reduce_1(dim_0=2) -->
<g id="edge30" class="edge">
<title>float(dim_0=2, dim_1=1)&#45;&gt;__main__.gather_reduce_1(dim_0=2)</title>
<path fill="none" stroke="black" d="M1110.67,-287.97C1074.02,-275.92 1025.52,-259.98 991.33,-248.75"/>
<polygon fill="black" stroke="black" points="992.24,-245.36 981.65,-245.56 990.05,-252.01 992.24,-245.36"/>
</g>
<!-- __main__.gather_reduce_0 -->
<g id="node18" class="node">
<title>__main__.gather_reduce_0</title>
<ellipse fill="none" stroke="black" cx="629.5" cy="-90" rx="41.69" ry="18"/>
<text text-anchor="middle" x="629.5" y="-86.3" font-family="Times,serif" font-size="14.00">gather</text>
</g>
<!-- reduce_0 -->
<g id="node22" class="node">
<title>reduce_0</title>
<polygon fill="none" stroke="black" points="670,-36 589,-36 589,0 670,0 670,-36"/>
<text text-anchor="middle" x="629.5" y="-14.3" font-family="Times,serif" font-size="14.00">reduce_0</text>
</g>
<!-- __main__.gather_reduce_0&#45;&gt;reduce_0 -->
<g id="edge22" class="edge">
<title>__main__.gather_reduce_0&#45;&gt;reduce_0</title>
<path fill="none" stroke="black" d="M629.5,-71.7C629.5,-63.98 629.5,-54.71 629.5,-46.11"/>
<polygon fill="black" stroke="black" points="633,-46.1 629.5,-36.1 626,-46.1 633,-46.1"/>
</g>
<!-- reduce_1(dim_0=0) -->
<g id="node19" class="node">
<title>reduce_1(dim_0=0)</title>
<polygon fill="none" stroke="black" points="514,-180 359,-180 359,-144 514,-144 514,-180"/>
<text text-anchor="middle" x="436.5" y="-158.3" font-family="Times,serif" font-size="14.00">reduce_1(dim_0=0)</text>
</g>
<!-- reduce_1(dim_0=0)&#45;&gt;__main__.gather_reduce_0 -->
<g id="edge19" class="edge">
<title>reduce_1(dim_0=0)&#45;&gt;__main__.gather_reduce_0</title>
<path fill="none" stroke="black" d="M483.71,-143.88C516.04,-132.15 558.45,-116.77 589.19,-105.62"/>
<polygon fill="black" stroke="black" points="590.52,-108.86 598.73,-102.16 588.13,-102.28 590.52,-108.86"/>
</g>
<!-- reduce_1(dim_0=1) -->
<g id="node20" class="node">
<title>reduce_1(dim_0=1)</title>
<polygon fill="none" stroke="black" points="707,-180 552,-180 552,-144 707,-144 707,-180"/>
<text text-anchor="middle" x="629.5" y="-158.3" font-family="Times,serif" font-size="14.00">reduce_1(dim_0=1)</text>
</g>
<!-- reduce_1(dim_0=1)&#45;&gt;__main__.gather_reduce_0 -->
<g id="edge20" class="edge">
<title>reduce_1(dim_0=1)&#45;&gt;__main__.gather_reduce_0</title>
<path fill="none" stroke="black" d="M629.5,-143.7C629.5,-135.98 629.5,-126.71 629.5,-118.11"/>
<polygon fill="black" stroke="black" points="633,-118.1 629.5,-108.1 626,-118.1 633,-118.1"/>
</g>
<!-- reduce_1(dim_0=2) -->
<g id="node21" class="node">
<title>reduce_1(dim_0=2)</title>
<polygon fill="none" stroke="black" points="954,-180 799,-180 799,-144 954,-144 954,-180"/>
<text text-anchor="middle" x="876.5" y="-158.3" font-family="Times,serif" font-size="14.00">reduce_1(dim_0=2)</text>
</g>
<!-- reduce_1(dim_0=2)&#45;&gt;__main__.gather_reduce_0 -->
<g id="edge21" class="edge">
<title>reduce_1(dim_0=2)&#45;&gt;__main__.gather_reduce_0</title>
<path fill="none" stroke="black" d="M816.39,-143.97C772.03,-131.39 712.69,-114.58 672.89,-103.3"/>
<polygon fill="black" stroke="black" points="673.79,-99.91 663.21,-100.55 671.88,-106.65 673.79,-99.91"/>
</g>
<!-- __main__.gather_reduce_1(dim_0=0)&#45;&gt;reduce_1(dim_0=0) -->
<g id="edge25" class="edge">
<title>__main__.gather_reduce_1(dim_0=0)&#45;&gt;reduce_1(dim_0=0)</title>
<path fill="none" stroke="black" d="M335.09,-219.34C352.61,-209.61 376.52,-196.32 396.73,-185.09"/>
<polygon fill="black" stroke="black" points="398.68,-188.02 405.72,-180.1 395.28,-181.9 398.68,-188.02"/>
</g>
<!-- __main__.gather_reduce_1(dim_0=1)&#45;&gt;reduce_1(dim_0=1) -->
<g id="edge28" class="edge">
<title>__main__.gather_reduce_1(dim_0=1)&#45;&gt;reduce_1(dim_0=1)</title>
<path fill="none" stroke="black" d="M629.5,-215.7C629.5,-207.98 629.5,-198.71 629.5,-190.11"/>
<polygon fill="black" stroke="black" points="633,-190.1 629.5,-180.1 626,-190.1 633,-190.1"/>
</g>
<!-- __main__.gather_reduce_1(dim_0=2)&#45;&gt;reduce_1(dim_0=2) -->
<g id="edge31" class="edge">
<title>__main__.gather_reduce_1(dim_0=2)&#45;&gt;reduce_1(dim_0=2)</title>
<path fill="none" stroke="black" d="M932.94,-217.12C923.66,-208.22 911.91,-196.95 901.53,-187"/>
<polygon fill="black" stroke="black" points="903.91,-184.44 894.27,-180.04 899.07,-189.49 903.91,-184.44"/>
</g>
</g>
</svg>
