<?xml version="1.0" encoding="UTF-8" standalone="no"?>
<!DOCTYPE svg PUBLIC "-//W3C//DTD SVG 1.1//EN"
 "http://www.w3.org/Graphics/SVG/1.1/DTD/svg11.dtd">
<!-- Generated by graphviz version 2.43.0 (0)
 -->
<!-- Title: %3 Pages: 1 -->
<svg width="284pt" height="120pt"
 viewBox="0.00 0.00 284.00 120.00" xmlns="http://www.w3.org/2000/svg" xmlns:xlink="http://www.w3.org/1999/xlink">
<g id="graph0" class="graph" transform="scale(1 1) rotate(0) translate(4 116)">
<title>%3</title>
<polygon fill="white" stroke="transparent" points="-4,4 -4,-116 280,-116 280,4 -4,4"/>
<g id="clust1" class="cluster">
<title>cluster_Int</title>
<polygon fill="#f0f0ff" stroke="#f0f0ff" points="8,-8 8,-104 125,-104 125,-8 8,-8"/>
<text text-anchor="middle" x="66.5" y="-88.8" font-family="Times,serif" font-size="14.00">Int</text>
</g>
<!-- Int[A] -->
<g id="node1" class="node">
<title>Int[A]</title>
<polygon fill="none" stroke="black" points="84,-72.5 49,-72.5 49,-51.5 84,-51.5 84,-72.5"/>
<text text-anchor="start" x="57" y="-58.9" font-family="Times,serif" font-size="12.00">[A]</text>
</g>
<!-- str -->
<g id="node3" class="node">
<title>str</title>
<polygon fill="none" stroke="black" points="276,-63.5 189,-63.5 189,-30.5 276,-30.5 276,-63.5"/>
<text text-anchor="start" x="222" y="-49.3" font-family="Times,serif" font-size="14.00">str</text>
<text text-anchor="start" x="197" y="-37.7" font-family="Times,serif" font-size="11.00">via:</text>
<text text-anchor="start" x="218" y="-37.7" font-family="Times,serif" font-style="italic" font-size="11.00">to_string</text>
</g>
<!-- Int[A]&#45;&gt;str -->
<g id="edge1" class="edge">
<title>Int[A]:e&#45;&gt;str:w</title>
<path fill="none" stroke="black" d="M85.5,-62C128.35,-62 140.65,-49.25 178.73,-47.26"/>
<polygon fill="black" stroke="black" points="179.09,-50.75 189,-47 178.91,-43.75 179.09,-50.75"/>
</g>
<!-- Int[B] -->
<g id="node2" class="node">
<title>Int[B]</title>
<polygon fill="none" stroke="black" points="117,-47.5 16,-47.5 16,-16.5 117,-16.5 117,-47.5"/>
<text text-anchor="start" x="57" y="-34.9" font-family="Times,serif" font-size="12.00">[B]</text>
<text text-anchor="start" x="24" y="-23.7" font-family="Times,serif" font-size="11.00">via:</text>
<text text-anchor="start" x="45" y="-23.7" font-family="Times,serif" font-style="italic" font-size="11.00">make_int_b</text>
</g>
<!-- Int[B]&#45;&gt;str -->
<g id="edge2" class="edge">
<title>Int[B]:e&#45;&gt;str:w</title>
<path fill="none" stroke="black" d="M118.5,-32C146.78,-32 155.11,-43.69 178.71,-46.43"/>
<polygon fill="black" stroke="black" points="178.82,-49.94 189,-47 179.21,-42.95 178.82,-49.94"/>
</g>
</g>
</svg>
