<?xml version="1.0" encoding="UTF-8" standalone="no"?>
<!DOCTYPE svg PUBLIC "-//W3C//DTD SVG 1.1//EN"
 "http://www.w3.org/Graphics/SVG/1.1/DTD/svg11.dtd">
<!-- Generated by graphviz version 2.43.0 (0)
 -->
<!-- Title: %3 Pages: 1 -->
<svg width="1298pt" height="431pt"
 viewBox="0.00 0.00 1298.00 431.00" xmlns="http://www.w3.org/2000/svg" xmlns:xlink="http://www.w3.org/1999/xlink">
<g id="graph0" class="graph" transform="scale(1 1) rotate(0) translate(4 427)">
<title>%3</title>
<polygon fill="white" stroke="transparent" points="-4,4 -4,-427 1294,-427 1294,4 -4,4"/>
<g id="clust5" class="cluster">
<title>cluster_CleanedData</title>
<polygon fill="#f0f0ff" stroke="#f0f0ff" points="287,-199 287,-269 1003,-269 1003,-199 287,-199"/>
<text text-anchor="middle" x="645" y="-253.8" font-family="Times,serif" font-size="14.00">CleanedData</text>
</g>
<g id="clust6" class="cluster">
<title>cluster_Filename</title>
<polygon fill="#f0f0ff" stroke="#f0f0ff" points="306,-355 306,-415 984,-415 984,-355 306,-355"/>
<text text-anchor="middle" x="645" y="-399.8" font-family="Times,serif" font-size="14.00">Filename</text>
</g>
<g id="clust7" class="cluster">
<title>cluster_RawData</title>
<polygon fill="#f0f0ff" stroke="#f0f0ff" points="306,-277 306,-347 984,-347 984,-277 306,-277"/>
<text text-anchor="start" x="612.5" y="-332.8" font-family="Times,serif" font-size="14.00">RawData</text>
<text text-anchor="start" x="622" y="-321.2" font-family="Times,serif" font-size="11.00">via:</text>
<text text-anchor="start" x="643" y="-321.2" font-family="Times,serif" font-style="italic" font-size="11.00">load</text>
</g>
<!-- CleanedData[Sample](dim_0=0) -->
<g id="node1" class="node">
<title>CleanedData[Sample](dim_0=0)</title>
<polygon fill="none" stroke="black" points="568.5,-238 435.5,-238 435.5,-207 568.5,-207 568.5,-238"/>
<text text-anchor="start" x="443.5" y="-225.4" font-family="Times,serif" font-size="12.00">[Sample](dim_0=0)</text>
<text text-anchor="start" x="461" y="-214.2" font-family="Times,serif" font-size="11.00">via:</text>
<text text-anchor="start" x="482" y="-214.2" font-family="Times,serif" font-style="italic" font-size="11.00">clean_data</text>
</g>
<!-- BackgroundSubtractedData(dim_0=0) -->
<g id="node2" class="node">
<title>BackgroundSubtractedData(dim_0=0)</title>
<polygon fill="none" stroke="black" points="587,-171 297,-171 297,-138 587,-138 587,-171"/>
<text text-anchor="start" x="305" y="-156.8" font-family="Times,serif" font-size="14.00">BackgroundSubtractedData(dim_0=0)</text>
<text text-anchor="start" x="372.5" y="-145.2" font-family="Times,serif" font-size="11.00">via:</text>
<text text-anchor="start" x="393.5" y="-145.2" font-family="Times,serif" font-style="italic" font-size="11.00">subtract_background</text>
</g>
<!-- CleanedData[Sample](dim_0=0)&#45;&gt;BackgroundSubtractedData(dim_0=0) -->
<g id="edge1" class="edge">
<title>CleanedData[Sample](dim_0=0)&#45;&gt;BackgroundSubtractedData(dim_0=0)</title>
<path fill="none" stroke="black" d="M488.68,-206.85C481.13,-198.55 471.51,-187.96 462.97,-178.57"/>
<polygon fill="black" stroke="black" points="465.43,-176.07 456.11,-171.03 460.25,-180.78 465.43,-176.07"/>
</g>
<!-- Result(dim_0=0) -->
<g id="node20" class="node">
<title>Result(dim_0=0)</title>
<polygon fill="none" stroke="black" points="641.5,-102 504.5,-102 504.5,-69 641.5,-69 641.5,-102"/>
<text text-anchor="start" x="512.5" y="-87.8" font-family="Times,serif" font-size="14.00">Result(dim_0=0)</text>
<text text-anchor="start" x="540.5" y="-76.2" font-family="Times,serif" font-size="11.00">via:</text>
<text text-anchor="start" x="561.5" y="-76.2" font-family="Times,serif" font-style="italic" font-size="11.00">process</text>
</g>
<!-- BackgroundSubtractedData(dim_0=0)&#45;&gt;Result(dim_0=0) -->
<g id="edge19" class="edge">
<title>BackgroundSubtractedData(dim_0=0)&#45;&gt;Result(dim_0=0)</title>
<path fill="none" stroke="black" d="M472.38,-137.96C490.52,-128.68 513.76,-116.8 533.34,-106.79"/>
<polygon fill="black" stroke="black" points="535.02,-109.86 542.33,-102.19 531.83,-103.62 535.02,-109.86"/>
</g>
<!-- CleanedData[Background] -->
<g id="node3" class="node">
<title>CleanedData[Background]</title>
<polygon fill="none" stroke="black" points="714,-238 576,-238 576,-207 714,-207 714,-238"/>
<text text-anchor="start" x="603" y="-225.4" font-family="Times,serif" font-size="12.00">[Background]</text>
<text text-anchor="start" x="584" y="-214.2" font-family="Times,serif" font-size="11.00">via:</text>
<text text-anchor="start" x="605" y="-214.2" font-family="Times,serif" font-style="italic" font-size="11.00">clean_background</text>
</g>
<!-- CleanedData[Background]&#45;&gt;BackgroundSubtractedData(dim_0=0) -->
<g id="edge2" class="edge">
<title>CleanedData[Background]&#45;&gt;BackgroundSubtractedData(dim_0=0)</title>
<path fill="none" stroke="black" d="M600.2,-206.93C570.57,-197.3 531.45,-184.58 499.53,-174.2"/>
<polygon fill="black" stroke="black" points="500.46,-170.83 489.87,-171.06 498.3,-177.48 500.46,-170.83"/>
</g>
<!-- BackgroundSubtractedData(dim_0=1) -->
<g id="node5" class="node">
<title>BackgroundSubtractedData(dim_0=1)</title>
<polygon fill="none" stroke="black" points="993,-171 703,-171 703,-138 993,-138 993,-171"/>
<text text-anchor="start" x="711" y="-156.8" font-family="Times,serif" font-size="14.00">BackgroundSubtractedData(dim_0=1)</text>
<text text-anchor="start" x="778.5" y="-145.2" font-family="Times,serif" font-size="11.00">via:</text>
<text text-anchor="start" x="799.5" y="-145.2" font-family="Times,serif" font-style="italic" font-size="11.00">subtract_background</text>
</g>
<!-- CleanedData[Background]&#45;&gt;BackgroundSubtractedData(dim_0=1) -->
<g id="edge4" class="edge">
<title>CleanedData[Background]&#45;&gt;BackgroundSubtractedData(dim_0=1)</title>
<path fill="none" stroke="black" d="M689.8,-206.93C719.43,-197.3 758.55,-184.58 790.47,-174.2"/>
<polygon fill="black" stroke="black" points="791.7,-177.48 800.13,-171.06 789.54,-170.83 791.7,-177.48"/>
</g>
<!-- BackgroundSubtractedData(dim_0=2) -->
<g id="node7" class="node">
<title>BackgroundSubtractedData(dim_0=2)</title>
<polygon fill="none" stroke="black" points="1290,-171 1000,-171 1000,-138 1290,-138 1290,-171"/>
<text text-anchor="start" x="1008" y="-156.8" font-family="Times,serif" font-size="14.00">BackgroundSubtractedData(dim_0=2)</text>
<text text-anchor="start" x="1075.5" y="-145.2" font-family="Times,serif" font-size="11.00">via:</text>
<text text-anchor="start" x="1096.5" y="-145.2" font-family="Times,serif" font-style="italic" font-size="11.00">subtract_background</text>
</g>
<!-- CleanedData[Background]&#45;&gt;BackgroundSubtractedData(dim_0=2) -->
<g id="edge6" class="edge">
<title>CleanedData[Background]&#45;&gt;BackgroundSubtractedData(dim_0=2)</title>
<path fill="none" stroke="black" d="M687.09,-206.97C697.12,-203.94 707.86,-201.05 718,-199 836.39,-175.04 870.61,-183.16 989.65,-171.62"/>
<polygon fill="black" stroke="black" points="990.3,-175.08 999.9,-170.6 989.6,-168.11 990.3,-175.08"/>
</g>
<!-- BackgroundSubtractedData(dim_0=3) -->
<g id="node9" class="node">
<title>BackgroundSubtractedData(dim_0=3)</title>
<polygon fill="none" stroke="black" points="290,-171 0,-171 0,-138 290,-138 290,-171"/>
<text text-anchor="start" x="8" y="-156.8" font-family="Times,serif" font-size="14.00">BackgroundSubtractedData(dim_0=3)</text>
<text text-anchor="start" x="75.5" y="-145.2" font-family="Times,serif" font-size="11.00">via:</text>
<text text-anchor="start" x="96.5" y="-145.2" font-family="Times,serif" font-style="italic" font-size="11.00">subtract_background</text>
</g>
<!-- CleanedData[Background]&#45;&gt;BackgroundSubtractedData(dim_0=3) -->
<g id="edge8" class="edge">
<title>CleanedData[Background]&#45;&gt;BackgroundSubtractedData(dim_0=3)</title>
<path fill="none" stroke="black" d="M602.91,-206.97C592.88,-203.94 582.14,-201.05 572,-199 453.61,-175.04 419.39,-183.16 300.35,-171.62"/>
<polygon fill="black" stroke="black" points="300.4,-168.11 290.1,-170.6 299.7,-175.08 300.4,-168.11"/>
</g>
<!-- CleanedData[Sample](dim_0=1) -->
<g id="node4" class="node">
<title>CleanedData[Sample](dim_0=1)</title>
<polygon fill="none" stroke="black" points="854.5,-238 721.5,-238 721.5,-207 854.5,-207 854.5,-238"/>
<text text-anchor="start" x="729.5" y="-225.4" font-family="Times,serif" font-size="12.00">[Sample](dim_0=1)</text>
<text text-anchor="start" x="747" y="-214.2" font-family="Times,serif" font-size="11.00">via:</text>
<text text-anchor="start" x="768" y="-214.2" font-family="Times,serif" font-style="italic" font-size="11.00">clean_data</text>
</g>
<!-- CleanedData[Sample](dim_0=1)&#45;&gt;BackgroundSubtractedData(dim_0=1) -->
<g id="edge3" class="edge">
<title>CleanedData[Sample](dim_0=1)&#45;&gt;BackgroundSubtractedData(dim_0=1)</title>
<path fill="none" stroke="black" d="M801.32,-206.85C808.87,-198.55 818.49,-187.96 827.03,-178.57"/>
<polygon fill="black" stroke="black" points="829.75,-180.78 833.89,-171.03 824.57,-176.07 829.75,-180.78"/>
</g>
<!-- Result(dim_0=1) -->
<g id="node22" class="node">
<title>Result(dim_0=1)</title>
<polygon fill="none" stroke="black" points="785.5,-102 648.5,-102 648.5,-69 785.5,-69 785.5,-102"/>
<text text-anchor="start" x="656.5" y="-87.8" font-family="Times,serif" font-size="14.00">Result(dim_0=1)</text>
<text text-anchor="start" x="684.5" y="-76.2" font-family="Times,serif" font-size="11.00">via:</text>
<text text-anchor="start" x="705.5" y="-76.2" font-family="Times,serif" font-style="italic" font-size="11.00">process</text>
</g>
<!-- BackgroundSubtractedData(dim_0=1)&#45;&gt;Result(dim_0=1) -->
<g id="edge21" class="edge">
<title>BackgroundSubtractedData(dim_0=1)&#45;&gt;Result(dim_0=1)</title>
<path fill="none" stroke="black" d="M817.62,-137.96C799.48,-128.68 776.24,-116.8 756.66,-106.79"/>
<polygon fill="black" stroke="black" points="758.17,-103.62 747.67,-102.19 754.98,-109.86 758.17,-103.62"/>
</g>
<!-- CleanedData[Sample](dim_0=2) -->
<g id="node6" class="node">
<title>CleanedData[Sample](dim_0=2)</title>
<polygon fill="none" stroke="black" points="994.5,-238 861.5,-238 861.5,-207 994.5,-207 994.5,-238"/>
<text text-anchor="start" x="869.5" y="-225.4" font-family="Times,serif" font-size="12.00">[Sample](dim_0=2)</text>
<text text-anchor="start" x="887" y="-214.2" font-family="Times,serif" font-size="11.00">via:</text>
<text text-anchor="start" x="908" y="-214.2" font-family="Times,serif" font-style="italic" font-size="11.00">clean_data</text>
</g>
<!-- CleanedData[Sample](dim_0=2)&#45;&gt;BackgroundSubtractedData(dim_0=2) -->
<g id="edge5" class="edge">
<title>CleanedData[Sample](dim_0=2)&#45;&gt;BackgroundSubtractedData(dim_0=2)</title>
<path fill="none" stroke="black" d="M975.89,-206.93C1007.7,-197.26 1049.74,-184.47 1083.94,-174.07"/>
<polygon fill="black" stroke="black" points="1085.28,-177.32 1093.83,-171.06 1083.24,-170.63 1085.28,-177.32"/>
</g>
<!-- Result(dim_0=2) -->
<g id="node23" class="node">
<title>Result(dim_0=2)</title>
<polygon fill="none" stroke="black" points="929.5,-102 792.5,-102 792.5,-69 929.5,-69 929.5,-102"/>
<text text-anchor="start" x="800.5" y="-87.8" font-family="Times,serif" font-size="14.00">Result(dim_0=2)</text>
<text text-anchor="start" x="828.5" y="-76.2" font-family="Times,serif" font-size="11.00">via:</text>
<text text-anchor="start" x="849.5" y="-76.2" font-family="Times,serif" font-style="italic" font-size="11.00">process</text>
</g>
<!-- BackgroundSubtractedData(dim_0=2)&#45;&gt;Result(dim_0=2) -->
<g id="edge23" class="edge">
<title>BackgroundSubtractedData(dim_0=2)&#45;&gt;Result(dim_0=2)</title>
<path fill="none" stroke="black" d="M1079.13,-137.96C1036.63,-127.93 981.21,-114.86 936.86,-104.4"/>
<polygon fill="black" stroke="black" points="937.54,-100.96 927,-102.07 935.93,-107.77 937.54,-100.96"/>
</g>
<!-- CleanedData[Sample](dim_0=3) -->
<g id="node8" class="node">
<title>CleanedData[Sample](dim_0=3)</title>
<polygon fill="none" stroke="black" points="428.5,-238 295.5,-238 295.5,-207 428.5,-207 428.5,-238"/>
<text text-anchor="start" x="303.5" y="-225.4" font-family="Times,serif" font-size="12.00">[Sample](dim_0=3)</text>
<text text-anchor="start" x="321" y="-214.2" font-family="Times,serif" font-size="11.00">via:</text>
<text text-anchor="start" x="342" y="-214.2" font-family="Times,serif" font-style="italic" font-size="11.00">clean_data</text>
</g>
<!-- CleanedData[Sample](dim_0=3)&#45;&gt;BackgroundSubtractedData(dim_0=3) -->
<g id="edge7" class="edge">
<title>CleanedData[Sample](dim_0=3)&#45;&gt;BackgroundSubtractedData(dim_0=3)</title>
<path fill="none" stroke="black" d="M314.11,-206.93C282.3,-197.26 240.26,-184.47 206.06,-174.07"/>
<polygon fill="black" stroke="black" points="206.76,-170.63 196.17,-171.06 204.72,-177.32 206.76,-170.63"/>
</g>
<!-- Result(dim_0=3) -->
<g id="node24" class="node">
<title>Result(dim_0=3)</title>
<polygon fill="none" stroke="black" points="497.5,-102 360.5,-102 360.5,-69 497.5,-69 497.5,-102"/>
<text text-anchor="start" x="368.5" y="-87.8" font-family="Times,serif" font-size="14.00">Result(dim_0=3)</text>
<text text-anchor="start" x="396.5" y="-76.2" font-family="Times,serif" font-size="11.00">via:</text>
<text text-anchor="start" x="417.5" y="-76.2" font-family="Times,serif" font-style="italic" font-size="11.00">process</text>
</g>
<!-- BackgroundSubtractedData(dim_0=3)&#45;&gt;Result(dim_0=3) -->
<g id="edge25" class="edge">
<title>BackgroundSubtractedData(dim_0=3)&#45;&gt;Result(dim_0=3)</title>
<path fill="none" stroke="black" d="M210.87,-137.96C253.37,-127.93 308.79,-114.86 353.14,-104.4"/>
<polygon fill="black" stroke="black" points="354.07,-107.77 363,-102.07 352.46,-100.96 354.07,-107.77"/>
</g>
<!-- RawData[Background] -->
<g id="node10" class="node">
<title>RawData[Background]</title>
<polygon fill="none" stroke="black" points="695,-306 595,-306 595,-285 695,-285 695,-306"/>
<text text-anchor="start" x="603" y="-292.4" font-family="Times,serif" font-size="12.00">[Background]</text>
</g>
<!-- RawData[Background]&#45;&gt;CleanedData[Background] -->
<g id="edge9" class="edge">
<title>RawData[Background]&#45;&gt;CleanedData[Background]</title>
<path fill="none" stroke="black" d="M645,-284.92C645,-275.52 645,-260.78 645,-248.1"/>
<polygon fill="black" stroke="black" points="648.5,-248.09 645,-238.09 641.5,-248.09 648.5,-248.09"/>
</g>
<!-- RawData[Sample](dim_0=0) -->
<g id="node11" class="node">
<title>RawData[Sample](dim_0=0)</title>
<polygon fill="none" stroke="black" points="587.5,-306 454.5,-306 454.5,-285 587.5,-285 587.5,-306"/>
<text text-anchor="start" x="462.5" y="-292.4" font-family="Times,serif" font-size="12.00">[Sample](dim_0=0)</text>
</g>
<!-- RawData[Sample](dim_0=0)&#45;&gt;CleanedData[Sample](dim_0=0) -->
<g id="edge10" class="edge">
<title>RawData[Sample](dim_0=0)&#45;&gt;CleanedData[Sample](dim_0=0)</title>
<path fill="none" stroke="black" d="M518.44,-284.92C515.92,-275.52 511.98,-260.78 508.58,-248.1"/>
<polygon fill="black" stroke="black" points="511.87,-246.84 505.9,-238.09 505.11,-248.65 511.87,-246.84"/>
</g>
<!-- RawData[Sample](dim_0=1) -->
<g id="node12" class="node">
<title>RawData[Sample](dim_0=1)</title>
<polygon fill="none" stroke="black" points="835.5,-306 702.5,-306 702.5,-285 835.5,-285 835.5,-306"/>
<text text-anchor="start" x="710.5" y="-292.4" font-family="Times,serif" font-size="12.00">[Sample](dim_0=1)</text>
</g>
<!-- RawData[Sample](dim_0=1)&#45;&gt;CleanedData[Sample](dim_0=1) -->
<g id="edge11" class="edge">
<title>RawData[Sample](dim_0=1)&#45;&gt;CleanedData[Sample](dim_0=1)</title>
<path fill="none" stroke="black" d="M771.56,-284.92C774.08,-275.52 778.02,-260.78 781.42,-248.1"/>
<polygon fill="black" stroke="black" points="784.89,-248.65 784.1,-238.09 778.13,-246.84 784.89,-248.65"/>
</g>
<!-- RawData[Sample](dim_0=2) -->
<g id="node13" class="node">
<title>RawData[Sample](dim_0=2)</title>
<polygon fill="none" stroke="black" points="975.5,-306 842.5,-306 842.5,-285 975.5,-285 975.5,-306"/>
<text text-anchor="start" x="850.5" y="-292.4" font-family="Times,serif" font-size="12.00">[Sample](dim_0=2)</text>
</g>
<!-- RawData[Sample](dim_0=2)&#45;&gt;CleanedData[Sample](dim_0=2) -->
<g id="edge12" class="edge">
<title>RawData[Sample](dim_0=2)&#45;&gt;CleanedData[Sample](dim_0=2)</title>
<path fill="none" stroke="black" d="M911.56,-284.92C914.08,-275.52 918.02,-260.78 921.42,-248.1"/>
<polygon fill="black" stroke="black" points="924.89,-248.65 924.1,-238.09 918.13,-246.84 924.89,-248.65"/>
</g>
<!-- RawData[Sample](dim_0=3) -->
<g id="node14" class="node">
<title>RawData[Sample](dim_0=3)</title>
<polygon fill="none" stroke="black" points="447.5,-306 314.5,-306 314.5,-285 447.5,-285 447.5,-306"/>
<text text-anchor="start" x="322.5" y="-292.4" font-family="Times,serif" font-size="12.00">[Sample](dim_0=3)</text>
</g>
<!-- RawData[Sample](dim_0=3)&#45;&gt;CleanedData[Sample](dim_0=3) -->
<g id="edge13" class="edge">
<title>RawData[Sample](dim_0=3)&#45;&gt;CleanedData[Sample](dim_0=3)</title>
<path fill="none" stroke="black" d="M378.44,-284.92C375.92,-275.52 371.98,-260.78 368.58,-248.1"/>
<polygon fill="black" stroke="black" points="371.87,-246.84 365.9,-238.09 365.11,-248.65 371.87,-246.84"/>
</g>
<!-- Filename[Background] -->
<g id="node15" class="node">
<title>Filename[Background]</title>
<polygon fill="none" stroke="black" points="695,-384 595,-384 595,-363 695,-363 695,-384"/>
<text text-anchor="start" x="603" y="-370.4" font-family="Times,serif" font-size="12.00">[Background]</text>
</g>
<!-- Filename[Background]&#45;&gt;RawData[Background] -->
<g id="edge14" class="edge">
<title>Filename[Background]&#45;&gt;RawData[Background]</title>
<path fill="none" stroke="black" d="M645,-362.87C645,-351.29 645,-331.53 645,-316.57"/>
<polygon fill="black" stroke="black" points="648.5,-316.29 645,-306.29 641.5,-316.29 648.5,-316.29"/>
</g>
<!-- Filename[Sample](dim_0=0) -->
<g id="node16" class="node">
<title>Filename[Sample](dim_0=0)</title>
<polygon fill="none" stroke="black" points="587.5,-384 454.5,-384 454.5,-363 587.5,-363 587.5,-384"/>
<text text-anchor="start" x="462.5" y="-370.4" font-family="Times,serif" font-size="12.00">[Sample](dim_0=0)</text>
</g>
<!-- Filename[Sample](dim_0=0)&#45;&gt;RawData[Sample](dim_0=0) -->
<g id="edge15" class="edge">
<title>Filename[Sample](dim_0=0)&#45;&gt;RawData[Sample](dim_0=0)</title>
<path fill="none" stroke="black" d="M521,-362.87C521,-351.29 521,-331.53 521,-316.57"/>
<polygon fill="black" stroke="black" points="524.5,-316.29 521,-306.29 517.5,-316.29 524.5,-316.29"/>
</g>
<!-- Filename[Sample](dim_0=1) -->
<g id="node17" class="node">
<title>Filename[Sample](dim_0=1)</title>
<polygon fill="none" stroke="black" points="835.5,-384 702.5,-384 702.5,-363 835.5,-363 835.5,-384"/>
<text text-anchor="start" x="710.5" y="-370.4" font-family="Times,serif" font-size="12.00">[Sample](dim_0=1)</text>
</g>
<!-- Filename[Sample](dim_0=1)&#45;&gt;RawData[Sample](dim_0=1) -->
<g id="edge16" class="edge">
<title>Filename[Sample](dim_0=1)&#45;&gt;RawData[Sample](dim_0=1)</title>
<path fill="none" stroke="black" d="M769,-362.87C769,-351.29 769,-331.53 769,-316.57"/>
<polygon fill="black" stroke="black" points="772.5,-316.29 769,-306.29 765.5,-316.29 772.5,-316.29"/>
</g>
<!-- Filename[Sample](dim_0=2) -->
<g id="node18" class="node">
<title>Filename[Sample](dim_0=2)</title>
<polygon fill="none" stroke="black" points="975.5,-384 842.5,-384 842.5,-363 975.5,-363 975.5,-384"/>
<text text-anchor="start" x="850.5" y="-370.4" font-family="Times,serif" font-size="12.00">[Sample](dim_0=2)</text>
</g>
<!-- Filename[Sample](dim_0=2)&#45;&gt;RawData[Sample](dim_0=2) -->
<g id="edge17" class="edge">
<title>Filename[Sample](dim_0=2)&#45;&gt;RawData[Sample](dim_0=2)</title>
<path fill="none" stroke="black" d="M909,-362.87C909,-351.29 909,-331.53 909,-316.57"/>
<polygon fill="black" stroke="black" points="912.5,-316.29 909,-306.29 905.5,-316.29 912.5,-316.29"/>
</g>
<!-- Filename[Sample](dim_0=3) -->
<g id="node19" class="node">
<title>Filename[Sample](dim_0=3)</title>
<polygon fill="none" stroke="black" points="447.5,-384 314.5,-384 314.5,-363 447.5,-363 447.5,-384"/>
<text text-anchor="start" x="322.5" y="-370.4" font-family="Times,serif" font-size="12.00">[Sample](dim_0=3)</text>
</g>
<!-- Filename[Sample](dim_0=3)&#45;&gt;RawData[Sample](dim_0=3) -->
<g id="edge18" class="edge">
<title>Filename[Sample](dim_0=3)&#45;&gt;RawData[Sample](dim_0=3)</title>
<path fill="none" stroke="black" d="M381,-362.87C381,-351.29 381,-331.53 381,-316.57"/>
<polygon fill="black" stroke="black" points="384.5,-316.29 381,-306.29 377.5,-316.29 384.5,-316.29"/>
</g>
<!-- collected -->
<g id="node25" class="node">
<title>collected</title>
<polygon fill="none" stroke="black" points="693.5,-33 596.5,-33 596.5,0 693.5,0 693.5,-33"/>
<text text-anchor="start" x="613" y="-18.8" font-family="Times,serif" font-size="14.00">collected</text>
<text text-anchor="start" x="604.5" y="-7.2" font-family="Times,serif" font-size="11.00">via:</text>
<text text-anchor="start" x="625.5" y="-7.2" font-family="Times,serif" font-style="italic" font-size="11.00">&lt;lambda&gt;</text>
</g>
<!-- Result(dim_0=0)&#45;&gt;collected -->
<g id="edge27" class="edge">
<title>Result(dim_0=0)&#45;&gt;collected</title>
<path fill="none" stroke="black" d="M589.7,-68.96C598.84,-60.46 610.33,-49.76 620.46,-40.33"/>
<polygon fill="black" stroke="black" points="622.95,-42.8 627.89,-33.42 618.19,-37.67 622.95,-42.8"/>
</g>
<!-- ScaleFactor -->
<g id="node21" class="node">
<title>ScaleFactor</title>
<polygon fill="none" stroke="black" points="695.5,-166 594.5,-166 594.5,-143 695.5,-143 695.5,-166"/>
<text text-anchor="middle" x="645" y="-150.8" font-family="Times,serif" font-size="14.00">ScaleFactor</text>
</g>
<!-- ScaleFactor&#45;&gt;Result(dim_0=0) -->
<g id="edge20" class="edge">
<title>ScaleFactor&#45;&gt;Result(dim_0=0)</title>
<path fill="none" stroke="black" d="M633.43,-142.74C623.78,-133.75 609.69,-120.64 597.54,-109.34"/>
<polygon fill="black" stroke="black" points="599.61,-106.49 589.91,-102.23 594.85,-111.61 599.61,-106.49"/>
</g>
<!-- ScaleFactor&#45;&gt;Result(dim_0=1) -->
<g id="edge22" class="edge">
<title>ScaleFactor&#45;&gt;Result(dim_0=1)</title>
<path fill="none" stroke="black" d="M656.57,-142.74C666.22,-133.75 680.31,-120.64 692.46,-109.34"/>
<polygon fill="black" stroke="black" points="695.15,-111.61 700.09,-102.23 690.39,-106.49 695.15,-111.61"/>
</g>
<!-- ScaleFactor&#45;&gt;Result(dim_0=2) -->
<g id="edge24" class="edge">
<title>ScaleFactor&#45;&gt;Result(dim_0=2)</title>
<path fill="none" stroke="black" d="M679.23,-142.88C711.91,-132.75 761.85,-117.26 801.12,-105.07"/>
<polygon fill="black" stroke="black" points="802.34,-108.36 810.86,-102.05 800.27,-101.67 802.34,-108.36"/>
</g>
<!-- ScaleFactor&#45;&gt;Result(dim_0=3) -->
<g id="edge26" class="edge">
<title>ScaleFactor&#45;&gt;Result(dim_0=3)</title>
<path fill="none" stroke="black" d="M610.77,-142.88C578.09,-132.75 528.15,-117.26 488.88,-105.07"/>
<polygon fill="black" stroke="black" points="489.73,-101.67 479.14,-102.05 487.66,-108.36 489.73,-101.67"/>
</g>
<!-- Result(dim_0=1)&#45;&gt;collected -->
<g id="edge28" class="edge">
<title>Result(dim_0=1)&#45;&gt;collected</title>
<path fill="none" stroke="black" d="M700.3,-68.96C691.16,-60.46 679.67,-49.76 669.54,-40.33"/>
<polygon fill="black" stroke="black" points="671.81,-37.67 662.11,-33.42 667.05,-42.8 671.81,-37.67"/>
</g>
<!-- Result(dim_0=2)&#45;&gt;collected -->
<g id="edge29" class="edge">
<title>Result(dim_0=2)&#45;&gt;collected</title>
<path fill="none" stroke="black" d="M810.9,-68.96C778.8,-59 737.01,-46.04 703.41,-35.62"/>
<polygon fill="black" stroke="black" points="704.3,-32.23 693.71,-32.61 702.22,-38.91 704.3,-32.23"/>
</g>
<!-- Result(dim_0=3)&#45;&gt;collected -->
<g id="edge30" class="edge">
<title>Result(dim_0=3)&#45;&gt;collected</title>
<path fill="none" stroke="black" d="M479.1,-68.96C511.2,-59 552.99,-46.04 586.59,-35.62"/>
<polygon fill="black" stroke="black" points="587.78,-38.91 596.29,-32.61 585.7,-32.23 587.78,-38.91"/>
</g>
</g>
</svg>
