<?xml version="1.0" encoding="UTF-8" standalone="no"?>
<!DOCTYPE svg PUBLIC "-//W3C//DTD SVG 1.1//EN"
 "http://www.w3.org/Graphics/SVG/1.1/DTD/svg11.dtd">
<!-- Generated by graphviz version 2.43.0 (0)
 -->
<!-- Title: %3 Pages: 1 -->
<svg width="440pt" height="636pt"
 viewBox="0.00 0.00 439.50 636.00" xmlns="http://www.w3.org/2000/svg" xmlns:xlink="http://www.w3.org/1999/xlink">
<g id="graph0" class="graph" transform="scale(1 1) rotate(0) translate(4 632)">
<title>%3</title>
<polygon fill="white" stroke="transparent" points="-4,4 -4,-632 435.5,-632 435.5,4 -4,4"/>
<g id="clust2" class="cluster">
<title>cluster_CleanedData</title>
<polygon fill="#f0f0ff" stroke="#f0f0ff" points="13.5,-280 13.5,-332 423.5,-332 423.5,-280 13.5,-280"/>
</g>
<g id="clust3" class="cluster">
<title>cluster_Filename</title>
<polygon fill="#f0f0ff" stroke="#f0f0ff" points="44.5,-568 44.5,-620 404.5,-620 404.5,-568 44.5,-568"/>
</g>
<g id="clust4" class="cluster">
<title>cluster_RawData</title>
<polygon fill="#f0f0ff" stroke="#f0f0ff" points="47.5,-424 47.5,-476 403.5,-476 403.5,-424 47.5,-424"/>
</g>
<!-- __main__.subtract_background_BackgroundSubtractedData -->
<g id="node1" class="node">
<title>__main__.subtract_background_BackgroundSubtractedData</title>
<ellipse fill="none" stroke="black" cx="226.5" cy="-234" rx="108.58" ry="18"/>
<text text-anchor="middle" x="226.5" y="-230.3" font-family="Times,serif" font-size="14.00">subtract_background</text>
</g>
<!-- BackgroundSubtractedData -->
<g id="node4" class="node">
<title>BackgroundSubtractedData</title>
<polygon fill="none" stroke="black" points="334,-180 119,-180 119,-144 334,-144 334,-180"/>
<text text-anchor="middle" x="226.5" y="-158.3" font-family="Times,serif" font-size="14.00">BackgroundSubtractedData</text>
</g>
<!-- __main__.subtract_background_BackgroundSubtractedData&#45;&gt;BackgroundSubtractedData -->
<g id="edge3" class="edge">
<title>__main__.subtract_background_BackgroundSubtractedData&#45;&gt;BackgroundSubtractedData</title>
<path fill="none" stroke="black" d="M226.5,-215.7C226.5,-207.98 226.5,-198.71 226.5,-190.11"/>
<polygon fill="black" stroke="black" points="230,-190.1 226.5,-180.1 223,-190.1 230,-190.1"/>
</g>
<!-- CleanedData[Sample] -->
<g id="node2" class="node">
<title>CleanedData[Sample]</title>
<polygon fill="none" stroke="black" points="415.5,-324 243.5,-324 243.5,-288 415.5,-288 415.5,-324"/>
<text text-anchor="middle" x="329.5" y="-302.3" font-family="Times,serif" font-size="14.00">CleanedData[Sample]</text>
</g>
<!-- CleanedData[Sample]&#45;&gt;__main__.subtract_background_BackgroundSubtractedData -->
<g id="edge1" class="edge">
<title>CleanedData[Sample]&#45;&gt;__main__.subtract_background_BackgroundSubtractedData</title>
<path fill="none" stroke="black" d="M304.3,-287.88C290.89,-278.76 274.22,-267.43 259.75,-257.6"/>
<polygon fill="black" stroke="black" points="261.32,-254.43 251.08,-251.71 257.38,-260.22 261.32,-254.43"/>
</g>
<!-- CleanedData[Background] -->
<g id="node3" class="node">
<title>CleanedData[Background]</title>
<polygon fill="none" stroke="black" points="225.5,-324 21.5,-324 21.5,-288 225.5,-288 225.5,-324"/>
<text text-anchor="middle" x="123.5" y="-302.3" font-family="Times,serif" font-size="14.00">CleanedData[Background]</text>
</g>
<!-- CleanedData[Background]&#45;&gt;__main__.subtract_background_BackgroundSubtractedData -->
<g id="edge2" class="edge">
<title>CleanedData[Background]&#45;&gt;__main__.subtract_background_BackgroundSubtractedData</title>
<path fill="none" stroke="black" d="M148.7,-287.88C162.11,-278.76 178.78,-267.43 193.25,-257.6"/>
<polygon fill="black" stroke="black" points="195.62,-260.22 201.92,-251.71 191.68,-254.43 195.62,-260.22"/>
</g>
<!-- __main__.process_Result -->
<g id="node13" class="node">
<title>__main__.process_Result</title>
<ellipse fill="none" stroke="black" cx="138.5" cy="-90" rx="46.29" ry="18"/>
<text text-anchor="middle" x="138.5" y="-86.3" font-family="Times,serif" font-size="14.00">process</text>
</g>
<!-- BackgroundSubtractedData&#45;&gt;__main__.process_Result -->
<g id="edge12" class="edge">
<title>BackgroundSubtractedData&#45;&gt;__main__.process_Result</title>
<path fill="none" stroke="black" d="M204.75,-143.7C192.97,-134.33 178.32,-122.67 165.78,-112.7"/>
<polygon fill="black" stroke="black" points="167.91,-109.92 157.91,-106.44 163.55,-115.4 167.91,-109.92"/>
</g>
<!-- __main__.clean_CleanedData[Background] -->
<g id="node5" class="node">
<title>__main__.clean_CleanedData[Background]</title>
<ellipse fill="none" stroke="black" cx="136.5" cy="-378" rx="35.19" ry="18"/>
<text text-anchor="middle" x="136.5" y="-374.3" font-family="Times,serif" font-size="14.00">clean</text>
</g>
<!-- __main__.clean_CleanedData[Background]&#45;&gt;CleanedData[Background] -->
<g id="edge5" class="edge">
<title>__main__.clean_CleanedData[Background]&#45;&gt;CleanedData[Background]</title>
<path fill="none" stroke="black" d="M133.35,-360.05C131.92,-352.35 130.19,-343.03 128.58,-334.36"/>
<polygon fill="black" stroke="black" points="131.98,-333.47 126.71,-324.28 125.09,-334.75 131.98,-333.47"/>
</g>
<!-- RawData[Background] -->
<g id="node6" class="node">
<title>RawData[Background]</title>
<polygon fill="none" stroke="black" points="232,-468 55,-468 55,-432 232,-432 232,-468"/>
<text text-anchor="middle" x="143.5" y="-446.3" font-family="Times,serif" font-size="14.00">RawData[Background]</text>
</g>
<!-- RawData[Background]&#45;&gt;__main__.clean_CleanedData[Background] -->
<g id="edge4" class="edge">
<title>RawData[Background]&#45;&gt;__main__.clean_CleanedData[Background]</title>
<path fill="none" stroke="black" d="M141.77,-431.7C141,-423.98 140.07,-414.71 139.21,-406.11"/>
<polygon fill="black" stroke="black" points="142.69,-405.71 138.21,-396.1 135.72,-406.4 142.69,-405.71"/>
</g>
<!-- __main__.clean_CleanedData[Sample] -->
<g id="node7" class="node">
<title>__main__.clean_CleanedData[Sample]</title>
<ellipse fill="none" stroke="black" cx="325.5" cy="-378" rx="35.19" ry="18"/>
<text text-anchor="middle" x="325.5" y="-374.3" font-family="Times,serif" font-size="14.00">clean</text>
</g>
<!-- __main__.clean_CleanedData[Sample]&#45;&gt;CleanedData[Sample] -->
<g id="edge7" class="edge">
<title>__main__.clean_CleanedData[Sample]&#45;&gt;CleanedData[Sample]</title>
<path fill="none" stroke="black" d="M326.49,-359.7C326.93,-351.98 327.46,-342.71 327.95,-334.11"/>
<polygon fill="black" stroke="black" points="331.45,-334.29 328.52,-324.1 324.46,-333.89 331.45,-334.29"/>
</g>
<!-- RawData[Sample] -->
<g id="node8" class="node">
<title>RawData[Sample]</title>
<polygon fill="none" stroke="black" points="395,-468 250,-468 250,-432 395,-432 395,-468"/>
<text text-anchor="middle" x="322.5" y="-446.3" font-family="Times,serif" font-size="14.00">RawData[Sample]</text>
</g>
<!-- RawData[Sample]&#45;&gt;__main__.clean_CleanedData[Sample] -->
<g id="edge6" class="edge">
<title>RawData[Sample]&#45;&gt;__main__.clean_CleanedData[Sample]</title>
<path fill="none" stroke="black" d="M323.24,-431.7C323.57,-423.98 323.97,-414.71 324.34,-406.11"/>
<polygon fill="black" stroke="black" points="327.84,-406.25 324.77,-396.1 320.84,-405.95 327.84,-406.25"/>
</g>
<!-- Filename[Background] -->
<g id="node9" class="node">
<title>Filename[Background]</title>
<polygon fill="none" stroke="black" points="232,-612 53,-612 53,-576 232,-576 232,-612"/>
<text text-anchor="middle" x="142.5" y="-590.3" font-family="Times,serif" font-size="14.00">Filename[Background]</text>
</g>
<!-- __main__.load_RawData[Background] -->
<g id="node11" class="node">
<title>__main__.load_RawData[Background]</title>
<ellipse fill="none" stroke="black" cx="143.5" cy="-522" rx="30.59" ry="18"/>
<text text-anchor="middle" x="143.5" y="-518.3" font-family="Times,serif" font-size="14.00">load</text>
</g>
<!-- Filename[Background]&#45;&gt;__main__.load_RawData[Background] -->
<g id="edge8" class="edge">
<title>Filename[Background]&#45;&gt;__main__.load_RawData[Background]</title>
<path fill="none" stroke="black" d="M142.75,-575.7C142.86,-567.98 142.99,-558.71 143.11,-550.11"/>
<polygon fill="black" stroke="black" points="146.61,-550.15 143.26,-540.1 139.61,-550.05 146.61,-550.15"/>
</g>
<!-- Filename[Sample] -->
<g id="node10" class="node">
<title>Filename[Sample]</title>
<polygon fill="none" stroke="black" points="396.5,-612 250.5,-612 250.5,-576 396.5,-576 396.5,-612"/>
<text text-anchor="middle" x="323.5" y="-590.3" font-family="Times,serif" font-size="14.00">Filename[Sample]</text>
</g>
<!-- __main__.load_RawData[Sample] -->
<g id="node12" class="node">
<title>__main__.load_RawData[Sample]</title>
<ellipse fill="none" stroke="black" cx="322.5" cy="-522" rx="30.59" ry="18"/>
<text text-anchor="middle" x="322.5" y="-518.3" font-family="Times,serif" font-size="14.00">load</text>
</g>
<!-- Filename[Sample]&#45;&gt;__main__.load_RawData[Sample] -->
<g id="edge10" class="edge">
<title>Filename[Sample]&#45;&gt;__main__.load_RawData[Sample]</title>
<path fill="none" stroke="black" d="M323.25,-575.7C323.14,-567.98 323.01,-558.71 322.89,-550.11"/>
<polygon fill="black" stroke="black" points="326.39,-550.05 322.74,-540.1 319.39,-550.15 326.39,-550.05"/>
</g>
<!-- __main__.load_RawData[Background]&#45;&gt;RawData[Background] -->
<g id="edge9" class="edge">
<title>__main__.load_RawData[Background]&#45;&gt;RawData[Background]</title>
<path fill="none" stroke="black" d="M143.5,-503.7C143.5,-495.98 143.5,-486.71 143.5,-478.11"/>
<polygon fill="black" stroke="black" points="147,-478.1 143.5,-468.1 140,-478.1 147,-478.1"/>
</g>
<!-- __main__.load_RawData[Sample]&#45;&gt;RawData[Sample] -->
<g id="edge11" class="edge">
<title>__main__.load_RawData[Sample]&#45;&gt;RawData[Sample]</title>
<path fill="none" stroke="black" d="M322.5,-503.7C322.5,-495.98 322.5,-486.71 322.5,-478.11"/>
<polygon fill="black" stroke="black" points="326,-478.1 322.5,-468.1 319,-478.1 326,-478.1"/>
</g>
<!-- Result -->
<g id="node15" class="node">
<title>Result</title>
<polygon fill="none" stroke="black" points="169.5,-36 107.5,-36 107.5,0 169.5,0 169.5,-36"/>
<text text-anchor="middle" x="138.5" y="-14.3" font-family="Times,serif" font-size="14.00">Result</text>
</g>
<!-- __main__.process_Result&#45;&gt;Result -->
<g id="edge14" class="edge">
<title>__main__.process_Result&#45;&gt;Result</title>
<path fill="none" stroke="black" d="M138.5,-71.7C138.5,-63.98 138.5,-54.71 138.5,-46.11"/>
<polygon fill="black" stroke="black" points="142,-46.1 138.5,-36.1 135,-46.1 142,-46.1"/>
</g>
<!-- ScaleFactor -->
<g id="node14" class="node">
<title>ScaleFactor</title>
<polygon fill="none" stroke="black" points="101,-180 0,-180 0,-144 101,-144 101,-180"/>
<text text-anchor="middle" x="50.5" y="-158.3" font-family="Times,serif" font-size="14.00">ScaleFactor</text>
</g>
<!-- ScaleFactor&#45;&gt;__main__.process_Result -->
<g id="edge13" class="edge">
<title>ScaleFactor&#45;&gt;__main__.process_Result</title>
<path fill="none" stroke="black" d="M72.25,-143.7C84.03,-134.33 98.68,-122.67 111.22,-112.7"/>
<polygon fill="black" stroke="black" points="113.45,-115.4 119.09,-106.44 109.09,-109.92 113.45,-115.4"/>
</g>
</g>
</svg>
