<?xml version="1.0" encoding="UTF-8" standalone="no"?>
<!DOCTYPE svg PUBLIC "-//W3C//DTD SVG 1.1//EN"
 "http://www.w3.org/Graphics/SVG/1.1/DTD/svg11.dtd">
<!-- Generated by graphviz version 2.43.0 (0)
 -->
<!-- Title: %3 Pages: 1 -->
<svg width="919pt" height="169pt"
 viewBox="0.00 0.00 919.00 169.00" xmlns="http://www.w3.org/2000/svg" xmlns:xlink="http://www.w3.org/1999/xlink">
<g id="graph0" class="graph" transform="scale(1 1) rotate(0) translate(4 165)">
<title>%3</title>
<polygon fill="white" stroke="transparent" points="-4,4 -4,-165 915,-165 915,4 -4,4"/>
<!-- Param1(dim_0=0) -->
<g id="node1" class="node">
<title>Param1(dim_0=0)</title>
<polygon fill="none" stroke="black" points="146,-161 0,-161 0,-138 146,-138 146,-161"/>
<text text-anchor="middle" x="73" y="-145.8" font-family="Times,serif" font-size="14.00">Param1(dim_0=0)</text>
</g>
<!-- float(dim_0=0) -->
<g id="node7" class="node">
<title>float(dim_0=0)</title>
<polygon fill="none" stroke="black" points="287,-102 165,-102 165,-69 287,-69 287,-102"/>
<text text-anchor="start" x="173" y="-87.8" font-family="Times,serif" font-size="14.00">float(dim_0=0)</text>
<text text-anchor="start" x="194" y="-76.2" font-family="Times,serif" font-size="11.00">via:</text>
<text text-anchor="start" x="215" y="-76.2" font-family="Times,serif" font-style="italic" font-size="11.00">product</text>
</g>
<!-- Param1(dim_0=0)&#45;&gt;float(dim_0=0) -->
<g id="edge4" class="edge">
<title>Param1(dim_0=0)&#45;&gt;float(dim_0=0)</title>
<path fill="none" stroke="black" d="M98.95,-137.98C120.59,-129.21 152,-116.49 178.18,-105.88"/>
<polygon fill="black" stroke="black" points="179.6,-109.08 187.55,-102.08 176.97,-102.59 179.6,-109.08"/>
</g>
<!-- Param1(dim_0=1) -->
<g id="node2" class="node">
<title>Param1(dim_0=1)</title>
<polygon fill="none" stroke="black" points="452,-161 306,-161 306,-138 452,-138 452,-161"/>
<text text-anchor="middle" x="379" y="-145.8" font-family="Times,serif" font-size="14.00">Param1(dim_0=1)</text>
</g>
<!-- float(dim_0=1) -->
<g id="node9" class="node">
<title>float(dim_0=1)</title>
<polygon fill="none" stroke="black" points="517,-102 395,-102 395,-69 517,-69 517,-102"/>
<text text-anchor="start" x="403" y="-87.8" font-family="Times,serif" font-size="14.00">float(dim_0=1)</text>
<text text-anchor="start" x="424" y="-76.2" font-family="Times,serif" font-size="11.00">via:</text>
<text text-anchor="start" x="445" y="-76.2" font-family="Times,serif" font-style="italic" font-size="11.00">product</text>
</g>
<!-- Param1(dim_0=1)&#45;&gt;float(dim_0=1) -->
<g id="edge6" class="edge">
<title>Param1(dim_0=1)&#45;&gt;float(dim_0=1)</title>
<path fill="none" stroke="black" d="M392.06,-137.98C402.06,-129.93 416.2,-118.55 428.64,-108.53"/>
<polygon fill="black" stroke="black" points="430.91,-111.2 436.5,-102.2 426.52,-105.74 430.91,-111.2"/>
</g>
<!-- Param1(dim_0=2) -->
<g id="node3" class="node">
<title>Param1(dim_0=2)</title>
<polygon fill="none" stroke="black" points="758,-161 612,-161 612,-138 758,-138 758,-161"/>
<text text-anchor="middle" x="685" y="-145.8" font-family="Times,serif" font-size="14.00">Param1(dim_0=2)</text>
</g>
<!-- float(dim_0=2) -->
<g id="node10" class="node">
<title>float(dim_0=2)</title>
<polygon fill="none" stroke="black" points="746,-102 624,-102 624,-69 746,-69 746,-102"/>
<text text-anchor="start" x="632" y="-87.8" font-family="Times,serif" font-size="14.00">float(dim_0=2)</text>
<text text-anchor="start" x="653" y="-76.2" font-family="Times,serif" font-size="11.00">via:</text>
<text text-anchor="start" x="674" y="-76.2" font-family="Times,serif" font-style="italic" font-size="11.00">product</text>
</g>
<!-- Param1(dim_0=2)&#45;&gt;float(dim_0=2) -->
<g id="edge8" class="edge">
<title>Param1(dim_0=2)&#45;&gt;float(dim_0=2)</title>
<path fill="none" stroke="black" d="M685,-137.98C685,-130.93 685,-121.32 685,-112.31"/>
<polygon fill="black" stroke="black" points="688.5,-112.2 685,-102.2 681.5,-112.2 688.5,-112.2"/>
</g>
<!-- Param2(dim_0=0) -->
<g id="node4" class="node">
<title>Param2(dim_0=0)</title>
<polygon fill="none" stroke="black" points="299,-161 153,-161 153,-138 299,-138 299,-161"/>
<text text-anchor="middle" x="226" y="-145.8" font-family="Times,serif" font-size="14.00">Param2(dim_0=0)</text>
</g>
<!-- Param2(dim_0=0)&#45;&gt;float(dim_0=0) -->
<g id="edge5" class="edge">
<title>Param2(dim_0=0)&#45;&gt;float(dim_0=0)</title>
<path fill="none" stroke="black" d="M226,-137.98C226,-130.93 226,-121.32 226,-112.31"/>
<polygon fill="black" stroke="black" points="229.5,-112.2 226,-102.2 222.5,-112.2 229.5,-112.2"/>
</g>
<!-- Param2(dim_0=1) -->
<g id="node5" class="node">
<title>Param2(dim_0=1)</title>
<polygon fill="none" stroke="black" points="605,-161 459,-161 459,-138 605,-138 605,-161"/>
<text text-anchor="middle" x="532" y="-145.8" font-family="Times,serif" font-size="14.00">Param2(dim_0=1)</text>
</g>
<!-- Param2(dim_0=1)&#45;&gt;float(dim_0=1) -->
<g id="edge7" class="edge">
<title>Param2(dim_0=1)&#45;&gt;float(dim_0=1)</title>
<path fill="none" stroke="black" d="M519.11,-137.98C509.24,-129.93 495.29,-118.55 483.01,-108.53"/>
<polygon fill="black" stroke="black" points="485.2,-105.81 475.24,-102.2 480.78,-111.23 485.2,-105.81"/>
</g>
<!-- Param2(dim_0=2) -->
<g id="node6" class="node">
<title>Param2(dim_0=2)</title>
<polygon fill="none" stroke="black" points="911,-161 765,-161 765,-138 911,-138 911,-161"/>
<text text-anchor="middle" x="838" y="-145.8" font-family="Times,serif" font-size="14.00">Param2(dim_0=2)</text>
</g>
<!-- Param2(dim_0=2)&#45;&gt;float(dim_0=2) -->
<g id="edge9" class="edge">
<title>Param2(dim_0=2)&#45;&gt;float(dim_0=2)</title>
<path fill="none" stroke="black" d="M812.05,-137.98C790.41,-129.21 759,-116.49 732.82,-105.88"/>
<polygon fill="black" stroke="black" points="734.03,-102.59 723.45,-102.08 731.4,-109.08 734.03,-102.59"/>
</g>
<!-- Sum -->
<g id="node8" class="node">
<title>Sum</title>
<polygon fill="none" stroke="black" points="493,-33 419,-33 419,0 493,0 493,-33"/>
<text text-anchor="start" x="439.5" y="-18.8" font-family="Times,serif" font-size="14.00">Sum</text>
<text text-anchor="start" x="427" y="-7.2" font-family="Times,serif" font-size="11.00">via:</text>
<text text-anchor="start" x="448" y="-7.2" font-family="Times,serif" font-style="italic" font-size="11.00">gather</text>
</g>
<!-- float(dim_0=0)&#45;&gt;Sum -->
<g id="edge1" class="edge">
<title>float(dim_0=0)&#45;&gt;Sum</title>
<path fill="none" stroke="black" d="M279.34,-68.96C318.57,-57.53 371.38,-42.15 409.02,-31.19"/>
<polygon fill="black" stroke="black" points="410.1,-34.52 418.73,-28.36 408.15,-27.79 410.1,-34.52"/>
</g>
<!-- float(dim_0=1)&#45;&gt;Sum -->
<g id="edge2" class="edge">
<title>float(dim_0=1)&#45;&gt;Sum</title>
<path fill="none" stroke="black" d="M456,-68.96C456,-61.38 456,-52.05 456,-43.42"/>
<polygon fill="black" stroke="black" points="459.5,-43.42 456,-33.42 452.5,-43.42 459.5,-43.42"/>
</g>
<!-- float(dim_0=2)&#45;&gt;Sum -->
<g id="edge3" class="edge">
<title>float(dim_0=2)&#45;&gt;Sum</title>
<path fill="none" stroke="black" d="M631.89,-68.96C592.83,-57.53 540.25,-42.15 502.77,-31.19"/>
<polygon fill="black" stroke="black" points="503.69,-27.81 493.11,-28.36 501.73,-34.53 503.69,-27.81"/>
</g>
</g>
</svg>
