<?xml version="1.0" encoding="UTF-8" standalone="no"?>
<!DOCTYPE svg PUBLIC "-//W3C//DTD SVG 1.1//EN"
 "http://www.w3.org/Graphics/SVG/1.1/DTD/svg11.dtd">
<!-- Generated by graphviz version 2.43.0 (0)
 -->
<!-- Title: %3 Pages: 1 -->
<svg width="993pt" height="548pt"
 viewBox="0.00 0.00 993.00 548.00" xmlns="http://www.w3.org/2000/svg" xmlns:xlink="http://www.w3.org/1999/xlink">
<g id="graph0" class="graph" transform="scale(1 1) rotate(0) translate(4 544)">
<title>%3</title>
<polygon fill="white" stroke="transparent" points="-4,4 -4,-544 989,-544 989,4 -4,4"/>
<!-- __main__.clean_CleanedData(RunID=102) -->
<g id="node1" class="node">
<title>__main__.clean_CleanedData(RunID=102)</title>
<ellipse fill="none" stroke="black" cx="101.5" cy="-306" rx="35.19" ry="18"/>
<text text-anchor="middle" x="101.5" y="-302.3" font-family="Times,serif" font-size="14.00">clean</text>
</g>
<!-- CleanedData(RunID=102) -->
<g id="node3" class="node">
<title>CleanedData(RunID=102)</title>
<polygon fill="none" stroke="black" points="203,-252 0,-252 0,-216 203,-216 203,-252"/>
<text text-anchor="middle" x="101.5" y="-230.3" font-family="Times,serif" font-size="14.00">CleanedData(RunID=102)</text>
</g>
<!-- __main__.clean_CleanedData(RunID=102)&#45;&gt;CleanedData(RunID=102) -->
<g id="edge2" class="edge">
<title>__main__.clean_CleanedData(RunID=102)&#45;&gt;CleanedData(RunID=102)</title>
<path fill="none" stroke="black" d="M101.5,-287.7C101.5,-279.98 101.5,-270.71 101.5,-262.11"/>
<polygon fill="black" stroke="black" points="105,-262.1 101.5,-252.1 98,-262.1 105,-262.1"/>
</g>
<!-- RawData(RunID=102) -->
<g id="node2" class="node">
<title>RawData(RunID=102)</title>
<polygon fill="none" stroke="black" points="189.5,-396 13.5,-396 13.5,-360 189.5,-360 189.5,-396"/>
<text text-anchor="middle" x="101.5" y="-374.3" font-family="Times,serif" font-size="14.00">RawData(RunID=102)</text>
</g>
<!-- RawData(RunID=102)&#45;&gt;__main__.clean_CleanedData(RunID=102) -->
<g id="edge1" class="edge">
<title>RawData(RunID=102)&#45;&gt;__main__.clean_CleanedData(RunID=102)</title>
<path fill="none" stroke="black" d="M101.5,-359.7C101.5,-351.98 101.5,-342.71 101.5,-334.11"/>
<polygon fill="black" stroke="black" points="105,-334.1 101.5,-324.1 98,-334.1 105,-334.1"/>
</g>
<!-- __main__.process_Result(RunID=102) -->
<g id="node21" class="node">
<title>__main__.process_Result(RunID=102)</title>
<ellipse fill="none" stroke="black" cx="229.5" cy="-162" rx="46.29" ry="18"/>
<text text-anchor="middle" x="229.5" y="-158.3" font-family="Times,serif" font-size="14.00">process</text>
</g>
<!-- CleanedData(RunID=102)&#45;&gt;__main__.process_Result(RunID=102) -->
<g id="edge17" class="edge">
<title>CleanedData(RunID=102)&#45;&gt;__main__.process_Result(RunID=102)</title>
<path fill="none" stroke="black" d="M132.81,-215.88C151.6,-205.6 175.52,-192.52 194.87,-181.94"/>
<polygon fill="black" stroke="black" points="196.58,-184.99 203.68,-177.12 193.22,-178.85 196.58,-184.99"/>
</g>
<!-- __main__.clean_CleanedData(RunID=103) -->
<g id="node4" class="node">
<title>__main__.clean_CleanedData(RunID=103)</title>
<ellipse fill="none" stroke="black" cx="322.5" cy="-306" rx="35.19" ry="18"/>
<text text-anchor="middle" x="322.5" y="-302.3" font-family="Times,serif" font-size="14.00">clean</text>
</g>
<!-- CleanedData(RunID=103) -->
<g id="node6" class="node">
<title>CleanedData(RunID=103)</title>
<polygon fill="none" stroke="black" points="424,-252 221,-252 221,-216 424,-216 424,-252"/>
<text text-anchor="middle" x="322.5" y="-230.3" font-family="Times,serif" font-size="14.00">CleanedData(RunID=103)</text>
</g>
<!-- __main__.clean_CleanedData(RunID=103)&#45;&gt;CleanedData(RunID=103) -->
<g id="edge4" class="edge">
<title>__main__.clean_CleanedData(RunID=103)&#45;&gt;CleanedData(RunID=103)</title>
<path fill="none" stroke="black" d="M322.5,-287.7C322.5,-279.98 322.5,-270.71 322.5,-262.11"/>
<polygon fill="black" stroke="black" points="326,-262.1 322.5,-252.1 319,-262.1 326,-262.1"/>
</g>
<!-- RawData(RunID=103) -->
<g id="node5" class="node">
<title>RawData(RunID=103)</title>
<polygon fill="none" stroke="black" points="410.5,-396 234.5,-396 234.5,-360 410.5,-360 410.5,-396"/>
<text text-anchor="middle" x="322.5" y="-374.3" font-family="Times,serif" font-size="14.00">RawData(RunID=103)</text>
</g>
<!-- RawData(RunID=103)&#45;&gt;__main__.clean_CleanedData(RunID=103) -->
<g id="edge3" class="edge">
<title>RawData(RunID=103)&#45;&gt;__main__.clean_CleanedData(RunID=103)</title>
<path fill="none" stroke="black" d="M322.5,-359.7C322.5,-351.98 322.5,-342.71 322.5,-334.11"/>
<polygon fill="black" stroke="black" points="326,-334.1 322.5,-324.1 319,-334.1 326,-334.1"/>
</g>
<!-- __main__.process_Result(RunID=103) -->
<g id="node24" class="node">
<title>__main__.process_Result(RunID=103)</title>
<ellipse fill="none" stroke="black" cx="404.5" cy="-162" rx="46.29" ry="18"/>
<text text-anchor="middle" x="404.5" y="-158.3" font-family="Times,serif" font-size="14.00">process</text>
</g>
<!-- CleanedData(RunID=103)&#45;&gt;__main__.process_Result(RunID=103) -->
<g id="edge20" class="edge">
<title>CleanedData(RunID=103)&#45;&gt;__main__.process_Result(RunID=103)</title>
<path fill="none" stroke="black" d="M342.77,-215.7C353.56,-206.49 366.95,-195.06 378.5,-185.2"/>
<polygon fill="black" stroke="black" points="380.81,-187.83 386.14,-178.67 376.26,-182.5 380.81,-187.83"/>
</g>
<!-- __main__.clean_CleanedData(RunID=104) -->
<g id="node7" class="node">
<title>__main__.clean_CleanedData(RunID=104)</title>
<ellipse fill="none" stroke="black" cx="662.5" cy="-306" rx="35.19" ry="18"/>
<text text-anchor="middle" x="662.5" y="-302.3" font-family="Times,serif" font-size="14.00">clean</text>
</g>
<!-- CleanedData(RunID=104) -->
<g id="node9" class="node">
<title>CleanedData(RunID=104)</title>
<polygon fill="none" stroke="black" points="764,-252 561,-252 561,-216 764,-216 764,-252"/>
<text text-anchor="middle" x="662.5" y="-230.3" font-family="Times,serif" font-size="14.00">CleanedData(RunID=104)</text>
</g>
<!-- __main__.clean_CleanedData(RunID=104)&#45;&gt;CleanedData(RunID=104) -->
<g id="edge6" class="edge">
<title>__main__.clean_CleanedData(RunID=104)&#45;&gt;CleanedData(RunID=104)</title>
<path fill="none" stroke="black" d="M662.5,-287.7C662.5,-279.98 662.5,-270.71 662.5,-262.11"/>
<polygon fill="black" stroke="black" points="666,-262.1 662.5,-252.1 659,-262.1 666,-262.1"/>
</g>
<!-- RawData(RunID=104) -->
<g id="node8" class="node">
<title>RawData(RunID=104)</title>
<polygon fill="none" stroke="black" points="750.5,-396 574.5,-396 574.5,-360 750.5,-360 750.5,-396"/>
<text text-anchor="middle" x="662.5" y="-374.3" font-family="Times,serif" font-size="14.00">RawData(RunID=104)</text>
</g>
<!-- RawData(RunID=104)&#45;&gt;__main__.clean_CleanedData(RunID=104) -->
<g id="edge5" class="edge">
<title>RawData(RunID=104)&#45;&gt;__main__.clean_CleanedData(RunID=104)</title>
<path fill="none" stroke="black" d="M662.5,-359.7C662.5,-351.98 662.5,-342.71 662.5,-334.11"/>
<polygon fill="black" stroke="black" points="666,-334.1 662.5,-324.1 659,-334.1 666,-334.1"/>
</g>
<!-- __main__.process_Result(RunID=104) -->
<g id="node26" class="node">
<title>__main__.process_Result(RunID=104)</title>
<ellipse fill="none" stroke="black" cx="579.5" cy="-162" rx="46.29" ry="18"/>
<text text-anchor="middle" x="579.5" y="-158.3" font-family="Times,serif" font-size="14.00">process</text>
</g>
<!-- CleanedData(RunID=104)&#45;&gt;__main__.process_Result(RunID=104) -->
<g id="edge23" class="edge">
<title>CleanedData(RunID=104)&#45;&gt;__main__.process_Result(RunID=104)</title>
<path fill="none" stroke="black" d="M641.98,-215.7C631.06,-206.49 617.51,-195.06 605.82,-185.2"/>
<polygon fill="black" stroke="black" points="607.98,-182.44 598.08,-178.67 603.47,-187.79 607.98,-182.44"/>
</g>
<!-- __main__.clean_CleanedData(RunID=105) -->
<g id="node10" class="node">
<title>__main__.clean_CleanedData(RunID=105)</title>
<ellipse fill="none" stroke="black" cx="883.5" cy="-306" rx="35.19" ry="18"/>
<text text-anchor="middle" x="883.5" y="-302.3" font-family="Times,serif" font-size="14.00">clean</text>
</g>
<!-- CleanedData(RunID=105) -->
<g id="node12" class="node">
<title>CleanedData(RunID=105)</title>
<polygon fill="none" stroke="black" points="985,-252 782,-252 782,-216 985,-216 985,-252"/>
<text text-anchor="middle" x="883.5" y="-230.3" font-family="Times,serif" font-size="14.00">CleanedData(RunID=105)</text>
</g>
<!-- __main__.clean_CleanedData(RunID=105)&#45;&gt;CleanedData(RunID=105) -->
<g id="edge8" class="edge">
<title>__main__.clean_CleanedData(RunID=105)&#45;&gt;CleanedData(RunID=105)</title>
<path fill="none" stroke="black" d="M883.5,-287.7C883.5,-279.98 883.5,-270.71 883.5,-262.11"/>
<polygon fill="black" stroke="black" points="887,-262.1 883.5,-252.1 880,-262.1 887,-262.1"/>
</g>
<!-- RawData(RunID=105) -->
<g id="node11" class="node">
<title>RawData(RunID=105)</title>
<polygon fill="none" stroke="black" points="971.5,-396 795.5,-396 795.5,-360 971.5,-360 971.5,-396"/>
<text text-anchor="middle" x="883.5" y="-374.3" font-family="Times,serif" font-size="14.00">RawData(RunID=105)</text>
</g>
<!-- RawData(RunID=105)&#45;&gt;__main__.clean_CleanedData(RunID=105) -->
<g id="edge7" class="edge">
<title>RawData(RunID=105)&#45;&gt;__main__.clean_CleanedData(RunID=105)</title>
<path fill="none" stroke="black" d="M883.5,-359.7C883.5,-351.98 883.5,-342.71 883.5,-334.11"/>
<polygon fill="black" stroke="black" points="887,-334.1 883.5,-324.1 880,-334.1 887,-334.1"/>
</g>
<!-- __main__.process_Result(RunID=105) -->
<g id="node28" class="node">
<title>__main__.process_Result(RunID=105)</title>
<ellipse fill="none" stroke="black" cx="754.5" cy="-162" rx="46.29" ry="18"/>
<text text-anchor="middle" x="754.5" y="-158.3" font-family="Times,serif" font-size="14.00">process</text>
</g>
<!-- CleanedData(RunID=105)&#45;&gt;__main__.process_Result(RunID=105) -->
<g id="edge26" class="edge">
<title>CleanedData(RunID=105)&#45;&gt;__main__.process_Result(RunID=105)</title>
<path fill="none" stroke="black" d="M851.94,-215.88C833.01,-205.6 808.9,-192.52 789.41,-181.94"/>
<polygon fill="black" stroke="black" points="790.98,-178.82 780.53,-177.12 787.65,-184.97 790.98,-178.82"/>
</g>
<!-- Filename(RunID=102) -->
<g id="node13" class="node">
<title>Filename(RunID=102)</title>
<polygon fill="none" stroke="black" points="190,-540 13,-540 13,-504 190,-504 190,-540"/>
<text text-anchor="middle" x="101.5" y="-518.3" font-family="Times,serif" font-size="14.00">Filename(RunID=102)</text>
</g>
<!-- __main__.load_RawData(RunID=102) -->
<g id="node17" class="node">
<title>__main__.load_RawData(RunID=102)</title>
<ellipse fill="none" stroke="black" cx="101.5" cy="-450" rx="30.59" ry="18"/>
<text text-anchor="middle" x="101.5" y="-446.3" font-family="Times,serif" font-size="14.00">load</text>
</g>
<!-- Filename(RunID=102)&#45;&gt;__main__.load_RawData(RunID=102) -->
<g id="edge9" class="edge">
<title>Filename(RunID=102)&#45;&gt;__main__.load_RawData(RunID=102)</title>
<path fill="none" stroke="black" d="M101.5,-503.7C101.5,-495.98 101.5,-486.71 101.5,-478.11"/>
<polygon fill="black" stroke="black" points="105,-478.1 101.5,-468.1 98,-478.1 105,-478.1"/>
</g>
<!-- Filename(RunID=103) -->
<g id="node14" class="node">
<title>Filename(RunID=103)</title>
<polygon fill="none" stroke="black" points="411,-540 234,-540 234,-504 411,-504 411,-540"/>
<text text-anchor="middle" x="322.5" y="-518.3" font-family="Times,serif" font-size="14.00">Filename(RunID=103)</text>
</g>
<!-- __main__.load_RawData(RunID=103) -->
<g id="node18" class="node">
<title>__main__.load_RawData(RunID=103)</title>
<ellipse fill="none" stroke="black" cx="322.5" cy="-450" rx="30.59" ry="18"/>
<text text-anchor="middle" x="322.5" y="-446.3" font-family="Times,serif" font-size="14.00">load</text>
</g>
<!-- Filename(RunID=103)&#45;&gt;__main__.load_RawData(RunID=103) -->
<g id="edge11" class="edge">
<title>Filename(RunID=103)&#45;&gt;__main__.load_RawData(RunID=103)</title>
<path fill="none" stroke="black" d="M322.5,-503.7C322.5,-495.98 322.5,-486.71 322.5,-478.11"/>
<polygon fill="black" stroke="black" points="326,-478.1 322.5,-468.1 319,-478.1 326,-478.1"/>
</g>
<!-- Filename(RunID=104) -->
<g id="node15" class="node">
<title>Filename(RunID=104)</title>
<polygon fill="none" stroke="black" points="751,-540 574,-540 574,-504 751,-504 751,-540"/>
<text text-anchor="middle" x="662.5" y="-518.3" font-family="Times,serif" font-size="14.00">Filename(RunID=104)</text>
</g>
<!-- __main__.load_RawData(RunID=104) -->
<g id="node19" class="node">
<title>__main__.load_RawData(RunID=104)</title>
<ellipse fill="none" stroke="black" cx="662.5" cy="-450" rx="30.59" ry="18"/>
<text text-anchor="middle" x="662.5" y="-446.3" font-family="Times,serif" font-size="14.00">load</text>
</g>
<!-- Filename(RunID=104)&#45;&gt;__main__.load_RawData(RunID=104) -->
<g id="edge13" class="edge">
<title>Filename(RunID=104)&#45;&gt;__main__.load_RawData(RunID=104)</title>
<path fill="none" stroke="black" d="M662.5,-503.7C662.5,-495.98 662.5,-486.71 662.5,-478.11"/>
<polygon fill="black" stroke="black" points="666,-478.1 662.5,-468.1 659,-478.1 666,-478.1"/>
</g>
<!-- Filename(RunID=105) -->
<g id="node16" class="node">
<title>Filename(RunID=105)</title>
<polygon fill="none" stroke="black" points="972,-540 795,-540 795,-504 972,-504 972,-540"/>
<text text-anchor="middle" x="883.5" y="-518.3" font-family="Times,serif" font-size="14.00">Filename(RunID=105)</text>
</g>
<!-- __main__.load_RawData(RunID=105) -->
<g id="node20" class="node">
<title>__main__.load_RawData(RunID=105)</title>
<ellipse fill="none" stroke="black" cx="883.5" cy="-450" rx="30.59" ry="18"/>
<text text-anchor="middle" x="883.5" y="-446.3" font-family="Times,serif" font-size="14.00">load</text>
</g>
<!-- Filename(RunID=105)&#45;&gt;__main__.load_RawData(RunID=105) -->
<g id="edge15" class="edge">
<title>Filename(RunID=105)&#45;&gt;__main__.load_RawData(RunID=105)</title>
<path fill="none" stroke="black" d="M883.5,-503.7C883.5,-495.98 883.5,-486.71 883.5,-478.11"/>
<polygon fill="black" stroke="black" points="887,-478.1 883.5,-468.1 880,-478.1 887,-478.1"/>
</g>
<!-- __main__.load_RawData(RunID=102)&#45;&gt;RawData(RunID=102) -->
<g id="edge10" class="edge">
<title>__main__.load_RawData(RunID=102)&#45;&gt;RawData(RunID=102)</title>
<path fill="none" stroke="black" d="M101.5,-431.7C101.5,-423.98 101.5,-414.71 101.5,-406.11"/>
<polygon fill="black" stroke="black" points="105,-406.1 101.5,-396.1 98,-406.1 105,-406.1"/>
</g>
<!-- __main__.load_RawData(RunID=103)&#45;&gt;RawData(RunID=103) -->
<g id="edge12" class="edge">
<title>__main__.load_RawData(RunID=103)&#45;&gt;RawData(RunID=103)</title>
<path fill="none" stroke="black" d="M322.5,-431.7C322.5,-423.98 322.5,-414.71 322.5,-406.11"/>
<polygon fill="black" stroke="black" points="326,-406.1 322.5,-396.1 319,-406.1 326,-406.1"/>
</g>
<!-- __main__.load_RawData(RunID=104)&#45;&gt;RawData(RunID=104) -->
<g id="edge14" class="edge">
<title>__main__.load_RawData(RunID=104)&#45;&gt;RawData(RunID=104)</title>
<path fill="none" stroke="black" d="M662.5,-431.7C662.5,-423.98 662.5,-414.71 662.5,-406.11"/>
<polygon fill="black" stroke="black" points="666,-406.1 662.5,-396.1 659,-406.1 666,-406.1"/>
</g>
<!-- __main__.load_RawData(RunID=105)&#45;&gt;RawData(RunID=105) -->
<g id="edge16" class="edge">
<title>__main__.load_RawData(RunID=105)&#45;&gt;RawData(RunID=105)</title>
<path fill="none" stroke="black" d="M883.5,-431.7C883.5,-423.98 883.5,-414.71 883.5,-406.11"/>
<polygon fill="black" stroke="black" points="887,-406.1 883.5,-396.1 880,-406.1 887,-406.1"/>
</g>
<!-- Result(RunID=102) -->
<g id="node23" class="node">
<title>Result(RunID=102)</title>
<polygon fill="none" stroke="black" points="308,-108 151,-108 151,-72 308,-72 308,-108"/>
<text text-anchor="middle" x="229.5" y="-86.3" font-family="Times,serif" font-size="14.00">Result(RunID=102)</text>
</g>
<!-- __main__.process_Result(RunID=102)&#45;&gt;Result(RunID=102) -->
<g id="edge19" class="edge">
<title>__main__.process_Result(RunID=102)&#45;&gt;Result(RunID=102)</title>
<path fill="none" stroke="black" d="M229.5,-143.7C229.5,-135.98 229.5,-126.71 229.5,-118.11"/>
<polygon fill="black" stroke="black" points="233,-118.1 229.5,-108.1 226,-118.1 233,-118.1"/>
</g>
<!-- ScaleFactor -->
<g id="node22" class="node">
<title>ScaleFactor</title>
<polygon fill="none" stroke="black" points="543,-252 442,-252 442,-216 543,-216 543,-252"/>
<text text-anchor="middle" x="492.5" y="-230.3" font-family="Times,serif" font-size="14.00">ScaleFactor</text>
</g>
<!-- ScaleFactor&#45;&gt;__main__.process_Result(RunID=102) -->
<g id="edge18" class="edge">
<title>ScaleFactor&#45;&gt;__main__.process_Result(RunID=102)</title>
<path fill="none" stroke="black" d="M441.78,-218.55C438.64,-217.68 435.53,-216.82 432.5,-216 379.25,-201.51 317.93,-185.6 276.74,-175.04"/>
<polygon fill="black" stroke="black" points="277.53,-171.63 266.98,-172.54 275.79,-178.41 277.53,-171.63"/>
</g>
<!-- ScaleFactor&#45;&gt;__main__.process_Result(RunID=103) -->
<g id="edge21" class="edge">
<title>ScaleFactor&#45;&gt;__main__.process_Result(RunID=103)</title>
<path fill="none" stroke="black" d="M470.75,-215.7C458.97,-206.33 444.32,-194.67 431.78,-184.7"/>
<polygon fill="black" stroke="black" points="433.91,-181.92 423.91,-178.44 429.55,-187.4 433.91,-181.92"/>
</g>
<!-- ScaleFactor&#45;&gt;__main__.process_Result(RunID=104) -->
<g id="edge24" class="edge">
<title>ScaleFactor&#45;&gt;__main__.process_Result(RunID=104)</title>
<path fill="none" stroke="black" d="M514.01,-215.7C525.53,-206.42 539.86,-194.89 552.17,-184.99"/>
<polygon fill="black" stroke="black" points="554.72,-187.43 560.31,-178.44 550.33,-181.98 554.72,-187.43"/>
</g>
<!-- ScaleFactor&#45;&gt;__main__.process_Result(RunID=105) -->
<g id="edge27" class="edge">
<title>ScaleFactor&#45;&gt;__main__.process_Result(RunID=105)</title>
<path fill="none" stroke="black" d="M543.22,-218.55C546.36,-217.68 549.47,-216.83 552.5,-216 605.33,-201.59 666.14,-185.73 707.12,-175.15"/>
<polygon fill="black" stroke="black" points="708.03,-178.53 716.84,-172.65 706.28,-171.75 708.03,-178.53"/>
</g>
<!-- Series[RunID, Result] -->
<g id="node30" class="node">
<title>Series[RunID, Result]</title>
<polygon fill="none" stroke="black" points="577,-36 406,-36 406,0 577,0 577,-36"/>
<text text-anchor="middle" x="491.5" y="-14.3" font-family="Times,serif" font-size="14.00">Series[RunID, Result]</text>
</g>
<!-- Result(RunID=102)&#45;&gt;Series[RunID, Result] -->
<g id="edge29" class="edge">
<title>Result(RunID=102)&#45;&gt;Series[RunID, Result]</title>
<path fill="none" stroke="black" stroke-dasharray="5,2" d="M293.26,-71.97C330.82,-61.93 378.5,-49.19 417.69,-38.72"/>
<polygon fill="black" stroke="black" points="418.7,-42.07 427.46,-36.11 416.89,-35.31 418.7,-42.07"/>
</g>
<!-- Result(RunID=103) -->
<g id="node25" class="node">
<title>Result(RunID=103)</title>
<polygon fill="none" stroke="black" points="483,-108 326,-108 326,-72 483,-72 483,-108"/>
<text text-anchor="middle" x="404.5" y="-86.3" font-family="Times,serif" font-size="14.00">Result(RunID=103)</text>
</g>
<!-- __main__.process_Result(RunID=103)&#45;&gt;Result(RunID=103) -->
<g id="edge22" class="edge">
<title>__main__.process_Result(RunID=103)&#45;&gt;Result(RunID=103)</title>
<path fill="none" stroke="black" d="M404.5,-143.7C404.5,-135.98 404.5,-126.71 404.5,-118.11"/>
<polygon fill="black" stroke="black" points="408,-118.1 404.5,-108.1 401,-118.1 408,-118.1"/>
</g>
<!-- Result(RunID=103)&#45;&gt;Series[RunID, Result] -->
<g id="edge30" class="edge">
<title>Result(RunID=103)&#45;&gt;Series[RunID, Result]</title>
<path fill="none" stroke="black" stroke-dasharray="5,2" d="M426.01,-71.7C436.96,-62.88 450.45,-52.03 462.32,-42.47"/>
<polygon fill="black" stroke="black" points="464.64,-45.1 470.24,-36.1 460.26,-39.65 464.64,-45.1"/>
</g>
<!-- Result(RunID=104) -->
<g id="node27" class="node">
<title>Result(RunID=104)</title>
<polygon fill="none" stroke="black" points="658,-108 501,-108 501,-72 658,-72 658,-108"/>
<text text-anchor="middle" x="579.5" y="-86.3" font-family="Times,serif" font-size="14.00">Result(RunID=104)</text>
</g>
<!-- __main__.process_Result(RunID=104)&#45;&gt;Result(RunID=104) -->
<g id="edge25" class="edge">
<title>__main__.process_Result(RunID=104)&#45;&gt;Result(RunID=104)</title>
<path fill="none" stroke="black" d="M579.5,-143.7C579.5,-135.98 579.5,-126.71 579.5,-118.11"/>
<polygon fill="black" stroke="black" points="583,-118.1 579.5,-108.1 576,-118.1 583,-118.1"/>
</g>
<!-- Result(RunID=104)&#45;&gt;Series[RunID, Result] -->
<g id="edge31" class="edge">
<title>Result(RunID=104)&#45;&gt;Series[RunID, Result]</title>
<path fill="none" stroke="black" stroke-dasharray="5,2" d="M557.75,-71.7C546.66,-62.88 533.03,-52.03 521.01,-42.47"/>
<polygon fill="black" stroke="black" points="523.01,-39.59 513,-36.1 518.65,-45.07 523.01,-39.59"/>
</g>
<!-- Result(RunID=105) -->
<g id="node29" class="node">
<title>Result(RunID=105)</title>
<polygon fill="none" stroke="black" points="833,-108 676,-108 676,-72 833,-72 833,-108"/>
<text text-anchor="middle" x="754.5" y="-86.3" font-family="Times,serif" font-size="14.00">Result(RunID=105)</text>
</g>
<!-- __main__.process_Result(RunID=105)&#45;&gt;Result(RunID=105) -->
<g id="edge28" class="edge">
<title>__main__.process_Result(RunID=105)&#45;&gt;Result(RunID=105)</title>
<path fill="none" stroke="black" d="M754.5,-143.7C754.5,-135.98 754.5,-126.71 754.5,-118.11"/>
<polygon fill="black" stroke="black" points="758,-118.1 754.5,-108.1 751,-118.1 758,-118.1"/>
</g>
<!-- Result(RunID=105)&#45;&gt;Series[RunID, Result] -->
<g id="edge32" class="edge">
<title>Result(RunID=105)&#45;&gt;Series[RunID, Result]</title>
<path fill="none" stroke="black" stroke-dasharray="5,2" d="M690.5,-71.97C652.79,-61.93 604.93,-49.19 565.59,-38.72"/>
<polygon fill="black" stroke="black" points="566.35,-35.3 555.79,-36.11 564.55,-42.07 566.35,-35.3"/>
</g>
</g>
</svg>
