<?xml version="1.0" encoding="UTF-8" standalone="no"?>
<!DOCTYPE svg PUBLIC "-//W3C//DTD SVG 1.1//EN"
 "http://www.w3.org/Graphics/SVG/1.1/DTD/svg11.dtd">
<!-- Generated by graphviz version 2.43.0 (0)
 -->
<!-- Title: %3 Pages: 1 -->
<svg width="782pt" height="98pt"
 viewBox="0.00 0.00 781.58 98.00" xmlns="http://www.w3.org/2000/svg" xmlns:xlink="http://www.w3.org/1999/xlink">
<g id="graph0" class="graph" transform="scale(1 1) rotate(0) translate(4 94)">
<title>%3</title>
<polygon fill="white" stroke="transparent" points="-4,4 -4,-94 777.58,-94 777.58,4 -4,4"/>
<!-- __main__.clean_CleanedData -->
<g id="node1" class="node">
<title>__main__.clean_CleanedData</title>
<ellipse fill="none" stroke="black" cx="368.19" cy="-18" rx="35.19" ry="18"/>
<text text-anchor="middle" x="368.19" y="-14.3" font-family="Times,serif" font-size="14.00">clean</text>
</g>
<!-- CleanedData -->
<g id="node3" class="node">
<title>CleanedData</title>
<polygon fill="none" stroke="black" points="547.29,-36 439.29,-36 439.29,0 547.29,0 547.29,-36"/>
<text text-anchor="middle" x="493.29" y="-14.3" font-family="Times,serif" font-size="14.00">CleanedData</text>
</g>
<!-- __main__.clean_CleanedData&#45;&gt;CleanedData -->
<g id="edge2" class="edge">
<title>__main__.clean_CleanedData&#45;&gt;CleanedData</title>
<path fill="none" stroke="black" d="M403.48,-18C411.54,-18 420.39,-18 429.28,-18"/>
<polygon fill="black" stroke="black" points="429.29,-21.5 439.29,-18 429.29,-14.5 429.29,-21.5"/>
</g>
<!-- RawData -->
<g id="node2" class="node">
<title>RawData</title>
<polygon fill="none" stroke="black" points="297.09,-36 216.09,-36 216.09,0 297.09,0 297.09,-36"/>
<text text-anchor="middle" x="256.59" y="-14.3" font-family="Times,serif" font-size="14.00">RawData</text>
</g>
<!-- RawData&#45;&gt;__main__.clean_CleanedData -->
<g id="edge1" class="edge">
<title>RawData&#45;&gt;__main__.clean_CleanedData</title>
<path fill="none" stroke="black" d="M297.16,-18C305.44,-18 314.23,-18 322.68,-18"/>
<polygon fill="black" stroke="black" points="322.76,-21.5 332.76,-18 322.76,-14.5 322.76,-21.5"/>
</g>
<!-- __main__.process_Result -->
<g id="node6" class="node">
<title>__main__.process_Result</title>
<ellipse fill="none" stroke="black" cx="629.43" cy="-45" rx="46.29" ry="18"/>
<text text-anchor="middle" x="629.43" y="-41.3" font-family="Times,serif" font-size="14.00">process</text>
</g>
<!-- CleanedData&#45;&gt;__main__.process_Result -->
<g id="edge5" class="edge">
<title>CleanedData&#45;&gt;__main__.process_Result</title>
<path fill="none" stroke="black" d="M547.31,-28.67C557.52,-30.73 568.19,-32.88 578.31,-34.91"/>
<polygon fill="black" stroke="black" points="577.72,-38.36 588.21,-36.9 579.1,-31.5 577.72,-38.36"/>
</g>
<!-- Filename -->
<g id="node4" class="node">
<title>Filename</title>
<polygon fill="none" stroke="red" stroke-dasharray="5,2" points="83,-36 0,-36 0,0 83,0 83,-36"/>
<text text-anchor="middle" x="41.5" y="-14.3" font-family="Times,serif" font-size="14.00" fill="red">Filename</text>
</g>
<!-- __main__.load_RawData -->
<g id="node5" class="node">
<title>__main__.load_RawData</title>
<ellipse fill="none" stroke="black" cx="149.55" cy="-18" rx="30.59" ry="18"/>
<text text-anchor="middle" x="149.55" y="-14.3" font-family="Times,serif" font-size="14.00">load</text>
</g>
<!-- Filename&#45;&gt;__main__.load_RawData -->
<g id="edge3" class="edge">
<title>Filename&#45;&gt;__main__.load_RawData</title>
<path fill="none" stroke="black" d="M83.2,-18C91.58,-18 100.39,-18 108.73,-18"/>
<polygon fill="black" stroke="black" points="108.99,-21.5 118.99,-18 108.99,-14.5 108.99,-21.5"/>
</g>
<!-- __main__.load_RawData&#45;&gt;RawData -->
<g id="edge4" class="edge">
<title>__main__.load_RawData&#45;&gt;RawData</title>
<path fill="none" stroke="black" d="M180.37,-18C188.3,-18 197.09,-18 205.79,-18"/>
<polygon fill="black" stroke="black" points="205.89,-21.5 215.89,-18 205.89,-14.5 205.89,-21.5"/>
</g>
<!-- Result -->
<g id="node8" class="node">
<title>Result</title>
<polygon fill="none" stroke="black" points="773.58,-63 711.58,-63 711.58,-27 773.58,-27 773.58,-63"/>
<text text-anchor="middle" x="742.58" y="-41.3" font-family="Times,serif" font-size="14.00">Result</text>
</g>
<!-- __main__.process_Result&#45;&gt;Result -->
<g id="edge7" class="edge">
<title>__main__.process_Result&#45;&gt;Result</title>
<path fill="none" stroke="black" d="M675.64,-45C684.09,-45 692.88,-45 701.17,-45"/>
<polygon fill="black" stroke="black" points="701.36,-48.5 711.36,-45 701.36,-41.5 701.36,-48.5"/>
</g>
<!-- ScaleFactor -->
<g id="node7" class="node">
<title>ScaleFactor</title>
<polygon fill="none" stroke="black" points="543.79,-90 442.79,-90 442.79,-54 543.79,-54 543.79,-90"/>
<text text-anchor="middle" x="493.29" y="-68.3" font-family="Times,serif" font-size="14.00">ScaleFactor</text>
</g>
<!-- ScaleFactor&#45;&gt;__main__.process_Result -->
<g id="edge6" class="edge">
<title>ScaleFactor&#45;&gt;__main__.process_Result</title>
<path fill="none" stroke="black" d="M543.86,-62.02C554.94,-59.79 566.72,-57.42 577.84,-55.18"/>
<polygon fill="black" stroke="black" points="578.73,-58.57 587.84,-53.17 577.35,-51.71 578.73,-58.57"/>
</g>
</g>
</svg>
