<?xml version="1.0" encoding="UTF-8" standalone="no"?>
<svg
   id="Layer_1"
   data-name="Layer 1"
   viewBox="0 0 67.65 67.500267"
   version="1.1"
   sodipodi:docname="anaconda-logo.svg"
   width="67.650002"
   height="67.500267"
   inkscape:version="1.2.2 (b0a8486541, 2022-12-01)"
   xmlns:inkscape="http://www.inkscape.org/namespaces/inkscape"
   xmlns:sodipodi="http://sodipodi.sourceforge.net/DTD/sodipodi-0.dtd"
   xmlns="http://www.w3.org/2000/svg"
   xmlns:svg="http://www.w3.org/2000/svg">
  <sodipodi:namedview
     id="namedview162"
     pagecolor="#ffffff"
     bordercolor="#000000"
     borderopacity="0.25"
     inkscape:showpageshadow="2"
     inkscape:pageopacity="0.0"
     inkscape:pagecheckerboard="0"
     inkscape:deskcolor="#d1d1d1"
     showgrid="false"
     inkscape:zoom="2.4321067"
     inkscape:cx="268.49151"
     inkscape:cy="33.921209"
     inkscape:window-width="2560"
     inkscape:window-height="1406"
     inkscape:window-x="0"
     inkscape:window-y="0"
     inkscape:window-maximized="1"
     inkscape:current-layer="Layer_1" />
  <defs
     id="defs101">
    <style
       id="style99">.cls-1{fill:#06262d;}.cls-2{fill:#43b02a;}.cls-3{fill:#43b03f;}</style>
  </defs>
  <path
     class="cls-2"
     d="M 12.5,51.7 V 51.5 A 36.79,36.79 0 0 1 13,45.7 V 45.5 L 12.8,45.4 A 49.67,49.67 0 0 1 7.6,42.9 L 7.4,42.8 7.3,43 a 53.76,53.76 0 0 0 -2.8,7 l -0.1,0.2 0.2,0.1 a 39.14,39.14 0 0 0 7.6,1.4 z"
     id="path123" />
  <path
     class="cls-2"
     d="m 17.7,17.5 v 0 c -1.5,0 -2.9,0.1 -4.4,0.2 a 33.92,33.92 0 0 0 0.8,4.4 20.36,20.36 0 0 1 3.6,-4.6 z"
     id="path125" />
  <path
     class="cls-2"
     d="M 12.5,53.5 V 53.3 H 12.3 A 51.94,51.94 0 0 1 5.8,52.2 l -0.6,-0.1 0.3,0.5 a 34.87,34.87 0 0 0 7.1,7.8 l 0.4,0.4 v -0.7 a 51.43,51.43 0 0 1 -0.5,-6.6 z"
     id="path127" />
  <path
     class="cls-2"
     d="M 23,1.8 A 33.78,33.78 0 0 0 15.6,5.4 47,47 0 0 1 20.7,6.6 52.38,52.38 0 0 1 23,1.8 Z"
     id="path129" />
  <path
     class="cls-2"
     d="m 33.9,0 c -1.3,0 -2.6,0.1 -3.8,0.2 a 39.81,39.81 0 0 1 5.1,4.1 l 1.3,1.2 -1.3,1.3 A 34.65,34.65 0 0 0 32,10.2 v 0.1 a 6.12,6.12 0 0 0 -0.5,0.6 19.27,19.27 0 0 1 2.4,-0.1 23,23 0 0 1 0,46 22.39,22.39 0 0 1 -12,-3.4 45.33,45.33 0 0 1 -5.2,0.3 19.27,19.27 0 0 1 -2.4,-0.1 78.24,78.24 0 0 0 0.7,8.1 33.26,33.26 0 0 0 18.9,5.8 33.75,33.75 0 1 0 0,-67.5 z"
     id="path131" />
  <path
     class="cls-2"
     d="M 29.4,8 C 30.1,7.2 30.8,6.4 31.5,5.7 A 58.59,58.59 0 0 0 26.5,2 41.8,41.8 0 0 0 23.7,7.6 c 1.5,0.6 3,1.2 4.5,1.9 0.6,-0.8 1.1,-1.4 1.2,-1.5 z"
     id="path133" />
  <path
     class="cls-2"
     d="m 6.5,27.3 0.1,0.2 0.2,-0.1 a 50.41,50.41 0 0 1 4.9,-3.1 l 0.2,-0.1 V 24 a 38.39,38.39 0 0 1 -1.1,-5.9 v -0.2 h -0.2 a 43.62,43.62 0 0 0 -7.3,2 L 3.1,20 3.2,20.2 a 30.3,30.3 0 0 0 3.3,7.1 z"
     id="path135" />
  <path
     class="cls-2"
     d="M 6.1,30.5 5.9,30.7 A 47,47 0 0 0 0.8,35.6 L 0.6,35.8 0.8,36 a 58.38,58.38 0 0 0 5.6,4.2 l 0.2,0.1 0.1,-0.2 a 45.3,45.3 0 0 1 3,-4.6 L 9.8,35.3 9.7,35.2 A 52,52 0 0 1 6.2,30.8 Z"
     id="path137" />
  <path
     class="cls-2"
     d="M 19.4,51.8 H 20 l -0.5,-0.4 a 20.73,20.73 0 0 1 -4.6,-5.2 v -0.1 l -0.4,-0.2 v 0.3 a 45.53,45.53 0 0 0 -0.4,5.3 v 0.2 h 0.2 c 0.8,0 1.6,0.1 2.4,0.1 a 12.19,12.19 0 0 0 2.7,0 z"
     id="path139" />
  <path
     class="cls-2"
     d="m 18.3,14.5 a 39.43,39.43 0 0 1 1.4,-4.9 46.94,46.94 0 0 0 -6.5,-1.4 48.47,48.47 0 0 0 -0.1,6.6 44.05,44.05 0 0 1 5.2,-0.3 z"
     id="path141" />
  <path
     class="cls-2"
     d="m 21.5,14.4 a 29.18,29.18 0 0 1 4.7,-2.3 27.49,27.49 0 0 0 -3.6,-1.5 c -0.4,1.2 -0.8,2.5 -1.1,3.8 z"
     id="path143" />
  <path
     class="cls-2"
     d="M 5.8,41.8 5.6,41.7 a 57.36,57.36 0 0 1 -5,-3.6 l -0.5,-0.4 0.1,0.6 a 31.56,31.56 0 0 0 2.7,9.4 l 0.2,0.5 0.2,-0.5 a 55.47,55.47 0 0 1 2.4,-5.6 z"
     id="path145" />
  <path
     class="cls-2"
     d="M 10.1,9.8 A 33.47,33.47 0 0 0 4.9,16.5 C 6.6,16 8.4,15.6 10.2,15.2 10.1,13.4 10.1,11.6 10.1,9.8 Z"
     id="path147" />
  <path
     class="cls-2"
     d="m 11.1,33.5 v -0.6 a 23.54,23.54 0 0 1 1,-6 l 0.2,-0.6 -0.5,0.3 c -1.3,0.8 -2.6,1.6 -3.9,2.5 L 7.7,29.2 8,29.4 c 0.9,1.2 1.8,2.5 2.8,3.6 z"
     id="path149" />
  <path
     class="cls-2"
     d="M 11.4,37 11.3,36.4 11,36.9 C 10.1,38.2 9.2,39.6 8.4,41 l -0.1,0.2 0.2,0.1 c 1.4,0.8 2.9,1.5 4.4,2.2 l 0.5,0.2 -0.2,-0.5 A 23.11,23.11 0 0 1 11.4,37 Z"
     id="path151" />
  <path
     class="cls-2"
     d="M 4.8,28.9 5,28.8 4.9,28.6 A 54.49,54.49 0 0 1 2,23.3 L 1.8,22.8 1.6,23.4 A 33.77,33.77 0 0 0 0,32.9 v 0.6 l 0.4,-0.4 a 24.93,24.93 0 0 1 4.4,-4.2 z"
     id="path153" />
</svg>
